G75*
G70*
%OFA0B0*%
%FSLAX24Y24*%
%IPPOS*%
%LPD*%
%AMOC8*
5,1,8,0,0,1.08239X$1,22.5*
%
%ADD10C,0.0160*%
%ADD11C,0.0000*%
%ADD12OC8,0.0740*%
%ADD13C,0.0555*%
%ADD14C,0.0740*%
%ADD15C,0.0560*%
%ADD16R,0.0394X0.0433*%
%ADD17R,0.0433X0.0394*%
%ADD18R,0.0472X0.0787*%
%ADD19R,0.0551X0.0630*%
%ADD20R,0.0394X0.0551*%
%ADD21OC8,0.0640*%
%ADD22R,0.0315X0.0472*%
%ADD23R,0.0450X0.0300*%
%ADD24C,0.0080*%
%ADD25C,0.0400*%
%ADD26C,0.0100*%
D10*
X000185Y012685D02*
X000200Y013298D01*
X000245Y013910D01*
X000320Y014519D01*
X000425Y015124D01*
X000560Y015722D01*
X000723Y016314D01*
X000916Y016896D01*
X001137Y017469D01*
X001385Y018029D01*
X001661Y018577D01*
X001963Y019111D01*
X002292Y019630D01*
X002645Y020131D01*
X003022Y020615D01*
X003423Y021079D01*
X003846Y021524D01*
X004291Y021947D01*
X004755Y022348D01*
X005239Y022725D01*
X005740Y023078D01*
X006259Y023407D01*
X006793Y023709D01*
X007341Y023985D01*
X007901Y024233D01*
X008474Y024454D01*
X009056Y024647D01*
X009648Y024810D01*
X010246Y024945D01*
X010851Y025050D01*
X011460Y025125D01*
X012072Y025170D01*
X012685Y025185D01*
X013298Y025170D01*
X013910Y025125D01*
X014519Y025050D01*
X015124Y024945D01*
X015722Y024810D01*
X016314Y024647D01*
X016896Y024454D01*
X017469Y024233D01*
X018029Y023985D01*
X018577Y023709D01*
X019111Y023407D01*
X019630Y023078D01*
X020131Y022725D01*
X020615Y022348D01*
X021079Y021947D01*
X021524Y021524D01*
X021947Y021079D01*
X022348Y020615D01*
X022725Y020131D01*
X023078Y019630D01*
X023407Y019111D01*
X023709Y018577D01*
X023985Y018029D01*
X024233Y017469D01*
X024454Y016896D01*
X024647Y016314D01*
X024810Y015722D01*
X024945Y015124D01*
X025050Y014519D01*
X025125Y013910D01*
X025170Y013298D01*
X025185Y012685D01*
X025170Y012072D01*
X025125Y011460D01*
X025050Y010851D01*
X024945Y010246D01*
X024810Y009648D01*
X024647Y009056D01*
X024454Y008474D01*
X024233Y007901D01*
X023985Y007341D01*
X023709Y006793D01*
X023407Y006259D01*
X023078Y005740D01*
X022725Y005239D01*
X022348Y004755D01*
X021947Y004291D01*
X021524Y003846D01*
X021079Y003423D01*
X020615Y003022D01*
X020131Y002645D01*
X019630Y002292D01*
X019111Y001963D01*
X018577Y001661D01*
X018029Y001385D01*
X017469Y001137D01*
X016896Y000916D01*
X016314Y000723D01*
X015722Y000560D01*
X015124Y000425D01*
X014519Y000320D01*
X013910Y000245D01*
X013298Y000200D01*
X012685Y000185D01*
X012072Y000200D01*
X011460Y000245D01*
X010851Y000320D01*
X010246Y000425D01*
X009648Y000560D01*
X009056Y000723D01*
X008474Y000916D01*
X007901Y001137D01*
X007341Y001385D01*
X006793Y001661D01*
X006259Y001963D01*
X005740Y002292D01*
X005239Y002645D01*
X004755Y003022D01*
X004291Y003423D01*
X003846Y003846D01*
X003423Y004291D01*
X003022Y004755D01*
X002645Y005239D01*
X002292Y005740D01*
X001963Y006259D01*
X001661Y006793D01*
X001385Y007341D01*
X001137Y007901D01*
X000916Y008474D01*
X000723Y009056D01*
X000560Y009648D01*
X000425Y010246D01*
X000320Y010851D01*
X000245Y011460D01*
X000200Y012072D01*
X000185Y012685D01*
D11*
X016185Y006885D02*
X016187Y006929D01*
X016193Y006973D01*
X016203Y007016D01*
X016216Y007058D01*
X016233Y007099D01*
X016254Y007138D01*
X016278Y007175D01*
X016305Y007210D01*
X016335Y007242D01*
X016368Y007272D01*
X016404Y007298D01*
X016441Y007322D01*
X016481Y007341D01*
X016522Y007358D01*
X016565Y007370D01*
X016608Y007379D01*
X016652Y007384D01*
X016696Y007385D01*
X016740Y007382D01*
X016784Y007375D01*
X016827Y007364D01*
X016869Y007350D01*
X016909Y007332D01*
X016948Y007310D01*
X016984Y007286D01*
X017018Y007258D01*
X017050Y007227D01*
X017079Y007193D01*
X017105Y007157D01*
X017127Y007119D01*
X017146Y007079D01*
X017161Y007037D01*
X017173Y006995D01*
X017181Y006951D01*
X017185Y006907D01*
X017185Y006863D01*
X017181Y006819D01*
X017173Y006775D01*
X017161Y006733D01*
X017146Y006691D01*
X017127Y006651D01*
X017105Y006613D01*
X017079Y006577D01*
X017050Y006543D01*
X017018Y006512D01*
X016984Y006484D01*
X016948Y006460D01*
X016909Y006438D01*
X016869Y006420D01*
X016827Y006406D01*
X016784Y006395D01*
X016740Y006388D01*
X016696Y006385D01*
X016652Y006386D01*
X016608Y006391D01*
X016565Y006400D01*
X016522Y006412D01*
X016481Y006429D01*
X016441Y006448D01*
X016404Y006472D01*
X016368Y006498D01*
X016335Y006528D01*
X016305Y006560D01*
X016278Y006595D01*
X016254Y006632D01*
X016233Y006671D01*
X016216Y006712D01*
X016203Y006754D01*
X016193Y006797D01*
X016187Y006841D01*
X016185Y006885D01*
X017685Y006885D02*
X017687Y006929D01*
X017693Y006973D01*
X017703Y007016D01*
X017716Y007058D01*
X017733Y007099D01*
X017754Y007138D01*
X017778Y007175D01*
X017805Y007210D01*
X017835Y007242D01*
X017868Y007272D01*
X017904Y007298D01*
X017941Y007322D01*
X017981Y007341D01*
X018022Y007358D01*
X018065Y007370D01*
X018108Y007379D01*
X018152Y007384D01*
X018196Y007385D01*
X018240Y007382D01*
X018284Y007375D01*
X018327Y007364D01*
X018369Y007350D01*
X018409Y007332D01*
X018448Y007310D01*
X018484Y007286D01*
X018518Y007258D01*
X018550Y007227D01*
X018579Y007193D01*
X018605Y007157D01*
X018627Y007119D01*
X018646Y007079D01*
X018661Y007037D01*
X018673Y006995D01*
X018681Y006951D01*
X018685Y006907D01*
X018685Y006863D01*
X018681Y006819D01*
X018673Y006775D01*
X018661Y006733D01*
X018646Y006691D01*
X018627Y006651D01*
X018605Y006613D01*
X018579Y006577D01*
X018550Y006543D01*
X018518Y006512D01*
X018484Y006484D01*
X018448Y006460D01*
X018409Y006438D01*
X018369Y006420D01*
X018327Y006406D01*
X018284Y006395D01*
X018240Y006388D01*
X018196Y006385D01*
X018152Y006386D01*
X018108Y006391D01*
X018065Y006400D01*
X018022Y006412D01*
X017981Y006429D01*
X017941Y006448D01*
X017904Y006472D01*
X017868Y006498D01*
X017835Y006528D01*
X017805Y006560D01*
X017778Y006595D01*
X017754Y006632D01*
X017733Y006671D01*
X017716Y006712D01*
X017703Y006754D01*
X017693Y006797D01*
X017687Y006841D01*
X017685Y006885D01*
X017685Y005485D02*
X017687Y005529D01*
X017693Y005573D01*
X017703Y005616D01*
X017716Y005658D01*
X017733Y005699D01*
X017754Y005738D01*
X017778Y005775D01*
X017805Y005810D01*
X017835Y005842D01*
X017868Y005872D01*
X017904Y005898D01*
X017941Y005922D01*
X017981Y005941D01*
X018022Y005958D01*
X018065Y005970D01*
X018108Y005979D01*
X018152Y005984D01*
X018196Y005985D01*
X018240Y005982D01*
X018284Y005975D01*
X018327Y005964D01*
X018369Y005950D01*
X018409Y005932D01*
X018448Y005910D01*
X018484Y005886D01*
X018518Y005858D01*
X018550Y005827D01*
X018579Y005793D01*
X018605Y005757D01*
X018627Y005719D01*
X018646Y005679D01*
X018661Y005637D01*
X018673Y005595D01*
X018681Y005551D01*
X018685Y005507D01*
X018685Y005463D01*
X018681Y005419D01*
X018673Y005375D01*
X018661Y005333D01*
X018646Y005291D01*
X018627Y005251D01*
X018605Y005213D01*
X018579Y005177D01*
X018550Y005143D01*
X018518Y005112D01*
X018484Y005084D01*
X018448Y005060D01*
X018409Y005038D01*
X018369Y005020D01*
X018327Y005006D01*
X018284Y004995D01*
X018240Y004988D01*
X018196Y004985D01*
X018152Y004986D01*
X018108Y004991D01*
X018065Y005000D01*
X018022Y005012D01*
X017981Y005029D01*
X017941Y005048D01*
X017904Y005072D01*
X017868Y005098D01*
X017835Y005128D01*
X017805Y005160D01*
X017778Y005195D01*
X017754Y005232D01*
X017733Y005271D01*
X017716Y005312D01*
X017703Y005354D01*
X017693Y005397D01*
X017687Y005441D01*
X017685Y005485D01*
X016185Y005485D02*
X016187Y005529D01*
X016193Y005573D01*
X016203Y005616D01*
X016216Y005658D01*
X016233Y005699D01*
X016254Y005738D01*
X016278Y005775D01*
X016305Y005810D01*
X016335Y005842D01*
X016368Y005872D01*
X016404Y005898D01*
X016441Y005922D01*
X016481Y005941D01*
X016522Y005958D01*
X016565Y005970D01*
X016608Y005979D01*
X016652Y005984D01*
X016696Y005985D01*
X016740Y005982D01*
X016784Y005975D01*
X016827Y005964D01*
X016869Y005950D01*
X016909Y005932D01*
X016948Y005910D01*
X016984Y005886D01*
X017018Y005858D01*
X017050Y005827D01*
X017079Y005793D01*
X017105Y005757D01*
X017127Y005719D01*
X017146Y005679D01*
X017161Y005637D01*
X017173Y005595D01*
X017181Y005551D01*
X017185Y005507D01*
X017185Y005463D01*
X017181Y005419D01*
X017173Y005375D01*
X017161Y005333D01*
X017146Y005291D01*
X017127Y005251D01*
X017105Y005213D01*
X017079Y005177D01*
X017050Y005143D01*
X017018Y005112D01*
X016984Y005084D01*
X016948Y005060D01*
X016909Y005038D01*
X016869Y005020D01*
X016827Y005006D01*
X016784Y004995D01*
X016740Y004988D01*
X016696Y004985D01*
X016652Y004986D01*
X016608Y004991D01*
X016565Y005000D01*
X016522Y005012D01*
X016481Y005029D01*
X016441Y005048D01*
X016404Y005072D01*
X016368Y005098D01*
X016335Y005128D01*
X016305Y005160D01*
X016278Y005195D01*
X016254Y005232D01*
X016233Y005271D01*
X016216Y005312D01*
X016203Y005354D01*
X016193Y005397D01*
X016187Y005441D01*
X016185Y005485D01*
D12*
X010185Y018685D03*
X009185Y018685D03*
X008185Y018685D03*
X008185Y019685D03*
X009185Y019685D03*
X010185Y019685D03*
D13*
X011685Y020185D03*
X013685Y020185D03*
X015335Y021435D03*
X013785Y022435D03*
X015335Y023435D03*
X013785Y024435D03*
X011785Y024435D03*
X010085Y023635D03*
X008085Y023635D03*
X011785Y022435D03*
X010085Y021635D03*
X008085Y021635D03*
X006335Y021135D03*
X004335Y021135D03*
X004335Y019135D03*
X006335Y019135D03*
X003985Y017635D03*
X001985Y017635D03*
X001985Y015635D03*
X003985Y015635D03*
X002985Y014185D03*
X000985Y014185D03*
X000985Y012185D03*
X002985Y012185D03*
X003635Y010635D03*
X001635Y010635D03*
X001635Y008635D03*
X003635Y008635D03*
X003735Y007185D03*
X005735Y007185D03*
X005735Y005185D03*
X007385Y004235D03*
X009385Y004235D03*
X011685Y005185D03*
X013685Y005185D03*
X015685Y004085D03*
X017685Y004085D03*
X019685Y005185D03*
X021685Y005185D03*
X021685Y007185D03*
X019685Y007185D03*
X021685Y008635D03*
X023685Y008635D03*
X023685Y010635D03*
X021685Y010635D03*
X022385Y012135D03*
X024385Y012135D03*
X024385Y014135D03*
X022385Y014135D03*
X023285Y015685D03*
X021285Y015685D03*
X021285Y017685D03*
X023285Y017685D03*
X020735Y019135D03*
X018735Y019135D03*
X018735Y021135D03*
X017335Y021435D03*
X020735Y021135D03*
X017335Y023435D03*
X013685Y018185D03*
X011685Y018185D03*
X011685Y007185D03*
X013685Y007185D03*
X013635Y002935D03*
X011635Y002935D03*
X009385Y002235D03*
X007385Y002235D03*
X011635Y000935D03*
X013635Y000935D03*
X015685Y002085D03*
X017685Y002085D03*
X003735Y005185D03*
D14*
X005085Y003935D03*
X006085Y003935D03*
X015185Y005685D03*
X015185Y006685D03*
X013185Y009685D03*
X012185Y009685D03*
X012185Y012685D03*
X013185Y012685D03*
X013185Y015685D03*
X012185Y015685D03*
D15*
X005335Y013935D03*
X005335Y012035D03*
D16*
X003885Y012270D03*
X003885Y011601D03*
X003885Y013651D03*
X003885Y014320D03*
D17*
X009401Y010485D03*
X010070Y010485D03*
D18*
X005815Y009685D03*
X004555Y009685D03*
D19*
X005234Y017235D03*
X006337Y017235D03*
D20*
X015311Y018118D03*
X016059Y018118D03*
X015685Y017252D03*
X015311Y013618D03*
X016059Y013618D03*
X015685Y012752D03*
X015311Y009618D03*
X016059Y009618D03*
X015685Y008752D03*
X009059Y008752D03*
X008311Y008752D03*
X008685Y009618D03*
D21*
X018185Y009185D03*
X020185Y009185D03*
X020535Y012885D03*
X018535Y012885D03*
X017835Y016585D03*
X019835Y016585D03*
D22*
X016040Y015685D03*
X015331Y015685D03*
X015331Y014685D03*
X016040Y014685D03*
X014040Y014185D03*
X013331Y014185D03*
X015331Y011685D03*
X016040Y011685D03*
X016040Y010685D03*
X015331Y010685D03*
X014040Y011185D03*
X013331Y011185D03*
X013331Y008185D03*
X014040Y008185D03*
X009040Y007185D03*
X008331Y007185D03*
X008331Y005685D03*
X009040Y005685D03*
X007540Y005185D03*
X006831Y005185D03*
X006040Y015685D03*
X005331Y015685D03*
X015331Y019185D03*
X016040Y019185D03*
X016040Y020185D03*
X015331Y020185D03*
D23*
X010915Y015685D03*
X010915Y015185D03*
X010915Y014685D03*
X010915Y014185D03*
X010915Y013685D03*
X010915Y013185D03*
X010915Y012685D03*
X010915Y012185D03*
X010915Y011685D03*
X010905Y011185D03*
X007165Y011185D03*
X007165Y011685D03*
X007165Y012185D03*
X007165Y012685D03*
X007165Y013185D03*
X007165Y013685D03*
X007165Y014185D03*
X007165Y014685D03*
X007165Y015185D03*
X007165Y015685D03*
D24*
X007185Y015685D01*
X007185Y018285D01*
X006985Y018685D02*
X007985Y018685D01*
X008185Y018685D01*
X007985Y018685D02*
X007985Y011185D01*
X007165Y011185D01*
X007985Y011185D02*
X008685Y011185D01*
X009385Y010485D01*
X009401Y010485D01*
X009385Y010485D02*
X009385Y009085D01*
X009085Y008785D01*
X009059Y008752D01*
X009085Y008685D01*
X009085Y007685D01*
X012885Y007685D01*
X012985Y007585D01*
X015285Y007585D01*
X015285Y009585D01*
X015311Y009618D01*
X015385Y009685D01*
X015385Y010685D01*
X015331Y010685D01*
X015285Y010685D01*
X014785Y011185D01*
X014785Y012385D01*
X015285Y012885D01*
X015285Y013585D01*
X015311Y013618D01*
X015385Y013685D01*
X015385Y014685D01*
X015331Y014685D01*
X015285Y014685D01*
X014985Y014985D01*
X014985Y015985D01*
X015285Y016285D01*
X015285Y018085D01*
X015311Y018118D01*
X015385Y018185D01*
X015385Y019185D01*
X015331Y019185D01*
X016040Y019185D02*
X016085Y019185D01*
X016085Y018185D01*
X016059Y018118D01*
X015685Y017252D02*
X015685Y017185D01*
X017185Y017185D01*
X017785Y016585D01*
X017835Y016585D01*
X016085Y015685D02*
X016040Y015685D01*
X016085Y015685D02*
X016085Y014685D01*
X016040Y014685D01*
X016085Y014685D02*
X016085Y013685D01*
X016059Y013618D01*
X015685Y012785D02*
X015685Y012752D01*
X015685Y012785D02*
X018385Y012785D01*
X018485Y012885D01*
X018535Y012885D01*
X020535Y012885D02*
X020585Y012885D01*
X021685Y013985D01*
X021685Y010635D01*
X022385Y009385D02*
X022385Y012135D01*
X023285Y013285D02*
X024385Y012185D01*
X024385Y012135D01*
X024385Y009385D01*
X023685Y008685D01*
X023685Y008635D01*
X023685Y008585D01*
X021685Y006585D01*
X021685Y006085D01*
X017685Y002085D01*
X017485Y002085D01*
X016385Y000985D01*
X013685Y000985D01*
X013635Y000935D01*
X013085Y000985D02*
X014185Y002085D01*
X015685Y002085D01*
X016585Y002085D01*
X019685Y005185D01*
X019685Y006485D01*
X020185Y006985D01*
X020185Y008685D01*
X021685Y008685D01*
X021685Y008635D01*
X021685Y008685D02*
X022385Y009385D01*
X023685Y009985D02*
X023685Y010635D01*
X023685Y009985D02*
X021685Y007985D01*
X021685Y007185D01*
X021685Y006085D02*
X021685Y005185D01*
X017685Y004085D02*
X016785Y004085D01*
X015185Y005685D01*
X013685Y007185D01*
X013085Y007785D02*
X014285Y007785D01*
X014585Y008085D01*
X014585Y019485D01*
X015285Y020185D01*
X015331Y020185D01*
X016040Y020185D02*
X016085Y020185D01*
X016085Y019185D01*
X017685Y019185D02*
X015385Y021485D01*
X015335Y021435D01*
X015285Y021385D01*
X015285Y021185D01*
X012285Y018185D01*
X011685Y018185D01*
X011685Y017585D02*
X011685Y015385D01*
X010985Y014685D01*
X010915Y014685D01*
X010915Y014185D02*
X010385Y014185D01*
X010915Y013685D02*
X011785Y013685D01*
X010915Y013185D02*
X010385Y013185D01*
X010915Y012685D02*
X010985Y012685D01*
X011685Y011985D01*
X011685Y009185D01*
X013085Y007785D01*
X013285Y008185D02*
X013331Y008185D01*
X013285Y008185D02*
X013285Y009585D01*
X013185Y009685D01*
X012185Y009685D02*
X012185Y012685D01*
X012185Y015685D01*
X011285Y015485D02*
X010985Y015185D01*
X010915Y015185D01*
X011285Y015485D02*
X011285Y016885D01*
X009685Y018485D01*
X009685Y019185D01*
X009185Y019685D01*
X010185Y018685D02*
X012185Y018685D01*
X013685Y020185D01*
X013685Y021885D01*
X011885Y023685D01*
X010085Y023685D01*
X010085Y023635D01*
X010185Y024385D02*
X009085Y023285D01*
X011685Y020685D01*
X011685Y020185D01*
X010085Y021585D02*
X008785Y021585D01*
X006335Y019135D01*
X003985Y016785D01*
X003985Y015635D01*
X004085Y015185D02*
X004185Y015185D01*
X004885Y015885D01*
X004885Y016885D01*
X005185Y017185D01*
X005234Y017235D01*
X005285Y017285D01*
X005585Y017285D01*
X006985Y018685D01*
X005685Y019185D02*
X008085Y021585D01*
X008085Y021635D01*
X010085Y021585D02*
X010085Y021635D01*
X009085Y023285D02*
X008785Y023585D01*
X008085Y023585D01*
X008085Y023635D01*
X008085Y023585D02*
X005685Y021185D01*
X004385Y021185D01*
X004335Y021135D01*
X004385Y021085D01*
X001985Y018685D01*
X001985Y017635D01*
X001985Y017385D01*
X000985Y016385D01*
X000985Y014185D01*
X001985Y013185D02*
X001985Y015635D01*
X001985Y016785D01*
X004335Y019135D01*
X004385Y019185D01*
X005685Y019185D01*
X003985Y017635D02*
X003985Y017585D01*
X002985Y016585D01*
X002985Y014185D01*
X003485Y014085D02*
X003485Y014585D01*
X004085Y015185D01*
X003885Y014320D02*
X003885Y014285D01*
X004985Y014285D01*
X005085Y014185D01*
X007165Y014185D01*
X007165Y013685D02*
X007085Y013685D01*
X005385Y011985D01*
X005335Y012035D01*
X004985Y011685D01*
X003885Y011685D01*
X003885Y011601D01*
X003885Y012270D02*
X003885Y013651D01*
X003885Y013685D01*
X003485Y014085D01*
X005085Y014185D02*
X005335Y013935D01*
X006785Y012385D02*
X007085Y012685D01*
X006785Y012385D02*
X006785Y010285D01*
X007485Y010285D01*
X006785Y010285D02*
X006785Y005185D01*
X006831Y005185D01*
X006785Y005185D02*
X006085Y004485D01*
X006085Y003935D01*
X007385Y004185D02*
X007385Y004235D01*
X007385Y004185D02*
X008585Y002985D01*
X010785Y002985D01*
X013785Y005985D01*
X012585Y007185D01*
X011685Y007185D01*
X011285Y008085D02*
X011285Y011885D01*
X010985Y012185D01*
X010915Y012185D01*
X010915Y011685D02*
X010385Y011685D01*
X009985Y011885D02*
X008585Y011885D01*
X009985Y011885D02*
X009985Y010485D01*
X010070Y010485D01*
X008685Y009685D02*
X008685Y009618D01*
X008685Y009685D02*
X008185Y009685D01*
X008311Y008752D02*
X008385Y008685D01*
X008385Y007185D01*
X008331Y007185D01*
X008385Y007185D02*
X008385Y005685D01*
X008331Y005685D01*
X008485Y005185D02*
X007540Y005185D01*
X008485Y005185D02*
X009385Y004285D01*
X009385Y004235D01*
X010785Y002985D02*
X011585Y002985D01*
X011635Y002935D01*
X011685Y000985D02*
X011635Y000935D01*
X011685Y000985D02*
X013085Y000985D01*
X015685Y004085D02*
X013785Y005985D01*
X015185Y006685D02*
X015285Y006785D01*
X015285Y007585D01*
X014085Y008185D02*
X014040Y008185D01*
X014085Y008185D02*
X014085Y010785D01*
X012585Y010785D01*
X013285Y011185D02*
X013331Y011185D01*
X013285Y011185D02*
X013285Y012585D01*
X013185Y012685D01*
X013285Y014185D02*
X013331Y014185D01*
X013285Y014185D02*
X013285Y015585D01*
X013185Y015685D01*
X010915Y015685D02*
X010785Y015685D01*
X009985Y014885D01*
X009985Y011885D01*
X014040Y011185D02*
X014085Y011185D01*
X014085Y014185D01*
X014040Y014185D01*
X015585Y015185D02*
X015585Y015485D01*
X015385Y015685D01*
X015331Y015685D01*
X015185Y012285D02*
X015185Y011785D01*
X015285Y011685D01*
X015331Y011685D01*
X016040Y011685D02*
X016085Y011685D01*
X016085Y010685D01*
X016040Y010685D01*
X016085Y010685D02*
X016085Y009685D01*
X016059Y009618D01*
X015685Y008785D02*
X015685Y008752D01*
X015685Y008785D02*
X017785Y008785D01*
X018185Y009185D01*
X020185Y009185D02*
X020185Y008685D01*
X014085Y010785D02*
X014085Y011185D01*
X009085Y007685D02*
X009085Y007185D01*
X009040Y007185D01*
X009385Y006185D02*
X009385Y005985D01*
X009085Y005685D01*
X009040Y005685D01*
X005735Y005185D02*
X005685Y005185D01*
X005685Y006585D01*
X003635Y008635D01*
X002985Y009285D01*
X002985Y012185D01*
X001985Y013185D02*
X000985Y012185D01*
X000985Y009285D01*
X001635Y008635D01*
X003685Y006585D01*
X003685Y005185D01*
X003735Y005185D01*
X003735Y007185D02*
X003685Y007185D01*
X001685Y009185D01*
X001685Y010585D01*
X001635Y010635D01*
X003585Y010585D02*
X003635Y010635D01*
X003585Y010585D02*
X004485Y009685D01*
X004555Y009685D01*
X004585Y009685D01*
X005685Y008585D01*
X005685Y007185D01*
X005735Y007185D01*
X005815Y009685D02*
X006385Y009685D01*
X006040Y015685D02*
X007165Y015685D01*
X006285Y017185D02*
X005385Y016285D01*
X005285Y016285D01*
X005385Y016285D02*
X005385Y015685D01*
X005331Y015685D01*
X006285Y017185D02*
X006337Y017235D01*
X017685Y019185D02*
X018085Y019185D01*
X021285Y015985D01*
X021285Y015685D01*
X021785Y015785D02*
X021785Y014085D01*
X021685Y013985D01*
X021785Y014085D02*
X022385Y014085D01*
X022385Y014135D01*
X023285Y013285D02*
X023285Y015685D01*
X024385Y016385D02*
X024385Y014135D01*
X021785Y015785D02*
X021285Y016285D01*
X021285Y017685D01*
X018785Y020185D01*
X018785Y021085D01*
X018735Y021135D01*
X018685Y021185D01*
X018185Y021185D01*
X015985Y023385D01*
X015385Y023385D01*
X015335Y023435D01*
X013785Y024385D02*
X013785Y024435D01*
X013785Y024385D02*
X013085Y023685D01*
X011885Y023685D01*
X011785Y024385D02*
X011785Y024435D01*
X011785Y024385D02*
X010185Y024385D01*
X017335Y023435D02*
X017385Y023385D01*
X018485Y023385D01*
X020735Y021135D01*
X023285Y018585D01*
X023285Y017685D01*
X023285Y017485D01*
X024385Y016385D01*
X018735Y019135D02*
X018685Y019185D01*
X018085Y019185D01*
D25*
X011685Y017585D03*
X007185Y018285D03*
X005285Y016285D03*
X010385Y014185D03*
X011785Y013685D03*
X010385Y013185D03*
X010385Y011685D03*
X008585Y011885D03*
X007485Y010285D03*
X008185Y009685D03*
X006385Y009685D03*
X011285Y008085D03*
X009385Y006185D03*
X012585Y010785D03*
X015185Y012285D03*
X015585Y015185D03*
D26*
X005430Y002815D02*
X004389Y003673D01*
X003448Y004640D01*
X002619Y005705D01*
X001912Y006855D01*
X001336Y008076D01*
X001898Y008076D01*
X001996Y007978D02*
X001382Y007978D01*
X001336Y008076D02*
X001042Y008932D01*
X001206Y008768D01*
X001188Y008724D01*
X001188Y008546D01*
X001256Y008382D01*
X001382Y008256D01*
X001546Y008188D01*
X001724Y008188D01*
X001768Y008206D01*
X003475Y006498D01*
X003475Y005558D01*
X003356Y005439D01*
X003288Y005274D01*
X003288Y005096D01*
X003356Y004932D01*
X003482Y004806D01*
X003646Y004738D01*
X003824Y004738D01*
X003989Y004806D01*
X004115Y004932D01*
X004183Y005096D01*
X004183Y005274D01*
X004115Y005439D01*
X003989Y005565D01*
X003895Y005603D01*
X003895Y006498D01*
X003895Y006672D01*
X003828Y006739D01*
X003989Y006806D01*
X004115Y006932D01*
X004183Y007096D01*
X004183Y007274D01*
X004115Y007439D01*
X003989Y007565D01*
X003824Y007633D01*
X003646Y007633D01*
X003567Y007600D01*
X001895Y009272D01*
X001895Y010262D01*
X002015Y010382D01*
X002083Y010546D01*
X002083Y010724D01*
X002015Y010889D01*
X001889Y011015D01*
X001724Y011083D01*
X001546Y011083D01*
X001382Y011015D01*
X001256Y010889D01*
X001195Y010742D01*
X001195Y011788D01*
X001239Y011806D01*
X001365Y011932D01*
X001433Y012096D01*
X001433Y012274D01*
X001415Y012318D01*
X002072Y012975D01*
X002195Y013098D01*
X002195Y015238D01*
X002239Y015256D01*
X002365Y015382D01*
X002433Y015546D01*
X002433Y015724D01*
X002365Y015889D01*
X002239Y016015D01*
X002195Y016033D01*
X002195Y016698D01*
X004203Y018706D01*
X004246Y018688D01*
X004424Y018688D01*
X004589Y018756D01*
X004715Y018882D01*
X004753Y018975D01*
X005598Y018975D01*
X005772Y018975D01*
X005888Y019091D01*
X005888Y019046D01*
X005906Y019003D01*
X004384Y017481D01*
X004413Y017550D01*
X004413Y017607D01*
X004014Y017607D01*
X004014Y017664D01*
X003957Y017664D01*
X003957Y018063D01*
X003900Y018063D01*
X003743Y017998D01*
X003623Y017877D01*
X003558Y017720D01*
X003558Y017664D01*
X003956Y017664D01*
X003956Y017607D01*
X003558Y017607D01*
X003558Y017550D01*
X003623Y017393D01*
X003743Y017273D01*
X003900Y017208D01*
X003957Y017208D01*
X003957Y017606D01*
X004014Y017606D01*
X004014Y017208D01*
X004070Y017208D01*
X004140Y017237D01*
X003898Y016995D01*
X003775Y016872D01*
X003775Y016033D01*
X003732Y016015D01*
X003606Y015889D01*
X003538Y015724D01*
X003538Y015546D01*
X003606Y015382D01*
X003732Y015256D01*
X003822Y015219D01*
X003275Y014672D01*
X003275Y014500D01*
X003227Y014548D01*
X003070Y014613D01*
X003014Y014613D01*
X003014Y014214D01*
X002957Y014214D01*
X002957Y014613D01*
X002900Y014613D01*
X002743Y014548D01*
X002623Y014427D01*
X002558Y014270D01*
X002558Y014214D01*
X002956Y014214D01*
X002956Y014157D01*
X002558Y014157D01*
X002558Y014100D01*
X002623Y013943D01*
X002743Y013823D01*
X002900Y013758D01*
X002957Y013758D01*
X002957Y014156D01*
X003014Y014156D01*
X003014Y013758D01*
X003070Y013758D01*
X003227Y013823D01*
X003339Y013935D01*
X003398Y013875D01*
X003519Y013755D01*
X003519Y013364D01*
X003618Y013264D01*
X003675Y013264D01*
X003675Y012656D01*
X003618Y012656D01*
X003519Y012557D01*
X003519Y011983D01*
X003566Y011935D01*
X003519Y011888D01*
X003519Y011314D01*
X003618Y011214D01*
X004153Y011214D01*
X004252Y011314D01*
X004252Y011475D01*
X004898Y011475D01*
X005072Y011475D01*
X005201Y011604D01*
X005246Y011585D01*
X005425Y011585D01*
X005590Y011654D01*
X005717Y011780D01*
X005785Y011946D01*
X005785Y012088D01*
X006770Y013073D01*
X006770Y012965D01*
X006800Y012935D01*
X006770Y012906D01*
X006770Y012667D01*
X006698Y012595D01*
X006575Y012472D01*
X006575Y010372D01*
X006575Y010198D01*
X006575Y010007D01*
X006459Y010055D01*
X006312Y010055D01*
X006221Y010018D01*
X006221Y010149D01*
X006122Y010249D01*
X005509Y010249D01*
X005409Y010149D01*
X005409Y009221D01*
X005509Y009122D01*
X006122Y009122D01*
X006221Y009221D01*
X006221Y009353D01*
X006312Y009315D01*
X006459Y009315D01*
X006575Y009364D01*
X006575Y005564D01*
X006504Y005492D01*
X006504Y005201D01*
X005998Y004695D01*
X005875Y004572D01*
X005875Y004433D01*
X005779Y004393D01*
X005628Y004241D01*
X005585Y004139D01*
X005543Y004241D01*
X005391Y004393D01*
X005193Y004475D01*
X004978Y004475D01*
X004779Y004393D01*
X004628Y004241D01*
X004545Y004043D01*
X004545Y003828D01*
X004628Y003629D01*
X004779Y003478D01*
X004978Y003395D01*
X005193Y003395D01*
X005391Y003478D01*
X005543Y003629D01*
X005585Y003731D01*
X005628Y003629D01*
X005779Y003478D01*
X005978Y003395D01*
X006193Y003395D01*
X006391Y003478D01*
X006543Y003629D01*
X006625Y003828D01*
X006625Y004043D01*
X006543Y004241D01*
X006391Y004393D01*
X006320Y004423D01*
X006676Y004779D01*
X007059Y004779D01*
X007158Y004879D01*
X007158Y005492D01*
X007059Y005592D01*
X006995Y005592D01*
X006995Y010075D01*
X007172Y010075D01*
X007276Y009972D01*
X007412Y009915D01*
X007559Y009915D01*
X007695Y009972D01*
X007799Y010076D01*
X007855Y010212D01*
X007855Y010359D01*
X007799Y010495D01*
X007695Y010599D01*
X007559Y010655D01*
X007412Y010655D01*
X007276Y010599D01*
X007172Y010495D01*
X006995Y010495D01*
X006995Y010865D01*
X007461Y010865D01*
X007560Y010965D01*
X007560Y010975D01*
X007898Y010975D01*
X008072Y010975D01*
X008598Y010975D01*
X009014Y010560D01*
X009014Y010218D01*
X009114Y010119D01*
X009175Y010119D01*
X009175Y009198D01*
X008978Y009198D01*
X009052Y009272D01*
X009052Y009964D01*
X008953Y010064D01*
X008418Y010064D01*
X008365Y010011D01*
X008259Y010055D01*
X008112Y010055D01*
X007976Y009999D01*
X007872Y009895D01*
X007815Y009759D01*
X007815Y009612D01*
X007872Y009476D01*
X007976Y009372D01*
X008112Y009315D01*
X008259Y009315D01*
X008319Y009340D01*
X008319Y009272D01*
X008393Y009198D01*
X008044Y009198D01*
X007944Y009098D01*
X007944Y008406D01*
X008044Y008307D01*
X008175Y008307D01*
X008175Y007592D01*
X008103Y007592D01*
X008004Y007492D01*
X008004Y006879D01*
X008103Y006779D01*
X008175Y006779D01*
X008175Y006092D01*
X008103Y006092D01*
X008004Y005992D01*
X008004Y005379D01*
X008103Y005279D01*
X008559Y005279D01*
X008658Y005379D01*
X008658Y005992D01*
X008595Y006055D01*
X008595Y006816D01*
X008658Y006879D01*
X008658Y007492D01*
X008595Y007555D01*
X008595Y008323D01*
X008678Y008406D01*
X008678Y009098D01*
X008604Y009173D01*
X008767Y009173D01*
X008693Y009098D01*
X008693Y008406D01*
X008792Y008307D01*
X008875Y008307D01*
X008875Y007772D01*
X008875Y007598D01*
X008875Y007592D01*
X008812Y007592D01*
X008712Y007492D01*
X008712Y006879D01*
X008812Y006779D01*
X009268Y006779D01*
X009367Y006879D01*
X009367Y007475D01*
X011343Y007475D01*
X011306Y007439D01*
X011238Y007274D01*
X011238Y007096D01*
X011306Y006932D01*
X011432Y006806D01*
X011596Y006738D01*
X011774Y006738D01*
X011939Y006806D01*
X012065Y006932D01*
X012083Y006975D01*
X012498Y006975D01*
X013488Y005985D01*
X010698Y003195D01*
X008672Y003195D01*
X007800Y004067D01*
X007833Y004146D01*
X007833Y004324D01*
X007765Y004489D01*
X007639Y004615D01*
X007474Y004683D01*
X007296Y004683D01*
X007132Y004615D01*
X007006Y004489D01*
X006938Y004324D01*
X006938Y004146D01*
X007006Y003982D01*
X007132Y003856D01*
X007296Y003788D01*
X007474Y003788D01*
X007482Y003791D01*
X008498Y002775D01*
X008672Y002775D01*
X010698Y002775D01*
X010872Y002775D01*
X011217Y002775D01*
X011256Y002682D01*
X011382Y002556D01*
X011546Y002488D01*
X011724Y002488D01*
X011889Y002556D01*
X012015Y002682D01*
X012083Y002846D01*
X012083Y003024D01*
X012015Y003189D01*
X011889Y003315D01*
X011724Y003383D01*
X011546Y003383D01*
X011433Y003336D01*
X013238Y005141D01*
X013238Y005096D01*
X013306Y004932D01*
X013432Y004806D01*
X013596Y004738D01*
X013774Y004738D01*
X013939Y004806D01*
X014065Y004932D01*
X014133Y005096D01*
X014133Y005274D01*
X014086Y005388D01*
X015256Y004218D01*
X015238Y004174D01*
X015238Y003996D01*
X015306Y003832D01*
X015432Y003706D01*
X015596Y003638D01*
X015774Y003638D01*
X015939Y003706D01*
X016065Y003832D01*
X016133Y003996D01*
X016133Y004174D01*
X016065Y004339D01*
X015939Y004465D01*
X015774Y004533D01*
X015596Y004533D01*
X015553Y004515D01*
X013995Y006072D01*
X013995Y006072D01*
X013872Y006195D01*
X012672Y007395D01*
X012498Y007395D01*
X012083Y007395D01*
X012065Y007439D01*
X012028Y007475D01*
X012798Y007475D01*
X012898Y007375D01*
X013301Y007375D01*
X013258Y007270D01*
X013258Y007214D01*
X013656Y007214D01*
X013656Y007157D01*
X013258Y007157D01*
X013258Y007100D01*
X013323Y006943D01*
X013443Y006823D01*
X013600Y006758D01*
X013657Y006758D01*
X013657Y007156D01*
X013714Y007156D01*
X013714Y006758D01*
X013770Y006758D01*
X013927Y006823D01*
X014048Y006943D01*
X014113Y007100D01*
X014113Y007157D01*
X013714Y007157D01*
X013714Y007214D01*
X014113Y007214D01*
X014113Y007270D01*
X014069Y007375D01*
X015075Y007375D01*
X015075Y007224D01*
X014879Y007143D01*
X014728Y006991D01*
X014645Y006793D01*
X014645Y006578D01*
X014728Y006379D01*
X014879Y006228D01*
X015008Y006175D01*
X014891Y006126D01*
X014745Y005980D01*
X014665Y005789D01*
X014665Y005735D01*
X015135Y005735D01*
X015135Y005635D01*
X015235Y005635D01*
X015235Y005165D01*
X015289Y005165D01*
X015480Y005245D01*
X015626Y005391D01*
X015705Y005582D01*
X015705Y005635D01*
X015236Y005635D01*
X015236Y005735D01*
X015705Y005735D01*
X015705Y005789D01*
X015626Y005980D01*
X015480Y006126D01*
X015363Y006174D01*
X015491Y006228D01*
X015643Y006379D01*
X015725Y006578D01*
X015725Y006793D01*
X015643Y006991D01*
X015495Y007139D01*
X015495Y007498D01*
X015495Y007672D01*
X015495Y008307D01*
X015953Y008307D01*
X016052Y008406D01*
X016052Y008575D01*
X017698Y008575D01*
X017872Y008575D01*
X017992Y008695D01*
X018388Y008695D01*
X018675Y008982D01*
X018675Y009388D01*
X018388Y009675D01*
X017982Y009675D01*
X017695Y009388D01*
X017695Y008995D01*
X016052Y008995D01*
X016052Y009098D01*
X015978Y009173D01*
X016327Y009173D01*
X016426Y009272D01*
X016426Y009964D01*
X016327Y010064D01*
X016295Y010064D01*
X016295Y010307D01*
X016367Y010379D01*
X016367Y010992D01*
X016295Y011064D01*
X016295Y011307D01*
X016367Y011379D01*
X016367Y011992D01*
X016268Y012092D01*
X015812Y012092D01*
X015712Y011992D01*
X015712Y011379D01*
X015812Y011279D01*
X015875Y011279D01*
X015875Y011092D01*
X015812Y011092D01*
X015712Y010992D01*
X015712Y010379D01*
X015812Y010279D01*
X015875Y010279D01*
X015875Y010064D01*
X015792Y010064D01*
X015693Y009964D01*
X015693Y009272D01*
X015767Y009198D01*
X015604Y009198D01*
X015678Y009272D01*
X015678Y009964D01*
X015595Y010047D01*
X015595Y010316D01*
X015658Y010379D01*
X015658Y010992D01*
X015559Y011092D01*
X015176Y011092D01*
X014995Y011272D01*
X014995Y011678D01*
X015004Y011670D01*
X015004Y011379D01*
X015103Y011279D01*
X015559Y011279D01*
X015658Y011379D01*
X015658Y011992D01*
X015559Y012092D01*
X015506Y012092D01*
X015555Y012212D01*
X015555Y012307D01*
X015953Y012307D01*
X016052Y012406D01*
X016052Y012575D01*
X018152Y012575D01*
X018332Y012395D01*
X018738Y012395D01*
X019025Y012682D01*
X019025Y013088D01*
X018738Y013375D01*
X018332Y013375D01*
X018045Y013088D01*
X018045Y012995D01*
X016052Y012995D01*
X016052Y013098D01*
X015978Y013173D01*
X016327Y013173D01*
X016426Y013272D01*
X016426Y013964D01*
X016327Y014064D01*
X016295Y014064D01*
X016295Y014307D01*
X016367Y014379D01*
X016367Y014992D01*
X016295Y015064D01*
X016295Y015307D01*
X016367Y015379D01*
X016367Y015992D01*
X016268Y016092D01*
X015812Y016092D01*
X015712Y015992D01*
X015712Y015655D01*
X015658Y015709D01*
X015658Y015992D01*
X015559Y016092D01*
X015388Y016092D01*
X015495Y016198D01*
X015495Y016372D01*
X015495Y016807D01*
X015953Y016807D01*
X016052Y016906D01*
X016052Y016975D01*
X017098Y016975D01*
X017345Y016728D01*
X017345Y016382D01*
X017632Y016095D01*
X018038Y016095D01*
X018325Y016382D01*
X018325Y016788D01*
X018038Y017075D01*
X017632Y017075D01*
X017612Y017055D01*
X017272Y017395D01*
X017098Y017395D01*
X016052Y017395D01*
X016052Y017598D01*
X015978Y017673D01*
X016327Y017673D01*
X016426Y017772D01*
X016426Y018464D01*
X016327Y018564D01*
X016295Y018564D01*
X016295Y018807D01*
X016367Y018879D01*
X016367Y019492D01*
X016295Y019564D01*
X016295Y019807D01*
X016367Y019879D01*
X016367Y020207D01*
X017598Y018975D01*
X017772Y018975D01*
X017998Y018975D01*
X019898Y017075D01*
X019632Y017075D01*
X019345Y016788D01*
X019345Y016382D01*
X019632Y016095D01*
X020038Y016095D01*
X020325Y016382D01*
X020325Y016648D01*
X020970Y016003D01*
X020906Y015939D01*
X020838Y015774D01*
X020838Y015596D01*
X020906Y015432D01*
X021032Y015306D01*
X021196Y015238D01*
X021374Y015238D01*
X021539Y015306D01*
X021575Y015343D01*
X021575Y014172D01*
X021475Y014072D01*
X020758Y013355D01*
X020738Y013375D01*
X020332Y013375D01*
X020045Y013088D01*
X020045Y012682D01*
X020332Y012395D01*
X020738Y012395D01*
X021025Y012682D01*
X021025Y013028D01*
X021475Y013478D01*
X021475Y011033D01*
X021432Y011015D01*
X021306Y010889D01*
X021238Y010724D01*
X021238Y010546D01*
X021306Y010382D01*
X021432Y010256D01*
X021596Y010188D01*
X021774Y010188D01*
X021939Y010256D01*
X022065Y010382D01*
X022133Y010546D01*
X022133Y010724D01*
X022065Y010889D01*
X021939Y011015D01*
X021895Y011033D01*
X021895Y013875D01*
X022013Y013875D01*
X022132Y013756D01*
X022296Y013688D01*
X022474Y013688D01*
X022639Y013756D01*
X022765Y013882D01*
X022833Y014046D01*
X022833Y014224D01*
X022765Y014389D01*
X022639Y014515D01*
X022474Y014583D01*
X022296Y014583D01*
X022132Y014515D01*
X022006Y014389D01*
X021995Y014363D01*
X021995Y015698D01*
X021995Y015872D01*
X021495Y016372D01*
X021495Y017288D01*
X021539Y017306D01*
X021665Y017432D01*
X021733Y017596D01*
X021733Y017774D01*
X021665Y017939D01*
X021539Y018065D01*
X021374Y018133D01*
X021196Y018133D01*
X021153Y018115D01*
X020533Y018735D01*
X020646Y018688D01*
X020824Y018688D01*
X020989Y018756D01*
X021115Y018882D01*
X021183Y019046D01*
X021183Y019224D01*
X021115Y019389D01*
X020989Y019515D01*
X020824Y019583D01*
X020646Y019583D01*
X020482Y019515D01*
X020356Y019389D01*
X020288Y019224D01*
X020288Y019046D01*
X020335Y018933D01*
X018995Y020272D01*
X018995Y020762D01*
X019115Y020882D01*
X019183Y021046D01*
X019183Y021224D01*
X019115Y021389D01*
X018989Y021515D01*
X018824Y021583D01*
X018646Y021583D01*
X018482Y021515D01*
X018362Y021395D01*
X018272Y021395D01*
X016195Y023472D01*
X016072Y023595D01*
X015753Y023595D01*
X015715Y023689D01*
X015589Y023815D01*
X015424Y023883D01*
X015246Y023883D01*
X015082Y023815D01*
X014956Y023689D01*
X014888Y023524D01*
X014888Y023346D01*
X014956Y023182D01*
X015082Y023056D01*
X015246Y022988D01*
X015424Y022988D01*
X015589Y023056D01*
X015708Y023175D01*
X015898Y023175D01*
X017207Y021867D01*
X017082Y021815D01*
X016956Y021689D01*
X016888Y021524D01*
X016888Y021346D01*
X016956Y021182D01*
X017082Y021056D01*
X017246Y020988D01*
X017424Y020988D01*
X017589Y021056D01*
X017715Y021182D01*
X017767Y021307D01*
X018098Y020975D01*
X018272Y020975D01*
X018317Y020975D01*
X018356Y020882D01*
X018482Y020756D01*
X018575Y020717D01*
X018575Y020272D01*
X018575Y020098D01*
X020856Y017818D01*
X020838Y017774D01*
X020838Y017596D01*
X020906Y017432D01*
X021032Y017306D01*
X021075Y017288D01*
X021075Y016492D01*
X018864Y018704D01*
X018989Y018756D01*
X019115Y018882D01*
X019183Y019046D01*
X019183Y019224D01*
X019115Y019389D01*
X018989Y019515D01*
X018824Y019583D01*
X018646Y019583D01*
X018482Y019515D01*
X018362Y019395D01*
X018172Y019395D01*
X017998Y019395D01*
X017772Y019395D01*
X015783Y021385D01*
X015783Y021524D01*
X015715Y021689D01*
X015589Y021815D01*
X015424Y021883D01*
X015246Y021883D01*
X015082Y021815D01*
X014956Y021689D01*
X014888Y021524D01*
X014888Y021346D01*
X014956Y021182D01*
X014970Y021167D01*
X014101Y020298D01*
X014048Y020427D01*
X013927Y020548D01*
X013770Y020613D01*
X013714Y020613D01*
X013714Y020214D01*
X013657Y020214D01*
X013657Y020613D01*
X013600Y020613D01*
X013443Y020548D01*
X013323Y020427D01*
X013258Y020270D01*
X013258Y020214D01*
X013656Y020214D01*
X013656Y020157D01*
X013258Y020157D01*
X013258Y020100D01*
X013323Y019943D01*
X013443Y019823D01*
X013572Y019769D01*
X012198Y018395D01*
X012083Y018395D01*
X012065Y018439D01*
X011939Y018565D01*
X011774Y018633D01*
X011596Y018633D01*
X011432Y018565D01*
X011306Y018439D01*
X011238Y018274D01*
X011238Y018096D01*
X011306Y017932D01*
X011407Y017831D01*
X011372Y017795D01*
X011315Y017659D01*
X011315Y017512D01*
X011372Y017376D01*
X011475Y017272D01*
X011475Y016992D01*
X010302Y018165D01*
X010401Y018165D01*
X010705Y018470D01*
X010705Y018635D01*
X010236Y018635D01*
X010236Y018735D01*
X010705Y018735D01*
X010705Y018901D01*
X010435Y019171D01*
X010725Y019462D01*
X010725Y019909D01*
X010409Y020225D01*
X009962Y020225D01*
X009685Y019949D01*
X009409Y020225D01*
X008962Y020225D01*
X008685Y019949D01*
X008409Y020225D01*
X007962Y020225D01*
X007645Y019909D01*
X007645Y019462D01*
X007922Y019185D01*
X007645Y018909D01*
X007645Y018895D01*
X006898Y018895D01*
X006775Y018772D01*
X005652Y017649D01*
X005580Y017720D01*
X005217Y017720D01*
X006203Y018706D01*
X006246Y018688D01*
X006424Y018688D01*
X006589Y018756D01*
X006715Y018882D01*
X006783Y019046D01*
X006783Y019224D01*
X006765Y019268D01*
X008872Y021375D01*
X009712Y021375D01*
X009832Y021256D01*
X009996Y021188D01*
X010174Y021188D01*
X010339Y021256D01*
X010465Y021382D01*
X010531Y021543D01*
X011475Y020598D01*
X011475Y020583D01*
X011432Y020565D01*
X011306Y020439D01*
X011238Y020274D01*
X011238Y020096D01*
X011306Y019932D01*
X011432Y019806D01*
X011596Y019738D01*
X011774Y019738D01*
X011939Y019806D01*
X012065Y019932D01*
X012133Y020096D01*
X012133Y020274D01*
X012065Y020439D01*
X011939Y020565D01*
X011895Y020583D01*
X011895Y020598D01*
X011895Y020772D01*
X009382Y023285D01*
X009658Y023561D01*
X009658Y023550D01*
X009723Y023393D01*
X009843Y023273D01*
X010000Y023208D01*
X010057Y023208D01*
X010057Y023606D01*
X010114Y023606D01*
X010114Y023208D01*
X010170Y023208D01*
X010327Y023273D01*
X010448Y023393D01*
X010513Y023550D01*
X010513Y023607D01*
X010114Y023607D01*
X010114Y023664D01*
X010513Y023664D01*
X010513Y023720D01*
X010448Y023877D01*
X010327Y023998D01*
X010170Y024063D01*
X010160Y024063D01*
X010272Y024175D01*
X011412Y024175D01*
X011532Y024056D01*
X011696Y023988D01*
X011874Y023988D01*
X012039Y024056D01*
X012165Y024182D01*
X012233Y024346D01*
X012233Y024524D01*
X012165Y024689D01*
X012039Y024815D01*
X011874Y024883D01*
X011696Y024883D01*
X011532Y024815D01*
X011406Y024689D01*
X011367Y024595D01*
X010272Y024595D01*
X010098Y024595D01*
X009085Y023582D01*
X008995Y023672D01*
X008872Y023795D01*
X008503Y023795D01*
X008465Y023889D01*
X008339Y024015D01*
X008207Y024069D01*
X009029Y024377D01*
X010337Y024708D01*
X011674Y024894D01*
X013023Y024931D01*
X013843Y024863D01*
X013814Y024863D01*
X013814Y024464D01*
X014213Y024464D01*
X014213Y024520D01*
X014148Y024677D01*
X014027Y024798D01*
X013877Y024860D01*
X014368Y024819D01*
X015693Y024561D01*
X016981Y024158D01*
X018217Y023615D01*
X019385Y022941D01*
X020473Y022141D01*
X021466Y021227D01*
X022352Y020209D01*
X023121Y019100D01*
X023764Y017913D01*
X024272Y016663D01*
X024639Y015364D01*
X024861Y014033D01*
X024935Y012685D01*
X024861Y011338D01*
X024639Y010006D01*
X024595Y009852D01*
X024595Y011738D01*
X024639Y011756D01*
X024765Y011882D01*
X024833Y012046D01*
X024833Y012224D01*
X024765Y012389D01*
X024639Y012515D01*
X024474Y012583D01*
X024296Y012583D01*
X024288Y012579D01*
X023495Y013372D01*
X023495Y015288D01*
X023539Y015306D01*
X023665Y015432D01*
X023733Y015596D01*
X023733Y015774D01*
X023665Y015939D01*
X023539Y016065D01*
X023374Y016133D01*
X023196Y016133D01*
X023032Y016065D01*
X022906Y015939D01*
X022838Y015774D01*
X022838Y015596D01*
X022906Y015432D01*
X023032Y015306D01*
X023075Y015288D01*
X023075Y013372D01*
X023075Y013198D01*
X023971Y012303D01*
X023938Y012224D01*
X023938Y012046D01*
X024006Y011882D01*
X024132Y011756D01*
X024175Y011738D01*
X024175Y009472D01*
X023782Y009079D01*
X023774Y009083D01*
X023596Y009083D01*
X023432Y009015D01*
X023306Y008889D01*
X023238Y008724D01*
X023238Y008546D01*
X023271Y008467D01*
X022101Y007298D01*
X022048Y007427D01*
X021927Y007548D01*
X021770Y007613D01*
X021714Y007613D01*
X021714Y007214D01*
X021657Y007214D01*
X021657Y007613D01*
X021600Y007613D01*
X021443Y007548D01*
X021323Y007427D01*
X021258Y007270D01*
X021258Y007214D01*
X021656Y007214D01*
X021656Y007157D01*
X021258Y007157D01*
X021258Y007100D01*
X021323Y006943D01*
X021443Y006823D01*
X021572Y006769D01*
X021475Y006672D01*
X021475Y006498D01*
X021475Y006172D01*
X017818Y002515D01*
X017774Y002533D01*
X017596Y002533D01*
X017432Y002465D01*
X017306Y002339D01*
X017238Y002174D01*
X017238Y002135D01*
X016298Y001195D01*
X014008Y001195D01*
X013889Y001315D01*
X013764Y001367D01*
X014272Y001875D01*
X015288Y001875D01*
X015306Y001832D01*
X015432Y001706D01*
X015596Y001638D01*
X015774Y001638D01*
X015939Y001706D01*
X016065Y001832D01*
X016083Y001875D01*
X016498Y001875D01*
X016672Y001875D01*
X019553Y004756D01*
X019596Y004738D01*
X019774Y004738D01*
X019939Y004806D01*
X020065Y004932D01*
X020133Y005096D01*
X020133Y005274D01*
X020065Y005439D01*
X019939Y005565D01*
X019895Y005583D01*
X019895Y006398D01*
X020272Y006775D01*
X020395Y006898D01*
X020395Y008475D01*
X021267Y008475D01*
X021306Y008382D01*
X021432Y008256D01*
X021596Y008188D01*
X021774Y008188D01*
X021939Y008256D01*
X022065Y008382D01*
X022133Y008546D01*
X022133Y008724D01*
X022100Y008803D01*
X022472Y009175D01*
X022472Y009175D01*
X022595Y009298D01*
X022595Y011738D01*
X022639Y011756D01*
X022765Y011882D01*
X022833Y012046D01*
X022833Y012224D01*
X022765Y012389D01*
X022639Y012515D01*
X022474Y012583D01*
X022296Y012583D01*
X022132Y012515D01*
X022006Y012389D01*
X021938Y012224D01*
X021938Y012046D01*
X022006Y011882D01*
X022132Y011756D01*
X022175Y011738D01*
X022175Y009472D01*
X021782Y009079D01*
X021774Y009083D01*
X021596Y009083D01*
X021432Y009015D01*
X021313Y008895D01*
X020588Y008895D01*
X020675Y008982D01*
X020675Y009388D01*
X020388Y009675D01*
X019982Y009675D01*
X019695Y009388D01*
X019695Y008982D01*
X019975Y008702D01*
X019975Y008598D01*
X019975Y007528D01*
X019939Y007565D01*
X019774Y007633D01*
X019596Y007633D01*
X019432Y007565D01*
X019306Y007439D01*
X019238Y007274D01*
X019238Y007096D01*
X019306Y006932D01*
X019432Y006806D01*
X019596Y006738D01*
X019641Y006738D01*
X019475Y006572D01*
X019475Y006398D01*
X019475Y005583D01*
X019432Y005565D01*
X019306Y005439D01*
X019238Y005274D01*
X019238Y005096D01*
X019256Y005053D01*
X018049Y003846D01*
X018113Y004000D01*
X018113Y004057D01*
X017714Y004057D01*
X017714Y004114D01*
X017657Y004114D01*
X017657Y004513D01*
X017600Y004513D01*
X017443Y004448D01*
X017323Y004327D01*
X017258Y004170D01*
X017258Y004114D01*
X017656Y004114D01*
X017656Y004057D01*
X017258Y004057D01*
X017258Y004000D01*
X017323Y003843D01*
X017443Y003723D01*
X017600Y003658D01*
X017657Y003658D01*
X017657Y004056D01*
X017714Y004056D01*
X017714Y003658D01*
X017770Y003658D01*
X017925Y003722D01*
X016498Y002295D01*
X016083Y002295D01*
X016065Y002339D01*
X015939Y002465D01*
X015774Y002533D01*
X015596Y002533D01*
X015432Y002465D01*
X015306Y002339D01*
X015288Y002295D01*
X014098Y002295D01*
X013975Y002172D01*
X012998Y001195D01*
X012008Y001195D01*
X011889Y001315D01*
X011724Y001383D01*
X011546Y001383D01*
X011382Y001315D01*
X011256Y001189D01*
X011188Y001024D01*
X011188Y000846D01*
X011256Y000682D01*
X011382Y000556D01*
X011521Y000498D01*
X010337Y000663D01*
X009029Y000994D01*
X007765Y001467D01*
X006560Y002076D01*
X005430Y002815D01*
X005384Y002853D02*
X008420Y002853D01*
X008322Y002952D02*
X005264Y002952D01*
X005144Y003050D02*
X008223Y003050D01*
X008125Y003149D02*
X005025Y003149D01*
X004905Y003247D02*
X008026Y003247D01*
X007928Y003346D02*
X004785Y003346D01*
X004859Y003445D02*
X004666Y003445D01*
X004714Y003543D02*
X004546Y003543D01*
X004622Y003642D02*
X004426Y003642D01*
X004323Y003740D02*
X004582Y003740D01*
X004545Y003839D02*
X004227Y003839D01*
X004131Y003937D02*
X004545Y003937D01*
X004545Y004036D02*
X004035Y004036D01*
X003940Y004134D02*
X004583Y004134D01*
X004624Y004233D02*
X003844Y004233D01*
X003748Y004331D02*
X004718Y004331D01*
X004869Y004430D02*
X003652Y004430D01*
X003556Y004529D02*
X005875Y004529D01*
X005869Y004430D02*
X005302Y004430D01*
X005453Y004331D02*
X005718Y004331D01*
X005624Y004233D02*
X005547Y004233D01*
X005646Y004738D02*
X005824Y004738D01*
X005989Y004806D01*
X006115Y004932D01*
X006183Y005096D01*
X006183Y005274D01*
X006115Y005439D01*
X005989Y005565D01*
X005895Y005603D01*
X005895Y006498D01*
X005895Y006672D01*
X005810Y006758D01*
X005820Y006758D01*
X005977Y006823D01*
X006098Y006943D01*
X006163Y007100D01*
X006163Y007157D01*
X005764Y007157D01*
X005764Y007214D01*
X005707Y007214D01*
X005707Y007613D01*
X005650Y007613D01*
X005493Y007548D01*
X005373Y007427D01*
X005308Y007270D01*
X005308Y007260D01*
X004065Y008503D01*
X004083Y008546D01*
X004083Y008724D01*
X004015Y008889D01*
X003889Y009015D01*
X003724Y009083D01*
X003546Y009083D01*
X003503Y009065D01*
X003195Y009372D01*
X003195Y011788D01*
X003239Y011806D01*
X003365Y011932D01*
X003433Y012096D01*
X003433Y012274D01*
X003365Y012439D01*
X003239Y012565D01*
X003074Y012633D01*
X002896Y012633D01*
X002732Y012565D01*
X002606Y012439D01*
X002538Y012274D01*
X002538Y012096D01*
X002606Y011932D01*
X002732Y011806D01*
X002775Y011788D01*
X002775Y009372D01*
X002775Y009198D01*
X003206Y008768D01*
X003188Y008724D01*
X003188Y008546D01*
X003256Y008382D01*
X003382Y008256D01*
X003546Y008188D01*
X003724Y008188D01*
X003768Y008206D01*
X005475Y006498D01*
X005475Y005558D01*
X005356Y005439D01*
X005288Y005274D01*
X005288Y005096D01*
X005356Y004932D01*
X005482Y004806D01*
X005646Y004738D01*
X005464Y004824D02*
X004007Y004824D01*
X004106Y004923D02*
X005365Y004923D01*
X005319Y005021D02*
X004152Y005021D01*
X004183Y005120D02*
X005288Y005120D01*
X005288Y005218D02*
X004183Y005218D01*
X004165Y005317D02*
X005306Y005317D01*
X005346Y005415D02*
X004124Y005415D01*
X004040Y005514D02*
X005431Y005514D01*
X005475Y005613D02*
X003895Y005613D01*
X003895Y005711D02*
X005475Y005711D01*
X005475Y005810D02*
X003895Y005810D01*
X003895Y005908D02*
X005475Y005908D01*
X005475Y006007D02*
X003895Y006007D01*
X003895Y006105D02*
X005475Y006105D01*
X005475Y006204D02*
X003895Y006204D01*
X003895Y006302D02*
X005475Y006302D01*
X005475Y006401D02*
X003895Y006401D01*
X003895Y006499D02*
X005474Y006499D01*
X005376Y006598D02*
X003895Y006598D01*
X003871Y006696D02*
X005277Y006696D01*
X005179Y006795D02*
X003962Y006795D01*
X004076Y006894D02*
X005080Y006894D01*
X004982Y006992D02*
X004140Y006992D01*
X004180Y007091D02*
X004883Y007091D01*
X004784Y007189D02*
X004183Y007189D01*
X004177Y007288D02*
X004686Y007288D01*
X004587Y007386D02*
X004136Y007386D01*
X004069Y007485D02*
X004489Y007485D01*
X004390Y007583D02*
X003944Y007583D01*
X004193Y007780D02*
X003387Y007780D01*
X003486Y007682D02*
X004292Y007682D01*
X004095Y007879D02*
X003289Y007879D01*
X003190Y007978D02*
X003996Y007978D01*
X003898Y008076D02*
X003092Y008076D01*
X002993Y008175D02*
X003799Y008175D01*
X004097Y008470D02*
X006575Y008470D01*
X006575Y008372D02*
X004196Y008372D01*
X004294Y008273D02*
X006575Y008273D01*
X006575Y008175D02*
X004393Y008175D01*
X004491Y008076D02*
X006575Y008076D01*
X006575Y007978D02*
X004590Y007978D01*
X004689Y007879D02*
X006575Y007879D01*
X006575Y007780D02*
X004787Y007780D01*
X004886Y007682D02*
X006575Y007682D01*
X006575Y007583D02*
X005891Y007583D01*
X005820Y007613D02*
X005977Y007548D01*
X006098Y007427D01*
X006163Y007270D01*
X006163Y007214D01*
X005764Y007214D01*
X005764Y007613D01*
X005820Y007613D01*
X005764Y007583D02*
X005707Y007583D01*
X005707Y007485D02*
X005764Y007485D01*
X005764Y007386D02*
X005707Y007386D01*
X005707Y007288D02*
X005764Y007288D01*
X005706Y007214D02*
X005354Y007214D01*
X005411Y007157D01*
X005706Y007157D01*
X005706Y007214D01*
X005706Y007189D02*
X005378Y007189D01*
X005315Y007288D02*
X005280Y007288D01*
X005356Y007386D02*
X005181Y007386D01*
X005083Y007485D02*
X005430Y007485D01*
X005579Y007583D02*
X004984Y007583D01*
X005764Y007189D02*
X006575Y007189D01*
X006575Y007091D02*
X006159Y007091D01*
X006118Y006992D02*
X006575Y006992D01*
X006575Y006894D02*
X006048Y006894D01*
X005910Y006795D02*
X006575Y006795D01*
X006575Y006696D02*
X005871Y006696D01*
X005895Y006598D02*
X006575Y006598D01*
X006575Y006499D02*
X005895Y006499D01*
X005895Y006401D02*
X006575Y006401D01*
X006575Y006302D02*
X005895Y006302D01*
X005895Y006204D02*
X006575Y006204D01*
X006575Y006105D02*
X005895Y006105D01*
X005895Y006007D02*
X006575Y006007D01*
X006575Y005908D02*
X005895Y005908D01*
X005895Y005810D02*
X006575Y005810D01*
X006575Y005711D02*
X005895Y005711D01*
X005895Y005613D02*
X006575Y005613D01*
X006526Y005514D02*
X006040Y005514D01*
X006124Y005415D02*
X006504Y005415D01*
X006504Y005317D02*
X006165Y005317D01*
X006183Y005218D02*
X006504Y005218D01*
X006423Y005120D02*
X006183Y005120D01*
X006152Y005021D02*
X006324Y005021D01*
X006226Y004923D02*
X006106Y004923D01*
X006127Y004824D02*
X006007Y004824D01*
X006029Y004726D02*
X003381Y004726D01*
X003304Y004824D02*
X003464Y004824D01*
X003365Y004923D02*
X003228Y004923D01*
X003151Y005021D02*
X003319Y005021D01*
X003288Y005120D02*
X003074Y005120D01*
X002997Y005218D02*
X003288Y005218D01*
X003306Y005317D02*
X002921Y005317D01*
X002844Y005415D02*
X003346Y005415D01*
X003431Y005514D02*
X002767Y005514D01*
X002691Y005613D02*
X003475Y005613D01*
X003475Y005711D02*
X002615Y005711D01*
X002554Y005810D02*
X003475Y005810D01*
X003475Y005908D02*
X002494Y005908D01*
X002433Y006007D02*
X003475Y006007D01*
X003475Y006105D02*
X002373Y006105D01*
X002312Y006204D02*
X003475Y006204D01*
X003475Y006302D02*
X002251Y006302D01*
X002191Y006401D02*
X003475Y006401D01*
X003474Y006499D02*
X002130Y006499D01*
X002070Y006598D02*
X003376Y006598D01*
X003277Y006696D02*
X002009Y006696D01*
X001949Y006795D02*
X003179Y006795D01*
X003080Y006894D02*
X001894Y006894D01*
X001847Y006992D02*
X002982Y006992D01*
X002883Y007091D02*
X001801Y007091D01*
X001754Y007189D02*
X002784Y007189D01*
X002686Y007288D02*
X001708Y007288D01*
X001661Y007386D02*
X002587Y007386D01*
X002489Y007485D02*
X001615Y007485D01*
X001568Y007583D02*
X002390Y007583D01*
X002292Y007682D02*
X001522Y007682D01*
X001475Y007780D02*
X002193Y007780D01*
X002095Y007879D02*
X001429Y007879D01*
X001302Y008175D02*
X001799Y008175D01*
X001365Y008273D02*
X001268Y008273D01*
X001266Y008372D02*
X001234Y008372D01*
X001219Y008470D02*
X001200Y008470D01*
X001188Y008569D02*
X001166Y008569D01*
X001188Y008667D02*
X001133Y008667D01*
X001099Y008766D02*
X001205Y008766D01*
X001109Y008864D02*
X001065Y008864D01*
X001909Y009259D02*
X002775Y009259D01*
X002775Y009357D02*
X001895Y009357D01*
X001895Y009456D02*
X002775Y009456D01*
X002775Y009554D02*
X001895Y009554D01*
X001895Y009653D02*
X002775Y009653D01*
X002775Y009751D02*
X001895Y009751D01*
X001895Y009850D02*
X002775Y009850D01*
X002775Y009948D02*
X001895Y009948D01*
X001895Y010047D02*
X002775Y010047D01*
X002775Y010146D02*
X001895Y010146D01*
X001895Y010244D02*
X002775Y010244D01*
X002775Y010343D02*
X001975Y010343D01*
X002039Y010441D02*
X002775Y010441D01*
X002775Y010540D02*
X002080Y010540D01*
X002083Y010638D02*
X002775Y010638D01*
X002775Y010737D02*
X002078Y010737D01*
X002037Y010835D02*
X002775Y010835D01*
X002775Y010934D02*
X001970Y010934D01*
X001846Y011032D02*
X002775Y011032D01*
X002775Y011131D02*
X001195Y011131D01*
X001195Y011229D02*
X002775Y011229D01*
X002775Y011328D02*
X001195Y011328D01*
X001195Y011427D02*
X002775Y011427D01*
X002775Y011525D02*
X001195Y011525D01*
X001195Y011624D02*
X002775Y011624D01*
X002775Y011722D02*
X001195Y011722D01*
X001254Y011821D02*
X002717Y011821D01*
X002619Y011919D02*
X001352Y011919D01*
X001400Y012018D02*
X002570Y012018D01*
X002538Y012116D02*
X001433Y012116D01*
X001433Y012215D02*
X002538Y012215D01*
X002554Y012313D02*
X001417Y012313D01*
X001509Y012412D02*
X002595Y012412D01*
X002678Y012511D02*
X001607Y012511D01*
X001706Y012609D02*
X002839Y012609D01*
X003132Y012609D02*
X003571Y012609D01*
X003519Y012511D02*
X003293Y012511D01*
X003376Y012412D02*
X003519Y012412D01*
X003519Y012313D02*
X003417Y012313D01*
X003433Y012215D02*
X003519Y012215D01*
X003519Y012116D02*
X003433Y012116D01*
X003400Y012018D02*
X003519Y012018D01*
X003550Y011919D02*
X003352Y011919D01*
X003254Y011821D02*
X003519Y011821D01*
X003519Y011722D02*
X003195Y011722D01*
X003195Y011624D02*
X003519Y011624D01*
X003519Y011525D02*
X003195Y011525D01*
X003195Y011427D02*
X003519Y011427D01*
X003519Y011328D02*
X003195Y011328D01*
X003195Y011229D02*
X003603Y011229D01*
X003607Y011063D02*
X003550Y011063D01*
X003393Y010998D01*
X003273Y010877D01*
X003208Y010720D01*
X003208Y010664D01*
X003606Y010664D01*
X003606Y010607D01*
X003208Y010607D01*
X003208Y010550D01*
X003273Y010393D01*
X003393Y010273D01*
X003550Y010208D01*
X003607Y010208D01*
X003607Y010606D01*
X003664Y010606D01*
X003664Y010208D01*
X003720Y010208D01*
X003877Y010273D01*
X003998Y010393D01*
X004063Y010550D01*
X004063Y010607D01*
X003664Y010607D01*
X003664Y010664D01*
X003607Y010664D01*
X003607Y011063D01*
X003607Y011032D02*
X003664Y011032D01*
X003664Y011063D02*
X003664Y010664D01*
X004063Y010664D01*
X004063Y010720D01*
X003998Y010877D01*
X003877Y010998D01*
X003720Y011063D01*
X003664Y011063D01*
X003664Y010934D02*
X003607Y010934D01*
X003607Y010835D02*
X003664Y010835D01*
X003664Y010737D02*
X003607Y010737D01*
X003606Y010638D02*
X003195Y010638D01*
X003195Y010540D02*
X003212Y010540D01*
X003195Y010441D02*
X003253Y010441D01*
X003195Y010343D02*
X003324Y010343D01*
X003195Y010244D02*
X003463Y010244D01*
X003607Y010244D02*
X003664Y010244D01*
X003664Y010343D02*
X003607Y010343D01*
X003607Y010441D02*
X003664Y010441D01*
X003664Y010540D02*
X003607Y010540D01*
X003664Y010638D02*
X006575Y010638D01*
X006575Y010540D02*
X004058Y010540D01*
X004018Y010441D02*
X006575Y010441D01*
X006575Y010343D02*
X003947Y010343D01*
X003808Y010244D02*
X005504Y010244D01*
X005409Y010146D02*
X004937Y010146D01*
X004942Y010141D02*
X004854Y010229D01*
X004605Y010229D01*
X004605Y009735D01*
X004505Y009735D01*
X004505Y009635D01*
X004169Y009635D01*
X004169Y009229D01*
X004257Y009142D01*
X004505Y009142D01*
X004505Y009635D01*
X004605Y009635D01*
X004605Y009142D01*
X004854Y009142D01*
X004942Y009229D01*
X004942Y009635D01*
X004606Y009635D01*
X004606Y009735D01*
X004942Y009735D01*
X004942Y010141D01*
X004942Y010047D02*
X005409Y010047D01*
X005409Y009948D02*
X004942Y009948D01*
X004942Y009850D02*
X005409Y009850D01*
X005409Y009751D02*
X004942Y009751D01*
X004942Y009554D02*
X005409Y009554D01*
X005409Y009456D02*
X004942Y009456D01*
X004942Y009357D02*
X005409Y009357D01*
X005409Y009259D02*
X004942Y009259D01*
X004872Y009160D02*
X005470Y009160D01*
X005409Y009653D02*
X004606Y009653D01*
X004605Y009751D02*
X004505Y009751D01*
X004505Y009735D02*
X004505Y010229D01*
X004257Y010229D01*
X004169Y010141D01*
X004169Y009735D01*
X004505Y009735D01*
X004505Y009653D02*
X003195Y009653D01*
X003195Y009751D02*
X004169Y009751D01*
X004169Y009850D02*
X003195Y009850D01*
X003195Y009948D02*
X004169Y009948D01*
X004169Y010047D02*
X003195Y010047D01*
X003195Y010146D02*
X004174Y010146D01*
X004505Y010146D02*
X004605Y010146D01*
X004605Y010047D02*
X004505Y010047D01*
X004505Y009948D02*
X004605Y009948D01*
X004605Y009850D02*
X004505Y009850D01*
X004505Y009554D02*
X004605Y009554D01*
X004605Y009456D02*
X004505Y009456D01*
X004505Y009357D02*
X004605Y009357D01*
X004605Y009259D02*
X004505Y009259D01*
X004505Y009160D02*
X004605Y009160D01*
X004239Y009160D02*
X003408Y009160D01*
X003309Y009259D02*
X004169Y009259D01*
X004169Y009357D02*
X003210Y009357D01*
X003195Y009456D02*
X004169Y009456D01*
X004169Y009554D02*
X003195Y009554D01*
X002814Y009160D02*
X002008Y009160D01*
X002106Y009062D02*
X002912Y009062D01*
X003011Y008963D02*
X002205Y008963D01*
X002303Y008864D02*
X003109Y008864D01*
X003205Y008766D02*
X002402Y008766D01*
X002500Y008667D02*
X003188Y008667D01*
X003188Y008569D02*
X002599Y008569D01*
X002697Y008470D02*
X003219Y008470D01*
X003266Y008372D02*
X002796Y008372D01*
X002894Y008273D02*
X003365Y008273D01*
X004083Y008569D02*
X006575Y008569D01*
X006575Y008667D02*
X004083Y008667D01*
X004066Y008766D02*
X006575Y008766D01*
X006575Y008864D02*
X004025Y008864D01*
X003941Y008963D02*
X006575Y008963D01*
X006575Y009062D02*
X003776Y009062D01*
X006127Y010244D02*
X006575Y010244D01*
X006575Y010146D02*
X006221Y010146D01*
X006221Y010047D02*
X006292Y010047D01*
X006479Y010047D02*
X006575Y010047D01*
X006995Y010047D02*
X007200Y010047D01*
X007332Y009948D02*
X006995Y009948D01*
X006995Y009850D02*
X007853Y009850D01*
X007815Y009751D02*
X006995Y009751D01*
X006995Y009653D02*
X007815Y009653D01*
X007839Y009554D02*
X006995Y009554D01*
X006995Y009456D02*
X007892Y009456D01*
X008011Y009357D02*
X006995Y009357D01*
X006995Y009259D02*
X008332Y009259D01*
X008616Y009160D02*
X008754Y009160D01*
X008693Y009062D02*
X008678Y009062D01*
X008678Y008963D02*
X008693Y008963D01*
X008693Y008864D02*
X008678Y008864D01*
X008678Y008766D02*
X008693Y008766D01*
X008693Y008667D02*
X008678Y008667D01*
X008678Y008569D02*
X008693Y008569D01*
X008693Y008470D02*
X008678Y008470D01*
X008644Y008372D02*
X008727Y008372D01*
X008595Y008273D02*
X008875Y008273D01*
X008875Y008175D02*
X008595Y008175D01*
X008595Y008076D02*
X008875Y008076D01*
X008875Y007978D02*
X008595Y007978D01*
X008595Y007879D02*
X008875Y007879D01*
X008875Y007780D02*
X008595Y007780D01*
X008595Y007682D02*
X008875Y007682D01*
X008804Y007583D02*
X008595Y007583D01*
X008658Y007485D02*
X008712Y007485D01*
X008712Y007386D02*
X008658Y007386D01*
X008658Y007288D02*
X008712Y007288D01*
X008712Y007189D02*
X008658Y007189D01*
X008658Y007091D02*
X008712Y007091D01*
X008712Y006992D02*
X008658Y006992D01*
X008658Y006894D02*
X008712Y006894D01*
X008796Y006795D02*
X008595Y006795D01*
X008595Y006696D02*
X012777Y006696D01*
X012876Y006598D02*
X008595Y006598D01*
X008595Y006499D02*
X009177Y006499D01*
X009176Y006499D02*
X009072Y006395D01*
X009015Y006259D01*
X009015Y006112D01*
X009024Y006092D01*
X008812Y006092D01*
X008712Y005992D01*
X008712Y005379D01*
X008812Y005279D01*
X009268Y005279D01*
X009367Y005379D01*
X009367Y005670D01*
X009550Y005853D01*
X009595Y005872D01*
X009699Y005976D01*
X009755Y006112D01*
X009755Y006259D01*
X009699Y006395D01*
X009595Y006499D01*
X009459Y006555D01*
X009312Y006555D01*
X009176Y006499D01*
X009078Y006401D02*
X008595Y006401D01*
X008595Y006302D02*
X009033Y006302D01*
X009015Y006204D02*
X008595Y006204D01*
X008595Y006105D02*
X009018Y006105D01*
X008727Y006007D02*
X008644Y006007D01*
X008658Y005908D02*
X008712Y005908D01*
X008712Y005810D02*
X008658Y005810D01*
X008658Y005711D02*
X008712Y005711D01*
X008712Y005613D02*
X008658Y005613D01*
X008658Y005514D02*
X008712Y005514D01*
X008712Y005415D02*
X008658Y005415D01*
X008597Y005317D02*
X008774Y005317D01*
X009305Y005317D02*
X011256Y005317D01*
X011238Y005274D02*
X011238Y005096D01*
X011306Y004932D01*
X011432Y004806D01*
X011596Y004738D01*
X011774Y004738D01*
X011939Y004806D01*
X012065Y004932D01*
X012133Y005096D01*
X012133Y005274D01*
X012065Y005439D01*
X011939Y005565D01*
X011774Y005633D01*
X011596Y005633D01*
X011432Y005565D01*
X011306Y005439D01*
X011238Y005274D01*
X011238Y005218D02*
X007847Y005218D01*
X007847Y005214D02*
X007847Y005484D01*
X007759Y005572D01*
X007568Y005572D01*
X007568Y005214D01*
X007511Y005214D01*
X007511Y005157D01*
X007232Y005157D01*
X007232Y004887D01*
X007320Y004799D01*
X007511Y004799D01*
X007511Y005156D01*
X007568Y005156D01*
X007568Y004799D01*
X007759Y004799D01*
X007847Y004887D01*
X007847Y005157D01*
X007569Y005157D01*
X007569Y005214D01*
X007847Y005214D01*
X007847Y005120D02*
X011238Y005120D01*
X011269Y005021D02*
X007847Y005021D01*
X007847Y004923D02*
X011315Y004923D01*
X011414Y004824D02*
X007784Y004824D01*
X007568Y004824D02*
X007511Y004824D01*
X007511Y004923D02*
X007568Y004923D01*
X007568Y005021D02*
X007511Y005021D01*
X007511Y005120D02*
X007568Y005120D01*
X007568Y005218D02*
X007511Y005218D01*
X007511Y005214D02*
X007511Y005572D01*
X007320Y005572D01*
X007232Y005484D01*
X007232Y005214D01*
X007511Y005214D01*
X007511Y005317D02*
X007568Y005317D01*
X007568Y005415D02*
X007511Y005415D01*
X007511Y005514D02*
X007568Y005514D01*
X007817Y005514D02*
X008004Y005514D01*
X008004Y005613D02*
X006995Y005613D01*
X006995Y005711D02*
X008004Y005711D01*
X008004Y005810D02*
X006995Y005810D01*
X006995Y005908D02*
X008004Y005908D01*
X008018Y006007D02*
X006995Y006007D01*
X006995Y006105D02*
X008175Y006105D01*
X008175Y006204D02*
X006995Y006204D01*
X006995Y006302D02*
X008175Y006302D01*
X008175Y006401D02*
X006995Y006401D01*
X006995Y006499D02*
X008175Y006499D01*
X008175Y006598D02*
X006995Y006598D01*
X006995Y006696D02*
X008175Y006696D01*
X008087Y006795D02*
X006995Y006795D01*
X006995Y006894D02*
X008004Y006894D01*
X008004Y006992D02*
X006995Y006992D01*
X006995Y007091D02*
X008004Y007091D01*
X008004Y007189D02*
X006995Y007189D01*
X006995Y007288D02*
X008004Y007288D01*
X008004Y007386D02*
X006995Y007386D01*
X006995Y007485D02*
X008004Y007485D01*
X008095Y007583D02*
X006995Y007583D01*
X006995Y007682D02*
X008175Y007682D01*
X008175Y007780D02*
X006995Y007780D01*
X006995Y007879D02*
X008175Y007879D01*
X008175Y007978D02*
X006995Y007978D01*
X006995Y008076D02*
X008175Y008076D01*
X008175Y008175D02*
X006995Y008175D01*
X006995Y008273D02*
X008175Y008273D01*
X007979Y008372D02*
X006995Y008372D01*
X006995Y008470D02*
X007944Y008470D01*
X007944Y008569D02*
X006995Y008569D01*
X006995Y008667D02*
X007944Y008667D01*
X007944Y008766D02*
X006995Y008766D01*
X006995Y008864D02*
X007944Y008864D01*
X007944Y008963D02*
X006995Y008963D01*
X006995Y009062D02*
X007944Y009062D01*
X008006Y009160D02*
X006995Y009160D01*
X006575Y009160D02*
X006160Y009160D01*
X006221Y009259D02*
X006575Y009259D01*
X006575Y009357D02*
X006560Y009357D01*
X007639Y009948D02*
X007925Y009948D01*
X007770Y010047D02*
X008092Y010047D01*
X008279Y010047D02*
X008401Y010047D01*
X008970Y010047D02*
X009175Y010047D01*
X009175Y009948D02*
X009052Y009948D01*
X009052Y009850D02*
X009175Y009850D01*
X009175Y009751D02*
X009052Y009751D01*
X009052Y009653D02*
X009175Y009653D01*
X009175Y009554D02*
X009052Y009554D01*
X009052Y009456D02*
X009175Y009456D01*
X009175Y009357D02*
X009052Y009357D01*
X009038Y009259D02*
X009175Y009259D01*
X009087Y010146D02*
X007828Y010146D01*
X007855Y010244D02*
X009014Y010244D01*
X009014Y010343D02*
X007855Y010343D01*
X007821Y010441D02*
X009014Y010441D01*
X009014Y010540D02*
X007754Y010540D01*
X007600Y010638D02*
X008935Y010638D01*
X008837Y010737D02*
X006995Y010737D01*
X006995Y010835D02*
X008738Y010835D01*
X008640Y010934D02*
X007529Y010934D01*
X007371Y010638D02*
X006995Y010638D01*
X006995Y010540D02*
X007216Y010540D01*
X006575Y010737D02*
X004056Y010737D01*
X004015Y010835D02*
X006575Y010835D01*
X006575Y010934D02*
X003941Y010934D01*
X003794Y011032D02*
X006575Y011032D01*
X006575Y011131D02*
X003195Y011131D01*
X003195Y011032D02*
X003477Y011032D01*
X003329Y010934D02*
X003195Y010934D01*
X003195Y010835D02*
X003256Y010835D01*
X003215Y010737D02*
X003195Y010737D01*
X004168Y011229D02*
X006575Y011229D01*
X006575Y011328D02*
X004252Y011328D01*
X004252Y011427D02*
X006575Y011427D01*
X006575Y011525D02*
X005122Y011525D01*
X005517Y011624D02*
X006575Y011624D01*
X006575Y011722D02*
X005659Y011722D01*
X005734Y011821D02*
X006575Y011821D01*
X006575Y011919D02*
X005774Y011919D01*
X005785Y012018D02*
X006575Y012018D01*
X006575Y012116D02*
X005813Y012116D01*
X005912Y012215D02*
X006575Y012215D01*
X006575Y012313D02*
X006010Y012313D01*
X006109Y012412D02*
X006575Y012412D01*
X006614Y012511D02*
X006207Y012511D01*
X006306Y012609D02*
X006712Y012609D01*
X006770Y012708D02*
X006405Y012708D01*
X006503Y012806D02*
X006770Y012806D01*
X006770Y012905D02*
X006602Y012905D01*
X006700Y013003D02*
X006770Y013003D01*
X006770Y014395D02*
X005172Y014395D01*
X005072Y014495D01*
X004898Y014495D01*
X004252Y014495D01*
X004252Y014607D01*
X004153Y014706D01*
X003903Y014706D01*
X004172Y014975D01*
X004272Y014975D01*
X004972Y015675D01*
X005024Y015727D01*
X005024Y015714D01*
X005302Y015714D01*
X005302Y015657D01*
X005024Y015657D01*
X005024Y015387D01*
X005111Y015299D01*
X005302Y015299D01*
X005302Y015656D01*
X005360Y015656D01*
X005360Y015299D01*
X005551Y015299D01*
X005638Y015387D01*
X005638Y015657D01*
X005360Y015657D01*
X005360Y015714D01*
X005638Y015714D01*
X005638Y015984D01*
X005551Y016072D01*
X005360Y016072D01*
X005360Y015714D01*
X005302Y015714D01*
X005302Y016072D01*
X005111Y016072D01*
X005095Y016055D01*
X005095Y016750D01*
X005580Y016750D01*
X005680Y016850D01*
X005680Y017083D01*
X005911Y017314D01*
X005911Y017285D01*
X006286Y017285D01*
X006286Y017185D01*
X005911Y017185D01*
X005911Y016858D01*
X005999Y016770D01*
X006287Y016770D01*
X006287Y017185D01*
X006386Y017185D01*
X006386Y016770D01*
X006674Y016770D01*
X006762Y016858D01*
X006762Y017185D01*
X006387Y017185D01*
X006387Y017285D01*
X006762Y017285D01*
X006762Y017612D01*
X006674Y017700D01*
X006386Y017700D01*
X006386Y017285D01*
X006287Y017285D01*
X006287Y017690D01*
X006815Y018218D01*
X006815Y018212D01*
X006872Y018076D01*
X006975Y017972D01*
X006975Y016005D01*
X006870Y016005D01*
X006770Y015906D01*
X006770Y015895D01*
X006367Y015895D01*
X006367Y015992D01*
X006268Y016092D01*
X005812Y016092D01*
X005712Y015992D01*
X005712Y015379D01*
X005812Y015279D01*
X006268Y015279D01*
X006367Y015379D01*
X006367Y015475D01*
X006770Y015475D01*
X006770Y015465D01*
X006800Y015435D01*
X006770Y015406D01*
X006770Y014965D01*
X006800Y014935D01*
X006770Y014906D01*
X006770Y014465D01*
X006800Y014435D01*
X006770Y014406D01*
X006770Y014395D01*
X006770Y014481D02*
X005086Y014481D01*
X004252Y014580D02*
X006770Y014580D01*
X006770Y014679D02*
X004181Y014679D01*
X004073Y014876D02*
X006770Y014876D01*
X006770Y014974D02*
X004171Y014974D01*
X004370Y015073D02*
X006770Y015073D01*
X006770Y015171D02*
X004468Y015171D01*
X004567Y015270D02*
X006770Y015270D01*
X006770Y015368D02*
X006357Y015368D01*
X006367Y015467D02*
X006770Y015467D01*
X006824Y015960D02*
X006367Y015960D01*
X006301Y016058D02*
X006975Y016058D01*
X006975Y016157D02*
X005095Y016157D01*
X005095Y016255D02*
X006975Y016255D01*
X006975Y016354D02*
X005095Y016354D01*
X005095Y016452D02*
X006975Y016452D01*
X006975Y016551D02*
X005095Y016551D01*
X005095Y016649D02*
X006975Y016649D01*
X006975Y016748D02*
X005095Y016748D01*
X005676Y016846D02*
X005923Y016846D01*
X005911Y016945D02*
X005680Y016945D01*
X005680Y017044D02*
X005911Y017044D01*
X005911Y017142D02*
X005739Y017142D01*
X005838Y017241D02*
X006286Y017241D01*
X006287Y017339D02*
X006386Y017339D01*
X006387Y017241D02*
X006975Y017241D01*
X006975Y017339D02*
X006762Y017339D01*
X006762Y017438D02*
X006975Y017438D01*
X006975Y017536D02*
X006762Y017536D01*
X006740Y017635D02*
X006975Y017635D01*
X006975Y017733D02*
X006330Y017733D01*
X006287Y017635D02*
X006386Y017635D01*
X006386Y017536D02*
X006287Y017536D01*
X006287Y017438D02*
X006386Y017438D01*
X006386Y017142D02*
X006287Y017142D01*
X006287Y017044D02*
X006386Y017044D01*
X006386Y016945D02*
X006287Y016945D01*
X006287Y016846D02*
X006386Y016846D01*
X006750Y016846D02*
X006975Y016846D01*
X006975Y016945D02*
X006762Y016945D01*
X006762Y017044D02*
X006975Y017044D01*
X006975Y017142D02*
X006762Y017142D01*
X005736Y017733D02*
X005230Y017733D01*
X005329Y017832D02*
X005835Y017832D01*
X005934Y017930D02*
X005427Y017930D01*
X005526Y018029D02*
X006032Y018029D01*
X006131Y018128D02*
X005624Y018128D01*
X005723Y018226D02*
X006229Y018226D01*
X006328Y018325D02*
X005822Y018325D01*
X005920Y018423D02*
X006426Y018423D01*
X006525Y018522D02*
X006019Y018522D01*
X006117Y018620D02*
X006623Y018620D01*
X006722Y018719D02*
X006499Y018719D01*
X006650Y018817D02*
X006820Y018817D01*
X006729Y018916D02*
X007652Y018916D01*
X007751Y019014D02*
X006770Y019014D01*
X006783Y019113D02*
X007849Y019113D01*
X007896Y019211D02*
X006783Y019211D01*
X006807Y019310D02*
X007797Y019310D01*
X007698Y019409D02*
X006906Y019409D01*
X007004Y019507D02*
X007645Y019507D01*
X007645Y019606D02*
X007103Y019606D01*
X007201Y019704D02*
X007645Y019704D01*
X007645Y019803D02*
X007300Y019803D01*
X007398Y019901D02*
X007645Y019901D01*
X007736Y020000D02*
X007497Y020000D01*
X007595Y020098D02*
X007835Y020098D01*
X007933Y020197D02*
X007694Y020197D01*
X007792Y020295D02*
X011247Y020295D01*
X011238Y020197D02*
X010437Y020197D01*
X010536Y020098D02*
X011238Y020098D01*
X011278Y020000D02*
X010634Y020000D01*
X010725Y019901D02*
X011337Y019901D01*
X011440Y019803D02*
X010725Y019803D01*
X010725Y019704D02*
X013507Y019704D01*
X013492Y019803D02*
X011931Y019803D01*
X012034Y019901D02*
X013365Y019901D01*
X013299Y020000D02*
X012093Y020000D01*
X012133Y020098D02*
X013259Y020098D01*
X013268Y020295D02*
X012124Y020295D01*
X012133Y020197D02*
X013656Y020197D01*
X013657Y020295D02*
X013714Y020295D01*
X013714Y020394D02*
X013657Y020394D01*
X013657Y020493D02*
X013714Y020493D01*
X013714Y020591D02*
X013657Y020591D01*
X013548Y020591D02*
X011895Y020591D01*
X011895Y020690D02*
X014493Y020690D01*
X014591Y020788D02*
X011879Y020788D01*
X011781Y020887D02*
X014690Y020887D01*
X014788Y020985D02*
X011682Y020985D01*
X011584Y021084D02*
X014887Y021084D01*
X014956Y021182D02*
X011485Y021182D01*
X011387Y021281D02*
X014915Y021281D01*
X014888Y021379D02*
X011288Y021379D01*
X011190Y021478D02*
X014888Y021478D01*
X014909Y021577D02*
X011091Y021577D01*
X010993Y021675D02*
X014950Y021675D01*
X015041Y021774D02*
X010894Y021774D01*
X010795Y021872D02*
X015221Y021872D01*
X015450Y021872D02*
X017202Y021872D01*
X017103Y021971D02*
X010697Y021971D01*
X010598Y022069D02*
X011519Y022069D01*
X011532Y022056D02*
X011406Y022182D01*
X011338Y022346D01*
X011338Y022524D01*
X011406Y022689D01*
X011532Y022815D01*
X011696Y022883D01*
X011874Y022883D01*
X012039Y022815D01*
X012165Y022689D01*
X012233Y022524D01*
X012233Y022346D01*
X012165Y022182D01*
X012039Y022056D01*
X011874Y021988D01*
X011696Y021988D01*
X011532Y022056D01*
X011420Y022168D02*
X010500Y022168D01*
X010401Y022266D02*
X011371Y022266D01*
X011338Y022365D02*
X010303Y022365D01*
X010204Y022463D02*
X011338Y022463D01*
X011353Y022562D02*
X010106Y022562D01*
X010007Y022661D02*
X011394Y022661D01*
X011476Y022759D02*
X009909Y022759D01*
X009810Y022858D02*
X011635Y022858D01*
X011935Y022858D02*
X013635Y022858D01*
X013696Y022883D02*
X013532Y022815D01*
X013406Y022689D01*
X013338Y022524D01*
X013338Y022346D01*
X013406Y022182D01*
X013532Y022056D01*
X013696Y021988D01*
X013874Y021988D01*
X014039Y022056D01*
X014165Y022182D01*
X014233Y022346D01*
X014233Y022524D01*
X014165Y022689D01*
X014039Y022815D01*
X013874Y022883D01*
X013696Y022883D01*
X013935Y022858D02*
X016216Y022858D01*
X016118Y022956D02*
X009711Y022956D01*
X009613Y023055D02*
X015085Y023055D01*
X014985Y023153D02*
X009514Y023153D01*
X009416Y023252D02*
X009894Y023252D01*
X009766Y023350D02*
X009447Y023350D01*
X009546Y023449D02*
X009700Y023449D01*
X009659Y023547D02*
X009644Y023547D01*
X010057Y023547D02*
X010114Y023547D01*
X010114Y023449D02*
X010057Y023449D01*
X010057Y023350D02*
X010114Y023350D01*
X010114Y023252D02*
X010057Y023252D01*
X010276Y023252D02*
X014927Y023252D01*
X014888Y023350D02*
X010405Y023350D01*
X010471Y023449D02*
X014888Y023449D01*
X014897Y023547D02*
X010512Y023547D01*
X010503Y023744D02*
X015012Y023744D01*
X014938Y023646D02*
X010114Y023646D01*
X010114Y023664D02*
X010114Y024017D01*
X010057Y023960D01*
X010057Y023664D01*
X010114Y023664D01*
X010114Y023744D02*
X010057Y023744D01*
X010057Y023843D02*
X010114Y023843D01*
X010114Y023942D02*
X010057Y023942D01*
X010225Y024040D02*
X011570Y024040D01*
X011449Y024139D02*
X010236Y024139D01*
X010384Y023942D02*
X017473Y023942D01*
X017420Y023863D02*
X017364Y023863D01*
X017364Y023464D01*
X017307Y023464D01*
X017307Y023863D01*
X017250Y023863D01*
X017093Y023798D01*
X016973Y023677D01*
X016908Y023520D01*
X016908Y023464D01*
X017306Y023464D01*
X017306Y023407D01*
X016908Y023407D01*
X016908Y023350D01*
X016973Y023193D01*
X017093Y023073D01*
X017250Y023008D01*
X017307Y023008D01*
X017307Y023406D01*
X017364Y023406D01*
X017364Y023008D01*
X017420Y023008D01*
X017577Y023073D01*
X017698Y023193D01*
X017763Y023350D01*
X017763Y023407D01*
X017364Y023407D01*
X017364Y023464D01*
X017763Y023464D01*
X017763Y023520D01*
X017698Y023677D01*
X017577Y023798D01*
X017420Y023863D01*
X017468Y023843D02*
X017698Y023843D01*
X017631Y023744D02*
X017922Y023744D01*
X017711Y023646D02*
X018147Y023646D01*
X018334Y023547D02*
X017752Y023547D01*
X017763Y023350D02*
X018676Y023350D01*
X018847Y023252D02*
X017722Y023252D01*
X017658Y023153D02*
X019017Y023153D01*
X019188Y023055D02*
X017533Y023055D01*
X017364Y023055D02*
X017307Y023055D01*
X017307Y023153D02*
X017364Y023153D01*
X017364Y023252D02*
X017307Y023252D01*
X017307Y023350D02*
X017364Y023350D01*
X017364Y023449D02*
X018505Y023449D01*
X019359Y022956D02*
X016711Y022956D01*
X016613Y023055D02*
X017137Y023055D01*
X017013Y023153D02*
X016514Y023153D01*
X016416Y023252D02*
X016949Y023252D01*
X016908Y023350D02*
X016317Y023350D01*
X016219Y023449D02*
X017306Y023449D01*
X017307Y023547D02*
X017364Y023547D01*
X017364Y023646D02*
X017307Y023646D01*
X017307Y023744D02*
X017364Y023744D01*
X017364Y023843D02*
X017307Y023843D01*
X017203Y023843D02*
X015520Y023843D01*
X015659Y023744D02*
X017040Y023744D01*
X016960Y023646D02*
X015732Y023646D01*
X016120Y023547D02*
X016919Y023547D01*
X017248Y024040D02*
X013948Y024040D01*
X013870Y024008D02*
X014027Y024073D01*
X014148Y024193D01*
X014213Y024350D01*
X014213Y024407D01*
X013814Y024407D01*
X013814Y024464D01*
X013757Y024464D01*
X013757Y024863D01*
X013700Y024863D01*
X013543Y024798D01*
X013423Y024677D01*
X013358Y024520D01*
X013358Y024464D01*
X013756Y024464D01*
X013756Y024407D01*
X013358Y024407D01*
X013358Y024350D01*
X013423Y024193D01*
X013543Y024073D01*
X013700Y024008D01*
X013757Y024008D01*
X013757Y024406D01*
X013814Y024406D01*
X013814Y024008D01*
X013870Y024008D01*
X013814Y024040D02*
X013757Y024040D01*
X013757Y024139D02*
X013814Y024139D01*
X013814Y024237D02*
X013757Y024237D01*
X013757Y024336D02*
X013814Y024336D01*
X013814Y024434D02*
X016096Y024434D01*
X016411Y024336D02*
X014207Y024336D01*
X014166Y024237D02*
X016726Y024237D01*
X017024Y024139D02*
X014093Y024139D01*
X014208Y024533D02*
X015781Y024533D01*
X015330Y024631D02*
X014167Y024631D01*
X014095Y024730D02*
X014825Y024730D01*
X014257Y024828D02*
X013953Y024828D01*
X013814Y024828D02*
X013757Y024828D01*
X013757Y024730D02*
X013814Y024730D01*
X013814Y024631D02*
X013757Y024631D01*
X013757Y024533D02*
X013814Y024533D01*
X013756Y024434D02*
X012233Y024434D01*
X012228Y024336D02*
X013364Y024336D01*
X013405Y024237D02*
X012188Y024237D01*
X012121Y024139D02*
X013477Y024139D01*
X013622Y024040D02*
X012000Y024040D01*
X012229Y024533D02*
X013363Y024533D01*
X013404Y024631D02*
X012189Y024631D01*
X012124Y024730D02*
X013475Y024730D01*
X013617Y024828D02*
X012006Y024828D01*
X011565Y024828D02*
X011205Y024828D01*
X011447Y024730D02*
X010494Y024730D01*
X010034Y024631D02*
X011382Y024631D01*
X010036Y024533D02*
X009645Y024533D01*
X009839Y024336D02*
X008919Y024336D01*
X008656Y024237D02*
X009740Y024237D01*
X009642Y024139D02*
X008392Y024139D01*
X008277Y024040D02*
X009543Y024040D01*
X009445Y023942D02*
X008412Y023942D01*
X008484Y023843D02*
X009346Y023843D01*
X009248Y023744D02*
X008923Y023744D01*
X009022Y023646D02*
X009149Y023646D01*
X008723Y023350D02*
X008433Y023350D01*
X008458Y023375D02*
X008698Y023375D01*
X008875Y023198D01*
X008998Y023075D01*
X009993Y022081D01*
X009832Y022015D01*
X009706Y021889D01*
X009667Y021795D01*
X008698Y021795D01*
X008575Y021672D01*
X008533Y021630D01*
X008533Y021724D01*
X008465Y021889D01*
X008339Y022015D01*
X008174Y022083D01*
X007996Y022083D01*
X007832Y022015D01*
X007706Y021889D01*
X007638Y021724D01*
X007638Y021546D01*
X007671Y021467D01*
X005598Y019395D01*
X004708Y019395D01*
X004589Y019515D01*
X004424Y019583D01*
X004246Y019583D01*
X004082Y019515D01*
X003956Y019389D01*
X003888Y019224D01*
X003888Y019046D01*
X003906Y019003D01*
X002421Y017518D01*
X002433Y017546D01*
X002433Y017724D01*
X002365Y017889D01*
X002239Y018015D01*
X002195Y018033D01*
X002195Y018598D01*
X004285Y020688D01*
X004424Y020688D01*
X004589Y020756D01*
X004715Y020882D01*
X004753Y020975D01*
X005598Y020975D01*
X005772Y020975D01*
X005961Y021164D01*
X006306Y021164D01*
X006306Y021107D01*
X005908Y021107D01*
X005908Y021050D01*
X005973Y020893D01*
X006093Y020773D01*
X006250Y020708D01*
X006307Y020708D01*
X006307Y021106D01*
X006364Y021106D01*
X006364Y020708D01*
X006420Y020708D01*
X006577Y020773D01*
X006698Y020893D01*
X006763Y021050D01*
X006763Y021107D01*
X006364Y021107D01*
X006364Y021164D01*
X006307Y021164D01*
X006307Y021510D01*
X007988Y023191D01*
X007996Y023188D01*
X008174Y023188D01*
X008339Y023256D01*
X008458Y023375D01*
X008329Y023252D02*
X008822Y023252D01*
X008920Y023153D02*
X007950Y023153D01*
X007852Y023055D02*
X009019Y023055D01*
X009118Y022956D02*
X007753Y022956D01*
X007655Y022858D02*
X009216Y022858D01*
X009315Y022759D02*
X007556Y022759D01*
X007457Y022661D02*
X009413Y022661D01*
X009512Y022562D02*
X007359Y022562D01*
X007260Y022463D02*
X009610Y022463D01*
X009709Y022365D02*
X007162Y022365D01*
X007063Y022266D02*
X009807Y022266D01*
X009906Y022168D02*
X006965Y022168D01*
X006866Y022069D02*
X007964Y022069D01*
X007788Y021971D02*
X006768Y021971D01*
X006669Y021872D02*
X007699Y021872D01*
X007658Y021774D02*
X006571Y021774D01*
X006472Y021675D02*
X007638Y021675D01*
X007638Y021577D02*
X006373Y021577D01*
X006364Y021563D02*
X006364Y021164D01*
X006763Y021164D01*
X006763Y021220D01*
X006698Y021377D01*
X006577Y021498D01*
X006420Y021563D01*
X006364Y021563D01*
X006364Y021478D02*
X006307Y021478D01*
X006307Y021379D02*
X006364Y021379D01*
X006364Y021281D02*
X006307Y021281D01*
X006307Y021182D02*
X006364Y021182D01*
X006364Y021084D02*
X006307Y021084D01*
X006307Y020985D02*
X006364Y020985D01*
X006364Y020887D02*
X006307Y020887D01*
X006307Y020788D02*
X006364Y020788D01*
X006593Y020788D02*
X006991Y020788D01*
X006893Y020690D02*
X004429Y020690D01*
X004621Y020788D02*
X006078Y020788D01*
X005979Y020887D02*
X004717Y020887D01*
X004188Y020591D02*
X006794Y020591D01*
X006696Y020493D02*
X004090Y020493D01*
X003991Y020394D02*
X006597Y020394D01*
X006499Y020295D02*
X003892Y020295D01*
X003794Y020197D02*
X006400Y020197D01*
X006301Y020098D02*
X003695Y020098D01*
X003597Y020000D02*
X006203Y020000D01*
X006104Y019901D02*
X003498Y019901D01*
X003400Y019803D02*
X006006Y019803D01*
X005907Y019704D02*
X003301Y019704D01*
X003203Y019606D02*
X005809Y019606D01*
X005710Y019507D02*
X004596Y019507D01*
X004695Y019409D02*
X005612Y019409D01*
X005811Y019014D02*
X005901Y019014D01*
X005819Y018916D02*
X004729Y018916D01*
X004650Y018817D02*
X005720Y018817D01*
X005622Y018719D02*
X004499Y018719D01*
X004117Y018620D02*
X005523Y018620D01*
X005425Y018522D02*
X004019Y018522D01*
X003920Y018423D02*
X005326Y018423D01*
X005228Y018325D02*
X003822Y018325D01*
X003723Y018226D02*
X005129Y018226D01*
X005031Y018128D02*
X003624Y018128D01*
X003526Y018029D02*
X003819Y018029D01*
X003957Y018029D02*
X004014Y018029D01*
X004014Y018063D02*
X004014Y017664D01*
X004413Y017664D01*
X004413Y017720D01*
X004348Y017877D01*
X004227Y017998D01*
X004070Y018063D01*
X004014Y018063D01*
X004014Y017930D02*
X003957Y017930D01*
X003957Y017832D02*
X004014Y017832D01*
X004014Y017733D02*
X003957Y017733D01*
X003956Y017635D02*
X003132Y017635D01*
X003230Y017733D02*
X003563Y017733D01*
X003604Y017832D02*
X003329Y017832D01*
X003427Y017930D02*
X003676Y017930D01*
X003564Y017536D02*
X003033Y017536D01*
X002935Y017438D02*
X003604Y017438D01*
X003677Y017339D02*
X002836Y017339D01*
X002738Y017241D02*
X003821Y017241D01*
X003957Y017241D02*
X004014Y017241D01*
X004014Y017339D02*
X003957Y017339D01*
X003957Y017438D02*
X004014Y017438D01*
X004014Y017536D02*
X003957Y017536D01*
X004014Y017635D02*
X004538Y017635D01*
X004636Y017733D02*
X004407Y017733D01*
X004367Y017832D02*
X004735Y017832D01*
X004834Y017930D02*
X004295Y017930D01*
X004152Y018029D02*
X004932Y018029D01*
X004439Y017536D02*
X004407Y017536D01*
X004045Y017142D02*
X002639Y017142D01*
X002540Y017044D02*
X003947Y017044D01*
X003848Y016945D02*
X002442Y016945D01*
X002343Y016846D02*
X003775Y016846D01*
X003775Y016748D02*
X002245Y016748D01*
X002195Y016649D02*
X003775Y016649D01*
X003775Y016551D02*
X002195Y016551D01*
X002195Y016452D02*
X003775Y016452D01*
X003775Y016354D02*
X002195Y016354D01*
X002195Y016255D02*
X003775Y016255D01*
X003775Y016157D02*
X002195Y016157D01*
X002195Y016058D02*
X003775Y016058D01*
X003677Y015960D02*
X002294Y015960D01*
X002376Y015861D02*
X003594Y015861D01*
X003554Y015762D02*
X002417Y015762D01*
X002433Y015664D02*
X003538Y015664D01*
X003538Y015565D02*
X002433Y015565D01*
X002400Y015467D02*
X003571Y015467D01*
X003620Y015368D02*
X002351Y015368D01*
X002253Y015270D02*
X003718Y015270D01*
X003774Y015171D02*
X002195Y015171D01*
X002195Y015073D02*
X003676Y015073D01*
X003577Y014974D02*
X002195Y014974D01*
X002195Y014876D02*
X003479Y014876D01*
X003380Y014777D02*
X002195Y014777D01*
X002195Y014679D02*
X003282Y014679D01*
X003275Y014580D02*
X003150Y014580D01*
X003014Y014580D02*
X002957Y014580D01*
X002957Y014481D02*
X003014Y014481D01*
X003014Y014383D02*
X002957Y014383D01*
X002957Y014284D02*
X003014Y014284D01*
X002956Y014186D02*
X002195Y014186D01*
X002195Y014284D02*
X002564Y014284D01*
X002604Y014383D02*
X002195Y014383D01*
X002195Y014481D02*
X002677Y014481D01*
X002821Y014580D02*
X002195Y014580D01*
X002195Y014087D02*
X002563Y014087D01*
X002604Y013989D02*
X002195Y013989D01*
X002195Y013890D02*
X002676Y013890D01*
X002819Y013792D02*
X002195Y013792D01*
X002195Y013693D02*
X003519Y013693D01*
X003519Y013595D02*
X002195Y013595D01*
X002195Y013496D02*
X003519Y013496D01*
X003519Y013397D02*
X002195Y013397D01*
X002195Y013299D02*
X003583Y013299D01*
X003675Y013200D02*
X002195Y013200D01*
X002195Y013102D02*
X003675Y013102D01*
X003675Y013003D02*
X002100Y013003D01*
X002002Y012905D02*
X003675Y012905D01*
X003675Y012806D02*
X001903Y012806D01*
X001805Y012708D02*
X003675Y012708D01*
X003482Y013792D02*
X003152Y013792D01*
X003014Y013792D02*
X002957Y013792D01*
X002957Y013890D02*
X003014Y013890D01*
X003014Y013989D02*
X002957Y013989D01*
X002957Y014087D02*
X003014Y014087D01*
X003295Y013890D02*
X003384Y013890D01*
X003974Y014777D02*
X006770Y014777D01*
X005723Y015368D02*
X005620Y015368D01*
X005638Y015467D02*
X005712Y015467D01*
X005712Y015565D02*
X005638Y015565D01*
X005712Y015664D02*
X005360Y015664D01*
X005302Y015664D02*
X004961Y015664D01*
X005024Y015565D02*
X004862Y015565D01*
X004764Y015467D02*
X005024Y015467D01*
X005042Y015368D02*
X004665Y015368D01*
X005302Y015368D02*
X005360Y015368D01*
X005360Y015467D02*
X005302Y015467D01*
X005302Y015565D02*
X005360Y015565D01*
X005360Y015762D02*
X005302Y015762D01*
X005302Y015861D02*
X005360Y015861D01*
X005360Y015960D02*
X005302Y015960D01*
X005302Y016058D02*
X005360Y016058D01*
X005564Y016058D02*
X005778Y016058D01*
X005712Y015960D02*
X005638Y015960D01*
X005638Y015861D02*
X005712Y015861D01*
X005712Y015762D02*
X005638Y015762D01*
X005098Y016058D02*
X005095Y016058D01*
X002636Y017733D02*
X002429Y017733D01*
X002433Y017635D02*
X002538Y017635D01*
X002439Y017536D02*
X002429Y017536D01*
X002388Y017832D02*
X002735Y017832D01*
X002834Y017930D02*
X002323Y017930D01*
X002204Y018029D02*
X002932Y018029D01*
X003031Y018128D02*
X002195Y018128D01*
X002195Y018226D02*
X003129Y018226D01*
X003228Y018325D02*
X002195Y018325D01*
X002195Y018423D02*
X003326Y018423D01*
X003425Y018522D02*
X002195Y018522D01*
X002217Y018620D02*
X003523Y018620D01*
X003622Y018719D02*
X002316Y018719D01*
X002414Y018817D02*
X003720Y018817D01*
X003819Y018916D02*
X002513Y018916D01*
X002611Y019014D02*
X003901Y019014D01*
X003888Y019113D02*
X002710Y019113D01*
X002808Y019211D02*
X003888Y019211D01*
X003923Y019310D02*
X002907Y019310D01*
X003006Y019409D02*
X003976Y019409D01*
X004074Y019507D02*
X003104Y019507D01*
X005782Y020985D02*
X005935Y020985D01*
X005908Y021084D02*
X005881Y021084D01*
X006597Y021478D02*
X007666Y021478D01*
X007583Y021379D02*
X006696Y021379D01*
X006738Y021281D02*
X007484Y021281D01*
X007385Y021182D02*
X006763Y021182D01*
X006763Y021084D02*
X007287Y021084D01*
X007188Y020985D02*
X006736Y020985D01*
X006691Y020887D02*
X007090Y020887D01*
X007891Y020394D02*
X011287Y020394D01*
X011360Y020493D02*
X007989Y020493D01*
X008088Y020591D02*
X011475Y020591D01*
X011384Y020690D02*
X008187Y020690D01*
X008285Y020788D02*
X011286Y020788D01*
X011187Y020887D02*
X008384Y020887D01*
X008482Y020985D02*
X011088Y020985D01*
X010990Y021084D02*
X008581Y021084D01*
X008679Y021182D02*
X010891Y021182D01*
X010793Y021281D02*
X010364Y021281D01*
X010462Y021379D02*
X010694Y021379D01*
X010596Y021478D02*
X010504Y021478D01*
X009807Y021281D02*
X008778Y021281D01*
X008575Y021672D02*
X008575Y021672D01*
X008578Y021675D02*
X008533Y021675D01*
X008512Y021774D02*
X008677Y021774D01*
X008472Y021872D02*
X009699Y021872D01*
X009788Y021971D02*
X008383Y021971D01*
X008207Y022069D02*
X009964Y022069D01*
X012052Y022069D02*
X013519Y022069D01*
X013420Y022168D02*
X012151Y022168D01*
X012200Y022266D02*
X013371Y022266D01*
X013338Y022365D02*
X012233Y022365D01*
X012233Y022463D02*
X013338Y022463D01*
X013353Y022562D02*
X012217Y022562D01*
X012176Y022661D02*
X013394Y022661D01*
X013476Y022759D02*
X012094Y022759D01*
X010462Y023843D02*
X015150Y023843D01*
X015686Y023153D02*
X015920Y023153D01*
X016019Y023055D02*
X015586Y023055D01*
X016315Y022759D02*
X014094Y022759D01*
X014176Y022661D02*
X016413Y022661D01*
X016512Y022562D02*
X014217Y022562D01*
X014233Y022463D02*
X016610Y022463D01*
X016709Y022365D02*
X014233Y022365D01*
X014200Y022266D02*
X016807Y022266D01*
X016906Y022168D02*
X014151Y022168D01*
X014052Y022069D02*
X017004Y022069D01*
X017303Y022365D02*
X020169Y022365D01*
X020303Y022266D02*
X017401Y022266D01*
X017500Y022168D02*
X020437Y022168D01*
X020551Y022069D02*
X017598Y022069D01*
X017697Y021971D02*
X020658Y021971D01*
X020765Y021872D02*
X017795Y021872D01*
X017894Y021774D02*
X020872Y021774D01*
X020979Y021675D02*
X017993Y021675D01*
X018091Y021577D02*
X018631Y021577D01*
X018839Y021577D02*
X021086Y021577D01*
X020997Y021478D02*
X021194Y021478D01*
X021096Y021379D02*
X021301Y021379D01*
X021408Y021281D02*
X021138Y021281D01*
X021163Y021220D02*
X021098Y021377D01*
X020977Y021498D01*
X020820Y021563D01*
X020764Y021563D01*
X020764Y021164D01*
X020707Y021164D01*
X020707Y021563D01*
X020650Y021563D01*
X020493Y021498D01*
X020373Y021377D01*
X020308Y021220D01*
X020308Y021164D01*
X020706Y021164D01*
X020706Y021107D01*
X020308Y021107D01*
X020308Y021050D01*
X020373Y020893D01*
X020493Y020773D01*
X020650Y020708D01*
X020707Y020708D01*
X020707Y021106D01*
X020764Y021106D01*
X020764Y020708D01*
X020820Y020708D01*
X020977Y020773D01*
X021098Y020893D01*
X021163Y021050D01*
X021163Y021107D01*
X020764Y021107D01*
X020764Y021164D01*
X021163Y021164D01*
X021163Y021220D01*
X021163Y021182D02*
X021505Y021182D01*
X021591Y021084D02*
X021163Y021084D01*
X021136Y020985D02*
X021677Y020985D01*
X021762Y020887D02*
X021091Y020887D01*
X020993Y020788D02*
X021848Y020788D01*
X021934Y020690D02*
X018995Y020690D01*
X018995Y020591D02*
X022020Y020591D01*
X022106Y020493D02*
X018995Y020493D01*
X018995Y020394D02*
X022192Y020394D01*
X022277Y020295D02*
X018995Y020295D01*
X019071Y020197D02*
X022361Y020197D01*
X022429Y020098D02*
X019169Y020098D01*
X019268Y020000D02*
X022498Y020000D01*
X022566Y019901D02*
X019366Y019901D01*
X019465Y019803D02*
X022634Y019803D01*
X022703Y019704D02*
X019563Y019704D01*
X019662Y019606D02*
X022771Y019606D01*
X022839Y019507D02*
X020996Y019507D01*
X021095Y019409D02*
X022908Y019409D01*
X022976Y019310D02*
X021147Y019310D01*
X021183Y019211D02*
X023044Y019211D01*
X023113Y019113D02*
X021183Y019113D01*
X021170Y019014D02*
X023168Y019014D01*
X023221Y018916D02*
X021129Y018916D01*
X021050Y018817D02*
X023275Y018817D01*
X023328Y018719D02*
X020899Y018719D01*
X020746Y018522D02*
X023434Y018522D01*
X023381Y018620D02*
X020647Y018620D01*
X020572Y018719D02*
X020549Y018719D01*
X020301Y019014D02*
X020253Y019014D01*
X020288Y019113D02*
X020155Y019113D01*
X020056Y019211D02*
X020288Y019211D01*
X020323Y019310D02*
X019958Y019310D01*
X019859Y019409D02*
X020376Y019409D01*
X020474Y019507D02*
X019761Y019507D01*
X019462Y019211D02*
X019183Y019211D01*
X019183Y019113D02*
X019561Y019113D01*
X019659Y019014D02*
X019170Y019014D01*
X019129Y018916D02*
X019758Y018916D01*
X019856Y018817D02*
X019050Y018817D01*
X018899Y018719D02*
X019955Y018719D01*
X020053Y018620D02*
X018947Y018620D01*
X019046Y018522D02*
X020152Y018522D01*
X020251Y018423D02*
X019144Y018423D01*
X019243Y018325D02*
X020349Y018325D01*
X020448Y018226D02*
X019342Y018226D01*
X019440Y018128D02*
X020546Y018128D01*
X020645Y018029D02*
X019539Y018029D01*
X019637Y017930D02*
X020743Y017930D01*
X020842Y017832D02*
X019736Y017832D01*
X019834Y017733D02*
X020838Y017733D01*
X020838Y017635D02*
X019933Y017635D01*
X020031Y017536D02*
X020863Y017536D01*
X020904Y017438D02*
X020130Y017438D01*
X020228Y017339D02*
X020999Y017339D01*
X021075Y017241D02*
X020327Y017241D01*
X020426Y017142D02*
X021075Y017142D01*
X021075Y017044D02*
X020524Y017044D01*
X020623Y016945D02*
X021075Y016945D01*
X021075Y016846D02*
X020721Y016846D01*
X020820Y016748D02*
X021075Y016748D01*
X021075Y016649D02*
X020918Y016649D01*
X021017Y016551D02*
X021075Y016551D01*
X021495Y016551D02*
X024303Y016551D01*
X024275Y016649D02*
X021495Y016649D01*
X021495Y016748D02*
X024237Y016748D01*
X024197Y016846D02*
X021495Y016846D01*
X021495Y016945D02*
X024157Y016945D01*
X024117Y017044D02*
X021495Y017044D01*
X021495Y017142D02*
X024077Y017142D01*
X024037Y017241D02*
X021495Y017241D01*
X021572Y017339D02*
X023027Y017339D01*
X023043Y017323D02*
X023200Y017258D01*
X023257Y017258D01*
X023257Y017656D01*
X023314Y017656D01*
X023314Y017258D01*
X023370Y017258D01*
X023527Y017323D01*
X023648Y017443D01*
X023713Y017600D01*
X023713Y017657D01*
X023314Y017657D01*
X023314Y017714D01*
X023257Y017714D01*
X023257Y018113D01*
X023200Y018113D01*
X023043Y018048D01*
X022923Y017927D01*
X022858Y017770D01*
X022858Y017714D01*
X023256Y017714D01*
X023256Y017657D01*
X022858Y017657D01*
X022858Y017600D01*
X022923Y017443D01*
X023043Y017323D01*
X022928Y017438D02*
X021667Y017438D01*
X021708Y017536D02*
X022884Y017536D01*
X022858Y017635D02*
X021733Y017635D01*
X021733Y017733D02*
X022858Y017733D01*
X022883Y017832D02*
X021709Y017832D01*
X021668Y017930D02*
X022926Y017930D01*
X023024Y018029D02*
X021575Y018029D01*
X021387Y018128D02*
X023648Y018128D01*
X023594Y018226D02*
X021042Y018226D01*
X021140Y018128D02*
X021184Y018128D01*
X020943Y018325D02*
X023541Y018325D01*
X023488Y018423D02*
X020844Y018423D01*
X019437Y017536D02*
X016052Y017536D01*
X016052Y017438D02*
X019536Y017438D01*
X019635Y017339D02*
X017328Y017339D01*
X017427Y017241D02*
X019733Y017241D01*
X019832Y017142D02*
X017526Y017142D01*
X017227Y016846D02*
X015992Y016846D01*
X016052Y016945D02*
X017129Y016945D01*
X017326Y016748D02*
X015495Y016748D01*
X015495Y016649D02*
X017345Y016649D01*
X017345Y016551D02*
X015495Y016551D01*
X015495Y016452D02*
X017345Y016452D01*
X017374Y016354D02*
X015495Y016354D01*
X015495Y016255D02*
X017473Y016255D01*
X017571Y016157D02*
X015454Y016157D01*
X015592Y016058D02*
X015778Y016058D01*
X015712Y015960D02*
X015658Y015960D01*
X015658Y015861D02*
X015712Y015861D01*
X015712Y015762D02*
X015658Y015762D01*
X015704Y015664D02*
X015712Y015664D01*
X016367Y015664D02*
X020838Y015664D01*
X020838Y015762D02*
X016367Y015762D01*
X016367Y015861D02*
X020874Y015861D01*
X020927Y015960D02*
X016367Y015960D01*
X016301Y016058D02*
X020916Y016058D01*
X020817Y016157D02*
X020100Y016157D01*
X020198Y016255D02*
X020719Y016255D01*
X020620Y016354D02*
X020297Y016354D01*
X020325Y016452D02*
X020521Y016452D01*
X020423Y016551D02*
X020325Y016551D01*
X019473Y016255D02*
X018198Y016255D01*
X018100Y016157D02*
X019571Y016157D01*
X019374Y016354D02*
X018297Y016354D01*
X018325Y016452D02*
X019345Y016452D01*
X019345Y016551D02*
X018325Y016551D01*
X018325Y016649D02*
X019345Y016649D01*
X019345Y016748D02*
X018325Y016748D01*
X018267Y016846D02*
X019404Y016846D01*
X019502Y016945D02*
X018169Y016945D01*
X018070Y017044D02*
X019601Y017044D01*
X019339Y017635D02*
X016016Y017635D01*
X015767Y017698D02*
X015604Y017698D01*
X015678Y017772D01*
X015678Y018464D01*
X015595Y018547D01*
X015595Y018816D01*
X015658Y018879D01*
X015658Y019492D01*
X015559Y019592D01*
X015103Y019592D01*
X015004Y019492D01*
X015004Y018879D01*
X015103Y018779D01*
X015175Y018779D01*
X015175Y018564D01*
X015044Y018564D01*
X014944Y018464D01*
X014944Y017772D01*
X015044Y017673D01*
X015075Y017673D01*
X015075Y016372D01*
X014898Y016195D01*
X014795Y016092D01*
X014795Y019398D01*
X015176Y019779D01*
X015559Y019779D01*
X015658Y019879D01*
X015658Y020492D01*
X015559Y020592D01*
X015103Y020592D01*
X015004Y020492D01*
X015004Y020201D01*
X014375Y019572D01*
X014375Y019398D01*
X014375Y008172D01*
X014367Y008164D01*
X014367Y008492D01*
X014295Y008564D01*
X014295Y010698D01*
X014295Y010807D01*
X014367Y010879D01*
X014367Y011492D01*
X014295Y011564D01*
X014295Y013807D01*
X014367Y013879D01*
X014367Y014492D01*
X014268Y014592D01*
X013812Y014592D01*
X013712Y014492D01*
X013712Y013879D01*
X013812Y013779D01*
X013875Y013779D01*
X013875Y011592D01*
X013812Y011592D01*
X013712Y011492D01*
X013712Y010995D01*
X013658Y010995D01*
X013658Y011492D01*
X013559Y011592D01*
X013495Y011592D01*
X013495Y012232D01*
X013643Y012379D01*
X013725Y012578D01*
X013725Y012793D01*
X013643Y012991D01*
X013491Y013143D01*
X013293Y013225D01*
X013078Y013225D01*
X012879Y013143D01*
X012728Y012991D01*
X012674Y012863D01*
X012626Y012980D01*
X012480Y013126D01*
X012289Y013205D01*
X012215Y013205D01*
X012215Y012716D01*
X012155Y012716D01*
X012155Y013205D01*
X012082Y013205D01*
X011891Y013126D01*
X011745Y012980D01*
X011665Y012789D01*
X011665Y012715D01*
X012155Y012715D01*
X012155Y012655D01*
X012215Y012655D01*
X012215Y012165D01*
X012289Y012165D01*
X012480Y012245D01*
X012626Y012391D01*
X012674Y012508D01*
X012728Y012379D01*
X012879Y012228D01*
X013075Y012146D01*
X013075Y011564D01*
X013004Y011492D01*
X013004Y010995D01*
X012899Y010995D01*
X012795Y011099D01*
X012659Y011155D01*
X012512Y011155D01*
X012376Y011099D01*
X012272Y010995D01*
X012215Y010859D01*
X012215Y010712D01*
X012272Y010576D01*
X012376Y010472D01*
X012512Y010415D01*
X012659Y010415D01*
X012795Y010472D01*
X012899Y010575D01*
X013875Y010575D01*
X013875Y008592D01*
X013812Y008592D01*
X013712Y008492D01*
X013712Y007995D01*
X013658Y007995D01*
X013658Y008492D01*
X013559Y008592D01*
X013495Y008592D01*
X013495Y009232D01*
X013643Y009379D01*
X013725Y009578D01*
X013725Y009793D01*
X013643Y009991D01*
X013491Y010143D01*
X013293Y010225D01*
X013078Y010225D01*
X012879Y010143D01*
X012728Y009991D01*
X012674Y009863D01*
X012626Y009980D01*
X012480Y010126D01*
X012289Y010205D01*
X012215Y010205D01*
X012215Y009716D01*
X012155Y009716D01*
X012155Y010205D01*
X012082Y010205D01*
X011895Y010128D01*
X011895Y012072D01*
X011772Y012195D01*
X011310Y012657D01*
X011310Y012906D01*
X011281Y012935D01*
X011310Y012965D01*
X011310Y013406D01*
X011281Y013435D01*
X011310Y013465D01*
X011310Y013475D01*
X011472Y013475D01*
X011576Y013372D01*
X011712Y013315D01*
X011859Y013315D01*
X011995Y013372D01*
X012099Y013476D01*
X012155Y013612D01*
X012155Y013759D01*
X012099Y013895D01*
X011995Y013999D01*
X011859Y014055D01*
X011712Y014055D01*
X011576Y013999D01*
X011472Y013895D01*
X011310Y013895D01*
X011310Y013906D01*
X011281Y013935D01*
X011310Y013965D01*
X011310Y014406D01*
X011281Y014435D01*
X011310Y014465D01*
X011310Y014713D01*
X011772Y015175D01*
X011866Y015269D01*
X011891Y015245D01*
X012082Y015165D01*
X012155Y015165D01*
X012155Y015655D01*
X012215Y015655D01*
X012215Y015165D01*
X012289Y015165D01*
X012480Y015245D01*
X012626Y015391D01*
X012674Y015508D01*
X012728Y015379D01*
X012879Y015228D01*
X013075Y015146D01*
X013075Y014564D01*
X013004Y014492D01*
X013004Y013879D01*
X013103Y013779D01*
X013559Y013779D01*
X013658Y013879D01*
X013658Y014492D01*
X013559Y014592D01*
X013495Y014592D01*
X013495Y015232D01*
X013643Y015379D01*
X013725Y015578D01*
X013725Y015793D01*
X013643Y015991D01*
X013491Y016143D01*
X013293Y016225D01*
X013078Y016225D01*
X012879Y016143D01*
X012728Y015991D01*
X012674Y015863D01*
X012626Y015980D01*
X012480Y016126D01*
X012289Y016205D01*
X012215Y016205D01*
X012215Y015716D01*
X012155Y015716D01*
X012155Y016205D01*
X012082Y016205D01*
X011895Y016128D01*
X011895Y017272D01*
X011999Y017376D01*
X012055Y017512D01*
X012055Y017659D01*
X011999Y017795D01*
X011963Y017831D01*
X012065Y017932D01*
X012083Y017975D01*
X012198Y017975D01*
X012372Y017975D01*
X015372Y020975D01*
X015385Y020988D01*
X015424Y020988D01*
X015539Y021035D01*
X015982Y020592D01*
X015812Y020592D01*
X015712Y020492D01*
X015712Y019879D01*
X015812Y019779D01*
X015875Y019779D01*
X015875Y019592D01*
X015812Y019592D01*
X015712Y019492D01*
X015712Y018879D01*
X015812Y018779D01*
X015875Y018779D01*
X015875Y018564D01*
X015792Y018564D01*
X015693Y018464D01*
X015693Y017772D01*
X015767Y017698D01*
X015732Y017733D02*
X015639Y017733D01*
X015678Y017832D02*
X015693Y017832D01*
X015693Y017930D02*
X015678Y017930D01*
X015678Y018029D02*
X015693Y018029D01*
X015693Y018128D02*
X015678Y018128D01*
X015678Y018226D02*
X015693Y018226D01*
X015693Y018325D02*
X015678Y018325D01*
X015678Y018423D02*
X015693Y018423D01*
X015750Y018522D02*
X015621Y018522D01*
X015595Y018620D02*
X015875Y018620D01*
X015875Y018719D02*
X015595Y018719D01*
X015597Y018817D02*
X015774Y018817D01*
X015712Y018916D02*
X015658Y018916D01*
X015658Y019014D02*
X015712Y019014D01*
X015712Y019113D02*
X015658Y019113D01*
X015658Y019211D02*
X015712Y019211D01*
X015712Y019310D02*
X015658Y019310D01*
X015658Y019409D02*
X015712Y019409D01*
X015727Y019507D02*
X015643Y019507D01*
X015875Y019606D02*
X015003Y019606D01*
X015019Y019507D02*
X014904Y019507D01*
X014806Y019409D02*
X015004Y019409D01*
X015004Y019310D02*
X014795Y019310D01*
X014795Y019211D02*
X015004Y019211D01*
X015004Y019113D02*
X014795Y019113D01*
X014795Y019014D02*
X015004Y019014D01*
X015004Y018916D02*
X014795Y018916D01*
X014795Y018817D02*
X015065Y018817D01*
X015175Y018719D02*
X014795Y018719D01*
X014795Y018620D02*
X015175Y018620D01*
X015002Y018522D02*
X014795Y018522D01*
X014795Y018423D02*
X014944Y018423D01*
X014944Y018325D02*
X014795Y018325D01*
X014795Y018226D02*
X014944Y018226D01*
X014944Y018128D02*
X014795Y018128D01*
X014795Y018029D02*
X014944Y018029D01*
X014944Y017930D02*
X014795Y017930D01*
X014795Y017832D02*
X014944Y017832D01*
X014984Y017733D02*
X014795Y017733D01*
X014795Y017635D02*
X015075Y017635D01*
X015075Y017536D02*
X014795Y017536D01*
X014795Y017438D02*
X015075Y017438D01*
X015075Y017339D02*
X014795Y017339D01*
X014795Y017241D02*
X015075Y017241D01*
X015075Y017142D02*
X014795Y017142D01*
X014795Y017044D02*
X015075Y017044D01*
X015075Y016945D02*
X014795Y016945D01*
X014795Y016846D02*
X015075Y016846D01*
X015075Y016748D02*
X014795Y016748D01*
X014795Y016649D02*
X015075Y016649D01*
X015075Y016551D02*
X014795Y016551D01*
X014795Y016452D02*
X015075Y016452D01*
X015057Y016354D02*
X014795Y016354D01*
X014795Y016255D02*
X014958Y016255D01*
X014860Y016157D02*
X014795Y016157D01*
X014375Y016157D02*
X013459Y016157D01*
X013576Y016058D02*
X014375Y016058D01*
X014375Y015960D02*
X013656Y015960D01*
X013697Y015861D02*
X014375Y015861D01*
X014375Y015762D02*
X013725Y015762D01*
X013725Y015664D02*
X014375Y015664D01*
X014375Y015565D02*
X013720Y015565D01*
X013679Y015467D02*
X014375Y015467D01*
X014375Y015368D02*
X013632Y015368D01*
X013533Y015270D02*
X014375Y015270D01*
X014375Y015171D02*
X013495Y015171D01*
X013495Y015073D02*
X014375Y015073D01*
X014375Y014974D02*
X013495Y014974D01*
X013495Y014876D02*
X014375Y014876D01*
X014375Y014777D02*
X013495Y014777D01*
X013495Y014679D02*
X014375Y014679D01*
X014375Y014580D02*
X014279Y014580D01*
X014367Y014481D02*
X014375Y014481D01*
X014367Y014383D02*
X014375Y014383D01*
X014367Y014284D02*
X014375Y014284D01*
X014367Y014186D02*
X014375Y014186D01*
X014367Y014087D02*
X014375Y014087D01*
X014367Y013989D02*
X014375Y013989D01*
X014367Y013890D02*
X014375Y013890D01*
X014375Y013792D02*
X014295Y013792D01*
X014295Y013693D02*
X014375Y013693D01*
X014375Y013595D02*
X014295Y013595D01*
X014295Y013496D02*
X014375Y013496D01*
X014375Y013397D02*
X014295Y013397D01*
X014295Y013299D02*
X014375Y013299D01*
X014375Y013200D02*
X014295Y013200D01*
X014295Y013102D02*
X014375Y013102D01*
X014375Y013003D02*
X014295Y013003D01*
X014295Y012905D02*
X014375Y012905D01*
X014375Y012806D02*
X014295Y012806D01*
X014295Y012708D02*
X014375Y012708D01*
X014375Y012609D02*
X014295Y012609D01*
X014295Y012511D02*
X014375Y012511D01*
X014375Y012412D02*
X014295Y012412D01*
X014295Y012313D02*
X014375Y012313D01*
X014375Y012215D02*
X014295Y012215D01*
X014295Y012116D02*
X014375Y012116D01*
X014375Y012018D02*
X014295Y012018D01*
X014295Y011919D02*
X014375Y011919D01*
X014375Y011821D02*
X014295Y011821D01*
X014295Y011722D02*
X014375Y011722D01*
X014375Y011624D02*
X014295Y011624D01*
X014334Y011525D02*
X014375Y011525D01*
X014367Y011427D02*
X014375Y011427D01*
X014367Y011328D02*
X014375Y011328D01*
X014367Y011229D02*
X014375Y011229D01*
X014367Y011131D02*
X014375Y011131D01*
X014367Y011032D02*
X014375Y011032D01*
X014367Y010934D02*
X014375Y010934D01*
X014375Y010835D02*
X014324Y010835D01*
X014295Y010737D02*
X014375Y010737D01*
X014375Y010638D02*
X014295Y010638D01*
X014295Y010540D02*
X014375Y010540D01*
X014375Y010441D02*
X014295Y010441D01*
X014295Y010343D02*
X014375Y010343D01*
X014375Y010244D02*
X014295Y010244D01*
X014295Y010146D02*
X014375Y010146D01*
X014375Y010047D02*
X014295Y010047D01*
X014295Y009948D02*
X014375Y009948D01*
X014375Y009850D02*
X014295Y009850D01*
X014295Y009751D02*
X014375Y009751D01*
X014375Y009653D02*
X014295Y009653D01*
X014295Y009554D02*
X014375Y009554D01*
X014375Y009456D02*
X014295Y009456D01*
X014295Y009357D02*
X014375Y009357D01*
X014375Y009259D02*
X014295Y009259D01*
X014295Y009160D02*
X014375Y009160D01*
X014375Y009062D02*
X014295Y009062D01*
X014295Y008963D02*
X014375Y008963D01*
X014375Y008864D02*
X014295Y008864D01*
X014295Y008766D02*
X014375Y008766D01*
X014375Y008667D02*
X014295Y008667D01*
X014295Y008569D02*
X014375Y008569D01*
X014367Y008470D02*
X014375Y008470D01*
X014367Y008372D02*
X014375Y008372D01*
X014367Y008273D02*
X014375Y008273D01*
X014367Y008175D02*
X014375Y008175D01*
X013789Y008569D02*
X013582Y008569D01*
X013658Y008470D02*
X013712Y008470D01*
X013712Y008372D02*
X013658Y008372D01*
X013658Y008273D02*
X013712Y008273D01*
X013712Y008175D02*
X013658Y008175D01*
X013658Y008076D02*
X013712Y008076D01*
X013004Y008164D02*
X011946Y009222D01*
X012082Y009165D01*
X012155Y009165D01*
X012155Y009655D01*
X012215Y009655D01*
X012215Y009165D01*
X012289Y009165D01*
X012480Y009245D01*
X012626Y009391D01*
X012674Y009508D01*
X012728Y009379D01*
X012879Y009228D01*
X013075Y009146D01*
X013075Y008564D01*
X013004Y008492D01*
X013004Y008164D01*
X013004Y008175D02*
X012993Y008175D01*
X013004Y008273D02*
X012894Y008273D01*
X012796Y008372D02*
X013004Y008372D01*
X013004Y008470D02*
X012697Y008470D01*
X012599Y008569D02*
X013075Y008569D01*
X013075Y008667D02*
X012500Y008667D01*
X012402Y008766D02*
X013075Y008766D01*
X013075Y008864D02*
X012303Y008864D01*
X012205Y008963D02*
X013075Y008963D01*
X013075Y009062D02*
X012106Y009062D01*
X012008Y009160D02*
X013042Y009160D01*
X012848Y009259D02*
X012494Y009259D01*
X012593Y009357D02*
X012750Y009357D01*
X012696Y009456D02*
X012653Y009456D01*
X012215Y009456D02*
X012155Y009456D01*
X012155Y009554D02*
X012215Y009554D01*
X012215Y009653D02*
X012155Y009653D01*
X012155Y009751D02*
X012215Y009751D01*
X012215Y009850D02*
X012155Y009850D01*
X012155Y009948D02*
X012215Y009948D01*
X012215Y010047D02*
X012155Y010047D01*
X012155Y010146D02*
X012215Y010146D01*
X012433Y010146D02*
X012885Y010146D01*
X012783Y010047D02*
X012559Y010047D01*
X012639Y009948D02*
X012710Y009948D01*
X011938Y010146D02*
X011895Y010146D01*
X011895Y010244D02*
X013875Y010244D01*
X013875Y010146D02*
X013485Y010146D01*
X013587Y010047D02*
X013875Y010047D01*
X013875Y009948D02*
X013661Y009948D01*
X013702Y009850D02*
X013875Y009850D01*
X013875Y009751D02*
X013725Y009751D01*
X013725Y009653D02*
X013875Y009653D01*
X013875Y009554D02*
X013716Y009554D01*
X013675Y009456D02*
X013875Y009456D01*
X013875Y009357D02*
X013621Y009357D01*
X013522Y009259D02*
X013875Y009259D01*
X013875Y009160D02*
X013495Y009160D01*
X013495Y009062D02*
X013875Y009062D01*
X013875Y008963D02*
X013495Y008963D01*
X013495Y008864D02*
X013875Y008864D01*
X013875Y008766D02*
X013495Y008766D01*
X013495Y008667D02*
X013875Y008667D01*
X015495Y008273D02*
X019975Y008273D01*
X019975Y008175D02*
X015495Y008175D01*
X015495Y008076D02*
X019975Y008076D01*
X019975Y007978D02*
X015495Y007978D01*
X015495Y007879D02*
X019975Y007879D01*
X019975Y007780D02*
X015495Y007780D01*
X015495Y007682D02*
X019975Y007682D01*
X019975Y007583D02*
X019894Y007583D01*
X019477Y007583D02*
X015495Y007583D01*
X015495Y007485D02*
X016382Y007485D01*
X016306Y007453D02*
X016117Y007265D01*
X016015Y007019D01*
X016015Y006752D01*
X016117Y006506D01*
X016306Y006317D01*
X016552Y006215D01*
X016819Y006215D01*
X017065Y006317D01*
X017253Y006506D01*
X017355Y006752D01*
X017355Y007019D01*
X017253Y007265D01*
X017065Y007453D01*
X016819Y007555D01*
X016552Y007555D01*
X016306Y007453D01*
X016239Y007386D02*
X015495Y007386D01*
X015495Y007288D02*
X016140Y007288D01*
X016086Y007189D02*
X015495Y007189D01*
X015544Y007091D02*
X016045Y007091D01*
X016015Y006992D02*
X015642Y006992D01*
X015684Y006894D02*
X016015Y006894D01*
X016015Y006795D02*
X015724Y006795D01*
X015725Y006696D02*
X016038Y006696D01*
X016079Y006598D02*
X015725Y006598D01*
X015693Y006499D02*
X016124Y006499D01*
X016222Y006401D02*
X015652Y006401D01*
X015566Y006302D02*
X016342Y006302D01*
X016431Y006105D02*
X015501Y006105D01*
X015434Y006204D02*
X019475Y006204D01*
X019475Y006302D02*
X018529Y006302D01*
X018565Y006317D02*
X018753Y006506D01*
X018855Y006752D01*
X018855Y007019D01*
X018753Y007265D01*
X018565Y007453D01*
X018319Y007555D01*
X018052Y007555D01*
X017806Y007453D01*
X017617Y007265D01*
X017515Y007019D01*
X017515Y006752D01*
X017617Y006506D01*
X017806Y006317D01*
X018052Y006215D01*
X018319Y006215D01*
X018565Y006317D01*
X018648Y006401D02*
X019475Y006401D01*
X019475Y006499D02*
X018747Y006499D01*
X018791Y006598D02*
X019501Y006598D01*
X019600Y006696D02*
X018832Y006696D01*
X018855Y006795D02*
X019458Y006795D01*
X019344Y006894D02*
X018855Y006894D01*
X018855Y006992D02*
X019281Y006992D01*
X019240Y007091D02*
X018825Y007091D01*
X018785Y007189D02*
X019238Y007189D01*
X019243Y007288D02*
X018730Y007288D01*
X018632Y007386D02*
X019284Y007386D01*
X019352Y007485D02*
X018489Y007485D01*
X017882Y007485D02*
X016989Y007485D01*
X017132Y007386D02*
X017739Y007386D01*
X017640Y007288D02*
X017230Y007288D01*
X017285Y007189D02*
X017586Y007189D01*
X017545Y007091D02*
X017325Y007091D01*
X017355Y006992D02*
X017515Y006992D01*
X017515Y006894D02*
X017355Y006894D01*
X017355Y006795D02*
X017515Y006795D01*
X017538Y006696D02*
X017332Y006696D01*
X017291Y006598D02*
X017579Y006598D01*
X017624Y006499D02*
X017247Y006499D01*
X017148Y006401D02*
X017722Y006401D01*
X017842Y006302D02*
X017029Y006302D01*
X016940Y006105D02*
X017931Y006105D01*
X018052Y006155D02*
X017806Y006053D01*
X017617Y005865D01*
X017515Y005619D01*
X017515Y005352D01*
X017617Y005106D01*
X017806Y004917D01*
X018052Y004815D01*
X018319Y004815D01*
X018565Y004917D01*
X018753Y005106D01*
X018855Y005352D01*
X018855Y005619D01*
X018753Y005865D01*
X018565Y006053D01*
X018319Y006155D01*
X018052Y006155D01*
X017759Y006007D02*
X017111Y006007D01*
X017065Y006053D02*
X016819Y006155D01*
X016552Y006155D01*
X016306Y006053D01*
X016117Y005865D01*
X016015Y005619D01*
X016015Y005352D01*
X016117Y005106D01*
X016306Y004917D01*
X016552Y004815D01*
X016819Y004815D01*
X017065Y004917D01*
X017253Y005106D01*
X017355Y005352D01*
X017355Y005619D01*
X017253Y005865D01*
X017065Y006053D01*
X017210Y005908D02*
X017661Y005908D01*
X017594Y005810D02*
X017276Y005810D01*
X017317Y005711D02*
X017554Y005711D01*
X017515Y005613D02*
X017355Y005613D01*
X017355Y005514D02*
X017515Y005514D01*
X017515Y005415D02*
X017355Y005415D01*
X017341Y005317D02*
X017530Y005317D01*
X017571Y005218D02*
X017300Y005218D01*
X017259Y005120D02*
X017612Y005120D01*
X017702Y005021D02*
X017169Y005021D01*
X017070Y004923D02*
X017800Y004923D01*
X018031Y004824D02*
X016840Y004824D01*
X016531Y004824D02*
X015243Y004824D01*
X015145Y004923D02*
X016300Y004923D01*
X016202Y005021D02*
X015046Y005021D01*
X014948Y005120D02*
X016112Y005120D01*
X016071Y005218D02*
X015417Y005218D01*
X015552Y005317D02*
X016030Y005317D01*
X016015Y005415D02*
X015636Y005415D01*
X015677Y005514D02*
X016015Y005514D01*
X016015Y005613D02*
X015705Y005613D01*
X015697Y005810D02*
X016094Y005810D01*
X016054Y005711D02*
X015236Y005711D01*
X015235Y005613D02*
X015135Y005613D01*
X015135Y005635D02*
X015135Y005165D01*
X015082Y005165D01*
X014891Y005245D01*
X014745Y005391D01*
X014665Y005582D01*
X014665Y005635D01*
X015135Y005635D01*
X015135Y005711D02*
X014357Y005711D01*
X014455Y005613D02*
X014665Y005613D01*
X014693Y005514D02*
X014554Y005514D01*
X014652Y005415D02*
X014734Y005415D01*
X014751Y005317D02*
X014818Y005317D01*
X014849Y005218D02*
X014954Y005218D01*
X015135Y005218D02*
X015235Y005218D01*
X015235Y005317D02*
X015135Y005317D01*
X015135Y005415D02*
X015235Y005415D01*
X015235Y005514D02*
X015135Y005514D01*
X014674Y005810D02*
X014258Y005810D01*
X014159Y005908D02*
X014715Y005908D01*
X014771Y006007D02*
X014061Y006007D01*
X013962Y006105D02*
X014870Y006105D01*
X014937Y006204D02*
X013864Y006204D01*
X013872Y006195D02*
X013872Y006195D01*
X013765Y006302D02*
X014805Y006302D01*
X014719Y006401D02*
X013667Y006401D01*
X013568Y006499D02*
X014678Y006499D01*
X014645Y006598D02*
X013470Y006598D01*
X013371Y006696D02*
X014645Y006696D01*
X014646Y006795D02*
X013860Y006795D01*
X013714Y006795D02*
X013657Y006795D01*
X013657Y006894D02*
X013714Y006894D01*
X013714Y006992D02*
X013657Y006992D01*
X013657Y007091D02*
X013714Y007091D01*
X013714Y007189D02*
X014991Y007189D01*
X015075Y007288D02*
X014106Y007288D01*
X014109Y007091D02*
X014827Y007091D01*
X014728Y006992D02*
X014068Y006992D01*
X013998Y006894D02*
X014687Y006894D01*
X013656Y007189D02*
X012878Y007189D01*
X012780Y007288D02*
X013265Y007288D01*
X013262Y007091D02*
X012977Y007091D01*
X013076Y006992D02*
X013303Y006992D01*
X013373Y006894D02*
X013174Y006894D01*
X013273Y006795D02*
X013511Y006795D01*
X013073Y006401D02*
X009693Y006401D01*
X009737Y006302D02*
X013171Y006302D01*
X013270Y006204D02*
X009755Y006204D01*
X009753Y006105D02*
X013368Y006105D01*
X013467Y006007D02*
X009712Y006007D01*
X009631Y005908D02*
X013411Y005908D01*
X013313Y005810D02*
X009507Y005810D01*
X009408Y005711D02*
X013214Y005711D01*
X013116Y005613D02*
X011823Y005613D01*
X011990Y005514D02*
X013017Y005514D01*
X012918Y005415D02*
X012074Y005415D01*
X012115Y005317D02*
X012820Y005317D01*
X012721Y005218D02*
X012133Y005218D01*
X012133Y005120D02*
X012623Y005120D01*
X012524Y005021D02*
X012102Y005021D01*
X012056Y004923D02*
X012426Y004923D01*
X012327Y004824D02*
X011957Y004824D01*
X012130Y004627D02*
X009557Y004627D01*
X009627Y004598D02*
X009470Y004663D01*
X009414Y004663D01*
X009414Y004264D01*
X009357Y004264D01*
X009357Y004663D01*
X009300Y004663D01*
X009143Y004598D01*
X009023Y004477D01*
X008958Y004320D01*
X008958Y004264D01*
X009356Y004264D01*
X009356Y004207D01*
X008958Y004207D01*
X008958Y004150D01*
X009023Y003993D01*
X009143Y003873D01*
X009300Y003808D01*
X009357Y003808D01*
X009357Y004206D01*
X009414Y004206D01*
X009414Y003808D01*
X009470Y003808D01*
X009627Y003873D01*
X009748Y003993D01*
X009813Y004150D01*
X009813Y004207D01*
X009414Y004207D01*
X009414Y004264D01*
X009813Y004264D01*
X009813Y004320D01*
X009748Y004477D01*
X009627Y004598D01*
X009697Y004529D02*
X012032Y004529D01*
X011933Y004430D02*
X009767Y004430D01*
X009808Y004331D02*
X011834Y004331D01*
X011736Y004233D02*
X009414Y004233D01*
X009356Y004233D02*
X007833Y004233D01*
X007830Y004331D02*
X008962Y004331D01*
X009003Y004430D02*
X007789Y004430D01*
X007725Y004529D02*
X009074Y004529D01*
X009214Y004627D02*
X007609Y004627D01*
X007295Y004824D02*
X007104Y004824D01*
X007158Y004923D02*
X007232Y004923D01*
X007232Y005021D02*
X007158Y005021D01*
X007158Y005120D02*
X007232Y005120D01*
X007232Y005218D02*
X007158Y005218D01*
X007158Y005317D02*
X007232Y005317D01*
X007232Y005415D02*
X007158Y005415D01*
X007136Y005514D02*
X007262Y005514D01*
X007847Y005415D02*
X008004Y005415D01*
X008065Y005317D02*
X007847Y005317D01*
X007162Y004627D02*
X006524Y004627D01*
X006426Y004529D02*
X007046Y004529D01*
X006982Y004430D02*
X006327Y004430D01*
X006453Y004331D02*
X006941Y004331D01*
X006938Y004233D02*
X006547Y004233D01*
X006587Y004134D02*
X006943Y004134D01*
X006984Y004036D02*
X006625Y004036D01*
X006625Y003937D02*
X007051Y003937D01*
X007173Y003839D02*
X006625Y003839D01*
X006589Y003740D02*
X007534Y003740D01*
X007632Y003642D02*
X006548Y003642D01*
X006457Y003543D02*
X007731Y003543D01*
X007829Y003445D02*
X006312Y003445D01*
X005859Y003445D02*
X005312Y003445D01*
X005457Y003543D02*
X005714Y003543D01*
X005622Y003642D02*
X005548Y003642D01*
X005522Y002755D02*
X011226Y002755D01*
X011282Y002656D02*
X009539Y002656D01*
X009474Y002683D02*
X009296Y002683D01*
X009132Y002615D01*
X009006Y002489D01*
X008938Y002324D01*
X008938Y002146D01*
X009006Y001982D01*
X009132Y001856D01*
X009296Y001788D01*
X009474Y001788D01*
X009639Y001856D01*
X009765Y001982D01*
X009833Y002146D01*
X009833Y002324D01*
X009765Y002489D01*
X009639Y002615D01*
X009474Y002683D01*
X009232Y002656D02*
X007539Y002656D01*
X007474Y002683D02*
X007296Y002683D01*
X007132Y002615D01*
X007006Y002489D01*
X006938Y002324D01*
X006938Y002146D01*
X007006Y001982D01*
X007132Y001856D01*
X007296Y001788D01*
X007474Y001788D01*
X007639Y001856D01*
X007765Y001982D01*
X007833Y002146D01*
X007833Y002324D01*
X007765Y002489D01*
X007639Y002615D01*
X007474Y002683D01*
X007232Y002656D02*
X005673Y002656D01*
X005824Y002558D02*
X007075Y002558D01*
X006994Y002459D02*
X005975Y002459D01*
X006126Y002361D02*
X006953Y002361D01*
X006938Y002262D02*
X006276Y002262D01*
X006427Y002164D02*
X006938Y002164D01*
X006972Y002065D02*
X006583Y002065D01*
X006778Y001966D02*
X007021Y001966D01*
X006973Y001868D02*
X007120Y001868D01*
X007167Y001769D02*
X013572Y001769D01*
X013474Y001671D02*
X007362Y001671D01*
X007557Y001572D02*
X013375Y001572D01*
X013277Y001474D02*
X007752Y001474D01*
X008010Y001375D02*
X011528Y001375D01*
X011344Y001277D02*
X008273Y001277D01*
X008537Y001178D02*
X011252Y001178D01*
X011211Y001080D02*
X008800Y001080D01*
X009079Y000981D02*
X011188Y000981D01*
X011188Y000882D02*
X009469Y000882D01*
X009858Y000784D02*
X011214Y000784D01*
X011255Y000685D02*
X010247Y000685D01*
X010883Y000587D02*
X011351Y000587D01*
X011743Y001375D02*
X013178Y001375D01*
X013080Y001277D02*
X011927Y001277D01*
X013671Y001868D02*
X009651Y001868D01*
X009749Y001966D02*
X013769Y001966D01*
X013868Y002065D02*
X009799Y002065D01*
X009833Y002164D02*
X013967Y002164D01*
X014065Y002262D02*
X009833Y002262D01*
X009818Y002361D02*
X015328Y002361D01*
X015426Y002459D02*
X009777Y002459D01*
X009696Y002558D02*
X011380Y002558D01*
X011891Y002558D02*
X013430Y002558D01*
X013393Y002573D02*
X013550Y002508D01*
X013607Y002508D01*
X013607Y002906D01*
X013664Y002906D01*
X013664Y002508D01*
X013720Y002508D01*
X013877Y002573D01*
X013998Y002693D01*
X014063Y002850D01*
X014063Y002907D01*
X013664Y002907D01*
X013664Y002964D01*
X013607Y002964D01*
X013607Y003363D01*
X013550Y003363D01*
X013393Y003298D01*
X013273Y003177D01*
X013208Y003020D01*
X013208Y002964D01*
X013606Y002964D01*
X013606Y002907D01*
X013208Y002907D01*
X013208Y002850D01*
X013273Y002693D01*
X013393Y002573D01*
X013310Y002656D02*
X011989Y002656D01*
X012045Y002755D02*
X013247Y002755D01*
X013208Y002853D02*
X012083Y002853D01*
X012083Y002952D02*
X013606Y002952D01*
X013664Y002952D02*
X017155Y002952D01*
X017253Y003050D02*
X014050Y003050D01*
X014063Y003020D02*
X013998Y003177D01*
X013877Y003298D01*
X013720Y003363D01*
X013664Y003363D01*
X013664Y002964D01*
X014063Y002964D01*
X014063Y003020D01*
X014010Y003149D02*
X017352Y003149D01*
X017451Y003247D02*
X013928Y003247D01*
X013761Y003346D02*
X017549Y003346D01*
X017648Y003445D02*
X011541Y003445D01*
X011458Y003346D02*
X011443Y003346D01*
X011640Y003543D02*
X017746Y003543D01*
X017845Y003642D02*
X015783Y003642D01*
X015587Y003642D02*
X011739Y003642D01*
X011837Y003740D02*
X015398Y003740D01*
X015303Y003839D02*
X011936Y003839D01*
X012034Y003937D02*
X015262Y003937D01*
X015238Y004036D02*
X012133Y004036D01*
X012231Y004134D02*
X015238Y004134D01*
X015241Y004233D02*
X012330Y004233D01*
X012428Y004331D02*
X015142Y004331D01*
X015044Y004430D02*
X012527Y004430D01*
X012625Y004529D02*
X014945Y004529D01*
X014847Y004627D02*
X012724Y004627D01*
X012823Y004726D02*
X014748Y004726D01*
X014650Y004824D02*
X013957Y004824D01*
X014056Y004923D02*
X014551Y004923D01*
X014452Y005021D02*
X014102Y005021D01*
X014133Y005120D02*
X014354Y005120D01*
X014255Y005218D02*
X014133Y005218D01*
X014115Y005317D02*
X014157Y005317D01*
X013414Y004824D02*
X012921Y004824D01*
X013020Y004923D02*
X013315Y004923D01*
X013269Y005021D02*
X013118Y005021D01*
X013217Y005120D02*
X013238Y005120D01*
X012229Y004726D02*
X006623Y004726D01*
X005930Y004627D02*
X003460Y004627D01*
X007828Y004134D02*
X008964Y004134D01*
X009005Y004036D02*
X007832Y004036D01*
X007930Y003937D02*
X009079Y003937D01*
X009226Y003839D02*
X008029Y003839D01*
X008127Y003740D02*
X011243Y003740D01*
X011145Y003642D02*
X008226Y003642D01*
X008325Y003543D02*
X011046Y003543D01*
X010948Y003445D02*
X008423Y003445D01*
X008522Y003346D02*
X010849Y003346D01*
X010751Y003247D02*
X008620Y003247D01*
X009075Y002558D02*
X007696Y002558D01*
X007777Y002459D02*
X008994Y002459D01*
X008953Y002361D02*
X007818Y002361D01*
X007833Y002262D02*
X008938Y002262D01*
X008938Y002164D02*
X007833Y002164D01*
X007799Y002065D02*
X008972Y002065D01*
X009021Y001966D02*
X007749Y001966D01*
X007651Y001868D02*
X009120Y001868D01*
X011813Y003346D02*
X013510Y003346D01*
X013607Y003346D02*
X013664Y003346D01*
X013664Y003247D02*
X013607Y003247D01*
X013607Y003149D02*
X013664Y003149D01*
X013664Y003050D02*
X013607Y003050D01*
X013607Y002853D02*
X013664Y002853D01*
X013664Y002755D02*
X013607Y002755D01*
X013607Y002656D02*
X013664Y002656D01*
X013664Y002558D02*
X013607Y002558D01*
X013841Y002558D02*
X016761Y002558D01*
X016859Y002656D02*
X013961Y002656D01*
X014023Y002755D02*
X016958Y002755D01*
X017056Y002853D02*
X014063Y002853D01*
X013343Y003247D02*
X011956Y003247D01*
X012031Y003149D02*
X013261Y003149D01*
X013220Y003050D02*
X012072Y003050D01*
X011342Y003839D02*
X009545Y003839D01*
X009414Y003839D02*
X009357Y003839D01*
X009357Y003937D02*
X009414Y003937D01*
X009414Y004036D02*
X009357Y004036D01*
X009357Y004134D02*
X009414Y004134D01*
X009414Y004331D02*
X009357Y004331D01*
X009357Y004430D02*
X009414Y004430D01*
X009414Y004529D02*
X009357Y004529D01*
X009357Y004627D02*
X009414Y004627D01*
X009806Y004134D02*
X011637Y004134D01*
X011539Y004036D02*
X009765Y004036D01*
X009692Y003937D02*
X011440Y003937D01*
X011296Y005415D02*
X009367Y005415D01*
X009367Y005514D02*
X011381Y005514D01*
X011547Y005613D02*
X009367Y005613D01*
X009594Y006499D02*
X012974Y006499D01*
X012679Y006795D02*
X011912Y006795D01*
X012026Y006894D02*
X012580Y006894D01*
X012681Y007386D02*
X012887Y007386D01*
X011458Y006795D02*
X009283Y006795D01*
X009367Y006894D02*
X011344Y006894D01*
X011281Y006992D02*
X009367Y006992D01*
X009367Y007091D02*
X011240Y007091D01*
X011238Y007189D02*
X009367Y007189D01*
X009367Y007288D02*
X011243Y007288D01*
X011284Y007386D02*
X009367Y007386D01*
X006575Y007386D02*
X006115Y007386D01*
X006156Y007288D02*
X006575Y007288D01*
X006575Y007485D02*
X006040Y007485D01*
X001234Y010835D02*
X001195Y010835D01*
X001195Y010934D02*
X001301Y010934D01*
X001195Y011032D02*
X001425Y011032D01*
X011310Y012708D02*
X012155Y012708D01*
X012155Y012655D02*
X011665Y012655D01*
X011665Y012582D01*
X011745Y012391D01*
X011891Y012245D01*
X012082Y012165D01*
X012155Y012165D01*
X012155Y012655D01*
X012155Y012609D02*
X012215Y012609D01*
X012215Y012511D02*
X012155Y012511D01*
X012155Y012412D02*
X012215Y012412D01*
X012215Y012313D02*
X012155Y012313D01*
X012155Y012215D02*
X012215Y012215D01*
X012408Y012215D02*
X012910Y012215D01*
X012794Y012313D02*
X012549Y012313D01*
X012635Y012412D02*
X012714Y012412D01*
X013075Y012116D02*
X011851Y012116D01*
X011895Y012018D02*
X013075Y012018D01*
X013075Y011919D02*
X011895Y011919D01*
X011895Y011821D02*
X013075Y011821D01*
X013075Y011722D02*
X011895Y011722D01*
X011895Y011624D02*
X013075Y011624D01*
X013037Y011525D02*
X011895Y011525D01*
X011895Y011427D02*
X013004Y011427D01*
X013004Y011328D02*
X011895Y011328D01*
X011895Y011229D02*
X013004Y011229D01*
X013004Y011131D02*
X012718Y011131D01*
X012861Y011032D02*
X013004Y011032D01*
X012453Y011131D02*
X011895Y011131D01*
X011895Y011032D02*
X012309Y011032D01*
X012246Y010934D02*
X011895Y010934D01*
X011895Y010835D02*
X012215Y010835D01*
X012215Y010737D02*
X011895Y010737D01*
X011895Y010638D02*
X012246Y010638D01*
X012308Y010540D02*
X011895Y010540D01*
X011895Y010441D02*
X012449Y010441D01*
X012721Y010441D02*
X013875Y010441D01*
X013875Y010343D02*
X011895Y010343D01*
X012863Y010540D02*
X013875Y010540D01*
X013712Y011032D02*
X013658Y011032D01*
X013658Y011131D02*
X013712Y011131D01*
X013712Y011229D02*
X013658Y011229D01*
X013658Y011328D02*
X013712Y011328D01*
X013712Y011427D02*
X013658Y011427D01*
X013625Y011525D02*
X013745Y011525D01*
X013875Y011624D02*
X013495Y011624D01*
X013495Y011722D02*
X013875Y011722D01*
X013875Y011821D02*
X013495Y011821D01*
X013495Y011919D02*
X013875Y011919D01*
X013875Y012018D02*
X013495Y012018D01*
X013495Y012116D02*
X013875Y012116D01*
X013875Y012215D02*
X013495Y012215D01*
X013577Y012313D02*
X013875Y012313D01*
X013875Y012412D02*
X013657Y012412D01*
X013697Y012511D02*
X013875Y012511D01*
X013875Y012609D02*
X013725Y012609D01*
X013725Y012708D02*
X013875Y012708D01*
X013875Y012806D02*
X013720Y012806D01*
X013679Y012905D02*
X013875Y012905D01*
X013875Y013003D02*
X013631Y013003D01*
X013533Y013102D02*
X013875Y013102D01*
X013875Y013200D02*
X013353Y013200D01*
X013018Y013200D02*
X012301Y013200D01*
X012215Y013200D02*
X012155Y013200D01*
X012070Y013200D02*
X011310Y013200D01*
X011310Y013102D02*
X011866Y013102D01*
X011768Y013003D02*
X011310Y013003D01*
X011310Y012905D02*
X011713Y012905D01*
X011673Y012806D02*
X011310Y012806D01*
X011359Y012609D02*
X011665Y012609D01*
X011695Y012511D02*
X011457Y012511D01*
X011556Y012412D02*
X011736Y012412D01*
X011654Y012313D02*
X011822Y012313D01*
X011753Y012215D02*
X011962Y012215D01*
X012155Y012806D02*
X012215Y012806D01*
X012215Y012905D02*
X012155Y012905D01*
X012155Y013003D02*
X012215Y013003D01*
X012215Y013102D02*
X012155Y013102D01*
X012021Y013397D02*
X013875Y013397D01*
X013875Y013299D02*
X011310Y013299D01*
X011310Y013397D02*
X011550Y013397D01*
X012107Y013496D02*
X013875Y013496D01*
X013875Y013595D02*
X012148Y013595D01*
X012155Y013693D02*
X013875Y013693D01*
X013799Y013792D02*
X013571Y013792D01*
X013658Y013890D02*
X013712Y013890D01*
X013712Y013989D02*
X013658Y013989D01*
X013658Y014087D02*
X013712Y014087D01*
X013712Y014186D02*
X013658Y014186D01*
X013658Y014284D02*
X013712Y014284D01*
X013712Y014383D02*
X013658Y014383D01*
X013658Y014481D02*
X013712Y014481D01*
X013800Y014580D02*
X013570Y014580D01*
X013075Y014580D02*
X011310Y014580D01*
X011310Y014679D02*
X013075Y014679D01*
X013075Y014777D02*
X011374Y014777D01*
X011473Y014876D02*
X013075Y014876D01*
X013075Y014974D02*
X011571Y014974D01*
X011670Y015073D02*
X013075Y015073D01*
X013015Y015171D02*
X012303Y015171D01*
X012215Y015171D02*
X012155Y015171D01*
X012068Y015171D02*
X011768Y015171D01*
X012155Y015270D02*
X012215Y015270D01*
X012215Y015368D02*
X012155Y015368D01*
X012155Y015467D02*
X012215Y015467D01*
X012215Y015565D02*
X012155Y015565D01*
X012155Y015762D02*
X012215Y015762D01*
X012215Y015861D02*
X012155Y015861D01*
X012155Y015960D02*
X012215Y015960D01*
X012215Y016058D02*
X012155Y016058D01*
X012155Y016157D02*
X012215Y016157D01*
X012406Y016157D02*
X012912Y016157D01*
X012794Y016058D02*
X012548Y016058D01*
X012635Y015960D02*
X012714Y015960D01*
X011964Y016157D02*
X011895Y016157D01*
X011895Y016255D02*
X014375Y016255D01*
X014375Y016354D02*
X011895Y016354D01*
X011895Y016452D02*
X014375Y016452D01*
X014375Y016551D02*
X011895Y016551D01*
X011895Y016649D02*
X014375Y016649D01*
X014375Y016748D02*
X011895Y016748D01*
X011895Y016846D02*
X014375Y016846D01*
X014375Y016945D02*
X011895Y016945D01*
X011895Y017044D02*
X014375Y017044D01*
X014375Y017142D02*
X011895Y017142D01*
X011895Y017241D02*
X014375Y017241D01*
X014375Y017339D02*
X011962Y017339D01*
X012025Y017438D02*
X014375Y017438D01*
X014375Y017536D02*
X012055Y017536D01*
X012055Y017635D02*
X014375Y017635D01*
X014375Y017733D02*
X012024Y017733D01*
X011965Y017832D02*
X013406Y017832D01*
X013432Y017806D02*
X013596Y017738D01*
X013774Y017738D01*
X013939Y017806D01*
X014065Y017932D01*
X014133Y018096D01*
X014133Y018274D01*
X014065Y018439D01*
X013939Y018565D01*
X013774Y018633D01*
X013596Y018633D01*
X013432Y018565D01*
X013306Y018439D01*
X013238Y018274D01*
X013238Y018096D01*
X013306Y017932D01*
X013432Y017806D01*
X013307Y017930D02*
X012063Y017930D01*
X012426Y018029D02*
X013266Y018029D01*
X013238Y018128D02*
X012524Y018128D01*
X012623Y018226D02*
X013238Y018226D01*
X013259Y018325D02*
X012722Y018325D01*
X012820Y018423D02*
X013300Y018423D01*
X013389Y018522D02*
X012919Y018522D01*
X013017Y018620D02*
X013566Y018620D01*
X013805Y018620D02*
X014375Y018620D01*
X014375Y018522D02*
X013982Y018522D01*
X014071Y018423D02*
X014375Y018423D01*
X014375Y018325D02*
X014112Y018325D01*
X014133Y018226D02*
X014375Y018226D01*
X014375Y018128D02*
X014133Y018128D01*
X014105Y018029D02*
X014375Y018029D01*
X014375Y017930D02*
X014063Y017930D01*
X013965Y017832D02*
X014375Y017832D01*
X014375Y018719D02*
X013116Y018719D01*
X013214Y018817D02*
X014375Y018817D01*
X014375Y018916D02*
X013313Y018916D01*
X013411Y019014D02*
X014375Y019014D01*
X014375Y019113D02*
X013510Y019113D01*
X013608Y019211D02*
X014375Y019211D01*
X014375Y019310D02*
X013707Y019310D01*
X013806Y019409D02*
X014375Y019409D01*
X014375Y019507D02*
X013904Y019507D01*
X014003Y019606D02*
X014409Y019606D01*
X014507Y019704D02*
X014101Y019704D01*
X014200Y019803D02*
X014606Y019803D01*
X014704Y019901D02*
X014298Y019901D01*
X014397Y020000D02*
X014803Y020000D01*
X014901Y020098D02*
X014495Y020098D01*
X014594Y020197D02*
X015000Y020197D01*
X015004Y020295D02*
X014692Y020295D01*
X014791Y020394D02*
X015004Y020394D01*
X015004Y020493D02*
X014890Y020493D01*
X014988Y020591D02*
X015103Y020591D01*
X015087Y020690D02*
X015884Y020690D01*
X015811Y020591D02*
X015559Y020591D01*
X015658Y020493D02*
X015713Y020493D01*
X015712Y020394D02*
X015658Y020394D01*
X015658Y020295D02*
X015712Y020295D01*
X015712Y020197D02*
X015658Y020197D01*
X015658Y020098D02*
X015712Y020098D01*
X015712Y020000D02*
X015658Y020000D01*
X015658Y019901D02*
X015712Y019901D01*
X015788Y019803D02*
X015583Y019803D01*
X015875Y019704D02*
X015101Y019704D01*
X014296Y020493D02*
X013983Y020493D01*
X014062Y020394D02*
X014197Y020394D01*
X014394Y020591D02*
X013823Y020591D01*
X013388Y020493D02*
X012011Y020493D01*
X012083Y020394D02*
X013309Y020394D01*
X013409Y019606D02*
X010725Y019606D01*
X010725Y019507D02*
X013310Y019507D01*
X013212Y019409D02*
X010672Y019409D01*
X010574Y019310D02*
X013113Y019310D01*
X013015Y019211D02*
X010475Y019211D01*
X010493Y019113D02*
X012916Y019113D01*
X012817Y019014D02*
X010592Y019014D01*
X010690Y018916D02*
X012719Y018916D01*
X012620Y018817D02*
X010705Y018817D01*
X010705Y018620D02*
X011566Y018620D01*
X011389Y018522D02*
X010705Y018522D01*
X010659Y018423D02*
X011300Y018423D01*
X011259Y018325D02*
X010560Y018325D01*
X010461Y018226D02*
X011238Y018226D01*
X011238Y018128D02*
X010340Y018128D01*
X010439Y018029D02*
X011266Y018029D01*
X011307Y017930D02*
X010537Y017930D01*
X010636Y017832D02*
X011406Y017832D01*
X011346Y017733D02*
X010734Y017733D01*
X010833Y017635D02*
X011315Y017635D01*
X011315Y017536D02*
X010931Y017536D01*
X011030Y017438D02*
X011346Y017438D01*
X011408Y017339D02*
X011128Y017339D01*
X011227Y017241D02*
X011475Y017241D01*
X011475Y017142D02*
X011326Y017142D01*
X011424Y017044D02*
X011475Y017044D01*
X012071Y018423D02*
X012226Y018423D01*
X012325Y018522D02*
X011982Y018522D01*
X011805Y018620D02*
X012423Y018620D01*
X012522Y018719D02*
X010236Y018719D01*
X009736Y020000D02*
X009634Y020000D01*
X009536Y020098D02*
X009835Y020098D01*
X009933Y020197D02*
X009437Y020197D01*
X008933Y020197D02*
X008437Y020197D01*
X008536Y020098D02*
X008835Y020098D01*
X008736Y020000D02*
X008634Y020000D01*
X006850Y018128D02*
X006724Y018128D01*
X006626Y018029D02*
X006918Y018029D01*
X006975Y017930D02*
X006527Y017930D01*
X006429Y017832D02*
X006975Y017832D01*
X012505Y015270D02*
X012837Y015270D01*
X012739Y015368D02*
X012604Y015368D01*
X012658Y015467D02*
X012691Y015467D01*
X013004Y014481D02*
X011310Y014481D01*
X011310Y014383D02*
X013004Y014383D01*
X013004Y014284D02*
X011310Y014284D01*
X011310Y014186D02*
X013004Y014186D01*
X013004Y014087D02*
X011310Y014087D01*
X011310Y013989D02*
X011565Y013989D01*
X012005Y013989D02*
X013004Y013989D01*
X013004Y013890D02*
X012101Y013890D01*
X012142Y013792D02*
X013091Y013792D01*
X012838Y013102D02*
X012504Y013102D01*
X012603Y013003D02*
X012740Y013003D01*
X012692Y012905D02*
X012657Y012905D01*
X014995Y011624D02*
X015004Y011624D01*
X014995Y011525D02*
X015004Y011525D01*
X014995Y011427D02*
X015004Y011427D01*
X014995Y011328D02*
X015054Y011328D01*
X015038Y011229D02*
X015875Y011229D01*
X015875Y011131D02*
X015137Y011131D01*
X015618Y011032D02*
X015753Y011032D01*
X015712Y010934D02*
X015658Y010934D01*
X015658Y010835D02*
X015712Y010835D01*
X015712Y010737D02*
X015658Y010737D01*
X015658Y010638D02*
X015712Y010638D01*
X015712Y010540D02*
X015658Y010540D01*
X015658Y010441D02*
X015712Y010441D01*
X015748Y010343D02*
X015622Y010343D01*
X015595Y010244D02*
X015875Y010244D01*
X015875Y010146D02*
X015595Y010146D01*
X015596Y010047D02*
X015775Y010047D01*
X015693Y009948D02*
X015678Y009948D01*
X015678Y009850D02*
X015693Y009850D01*
X015693Y009751D02*
X015678Y009751D01*
X015678Y009653D02*
X015693Y009653D01*
X015693Y009554D02*
X015678Y009554D01*
X015678Y009456D02*
X015693Y009456D01*
X015693Y009357D02*
X015678Y009357D01*
X015664Y009259D02*
X015706Y009259D01*
X015990Y009160D02*
X017695Y009160D01*
X017695Y009062D02*
X016052Y009062D01*
X016412Y009259D02*
X017695Y009259D01*
X017695Y009357D02*
X016426Y009357D01*
X016426Y009456D02*
X017763Y009456D01*
X017861Y009554D02*
X016426Y009554D01*
X016426Y009653D02*
X017960Y009653D01*
X018411Y009653D02*
X019960Y009653D01*
X019861Y009554D02*
X018509Y009554D01*
X018608Y009456D02*
X019763Y009456D01*
X019695Y009357D02*
X018675Y009357D01*
X018675Y009259D02*
X019695Y009259D01*
X019695Y009160D02*
X018675Y009160D01*
X018675Y009062D02*
X019695Y009062D01*
X019715Y008963D02*
X018656Y008963D01*
X018557Y008864D02*
X019813Y008864D01*
X019912Y008766D02*
X018459Y008766D01*
X017964Y008667D02*
X019975Y008667D01*
X019975Y008569D02*
X016052Y008569D01*
X016052Y008470D02*
X019975Y008470D01*
X019975Y008372D02*
X016018Y008372D01*
X016426Y009751D02*
X022175Y009751D01*
X022175Y009653D02*
X020411Y009653D01*
X020509Y009554D02*
X022175Y009554D01*
X022159Y009456D02*
X020608Y009456D01*
X020675Y009357D02*
X022060Y009357D01*
X021962Y009259D02*
X020675Y009259D01*
X020675Y009160D02*
X021863Y009160D01*
X021545Y009062D02*
X020675Y009062D01*
X020656Y008963D02*
X021380Y008963D01*
X022116Y008766D02*
X023255Y008766D01*
X023238Y008667D02*
X022133Y008667D01*
X022133Y008569D02*
X023238Y008569D01*
X023269Y008470D02*
X022101Y008470D01*
X022055Y008372D02*
X023175Y008372D01*
X023076Y008273D02*
X021956Y008273D01*
X021415Y008273D02*
X020395Y008273D01*
X020395Y008175D02*
X022978Y008175D01*
X022879Y008076D02*
X020395Y008076D01*
X020395Y007978D02*
X022781Y007978D01*
X022682Y007879D02*
X020395Y007879D01*
X020395Y007780D02*
X022584Y007780D01*
X022485Y007682D02*
X020395Y007682D01*
X020395Y007583D02*
X021529Y007583D01*
X021657Y007583D02*
X021714Y007583D01*
X021714Y007485D02*
X021657Y007485D01*
X021657Y007386D02*
X021714Y007386D01*
X021714Y007288D02*
X021657Y007288D01*
X021656Y007189D02*
X020395Y007189D01*
X020395Y007091D02*
X021262Y007091D01*
X021303Y006992D02*
X020395Y006992D01*
X020391Y006894D02*
X021373Y006894D01*
X021511Y006795D02*
X020292Y006795D01*
X020193Y006696D02*
X021500Y006696D01*
X021475Y006598D02*
X020095Y006598D01*
X019996Y006499D02*
X021475Y006499D01*
X021475Y006401D02*
X019898Y006401D01*
X019895Y006302D02*
X021475Y006302D01*
X021475Y006204D02*
X019895Y006204D01*
X019895Y006105D02*
X021408Y006105D01*
X021310Y006007D02*
X019895Y006007D01*
X019895Y005908D02*
X021211Y005908D01*
X021113Y005810D02*
X019895Y005810D01*
X019895Y005711D02*
X021014Y005711D01*
X020916Y005613D02*
X019895Y005613D01*
X019990Y005514D02*
X020817Y005514D01*
X020719Y005415D02*
X020074Y005415D01*
X020115Y005317D02*
X020620Y005317D01*
X020521Y005218D02*
X020133Y005218D01*
X020133Y005120D02*
X020423Y005120D01*
X020324Y005021D02*
X020102Y005021D01*
X020056Y004923D02*
X020226Y004923D01*
X020127Y004824D02*
X019957Y004824D01*
X020029Y004726D02*
X019523Y004726D01*
X019424Y004627D02*
X019930Y004627D01*
X019832Y004529D02*
X019325Y004529D01*
X019227Y004430D02*
X019733Y004430D01*
X019635Y004331D02*
X019128Y004331D01*
X019030Y004233D02*
X019536Y004233D01*
X019437Y004134D02*
X018931Y004134D01*
X018833Y004036D02*
X019339Y004036D01*
X019240Y003937D02*
X018734Y003937D01*
X018636Y003839D02*
X019142Y003839D01*
X019043Y003740D02*
X018537Y003740D01*
X018439Y003642D02*
X018945Y003642D01*
X018846Y003543D02*
X018340Y003543D01*
X018241Y003445D02*
X018748Y003445D01*
X018649Y003346D02*
X018143Y003346D01*
X018044Y003247D02*
X018551Y003247D01*
X018452Y003149D02*
X017946Y003149D01*
X017847Y003050D02*
X018353Y003050D01*
X018255Y002952D02*
X017749Y002952D01*
X017650Y002853D02*
X018156Y002853D01*
X018058Y002755D02*
X017552Y002755D01*
X017453Y002656D02*
X017959Y002656D01*
X017861Y002558D02*
X017355Y002558D01*
X017426Y002459D02*
X017256Y002459D01*
X017328Y002361D02*
X017158Y002361D01*
X017059Y002262D02*
X017274Y002262D01*
X017238Y002164D02*
X016960Y002164D01*
X016862Y002065D02*
X017168Y002065D01*
X017069Y001966D02*
X016763Y001966D01*
X016872Y001769D02*
X016002Y001769D01*
X016080Y001868D02*
X016971Y001868D01*
X016774Y001671D02*
X015854Y001671D01*
X015517Y001671D02*
X014068Y001671D01*
X014166Y001769D02*
X015369Y001769D01*
X015291Y001868D02*
X014265Y001868D01*
X013969Y001572D02*
X016675Y001572D01*
X016577Y001474D02*
X013871Y001474D01*
X013772Y001375D02*
X016478Y001375D01*
X016380Y001277D02*
X013927Y001277D01*
X015944Y002459D02*
X016662Y002459D01*
X016564Y002361D02*
X016043Y002361D01*
X015973Y003740D02*
X017426Y003740D01*
X017327Y003839D02*
X016068Y003839D01*
X016108Y003937D02*
X017284Y003937D01*
X017258Y004036D02*
X016133Y004036D01*
X016133Y004134D02*
X017258Y004134D01*
X017284Y004233D02*
X016109Y004233D01*
X016068Y004331D02*
X017327Y004331D01*
X017425Y004430D02*
X015974Y004430D01*
X015785Y004529D02*
X018732Y004529D01*
X018830Y004627D02*
X015441Y004627D01*
X015539Y004529D02*
X015586Y004529D01*
X015342Y004726D02*
X018929Y004726D01*
X019027Y004824D02*
X018340Y004824D01*
X018570Y004923D02*
X019126Y004923D01*
X019224Y005021D02*
X018669Y005021D01*
X018759Y005120D02*
X019238Y005120D01*
X019238Y005218D02*
X018800Y005218D01*
X018841Y005317D02*
X019256Y005317D01*
X019296Y005415D02*
X018855Y005415D01*
X018855Y005514D02*
X019381Y005514D01*
X019475Y005613D02*
X018855Y005613D01*
X018817Y005711D02*
X019475Y005711D01*
X019475Y005810D02*
X018776Y005810D01*
X018710Y005908D02*
X019475Y005908D01*
X019475Y006007D02*
X018611Y006007D01*
X018440Y006105D02*
X019475Y006105D01*
X020395Y007288D02*
X021265Y007288D01*
X021306Y007386D02*
X020395Y007386D01*
X020395Y007485D02*
X021380Y007485D01*
X021841Y007583D02*
X022386Y007583D01*
X022288Y007485D02*
X021990Y007485D01*
X022065Y007386D02*
X022189Y007386D01*
X021316Y008372D02*
X020395Y008372D01*
X020395Y008470D02*
X021269Y008470D01*
X022161Y008864D02*
X023296Y008864D01*
X023380Y008963D02*
X022260Y008963D01*
X022358Y009062D02*
X023545Y009062D01*
X023863Y009160D02*
X022457Y009160D01*
X022556Y009259D02*
X023962Y009259D01*
X024060Y009357D02*
X022595Y009357D01*
X022595Y009456D02*
X024159Y009456D01*
X024175Y009554D02*
X022595Y009554D01*
X022595Y009653D02*
X024175Y009653D01*
X024175Y009751D02*
X022595Y009751D01*
X022595Y009850D02*
X024175Y009850D01*
X024175Y009948D02*
X022595Y009948D01*
X022595Y010047D02*
X024175Y010047D01*
X024175Y010146D02*
X022595Y010146D01*
X022595Y010244D02*
X023513Y010244D01*
X023443Y010273D02*
X023600Y010208D01*
X023657Y010208D01*
X023657Y010606D01*
X023714Y010606D01*
X023714Y010208D01*
X023770Y010208D01*
X023927Y010273D01*
X024048Y010393D01*
X024113Y010550D01*
X024113Y010607D01*
X023714Y010607D01*
X023714Y010664D01*
X023657Y010664D01*
X023657Y011063D01*
X023600Y011063D01*
X023443Y010998D01*
X023323Y010877D01*
X023258Y010720D01*
X023258Y010664D01*
X023656Y010664D01*
X023656Y010607D01*
X023258Y010607D01*
X023258Y010550D01*
X023323Y010393D01*
X023443Y010273D01*
X023374Y010343D02*
X022595Y010343D01*
X022595Y010441D02*
X023303Y010441D01*
X023262Y010540D02*
X022595Y010540D01*
X022595Y010638D02*
X023656Y010638D01*
X023714Y010638D02*
X024175Y010638D01*
X024113Y010664D02*
X024113Y010720D01*
X024048Y010877D01*
X023927Y010998D01*
X023770Y011063D01*
X023714Y011063D01*
X023714Y010664D01*
X024113Y010664D01*
X024106Y010737D02*
X024175Y010737D01*
X024175Y010835D02*
X024065Y010835D01*
X023991Y010934D02*
X024175Y010934D01*
X024175Y011032D02*
X023844Y011032D01*
X023714Y011032D02*
X023657Y011032D01*
X023657Y010934D02*
X023714Y010934D01*
X023714Y010835D02*
X023657Y010835D01*
X023657Y010737D02*
X023714Y010737D01*
X023714Y010540D02*
X023657Y010540D01*
X023657Y010441D02*
X023714Y010441D01*
X023714Y010343D02*
X023657Y010343D01*
X023657Y010244D02*
X023714Y010244D01*
X023858Y010244D02*
X024175Y010244D01*
X024175Y010343D02*
X023997Y010343D01*
X024068Y010441D02*
X024175Y010441D01*
X024175Y010540D02*
X024108Y010540D01*
X024595Y010540D02*
X024728Y010540D01*
X024744Y010638D02*
X024595Y010638D01*
X024595Y010737D02*
X024761Y010737D01*
X024777Y010835D02*
X024595Y010835D01*
X024595Y010934D02*
X024794Y010934D01*
X024810Y011032D02*
X024595Y011032D01*
X024595Y011131D02*
X024827Y011131D01*
X024843Y011229D02*
X024595Y011229D01*
X024595Y011328D02*
X024859Y011328D01*
X024861Y011338D02*
X024861Y011338D01*
X024866Y011427D02*
X024595Y011427D01*
X024595Y011525D02*
X024871Y011525D01*
X024877Y011624D02*
X024595Y011624D01*
X024595Y011722D02*
X024882Y011722D01*
X024888Y011821D02*
X024704Y011821D01*
X024780Y011919D02*
X024893Y011919D01*
X024899Y012018D02*
X024821Y012018D01*
X024833Y012116D02*
X024904Y012116D01*
X024909Y012215D02*
X024833Y012215D01*
X024796Y012313D02*
X024915Y012313D01*
X024920Y012412D02*
X024741Y012412D01*
X024643Y012511D02*
X024926Y012511D01*
X024931Y012609D02*
X024259Y012609D01*
X024160Y012708D02*
X024934Y012708D01*
X024929Y012806D02*
X024061Y012806D01*
X023963Y012905D02*
X024923Y012905D01*
X024918Y013003D02*
X023864Y013003D01*
X023766Y013102D02*
X024912Y013102D01*
X024907Y013200D02*
X023667Y013200D01*
X023569Y013299D02*
X024901Y013299D01*
X024896Y013397D02*
X023495Y013397D01*
X023495Y013496D02*
X024891Y013496D01*
X024885Y013595D02*
X023495Y013595D01*
X023495Y013693D02*
X024880Y013693D01*
X024874Y013792D02*
X024646Y013792D01*
X024627Y013773D02*
X024748Y013893D01*
X024813Y014050D01*
X024813Y014107D01*
X024414Y014107D01*
X024414Y014164D01*
X024357Y014164D01*
X024357Y014563D01*
X024300Y014563D01*
X024143Y014498D01*
X024023Y014377D01*
X023958Y014220D01*
X023958Y014164D01*
X024356Y014164D01*
X024356Y014107D01*
X023958Y014107D01*
X023958Y014050D01*
X024023Y013893D01*
X024143Y013773D01*
X024300Y013708D01*
X024357Y013708D01*
X024357Y014106D01*
X024414Y014106D01*
X024414Y013708D01*
X024470Y013708D01*
X024627Y013773D01*
X024745Y013890D02*
X024869Y013890D01*
X024863Y013989D02*
X024787Y013989D01*
X024813Y014087D02*
X024852Y014087D01*
X024813Y014164D02*
X024813Y014220D01*
X024748Y014377D01*
X024627Y014498D01*
X024470Y014563D01*
X024414Y014563D01*
X024414Y014164D01*
X024813Y014164D01*
X024813Y014186D02*
X024836Y014186D01*
X024819Y014284D02*
X024786Y014284D01*
X024803Y014383D02*
X024742Y014383D01*
X024786Y014481D02*
X024644Y014481D01*
X024770Y014580D02*
X023495Y014580D01*
X023495Y014679D02*
X024753Y014679D01*
X024737Y014777D02*
X023495Y014777D01*
X023495Y014876D02*
X024720Y014876D01*
X024704Y014974D02*
X023495Y014974D01*
X023495Y015073D02*
X024687Y015073D01*
X024671Y015171D02*
X023495Y015171D01*
X023495Y015270D02*
X024655Y015270D01*
X024638Y015368D02*
X023601Y015368D01*
X023679Y015467D02*
X024610Y015467D01*
X024582Y015565D02*
X023720Y015565D01*
X023733Y015664D02*
X024554Y015664D01*
X024526Y015762D02*
X023733Y015762D01*
X023697Y015861D02*
X024498Y015861D01*
X024470Y015960D02*
X023644Y015960D01*
X023545Y016058D02*
X024443Y016058D01*
X024415Y016157D02*
X021711Y016157D01*
X021612Y016255D02*
X024387Y016255D01*
X024359Y016354D02*
X021514Y016354D01*
X021495Y016452D02*
X024331Y016452D01*
X023025Y016058D02*
X021810Y016058D01*
X021908Y015960D02*
X022927Y015960D01*
X022874Y015861D02*
X021995Y015861D01*
X021995Y015762D02*
X022838Y015762D01*
X022838Y015664D02*
X021995Y015664D01*
X021995Y015565D02*
X022851Y015565D01*
X022891Y015467D02*
X021995Y015467D01*
X021995Y015368D02*
X022970Y015368D01*
X023075Y015270D02*
X021995Y015270D01*
X021995Y015171D02*
X023075Y015171D01*
X023075Y015073D02*
X021995Y015073D01*
X021995Y014974D02*
X023075Y014974D01*
X023075Y014876D02*
X021995Y014876D01*
X021995Y014777D02*
X023075Y014777D01*
X023075Y014679D02*
X021995Y014679D01*
X021995Y014580D02*
X022289Y014580D01*
X022481Y014580D02*
X023075Y014580D01*
X023075Y014481D02*
X022672Y014481D01*
X022767Y014383D02*
X023075Y014383D01*
X023075Y014284D02*
X022808Y014284D01*
X022833Y014186D02*
X023075Y014186D01*
X023075Y014087D02*
X022833Y014087D01*
X022809Y013989D02*
X023075Y013989D01*
X023075Y013890D02*
X022768Y013890D01*
X022674Y013792D02*
X023075Y013792D01*
X023075Y013693D02*
X022487Y013693D01*
X022284Y013693D02*
X021895Y013693D01*
X021895Y013595D02*
X023075Y013595D01*
X023075Y013496D02*
X021895Y013496D01*
X021895Y013397D02*
X023075Y013397D01*
X023075Y013299D02*
X021895Y013299D01*
X021895Y013200D02*
X023075Y013200D01*
X023172Y013102D02*
X021895Y013102D01*
X021895Y013003D02*
X023270Y013003D01*
X023369Y012905D02*
X021895Y012905D01*
X021895Y012806D02*
X023468Y012806D01*
X023566Y012708D02*
X021895Y012708D01*
X021895Y012609D02*
X023665Y012609D01*
X023763Y012511D02*
X022643Y012511D01*
X022741Y012412D02*
X023862Y012412D01*
X023960Y012313D02*
X022796Y012313D01*
X022833Y012215D02*
X023938Y012215D01*
X023938Y012116D02*
X022833Y012116D01*
X022821Y012018D02*
X023950Y012018D01*
X023990Y011919D02*
X022780Y011919D01*
X022704Y011821D02*
X024067Y011821D01*
X024175Y011722D02*
X022595Y011722D01*
X022595Y011624D02*
X024175Y011624D01*
X024175Y011525D02*
X022595Y011525D01*
X022595Y011427D02*
X024175Y011427D01*
X024175Y011328D02*
X022595Y011328D01*
X022595Y011229D02*
X024175Y011229D01*
X024175Y011131D02*
X022595Y011131D01*
X022595Y011032D02*
X023527Y011032D01*
X023379Y010934D02*
X022595Y010934D01*
X022595Y010835D02*
X023306Y010835D01*
X023265Y010737D02*
X022595Y010737D01*
X022175Y010737D02*
X022128Y010737D01*
X022133Y010638D02*
X022175Y010638D01*
X022175Y010540D02*
X022130Y010540D01*
X022089Y010441D02*
X022175Y010441D01*
X022175Y010343D02*
X022025Y010343D01*
X021910Y010244D02*
X022175Y010244D01*
X022175Y010146D02*
X016295Y010146D01*
X016295Y010244D02*
X021461Y010244D01*
X021345Y010343D02*
X016331Y010343D01*
X016367Y010441D02*
X021281Y010441D01*
X021241Y010540D02*
X016367Y010540D01*
X016367Y010638D02*
X021238Y010638D01*
X021243Y010737D02*
X016367Y010737D01*
X016367Y010835D02*
X021284Y010835D01*
X021351Y010934D02*
X016367Y010934D01*
X016327Y011032D02*
X021475Y011032D01*
X021475Y011131D02*
X016295Y011131D01*
X016295Y011229D02*
X021475Y011229D01*
X021475Y011328D02*
X016316Y011328D01*
X016367Y011427D02*
X021475Y011427D01*
X021475Y011525D02*
X016367Y011525D01*
X016367Y011624D02*
X021475Y011624D01*
X021475Y011722D02*
X016367Y011722D01*
X016367Y011821D02*
X021475Y011821D01*
X021475Y011919D02*
X016367Y011919D01*
X016341Y012018D02*
X021475Y012018D01*
X021475Y012116D02*
X015516Y012116D01*
X015555Y012215D02*
X021475Y012215D01*
X021475Y012313D02*
X015959Y012313D01*
X016052Y012412D02*
X018316Y012412D01*
X018217Y012511D02*
X016052Y012511D01*
X016052Y013003D02*
X018045Y013003D01*
X018059Y013102D02*
X016049Y013102D01*
X016354Y013200D02*
X018157Y013200D01*
X018256Y013299D02*
X016426Y013299D01*
X016426Y013397D02*
X020801Y013397D01*
X020899Y013496D02*
X016426Y013496D01*
X016426Y013595D02*
X020998Y013595D01*
X021096Y013693D02*
X016426Y013693D01*
X016426Y013792D02*
X021195Y013792D01*
X021293Y013890D02*
X016426Y013890D01*
X016402Y013989D02*
X021392Y013989D01*
X021490Y014087D02*
X016295Y014087D01*
X016295Y014186D02*
X021575Y014186D01*
X021575Y014284D02*
X016295Y014284D01*
X016367Y014383D02*
X021575Y014383D01*
X021575Y014481D02*
X016367Y014481D01*
X016367Y014580D02*
X021575Y014580D01*
X021575Y014679D02*
X016367Y014679D01*
X016367Y014777D02*
X021575Y014777D01*
X021575Y014876D02*
X016367Y014876D01*
X016367Y014974D02*
X021575Y014974D01*
X021575Y015073D02*
X016295Y015073D01*
X016295Y015171D02*
X021575Y015171D01*
X021575Y015270D02*
X021451Y015270D01*
X021119Y015270D02*
X016295Y015270D01*
X016357Y015368D02*
X020970Y015368D01*
X020891Y015467D02*
X016367Y015467D01*
X016367Y015565D02*
X020851Y015565D01*
X021995Y014481D02*
X022099Y014481D01*
X022004Y014383D02*
X021995Y014383D01*
X021895Y013792D02*
X022096Y013792D01*
X021475Y013397D02*
X021394Y013397D01*
X021475Y013299D02*
X021296Y013299D01*
X021197Y013200D02*
X021475Y013200D01*
X021475Y013102D02*
X021099Y013102D01*
X021025Y013003D02*
X021475Y013003D01*
X021475Y012905D02*
X021025Y012905D01*
X021025Y012806D02*
X021475Y012806D01*
X021475Y012708D02*
X021025Y012708D01*
X020952Y012609D02*
X021475Y012609D01*
X021475Y012511D02*
X020853Y012511D01*
X020755Y012412D02*
X021475Y012412D01*
X021895Y012412D02*
X022029Y012412D01*
X021975Y012313D02*
X021895Y012313D01*
X021895Y012215D02*
X021938Y012215D01*
X021938Y012116D02*
X021895Y012116D01*
X021895Y012018D02*
X021950Y012018D01*
X021990Y011919D02*
X021895Y011919D01*
X021895Y011821D02*
X022067Y011821D01*
X022175Y011722D02*
X021895Y011722D01*
X021895Y011624D02*
X022175Y011624D01*
X022175Y011525D02*
X021895Y011525D01*
X021895Y011427D02*
X022175Y011427D01*
X022175Y011328D02*
X021895Y011328D01*
X021895Y011229D02*
X022175Y011229D01*
X022175Y011131D02*
X021895Y011131D01*
X021896Y011032D02*
X022175Y011032D01*
X022175Y010934D02*
X022020Y010934D01*
X022087Y010835D02*
X022175Y010835D01*
X022175Y010047D02*
X016344Y010047D01*
X016426Y009948D02*
X022175Y009948D01*
X022175Y009850D02*
X016426Y009850D01*
X015763Y011328D02*
X015608Y011328D01*
X015658Y011427D02*
X015712Y011427D01*
X015712Y011525D02*
X015658Y011525D01*
X015658Y011624D02*
X015712Y011624D01*
X015712Y011722D02*
X015658Y011722D01*
X015658Y011821D02*
X015712Y011821D01*
X015712Y011919D02*
X015658Y011919D01*
X015633Y012018D02*
X015738Y012018D01*
X018755Y012412D02*
X020316Y012412D01*
X020217Y012511D02*
X018853Y012511D01*
X018952Y012609D02*
X020119Y012609D01*
X020045Y012708D02*
X019025Y012708D01*
X019025Y012806D02*
X020045Y012806D01*
X020045Y012905D02*
X019025Y012905D01*
X019025Y013003D02*
X020045Y013003D01*
X020059Y013102D02*
X019012Y013102D01*
X018913Y013200D02*
X020157Y013200D01*
X020256Y013299D02*
X018815Y013299D01*
X021895Y012511D02*
X022128Y012511D01*
X023495Y013792D02*
X024125Y013792D01*
X024026Y013890D02*
X023495Y013890D01*
X023495Y013989D02*
X023983Y013989D01*
X023958Y014087D02*
X023495Y014087D01*
X023495Y014186D02*
X023958Y014186D01*
X023984Y014284D02*
X023495Y014284D01*
X023495Y014383D02*
X024028Y014383D01*
X024127Y014481D02*
X023495Y014481D01*
X024357Y014481D02*
X024414Y014481D01*
X024414Y014383D02*
X024357Y014383D01*
X024357Y014284D02*
X024414Y014284D01*
X024414Y014186D02*
X024357Y014186D01*
X024357Y014087D02*
X024414Y014087D01*
X024414Y013989D02*
X024357Y013989D01*
X024357Y013890D02*
X024414Y013890D01*
X024414Y013792D02*
X024357Y013792D01*
X024595Y010441D02*
X024711Y010441D01*
X024695Y010343D02*
X024595Y010343D01*
X024595Y010244D02*
X024679Y010244D01*
X024662Y010146D02*
X024595Y010146D01*
X024595Y010047D02*
X024646Y010047D01*
X024622Y009948D02*
X024595Y009948D01*
X016259Y006007D02*
X015599Y006007D01*
X015656Y005908D02*
X016161Y005908D01*
X017714Y004513D02*
X017714Y004114D01*
X018113Y004114D01*
X018113Y004170D01*
X018048Y004327D01*
X017927Y004448D01*
X017770Y004513D01*
X017714Y004513D01*
X017714Y004430D02*
X017657Y004430D01*
X017657Y004331D02*
X017714Y004331D01*
X017714Y004233D02*
X017657Y004233D01*
X017657Y004134D02*
X017714Y004134D01*
X017714Y004036D02*
X017657Y004036D01*
X017657Y003937D02*
X017714Y003937D01*
X017714Y003839D02*
X017657Y003839D01*
X017657Y003740D02*
X017714Y003740D01*
X018087Y003937D02*
X018140Y003937D01*
X018113Y004036D02*
X018239Y004036D01*
X018337Y004134D02*
X018113Y004134D01*
X018087Y004233D02*
X018436Y004233D01*
X018535Y004331D02*
X018044Y004331D01*
X017945Y004430D02*
X018633Y004430D01*
X012215Y009259D02*
X012155Y009259D01*
X012155Y009357D02*
X012215Y009357D01*
X023257Y017339D02*
X023314Y017339D01*
X023314Y017438D02*
X023257Y017438D01*
X023257Y017536D02*
X023314Y017536D01*
X023314Y017635D02*
X023257Y017635D01*
X023314Y017714D02*
X023713Y017714D01*
X023713Y017770D01*
X023648Y017927D01*
X023527Y018048D01*
X023370Y018113D01*
X023314Y018113D01*
X023314Y017714D01*
X023314Y017733D02*
X023257Y017733D01*
X023257Y017832D02*
X023314Y017832D01*
X023314Y017930D02*
X023257Y017930D01*
X023257Y018029D02*
X023314Y018029D01*
X023546Y018029D02*
X023701Y018029D01*
X023754Y017930D02*
X023645Y017930D01*
X023687Y017832D02*
X023797Y017832D01*
X023837Y017733D02*
X023713Y017733D01*
X023713Y017635D02*
X023877Y017635D01*
X023917Y017536D02*
X023686Y017536D01*
X023642Y017438D02*
X023957Y017438D01*
X023997Y017339D02*
X023544Y017339D01*
X019240Y017733D02*
X016387Y017733D01*
X016426Y017832D02*
X019142Y017832D01*
X019043Y017930D02*
X016426Y017930D01*
X016426Y018029D02*
X018945Y018029D01*
X018846Y018128D02*
X016426Y018128D01*
X016426Y018226D02*
X018748Y018226D01*
X018649Y018325D02*
X016426Y018325D01*
X016426Y018423D02*
X018551Y018423D01*
X018452Y018522D02*
X016369Y018522D01*
X016295Y018620D02*
X018353Y018620D01*
X018255Y018719D02*
X016295Y018719D01*
X016306Y018817D02*
X018156Y018817D01*
X018058Y018916D02*
X016367Y018916D01*
X016367Y019014D02*
X017559Y019014D01*
X017461Y019113D02*
X016367Y019113D01*
X016367Y019211D02*
X017362Y019211D01*
X017264Y019310D02*
X016367Y019310D01*
X016367Y019409D02*
X017165Y019409D01*
X017067Y019507D02*
X016352Y019507D01*
X016295Y019606D02*
X016968Y019606D01*
X016869Y019704D02*
X016295Y019704D01*
X016295Y019803D02*
X016771Y019803D01*
X016672Y019901D02*
X016367Y019901D01*
X016367Y020000D02*
X016574Y020000D01*
X016475Y020098D02*
X016367Y020098D01*
X016367Y020197D02*
X016377Y020197D01*
X016675Y020493D02*
X018575Y020493D01*
X018575Y020591D02*
X016577Y020591D01*
X016478Y020690D02*
X018575Y020690D01*
X018450Y020788D02*
X016379Y020788D01*
X016281Y020887D02*
X018354Y020887D01*
X018088Y020985D02*
X016182Y020985D01*
X016084Y021084D02*
X017054Y021084D01*
X016956Y021182D02*
X015985Y021182D01*
X015887Y021281D02*
X016915Y021281D01*
X016888Y021379D02*
X015788Y021379D01*
X015783Y021478D02*
X016888Y021478D01*
X016909Y021577D02*
X015761Y021577D01*
X015720Y021675D02*
X016950Y021675D01*
X017041Y021774D02*
X015630Y021774D01*
X015588Y020985D02*
X015382Y020985D01*
X015284Y020887D02*
X015687Y020887D01*
X015786Y020788D02*
X015185Y020788D01*
X016774Y020394D02*
X018575Y020394D01*
X018575Y020295D02*
X016872Y020295D01*
X016971Y020197D02*
X018575Y020197D01*
X018575Y020098D02*
X017069Y020098D01*
X017168Y020000D02*
X018674Y020000D01*
X018772Y019901D02*
X017266Y019901D01*
X017365Y019803D02*
X018871Y019803D01*
X018969Y019704D02*
X017463Y019704D01*
X017562Y019606D02*
X019068Y019606D01*
X018996Y019507D02*
X019167Y019507D01*
X019095Y019409D02*
X019265Y019409D01*
X019364Y019310D02*
X019147Y019310D01*
X018474Y019507D02*
X017661Y019507D01*
X017759Y019409D02*
X018376Y019409D01*
X019021Y020788D02*
X020478Y020788D01*
X020379Y020887D02*
X019117Y020887D01*
X019158Y020985D02*
X020335Y020985D01*
X020308Y021084D02*
X019183Y021084D01*
X019183Y021182D02*
X020308Y021182D01*
X020333Y021281D02*
X019159Y021281D01*
X019119Y021379D02*
X020375Y021379D01*
X020473Y021478D02*
X019026Y021478D01*
X018445Y021478D02*
X018190Y021478D01*
X017891Y021182D02*
X017715Y021182D01*
X017756Y021281D02*
X017793Y021281D01*
X017617Y021084D02*
X017990Y021084D01*
X017204Y022463D02*
X020035Y022463D01*
X019901Y022562D02*
X017106Y022562D01*
X017007Y022661D02*
X019767Y022661D01*
X019632Y022759D02*
X016909Y022759D01*
X016810Y022858D02*
X019498Y022858D01*
X020707Y021478D02*
X020764Y021478D01*
X020764Y021379D02*
X020707Y021379D01*
X020707Y021281D02*
X020764Y021281D01*
X020764Y021182D02*
X020707Y021182D01*
X020707Y021084D02*
X020764Y021084D01*
X020764Y020985D02*
X020707Y020985D01*
X020707Y020887D02*
X020764Y020887D01*
X020764Y020788D02*
X020707Y020788D01*
X013068Y024927D02*
X012889Y024927D01*
X009937Y024434D02*
X009255Y024434D01*
M02*
