G75*
G70*
%OFA0B0*%
%FSLAX24Y24*%
%IPPOS*%
%LPD*%
%AMOC8*
5,1,8,0,0,1.08239X$1,22.5*
%
%ADD10C,0.0080*%
%ADD11C,0.0060*%
%ADD12C,0.0050*%
D10*
X005194Y002875D02*
X005194Y003296D01*
X005335Y003435D02*
X004835Y003435D01*
X004585Y003685D01*
X004585Y004185D01*
X004835Y004435D01*
X005335Y004435D01*
X005585Y004185D01*
X005835Y004435D01*
X006335Y004435D01*
X006585Y004185D01*
X006585Y003685D01*
X006335Y003435D01*
X005835Y003435D01*
X005585Y003685D01*
X005335Y003435D01*
X005475Y003296D02*
X005194Y002875D01*
X005475Y002875D02*
X005475Y003296D01*
X005655Y003296D02*
X005935Y003296D01*
X005795Y003296D02*
X005795Y002875D01*
X006115Y002945D02*
X006185Y002875D01*
X006395Y002875D01*
X006395Y003296D01*
X006185Y003296D01*
X006115Y003226D01*
X006115Y003156D01*
X006185Y003086D01*
X006395Y003086D01*
X006185Y003086D02*
X006115Y003015D01*
X006115Y002945D01*
X014544Y007395D02*
X014544Y007676D01*
X014614Y007746D01*
X014825Y007746D01*
X014825Y007325D01*
X014614Y007325D01*
X014544Y007395D01*
X014935Y007185D02*
X015435Y007185D01*
X015685Y006935D01*
X015685Y006435D01*
X015435Y006185D01*
X015685Y005935D01*
X015685Y005435D01*
X015435Y005185D01*
X014935Y005185D01*
X014685Y005435D01*
X014685Y005935D01*
X014935Y006185D01*
X014685Y006435D01*
X014685Y006935D01*
X014935Y007185D01*
X015005Y007325D02*
X015005Y007746D01*
X015285Y007746D02*
X015005Y007325D01*
X015285Y007325D02*
X015285Y007746D01*
X015465Y007676D02*
X015535Y007746D01*
X015675Y007746D01*
X015745Y007676D01*
X015745Y007395D01*
X015675Y007325D01*
X015535Y007325D01*
X015465Y007395D01*
X015465Y007536D01*
X015605Y007536D01*
X014796Y008575D02*
X014375Y008575D01*
X014375Y008856D01*
X014375Y009036D02*
X014656Y009036D01*
X014796Y009176D01*
X014656Y009316D01*
X014375Y009316D01*
X014375Y009496D02*
X014796Y009496D01*
X014656Y009636D01*
X014796Y009776D01*
X014375Y009776D01*
X014375Y009956D02*
X014796Y009956D01*
X014796Y010167D01*
X014726Y010237D01*
X014586Y010237D01*
X014515Y010167D01*
X014515Y009956D01*
X014586Y010417D02*
X014586Y010697D01*
X014656Y010697D02*
X014375Y010697D01*
X014375Y010877D02*
X014796Y010877D01*
X014375Y011157D01*
X014796Y011157D01*
X014656Y010697D02*
X014796Y010557D01*
X014656Y010417D01*
X014375Y010417D01*
X014586Y009316D02*
X014586Y009036D01*
X009756Y011075D02*
X009545Y011075D01*
X009475Y011145D01*
X009545Y011215D01*
X009475Y011286D01*
X009545Y011356D01*
X009756Y011356D01*
X009756Y011536D02*
X009545Y011536D01*
X009475Y011606D01*
X009545Y011676D01*
X009475Y011746D01*
X009545Y011816D01*
X009756Y011816D01*
X009756Y011996D02*
X009545Y011996D01*
X009475Y012066D01*
X009545Y012136D01*
X009475Y012206D01*
X009545Y012276D01*
X009756Y012276D01*
X009545Y012456D02*
X009545Y012526D01*
X009475Y012526D01*
X009475Y012456D01*
X009545Y012456D01*
X009335Y012687D02*
X009335Y012757D01*
X009405Y012827D01*
X009756Y012827D01*
X009896Y012827D02*
X009966Y012827D01*
X009756Y013064D02*
X009756Y013204D01*
X009686Y013274D01*
X009475Y013274D01*
X009475Y013064D01*
X009545Y012993D01*
X009615Y013064D01*
X009615Y013274D01*
X009545Y013454D02*
X009475Y013524D01*
X009475Y013734D01*
X009405Y013734D02*
X009756Y013734D01*
X009686Y013914D02*
X009545Y013914D01*
X009475Y013984D01*
X009475Y014194D01*
X009545Y014375D02*
X009475Y014445D01*
X009475Y014585D01*
X009545Y014655D01*
X009686Y014655D01*
X009756Y014585D01*
X009756Y014445D01*
X009686Y014375D01*
X009545Y014375D01*
X009756Y014194D02*
X009756Y013984D01*
X009686Y013914D01*
X009405Y013734D02*
X009335Y013664D01*
X009335Y013594D01*
X009545Y013454D02*
X009756Y013454D01*
X009896Y014835D02*
X009896Y014905D01*
X009475Y014905D01*
X009475Y014835D02*
X009475Y014975D01*
X009475Y015142D02*
X009475Y015282D01*
X009475Y015212D02*
X009896Y015212D01*
X009896Y015142D01*
X009686Y015449D02*
X009756Y015519D01*
X009756Y015659D01*
X009686Y015729D01*
X009615Y015729D01*
X009615Y015449D01*
X009545Y015449D02*
X009686Y015449D01*
X009545Y015449D02*
X009475Y015519D01*
X009475Y015659D01*
X009545Y015979D02*
X009475Y016049D01*
X009545Y015979D02*
X009826Y015979D01*
X009756Y015909D02*
X009756Y016049D01*
X009756Y016216D02*
X009756Y016356D01*
X009826Y016286D02*
X009545Y016286D01*
X009475Y016356D01*
X009475Y016523D02*
X009475Y016593D01*
X009545Y016593D01*
X009545Y016523D01*
X009475Y016523D01*
X009545Y016753D02*
X009475Y016823D01*
X009475Y017033D01*
X009545Y017213D02*
X009475Y017283D01*
X009475Y017423D01*
X009545Y017494D01*
X009686Y017494D01*
X009756Y017423D01*
X009756Y017283D01*
X009686Y017213D01*
X009545Y017213D01*
X009756Y017033D02*
X009756Y016823D01*
X009686Y016753D01*
X009545Y016753D01*
X009475Y017674D02*
X009756Y017674D01*
X009756Y017744D01*
X009686Y017814D01*
X009756Y017884D01*
X009686Y017954D01*
X009475Y017954D01*
X009475Y017814D02*
X009686Y017814D01*
X014375Y017909D02*
X014515Y017769D01*
X014515Y017839D02*
X014515Y017629D01*
X014375Y017629D02*
X014796Y017629D01*
X014796Y017839D01*
X014726Y017909D01*
X014586Y017909D01*
X014515Y017839D01*
X014375Y017449D02*
X014375Y017169D01*
X014796Y017169D01*
X014796Y017449D01*
X014586Y017309D02*
X014586Y017169D01*
X014515Y016989D02*
X014796Y016989D01*
X014515Y016989D02*
X014375Y016848D01*
X014515Y016708D01*
X014796Y016708D01*
X014796Y016541D02*
X014796Y016401D01*
X014796Y016471D02*
X014375Y016471D01*
X014375Y016401D02*
X014375Y016541D01*
X014375Y016221D02*
X014515Y016081D01*
X014515Y016151D02*
X014515Y015941D01*
X014375Y015941D02*
X014796Y015941D01*
X014796Y016151D01*
X014726Y016221D01*
X014586Y016221D01*
X014515Y016151D01*
X014445Y015761D02*
X014726Y015761D01*
X014796Y015691D01*
X014796Y015481D01*
X014375Y015481D01*
X014375Y015691D01*
X014445Y015761D01*
X014445Y014840D02*
X014726Y014840D01*
X014796Y014770D01*
X014796Y014560D01*
X014375Y014560D01*
X014375Y014770D01*
X014445Y014840D01*
X014375Y014380D02*
X014375Y014100D01*
X014796Y014100D01*
X014796Y014380D01*
X014586Y014240D02*
X014586Y014100D01*
X014375Y013919D02*
X014375Y013639D01*
X014796Y013639D01*
X014726Y012999D02*
X014656Y012999D01*
X014586Y012929D01*
X014586Y012719D01*
X014586Y012538D02*
X014586Y012398D01*
X014586Y012538D02*
X014445Y012538D01*
X014375Y012468D01*
X014375Y012328D01*
X014445Y012258D01*
X014726Y012258D01*
X014796Y012328D01*
X014796Y012468D01*
X014726Y012538D01*
X014796Y012719D02*
X014375Y012719D01*
X014375Y012929D01*
X014445Y012999D01*
X014515Y012999D01*
X014586Y012929D01*
X014726Y012999D02*
X014796Y012929D01*
X014796Y012719D01*
X014726Y012078D02*
X014586Y012078D01*
X014515Y012008D01*
X014515Y011798D01*
X014375Y011798D02*
X014796Y011798D01*
X014796Y012008D01*
X014726Y012078D01*
X014515Y011938D02*
X014375Y012078D01*
X014656Y018550D02*
X014375Y018690D01*
X014656Y018830D01*
X014656Y019010D02*
X014796Y019150D01*
X014375Y019150D01*
X014375Y019010D02*
X014375Y019290D01*
X014375Y019470D02*
X014375Y019540D01*
X014445Y019540D01*
X014445Y019470D01*
X014375Y019470D01*
X014445Y019701D02*
X014515Y019701D01*
X014586Y019771D01*
X014586Y019911D01*
X014515Y019981D01*
X014445Y019981D01*
X014375Y019911D01*
X014375Y019771D01*
X014445Y019701D01*
X014586Y019771D02*
X014656Y019701D01*
X014726Y019701D01*
X014796Y019771D01*
X014796Y019911D01*
X014726Y019981D01*
X014656Y019981D01*
X014586Y019911D01*
X014694Y005046D02*
X014694Y004765D01*
X014835Y004625D01*
X014975Y004765D01*
X014975Y005046D01*
X015155Y005046D02*
X015435Y005046D01*
X015435Y004836D01*
X015295Y004906D01*
X015225Y004906D01*
X015155Y004836D01*
X015155Y004695D01*
X015225Y004625D01*
X015365Y004625D01*
X015435Y004695D01*
X015615Y004836D02*
X015895Y004836D01*
X015755Y004976D02*
X015755Y004695D01*
D11*
X002806Y006279D02*
X002465Y006279D01*
X002465Y006392D02*
X002465Y006165D01*
X002692Y006165D02*
X002806Y006279D01*
X002692Y006534D02*
X002806Y006647D01*
X002465Y006647D01*
X002465Y006534D02*
X002465Y006761D01*
X002465Y006902D02*
X002806Y007129D01*
X002692Y007270D02*
X002806Y007384D01*
X002465Y007384D01*
X002465Y007497D02*
X002465Y007270D01*
X002522Y007639D02*
X002465Y007695D01*
X002465Y007809D01*
X002522Y007865D01*
X002635Y007865D01*
X002692Y007809D01*
X002692Y007752D01*
X002635Y007639D01*
X002806Y007639D01*
X002806Y007865D01*
X002465Y008007D02*
X002806Y008234D01*
X002749Y008375D02*
X002806Y008432D01*
X002806Y008545D01*
X002749Y008602D01*
X002692Y008602D01*
X002465Y008375D01*
X002465Y008602D01*
X002522Y008744D02*
X002749Y008970D01*
X002522Y008970D01*
X002465Y008914D01*
X002465Y008800D01*
X002522Y008744D01*
X002749Y008744D01*
X002806Y008800D01*
X002806Y008914D01*
X002749Y008970D01*
X002749Y009112D02*
X002806Y009169D01*
X002806Y009282D01*
X002749Y009339D01*
X002522Y009112D01*
X002465Y009169D01*
X002465Y009282D01*
X002522Y009339D01*
X002749Y009339D01*
X002749Y009480D02*
X002692Y009480D01*
X002635Y009537D01*
X002635Y009707D01*
X002522Y009707D02*
X002749Y009707D01*
X002806Y009650D01*
X002806Y009537D01*
X002749Y009480D01*
X002522Y009480D02*
X002465Y009537D01*
X002465Y009650D01*
X002522Y009707D01*
X002522Y009112D02*
X002749Y009112D01*
D12*
X002731Y013010D02*
X002686Y013055D01*
X002731Y013010D02*
X002821Y013010D01*
X002866Y013055D01*
X002866Y013236D01*
X002821Y013281D01*
X002731Y013281D01*
X002686Y013236D01*
X002571Y013281D02*
X002571Y013010D01*
X002571Y013145D02*
X002391Y013145D01*
X002276Y013145D02*
X002096Y013145D01*
X002096Y013190D02*
X002096Y013010D01*
X002276Y013010D02*
X002276Y013190D01*
X002186Y013281D01*
X002096Y013190D01*
X001982Y013281D02*
X001802Y013281D01*
X001892Y013281D02*
X001892Y013010D01*
X001687Y013010D02*
X001507Y013010D01*
X001392Y013010D02*
X001302Y013010D01*
X001347Y013010D02*
X001347Y013281D01*
X001392Y013281D02*
X001302Y013281D01*
X001196Y013281D02*
X001196Y013010D01*
X001016Y013010D01*
X001106Y013145D02*
X001196Y013145D01*
X001196Y013281D02*
X001016Y013281D01*
X001507Y013281D02*
X001507Y013236D01*
X001687Y013055D01*
X001687Y013010D01*
X001687Y013281D02*
X001507Y013281D01*
X002391Y013281D02*
X002391Y013010D01*
X002980Y013055D02*
X003025Y013010D01*
X003115Y013010D01*
X003160Y013055D01*
X003115Y013145D02*
X003025Y013145D01*
X002980Y013100D01*
X002980Y013055D01*
X003115Y013145D02*
X003160Y013190D01*
X003160Y013236D01*
X003115Y013281D01*
X003025Y013281D01*
X002980Y013236D01*
X012005Y023260D02*
X012185Y023260D01*
X012185Y023531D01*
X012005Y023531D01*
X012095Y023395D02*
X012185Y023395D01*
X012292Y023260D02*
X012382Y023260D01*
X012337Y023260D02*
X012337Y023531D01*
X012382Y023531D02*
X012292Y023531D01*
X012496Y023531D02*
X012496Y023260D01*
X012496Y023395D02*
X012676Y023395D01*
X012791Y023395D02*
X012836Y023350D01*
X012971Y023350D01*
X012971Y023260D02*
X012971Y023531D01*
X012836Y023531D01*
X012791Y023486D01*
X012791Y023395D01*
X012676Y023260D02*
X012676Y023531D01*
X013086Y023486D02*
X013086Y023305D01*
X013131Y023260D01*
X013221Y023260D01*
X013266Y023305D01*
X013266Y023486D01*
X013221Y023531D01*
X013131Y023531D01*
X013086Y023486D01*
X013380Y023486D02*
X013425Y023531D01*
X013515Y023531D01*
X013560Y023486D01*
X013560Y023440D01*
X013515Y023395D01*
X013425Y023395D01*
X013380Y023350D01*
X013380Y023305D01*
X013425Y023260D01*
X013515Y023260D01*
X013560Y023305D01*
X022691Y011531D02*
X022871Y011260D01*
X022986Y011305D02*
X022986Y011486D01*
X023031Y011531D01*
X023121Y011531D01*
X023166Y011486D01*
X023166Y011305D01*
X023121Y011260D01*
X023031Y011260D01*
X022986Y011305D01*
X022871Y011531D02*
X022691Y011260D01*
X023280Y011260D02*
X023370Y011350D01*
X023325Y011350D02*
X023460Y011350D01*
X023460Y011260D02*
X023460Y011531D01*
X023325Y011531D01*
X023280Y011486D01*
X023280Y011395D01*
X023325Y011350D01*
M02*
