G75*
G70*
%OFA0B0*%
%FSLAX24Y24*%
%IPPOS*%
%LPD*%
%AMOC8*
5,1,8,0,0,1.08239X$1,22.5*
%
%ADD10OC8,0.0740*%
%ADD11C,0.0555*%
%ADD12C,0.0740*%
%ADD13C,0.0560*%
%ADD14OC8,0.0640*%
%ADD15C,0.0080*%
%ADD16C,0.0400*%
%ADD17C,0.0100*%
D10*
X008185Y018685D03*
X009185Y018685D03*
X010185Y018685D03*
X010185Y019685D03*
X009185Y019685D03*
X008185Y019685D03*
D11*
X006335Y019135D03*
X004335Y019135D03*
X003985Y017635D03*
X001985Y017635D03*
X001985Y015635D03*
X003985Y015635D03*
X002985Y014185D03*
X000985Y014185D03*
X000985Y012185D03*
X002985Y012185D03*
X003635Y010635D03*
X001635Y010635D03*
X001635Y008635D03*
X003635Y008635D03*
X003735Y007185D03*
X005735Y007185D03*
X005735Y005185D03*
X007385Y004235D03*
X009385Y004235D03*
X011685Y005185D03*
X013685Y005185D03*
X015685Y004085D03*
X017685Y004085D03*
X019685Y005185D03*
X021685Y005185D03*
X021685Y007185D03*
X019685Y007185D03*
X021685Y008635D03*
X023685Y008635D03*
X023685Y010635D03*
X021685Y010635D03*
X022385Y012135D03*
X024385Y012135D03*
X024385Y014135D03*
X022385Y014135D03*
X023285Y015685D03*
X021285Y015685D03*
X021285Y017685D03*
X023285Y017685D03*
X020735Y019135D03*
X018735Y019135D03*
X018735Y021135D03*
X017335Y021435D03*
X015335Y021435D03*
X013785Y022435D03*
X015335Y023435D03*
X013785Y024435D03*
X011785Y024435D03*
X010085Y023635D03*
X008085Y023635D03*
X011785Y022435D03*
X010085Y021635D03*
X008085Y021635D03*
X006335Y021135D03*
X004335Y021135D03*
X011685Y020185D03*
X013685Y020185D03*
X013685Y018185D03*
X011685Y018185D03*
X020735Y021135D03*
X017335Y023435D03*
X013685Y007185D03*
X011685Y007185D03*
X011635Y002935D03*
X013635Y002935D03*
X015685Y002085D03*
X017685Y002085D03*
X013635Y000935D03*
X011635Y000935D03*
X009385Y002235D03*
X007385Y002235D03*
X003735Y005185D03*
D12*
X005085Y003935D03*
X006085Y003935D03*
X015185Y005685D03*
X015185Y006685D03*
X013185Y009685D03*
X012185Y009685D03*
X012185Y012685D03*
X013185Y012685D03*
X013185Y015685D03*
X012185Y015685D03*
D13*
X005335Y013935D03*
X005335Y012035D03*
D14*
X017835Y016585D03*
X019835Y016585D03*
X020535Y012885D03*
X018535Y012885D03*
X018185Y009185D03*
X020185Y009185D03*
D15*
X019685Y007985D02*
X021685Y009985D01*
X021685Y010635D01*
X023685Y010635D02*
X023685Y012085D01*
X024385Y012785D01*
X024385Y014135D01*
X023285Y015685D02*
X022585Y015685D01*
X020885Y017385D01*
X020685Y017385D01*
X019885Y016585D01*
X019835Y016585D01*
X020685Y017385D02*
X020685Y019085D01*
X020735Y019135D01*
X020685Y019185D01*
X019585Y019185D01*
X017335Y021435D01*
X016085Y020185D01*
X015985Y020185D01*
X013785Y022385D01*
X013785Y022435D01*
X013785Y022485D01*
X013385Y022885D01*
X011585Y022885D01*
X010385Y021685D01*
X010085Y021685D01*
X010085Y021635D01*
X009985Y021185D02*
X011685Y019485D01*
X011685Y018185D01*
X011685Y017585D02*
X010685Y018585D01*
X010685Y019185D01*
X010185Y019685D01*
X010185Y018685D02*
X010185Y018585D01*
X012185Y016585D01*
X012185Y015685D01*
X012385Y015185D02*
X015585Y015185D01*
X013785Y013685D02*
X015185Y012285D01*
X013785Y013685D02*
X011785Y013685D01*
X010385Y013185D02*
X012385Y015185D01*
X010385Y014185D02*
X010385Y017485D01*
X009185Y018685D01*
X008185Y019685D02*
X007185Y018685D01*
X007185Y018285D01*
X006285Y019985D02*
X003985Y017685D01*
X003985Y017635D01*
X003985Y017585D01*
X005285Y016285D01*
X003985Y015635D02*
X003985Y013185D01*
X002985Y012185D01*
X001585Y012185D02*
X001585Y010685D01*
X001635Y010635D01*
X001585Y012185D02*
X000985Y012785D01*
X000985Y014185D01*
X007485Y010285D02*
X008985Y010285D01*
X010385Y011685D01*
X008585Y011885D02*
X006385Y009685D01*
X008185Y009685D02*
X011485Y009685D01*
X012585Y010785D01*
X012185Y009685D02*
X012185Y009585D01*
X007785Y005185D01*
X008685Y004285D01*
X009385Y004285D01*
X009385Y004235D01*
X009285Y003385D02*
X012585Y006685D01*
X015185Y006685D01*
X015185Y005685D02*
X013685Y004185D01*
X013685Y002985D01*
X013635Y002935D01*
X012385Y002185D02*
X013635Y000935D01*
X011635Y000935D02*
X011585Y000985D01*
X009985Y000985D01*
X008685Y002285D01*
X007385Y002285D01*
X007385Y002235D01*
X008685Y002285D02*
X008785Y002285D01*
X011685Y005185D01*
X013285Y005185D02*
X010285Y002185D01*
X009385Y002185D01*
X009385Y002235D01*
X010285Y002185D02*
X012385Y002185D01*
X009285Y003385D02*
X005885Y003385D01*
X005385Y003885D01*
X005085Y003885D01*
X005085Y003935D01*
X007385Y004235D02*
X007385Y004285D01*
X004485Y007185D01*
X003735Y007185D01*
X005735Y007185D02*
X005785Y007185D01*
X007785Y005185D01*
X009385Y006185D02*
X011285Y008085D01*
X012185Y008685D02*
X013685Y007185D01*
X012185Y008685D02*
X012185Y009585D01*
X019685Y007985D02*
X019685Y007185D01*
X013685Y005185D02*
X013285Y005185D01*
X022385Y012135D02*
X022385Y012185D01*
X021285Y013285D01*
X021285Y015685D01*
X016085Y020185D02*
X014085Y018185D01*
X013685Y018185D01*
X010285Y021185D02*
X009985Y021185D01*
X008485Y021185D01*
X008085Y021585D01*
X008085Y021635D01*
X006985Y021185D02*
X009385Y023585D01*
X010085Y023585D01*
X010085Y023635D01*
X011785Y024385D02*
X011785Y024435D01*
X011785Y024385D02*
X012685Y023485D01*
X015285Y023485D01*
X015335Y023435D01*
X016385Y024385D02*
X013785Y024385D01*
X013785Y024435D01*
X016385Y024385D02*
X017335Y023435D01*
X011785Y022435D02*
X011785Y022385D01*
X011485Y022385D01*
X010285Y021185D01*
X006985Y021185D02*
X006385Y021185D01*
X006335Y021135D01*
X006285Y021085D01*
X006285Y019985D01*
D16*
X007185Y018285D03*
X005285Y016285D03*
X010385Y014185D03*
X011785Y013685D03*
X010385Y013185D03*
X010385Y011685D03*
X008585Y011885D03*
X007485Y010285D03*
X008185Y009685D03*
X006385Y009685D03*
X011285Y008085D03*
X009385Y006185D03*
X012585Y010785D03*
X015185Y012285D03*
X015585Y015185D03*
X011685Y017585D03*
D17*
X004389Y003673D02*
X005430Y002815D01*
X006560Y002076D01*
X007765Y001467D01*
X009029Y000994D01*
X010337Y000663D01*
X011521Y000498D01*
X011382Y000556D01*
X011256Y000682D01*
X011217Y000775D01*
X010072Y000775D01*
X009898Y000775D01*
X008598Y002075D01*
X007803Y002075D01*
X007765Y001982D01*
X007639Y001856D01*
X007474Y001788D01*
X007296Y001788D01*
X007132Y001856D01*
X007006Y001982D01*
X006938Y002146D01*
X006938Y002324D01*
X007006Y002489D01*
X007132Y002615D01*
X007296Y002683D01*
X007474Y002683D01*
X007639Y002615D01*
X007758Y002495D01*
X008598Y002495D01*
X008698Y002495D01*
X011256Y005053D01*
X011238Y005096D01*
X011238Y005274D01*
X011306Y005439D01*
X011432Y005565D01*
X011596Y005633D01*
X011774Y005633D01*
X011939Y005565D01*
X012065Y005439D01*
X012133Y005274D01*
X012133Y005096D01*
X012065Y004932D01*
X011939Y004806D01*
X011774Y004738D01*
X011596Y004738D01*
X011553Y004756D01*
X009478Y002681D01*
X009639Y002615D01*
X009765Y002489D01*
X009803Y002395D01*
X010198Y002395D01*
X013198Y005395D01*
X013288Y005395D01*
X013306Y005439D01*
X013432Y005565D01*
X013596Y005633D01*
X013774Y005633D01*
X013939Y005565D01*
X014065Y005439D01*
X014133Y005274D01*
X014133Y005096D01*
X014065Y004932D01*
X013939Y004806D01*
X013774Y004738D01*
X013596Y004738D01*
X013432Y004806D01*
X013317Y004920D01*
X011764Y003367D01*
X011889Y003315D01*
X012015Y003189D01*
X012083Y003024D01*
X012083Y002846D01*
X012015Y002682D01*
X011889Y002556D01*
X011724Y002488D01*
X011546Y002488D01*
X011382Y002556D01*
X011256Y002682D01*
X011204Y002807D01*
X010792Y002395D01*
X012298Y002395D01*
X012472Y002395D01*
X013503Y001365D01*
X013546Y001383D01*
X013724Y001383D01*
X013889Y001315D01*
X014015Y001189D01*
X014083Y001024D01*
X014083Y000846D01*
X014015Y000682D01*
X013889Y000556D01*
X013755Y000501D01*
X014368Y000551D01*
X015693Y000810D01*
X016981Y001213D01*
X018217Y001755D01*
X019385Y002430D01*
X020473Y003229D01*
X021466Y004143D01*
X022352Y005161D01*
X023121Y006270D01*
X023764Y007457D01*
X024272Y008708D01*
X024639Y010006D01*
X024861Y011338D01*
X024861Y011338D01*
X024935Y012685D01*
X024861Y014033D01*
X024833Y014202D01*
X024833Y014046D01*
X024765Y013882D01*
X024639Y013756D01*
X024595Y013738D01*
X024595Y012698D01*
X024478Y012581D01*
X024639Y012515D01*
X024765Y012389D01*
X024833Y012224D01*
X024833Y012046D01*
X024765Y011882D01*
X024639Y011756D01*
X024474Y011688D01*
X024296Y011688D01*
X024132Y011756D01*
X024006Y011882D01*
X023939Y012043D01*
X023895Y011998D01*
X023895Y011033D01*
X023939Y011015D01*
X024065Y010889D01*
X024133Y010724D01*
X024133Y010546D01*
X024065Y010382D01*
X023939Y010256D01*
X023774Y010188D01*
X023596Y010188D01*
X023432Y010256D01*
X023306Y010382D01*
X023238Y010546D01*
X023238Y010724D01*
X023306Y010889D01*
X023432Y011015D01*
X023475Y011033D01*
X023475Y012172D01*
X023598Y012295D01*
X024175Y012872D01*
X024175Y013738D01*
X024132Y013756D01*
X024006Y013882D01*
X023938Y014046D01*
X023938Y014224D01*
X024006Y014389D01*
X024132Y014515D01*
X024296Y014583D01*
X024474Y014583D01*
X024639Y014515D01*
X024765Y014389D01*
X024827Y014239D01*
X024639Y015364D01*
X024272Y016663D01*
X023764Y017913D01*
X023121Y019100D01*
X022352Y020209D01*
X021466Y021227D01*
X020473Y022141D01*
X019385Y022941D01*
X018217Y023615D01*
X016981Y024158D01*
X016878Y024190D01*
X017203Y023865D01*
X017246Y023883D01*
X017424Y023883D01*
X017589Y023815D01*
X017715Y023689D01*
X017783Y023524D01*
X017783Y023346D01*
X017715Y023182D01*
X017589Y023056D01*
X017424Y022988D01*
X017246Y022988D01*
X017082Y023056D01*
X016956Y023182D01*
X016888Y023346D01*
X016888Y023524D01*
X016906Y023568D01*
X016298Y024175D01*
X014158Y024175D01*
X014039Y024056D01*
X013874Y023988D01*
X013696Y023988D01*
X013532Y024056D01*
X013406Y024182D01*
X013338Y024346D01*
X013338Y024524D01*
X013406Y024689D01*
X013532Y024815D01*
X013681Y024876D01*
X013023Y024931D01*
X011674Y024894D01*
X010337Y024708D01*
X009029Y024377D01*
X008207Y024069D01*
X008339Y024015D01*
X008465Y023889D01*
X008533Y023724D01*
X008533Y023546D01*
X008465Y023382D01*
X008339Y023256D01*
X008174Y023188D01*
X007996Y023188D01*
X007832Y023256D01*
X007706Y023382D01*
X007638Y023546D01*
X007638Y023724D01*
X007698Y023870D01*
X006560Y023294D01*
X005430Y022556D01*
X005430Y022556D01*
X004389Y021698D01*
X004277Y021583D01*
X004424Y021583D01*
X004589Y021515D01*
X004715Y021389D01*
X004783Y021224D01*
X004783Y021046D01*
X004715Y020882D01*
X004589Y020756D01*
X004424Y020688D01*
X004246Y020688D01*
X004082Y020756D01*
X003956Y020882D01*
X003888Y021046D01*
X003888Y021183D01*
X003448Y020731D01*
X002619Y019665D01*
X001912Y018516D01*
X001625Y017908D01*
X001732Y018015D01*
X001896Y018083D01*
X002074Y018083D01*
X002239Y018015D01*
X002365Y017889D01*
X002433Y017724D01*
X002433Y017546D01*
X002365Y017382D01*
X002239Y017256D01*
X002074Y017188D01*
X001896Y017188D01*
X001732Y017256D01*
X001606Y017382D01*
X001538Y017546D01*
X001538Y017723D01*
X001336Y017295D01*
X000898Y016019D01*
X000602Y014702D01*
X000561Y014331D01*
X000606Y014439D01*
X000732Y014565D01*
X000896Y014633D01*
X001074Y014633D01*
X001239Y014565D01*
X001365Y014439D01*
X001433Y014274D01*
X001433Y014096D01*
X001365Y013932D01*
X001239Y013806D01*
X001195Y013788D01*
X001195Y012872D01*
X001672Y012395D01*
X001795Y012272D01*
X001795Y011053D01*
X001889Y011015D01*
X002015Y010889D01*
X002083Y010724D01*
X002083Y010546D01*
X002015Y010382D01*
X001889Y010256D01*
X001724Y010188D01*
X001546Y010188D01*
X001382Y010256D01*
X001256Y010382D01*
X001188Y010546D01*
X001188Y010724D01*
X001256Y010889D01*
X001375Y011008D01*
X001375Y011958D01*
X001365Y011932D01*
X001239Y011806D01*
X001074Y011738D01*
X000896Y011738D01*
X000732Y011806D01*
X000606Y011932D01*
X000538Y012096D01*
X000538Y012274D01*
X000606Y012439D01*
X000732Y012565D01*
X000857Y012617D01*
X000775Y012698D01*
X000775Y012872D01*
X000775Y013788D01*
X000732Y013806D01*
X000606Y013932D01*
X000538Y014096D01*
X000538Y014119D01*
X000454Y013360D01*
X000454Y012010D01*
X000602Y010669D01*
X000898Y009352D01*
X001336Y008076D01*
X010379Y008076D01*
X010281Y007978D02*
X001382Y007978D01*
X001336Y008076D02*
X001912Y006855D01*
X002619Y005705D01*
X003448Y004640D01*
X004389Y003673D01*
X004426Y003642D02*
X004644Y003642D01*
X004645Y003641D02*
X004791Y003495D01*
X004982Y003415D01*
X005035Y003415D01*
X005035Y003885D01*
X004565Y003885D01*
X004565Y003832D01*
X004645Y003641D01*
X004603Y003740D02*
X004323Y003740D01*
X004227Y003839D02*
X004565Y003839D01*
X004565Y003985D02*
X005035Y003985D01*
X005035Y003885D01*
X005135Y003885D01*
X005135Y003415D01*
X005189Y003415D01*
X005380Y003495D01*
X005526Y003641D01*
X005575Y003758D01*
X005628Y003629D01*
X005779Y003478D01*
X005978Y003395D01*
X006193Y003395D01*
X006391Y003478D01*
X006543Y003629D01*
X006625Y003828D01*
X006625Y004043D01*
X006543Y004241D01*
X006391Y004393D01*
X006193Y004475D01*
X005978Y004475D01*
X005779Y004393D01*
X005628Y004241D01*
X005575Y004113D01*
X005526Y004230D01*
X005380Y004376D01*
X005189Y004455D01*
X005135Y004455D01*
X005135Y003986D01*
X005035Y003986D01*
X005035Y004455D01*
X004982Y004455D01*
X004791Y004376D01*
X004645Y004230D01*
X004565Y004039D01*
X004565Y003985D01*
X004565Y004036D02*
X004035Y004036D01*
X003940Y004134D02*
X004605Y004134D01*
X004648Y004233D02*
X003844Y004233D01*
X003748Y004331D02*
X004746Y004331D01*
X004921Y004430D02*
X003652Y004430D01*
X003556Y004529D02*
X006845Y004529D01*
X006747Y004627D02*
X003460Y004627D01*
X003381Y004726D02*
X006648Y004726D01*
X006550Y004824D02*
X006007Y004824D01*
X005989Y004806D02*
X006115Y004932D01*
X006183Y005096D01*
X006183Y005191D01*
X006971Y004403D01*
X006938Y004324D01*
X006938Y004146D01*
X007006Y003982D01*
X007132Y003856D01*
X007296Y003788D01*
X007474Y003788D01*
X007639Y003856D01*
X007765Y003982D01*
X007833Y004146D01*
X007833Y004324D01*
X007765Y004489D01*
X007639Y004615D01*
X007474Y004683D01*
X007296Y004683D01*
X007288Y004679D01*
X004695Y007272D01*
X004572Y007395D01*
X004133Y007395D01*
X004115Y007439D01*
X003989Y007565D01*
X003824Y007633D01*
X003646Y007633D01*
X003482Y007565D01*
X003356Y007439D01*
X003288Y007274D01*
X003288Y007096D01*
X003356Y006932D01*
X003482Y006806D01*
X003646Y006738D01*
X003824Y006738D01*
X003989Y006806D01*
X004115Y006932D01*
X004133Y006975D01*
X004398Y006975D01*
X005741Y005633D01*
X005646Y005633D01*
X005482Y005565D01*
X005356Y005439D01*
X005288Y005274D01*
X005288Y005096D01*
X005356Y004932D01*
X005482Y004806D01*
X005646Y004738D01*
X005824Y004738D01*
X005989Y004806D01*
X006106Y004923D02*
X006451Y004923D01*
X006352Y005021D02*
X006152Y005021D01*
X006183Y005120D02*
X006254Y005120D01*
X006552Y005415D02*
X007258Y005415D01*
X007357Y005317D02*
X006651Y005317D01*
X006749Y005218D02*
X007455Y005218D01*
X007554Y005120D02*
X006848Y005120D01*
X006946Y005021D02*
X007652Y005021D01*
X007698Y004975D02*
X008598Y004075D01*
X008772Y004075D01*
X008967Y004075D01*
X009006Y003982D01*
X009132Y003856D01*
X009296Y003788D01*
X009474Y003788D01*
X009639Y003856D01*
X009765Y003982D01*
X009833Y004146D01*
X009833Y004324D01*
X009765Y004489D01*
X009639Y004615D01*
X009474Y004683D01*
X009296Y004683D01*
X009132Y004615D01*
X009012Y004495D01*
X008772Y004495D01*
X008082Y005185D01*
X009015Y006118D01*
X009015Y006112D01*
X009072Y005976D01*
X009176Y005872D01*
X009312Y005815D01*
X009459Y005815D01*
X009595Y005872D01*
X009699Y005976D01*
X009755Y006112D01*
X009755Y006258D01*
X011212Y007715D01*
X011359Y007715D01*
X011495Y007772D01*
X011599Y007876D01*
X011655Y008012D01*
X011655Y008159D01*
X011599Y008295D01*
X011495Y008399D01*
X011359Y008455D01*
X011352Y008455D01*
X011975Y009078D01*
X011975Y008772D01*
X011975Y008598D01*
X013256Y007318D01*
X013238Y007274D01*
X013238Y007096D01*
X013306Y006932D01*
X013432Y006806D01*
X013596Y006738D01*
X013774Y006738D01*
X013939Y006806D01*
X014065Y006932D01*
X014133Y007096D01*
X014133Y007274D01*
X014065Y007439D01*
X013939Y007565D01*
X013774Y007633D01*
X013596Y007633D01*
X013553Y007615D01*
X012395Y008772D01*
X012395Y009188D01*
X012491Y009228D01*
X012643Y009379D01*
X012685Y009481D01*
X012728Y009379D01*
X012879Y009228D01*
X013078Y009145D01*
X013293Y009145D01*
X013491Y009228D01*
X013643Y009379D01*
X013725Y009578D01*
X013725Y009793D01*
X013643Y009991D01*
X013491Y010143D01*
X013293Y010225D01*
X013078Y010225D01*
X012879Y010143D01*
X012728Y009991D01*
X012685Y009889D01*
X012643Y009991D01*
X012491Y010143D01*
X012314Y010217D01*
X012512Y010415D01*
X012659Y010415D01*
X012795Y010472D01*
X012899Y010576D01*
X012955Y010712D01*
X012955Y010859D01*
X012899Y010995D01*
X012795Y011099D01*
X012659Y011155D01*
X012512Y011155D01*
X012376Y011099D01*
X012272Y010995D01*
X012215Y010859D01*
X012215Y010712D01*
X011398Y009895D01*
X008499Y009895D01*
X008395Y009999D01*
X008259Y010055D01*
X008112Y010055D01*
X007976Y009999D01*
X007872Y009895D01*
X007815Y009759D01*
X007815Y009612D01*
X007872Y009476D01*
X007976Y009372D01*
X008112Y009315D01*
X008259Y009315D01*
X008395Y009372D01*
X008499Y009475D01*
X011398Y009475D01*
X011572Y009475D01*
X011654Y009557D01*
X011714Y009411D01*
X007785Y005482D01*
X006179Y007088D01*
X006183Y007096D01*
X006183Y007274D01*
X006115Y007439D01*
X005989Y007565D01*
X005824Y007633D01*
X005646Y007633D01*
X005482Y007565D01*
X005356Y007439D01*
X005288Y007274D01*
X005288Y007096D01*
X005356Y006932D01*
X005482Y006806D01*
X005646Y006738D01*
X005824Y006738D01*
X005903Y006771D01*
X007575Y005098D01*
X007698Y004975D01*
X007751Y004923D02*
X007045Y004923D01*
X007143Y004824D02*
X007850Y004824D01*
X007948Y004726D02*
X007242Y004726D01*
X007609Y004627D02*
X008047Y004627D01*
X008145Y004529D02*
X007725Y004529D01*
X007789Y004430D02*
X008244Y004430D01*
X008342Y004331D02*
X007830Y004331D01*
X007833Y004233D02*
X008441Y004233D01*
X008539Y004134D02*
X007828Y004134D01*
X007787Y004036D02*
X008984Y004036D01*
X009051Y003937D02*
X007720Y003937D01*
X007597Y003839D02*
X009173Y003839D01*
X009597Y003839D02*
X010042Y003839D01*
X010140Y003937D02*
X009720Y003937D01*
X009787Y004036D02*
X010239Y004036D01*
X010337Y004134D02*
X009828Y004134D01*
X009833Y004233D02*
X010436Y004233D01*
X010535Y004331D02*
X009830Y004331D01*
X009789Y004430D02*
X010633Y004430D01*
X010732Y004529D02*
X009725Y004529D01*
X009609Y004627D02*
X010830Y004627D01*
X010929Y004726D02*
X008542Y004726D01*
X008443Y004824D02*
X011027Y004824D01*
X011126Y004923D02*
X008345Y004923D01*
X008246Y005021D02*
X011224Y005021D01*
X011238Y005120D02*
X008148Y005120D01*
X008115Y005218D02*
X011238Y005218D01*
X011256Y005317D02*
X008214Y005317D01*
X008312Y005415D02*
X011296Y005415D01*
X011381Y005514D02*
X008411Y005514D01*
X008509Y005613D02*
X011547Y005613D01*
X011823Y005613D02*
X013547Y005613D01*
X013381Y005514D02*
X011990Y005514D01*
X012074Y005415D02*
X013296Y005415D01*
X013120Y005317D02*
X012115Y005317D01*
X012133Y005218D02*
X013021Y005218D01*
X012923Y005120D02*
X012133Y005120D01*
X012102Y005021D02*
X012824Y005021D01*
X012726Y004923D02*
X012056Y004923D01*
X011957Y004824D02*
X012627Y004824D01*
X012529Y004726D02*
X011523Y004726D01*
X011424Y004627D02*
X012430Y004627D01*
X012332Y004529D02*
X011325Y004529D01*
X011227Y004430D02*
X012233Y004430D01*
X012134Y004331D02*
X011128Y004331D01*
X011030Y004233D02*
X012036Y004233D01*
X011937Y004134D02*
X010931Y004134D01*
X010833Y004036D02*
X011839Y004036D01*
X011740Y003937D02*
X010734Y003937D01*
X010636Y003839D02*
X011642Y003839D01*
X011543Y003740D02*
X010537Y003740D01*
X010439Y003642D02*
X011445Y003642D01*
X011346Y003543D02*
X010340Y003543D01*
X010241Y003445D02*
X011248Y003445D01*
X011149Y003346D02*
X010143Y003346D01*
X010044Y003247D02*
X011051Y003247D01*
X010952Y003149D02*
X009946Y003149D01*
X009847Y003050D02*
X010853Y003050D01*
X010755Y002952D02*
X009749Y002952D01*
X009650Y002853D02*
X010656Y002853D01*
X010558Y002755D02*
X009552Y002755D01*
X009539Y002656D02*
X010459Y002656D01*
X010361Y002558D02*
X009696Y002558D01*
X009777Y002459D02*
X010262Y002459D01*
X010856Y002459D02*
X015426Y002459D01*
X015432Y002465D02*
X015306Y002339D01*
X015238Y002174D01*
X015238Y001996D01*
X015306Y001832D01*
X015432Y001706D01*
X015596Y001638D01*
X015774Y001638D01*
X015939Y001706D01*
X016065Y001832D01*
X016133Y001996D01*
X016133Y002174D01*
X016065Y002339D01*
X015939Y002465D01*
X015774Y002533D01*
X015596Y002533D01*
X015432Y002465D01*
X015328Y002361D02*
X012507Y002361D01*
X012606Y002262D02*
X015274Y002262D01*
X015238Y002164D02*
X012704Y002164D01*
X012803Y002065D02*
X015238Y002065D01*
X015250Y001966D02*
X012901Y001966D01*
X013000Y001868D02*
X015291Y001868D01*
X015369Y001769D02*
X013098Y001769D01*
X013197Y001671D02*
X015517Y001671D01*
X015854Y001671D02*
X017517Y001671D01*
X017596Y001638D02*
X017774Y001638D01*
X017939Y001706D01*
X018065Y001832D01*
X018133Y001996D01*
X018133Y002174D01*
X018065Y002339D01*
X017939Y002465D01*
X017774Y002533D01*
X017596Y002533D01*
X017432Y002465D01*
X017306Y002339D01*
X017238Y002174D01*
X017238Y001996D01*
X017306Y001832D01*
X017432Y001706D01*
X017596Y001638D01*
X017575Y001474D02*
X013394Y001474D01*
X013295Y001572D02*
X017800Y001572D01*
X017854Y001671D02*
X018024Y001671D01*
X018002Y001769D02*
X018241Y001769D01*
X018080Y001868D02*
X018412Y001868D01*
X018583Y001966D02*
X018120Y001966D01*
X018133Y002065D02*
X018753Y002065D01*
X018924Y002164D02*
X018133Y002164D01*
X018096Y002262D02*
X019095Y002262D01*
X019265Y002361D02*
X018043Y002361D01*
X017944Y002459D02*
X019425Y002459D01*
X019559Y002558D02*
X013891Y002558D01*
X013889Y002556D02*
X014015Y002682D01*
X014083Y002846D01*
X014083Y003024D01*
X014015Y003189D01*
X013895Y003308D01*
X013895Y004098D01*
X014982Y005185D01*
X015078Y005145D01*
X015293Y005145D01*
X015491Y005228D01*
X015643Y005379D01*
X015725Y005578D01*
X015725Y005793D01*
X015643Y005991D01*
X015491Y006143D01*
X015363Y006196D01*
X015480Y006245D01*
X015626Y006391D01*
X015705Y006582D01*
X015705Y006635D01*
X015236Y006635D01*
X015236Y006735D01*
X015705Y006735D01*
X015705Y006789D01*
X015626Y006980D01*
X015480Y007126D01*
X015289Y007205D01*
X015235Y007205D01*
X015235Y006736D01*
X015135Y006736D01*
X015135Y007205D01*
X015082Y007205D01*
X014891Y007126D01*
X014745Y006980D01*
X014665Y006789D01*
X014665Y006735D01*
X015135Y006735D01*
X015135Y006635D01*
X014665Y006635D01*
X014665Y006582D01*
X014745Y006391D01*
X014891Y006245D01*
X015008Y006196D01*
X014879Y006143D01*
X014728Y005991D01*
X014645Y005793D01*
X014645Y005578D01*
X014685Y005482D01*
X013475Y004272D01*
X013475Y004098D01*
X013475Y003353D01*
X013382Y003315D01*
X013256Y003189D01*
X013188Y003024D01*
X013188Y002846D01*
X013256Y002682D01*
X013382Y002556D01*
X013546Y002488D01*
X013724Y002488D01*
X013889Y002556D01*
X013989Y002656D02*
X019693Y002656D01*
X019827Y002755D02*
X014045Y002755D01*
X014083Y002853D02*
X019961Y002853D01*
X020095Y002952D02*
X014083Y002952D01*
X014072Y003050D02*
X020230Y003050D01*
X020364Y003149D02*
X014031Y003149D01*
X013956Y003247D02*
X020493Y003247D01*
X020600Y003346D02*
X013895Y003346D01*
X013895Y003445D02*
X020707Y003445D01*
X020814Y003543D02*
X013895Y003543D01*
X013895Y003642D02*
X015587Y003642D01*
X015596Y003638D02*
X015774Y003638D01*
X015939Y003706D01*
X016065Y003832D01*
X016133Y003996D01*
X016133Y004174D01*
X016065Y004339D01*
X015939Y004465D01*
X015774Y004533D01*
X015596Y004533D01*
X015432Y004465D01*
X015306Y004339D01*
X015238Y004174D01*
X015238Y003996D01*
X015306Y003832D01*
X015432Y003706D01*
X015596Y003638D01*
X015783Y003642D02*
X017587Y003642D01*
X017596Y003638D02*
X017774Y003638D01*
X017939Y003706D01*
X018065Y003832D01*
X018133Y003996D01*
X018133Y004174D01*
X018065Y004339D01*
X017939Y004465D01*
X017774Y004533D01*
X017596Y004533D01*
X017432Y004465D01*
X017306Y004339D01*
X017238Y004174D01*
X017238Y003996D01*
X017306Y003832D01*
X017432Y003706D01*
X017596Y003638D01*
X017783Y003642D02*
X020921Y003642D01*
X021028Y003740D02*
X017973Y003740D01*
X018068Y003839D02*
X021135Y003839D01*
X021242Y003937D02*
X018108Y003937D01*
X018133Y004036D02*
X021349Y004036D01*
X021456Y004134D02*
X018133Y004134D01*
X018109Y004233D02*
X021544Y004233D01*
X021630Y004331D02*
X018068Y004331D01*
X017974Y004430D02*
X021716Y004430D01*
X021801Y004529D02*
X017785Y004529D01*
X017586Y004529D02*
X015785Y004529D01*
X015586Y004529D02*
X014326Y004529D01*
X014424Y004627D02*
X021887Y004627D01*
X021973Y004726D02*
X014523Y004726D01*
X014621Y004824D02*
X016531Y004824D01*
X016552Y004815D02*
X016306Y004917D01*
X016117Y005106D01*
X016015Y005352D01*
X016015Y005619D01*
X016117Y005865D01*
X016306Y006053D01*
X016552Y006155D01*
X016819Y006155D01*
X017065Y006053D01*
X017253Y005865D01*
X017355Y005619D01*
X017355Y005352D01*
X017253Y005106D01*
X017065Y004917D01*
X016819Y004815D01*
X016552Y004815D01*
X016300Y004923D02*
X014720Y004923D01*
X014818Y005021D02*
X016202Y005021D01*
X016112Y005120D02*
X014917Y005120D01*
X014618Y005415D02*
X014074Y005415D01*
X014115Y005317D02*
X014520Y005317D01*
X014421Y005218D02*
X014133Y005218D01*
X014133Y005120D02*
X014323Y005120D01*
X014224Y005021D02*
X014102Y005021D01*
X014126Y004923D02*
X014056Y004923D01*
X014027Y004824D02*
X013957Y004824D01*
X013929Y004726D02*
X013123Y004726D01*
X013221Y004824D02*
X013414Y004824D01*
X013024Y004627D02*
X013830Y004627D01*
X013732Y004529D02*
X012925Y004529D01*
X012827Y004430D02*
X013633Y004430D01*
X013534Y004331D02*
X012728Y004331D01*
X012630Y004233D02*
X013475Y004233D01*
X013475Y004134D02*
X012531Y004134D01*
X012433Y004036D02*
X013475Y004036D01*
X013475Y003937D02*
X012334Y003937D01*
X012236Y003839D02*
X013475Y003839D01*
X013475Y003740D02*
X012137Y003740D01*
X012039Y003642D02*
X013475Y003642D01*
X013475Y003543D02*
X011940Y003543D01*
X011841Y003445D02*
X013475Y003445D01*
X013458Y003346D02*
X011813Y003346D01*
X011956Y003247D02*
X013315Y003247D01*
X013239Y003149D02*
X012031Y003149D01*
X012072Y003050D02*
X013199Y003050D01*
X013188Y002952D02*
X012083Y002952D01*
X012083Y002853D02*
X013188Y002853D01*
X013226Y002755D02*
X012045Y002755D01*
X011989Y002656D02*
X013282Y002656D01*
X013380Y002558D02*
X011891Y002558D01*
X011380Y002558D02*
X010955Y002558D01*
X011053Y002656D02*
X011282Y002656D01*
X011226Y002755D02*
X011152Y002755D01*
X009746Y003543D02*
X006457Y003543D01*
X006548Y003642D02*
X009845Y003642D01*
X009943Y003740D02*
X006589Y003740D01*
X006625Y003839D02*
X007173Y003839D01*
X007051Y003937D02*
X006625Y003937D01*
X006625Y004036D02*
X006984Y004036D01*
X006943Y004134D02*
X006587Y004134D01*
X006547Y004233D02*
X006938Y004233D01*
X006941Y004331D02*
X006453Y004331D01*
X006302Y004430D02*
X006944Y004430D01*
X005869Y004430D02*
X005250Y004430D01*
X005135Y004430D02*
X005035Y004430D01*
X005035Y004331D02*
X005135Y004331D01*
X005135Y004233D02*
X005035Y004233D01*
X005035Y004134D02*
X005135Y004134D01*
X005135Y004036D02*
X005035Y004036D01*
X005035Y003937D02*
X004131Y003937D01*
X004546Y003543D02*
X004742Y003543D01*
X004666Y003445D02*
X004911Y003445D01*
X005035Y003445D02*
X005135Y003445D01*
X005135Y003543D02*
X005035Y003543D01*
X005035Y003642D02*
X005135Y003642D01*
X005135Y003740D02*
X005035Y003740D01*
X005035Y003839D02*
X005135Y003839D01*
X005526Y003642D02*
X005622Y003642D01*
X005582Y003740D02*
X005567Y003740D01*
X005428Y003543D02*
X005714Y003543D01*
X005859Y003445D02*
X005259Y003445D01*
X005025Y003149D02*
X009352Y003149D01*
X009451Y003247D02*
X004905Y003247D01*
X004785Y003346D02*
X009549Y003346D01*
X009648Y003445D02*
X006312Y003445D01*
X005384Y002853D02*
X009056Y002853D01*
X008958Y002755D02*
X005522Y002755D01*
X005673Y002656D02*
X007232Y002656D01*
X007075Y002558D02*
X005824Y002558D01*
X005975Y002459D02*
X006994Y002459D01*
X006953Y002361D02*
X006126Y002361D01*
X006276Y002262D02*
X006938Y002262D01*
X006938Y002164D02*
X006427Y002164D01*
X006583Y002065D02*
X006972Y002065D01*
X007021Y001966D02*
X006778Y001966D01*
X006973Y001868D02*
X007120Y001868D01*
X007167Y001769D02*
X008904Y001769D01*
X008806Y001868D02*
X007651Y001868D01*
X007749Y001966D02*
X008707Y001966D01*
X008609Y002065D02*
X007799Y002065D01*
X007696Y002558D02*
X008761Y002558D01*
X008859Y002656D02*
X007539Y002656D01*
X007362Y001671D02*
X009003Y001671D01*
X009101Y001572D02*
X007557Y001572D01*
X007752Y001474D02*
X009200Y001474D01*
X009299Y001375D02*
X008010Y001375D01*
X008273Y001277D02*
X009397Y001277D01*
X009496Y001178D02*
X008537Y001178D01*
X008800Y001080D02*
X009594Y001080D01*
X009693Y000981D02*
X009079Y000981D01*
X009469Y000882D02*
X009791Y000882D01*
X009858Y000784D02*
X009890Y000784D01*
X010247Y000685D02*
X011255Y000685D01*
X011351Y000587D02*
X010883Y000587D01*
X013492Y001375D02*
X013528Y001375D01*
X013743Y001375D02*
X017350Y001375D01*
X017126Y001277D02*
X013927Y001277D01*
X014019Y001178D02*
X016869Y001178D01*
X016554Y001080D02*
X014060Y001080D01*
X014083Y000981D02*
X016239Y000981D01*
X015924Y000882D02*
X014083Y000882D01*
X014057Y000784D02*
X015558Y000784D01*
X015054Y000685D02*
X014016Y000685D01*
X013920Y000587D02*
X014549Y000587D01*
X016002Y001769D02*
X017369Y001769D01*
X017291Y001868D02*
X016080Y001868D01*
X016120Y001966D02*
X017250Y001966D01*
X017238Y002065D02*
X016133Y002065D01*
X016133Y002164D02*
X017238Y002164D01*
X017274Y002262D02*
X016096Y002262D01*
X016043Y002361D02*
X017328Y002361D01*
X017426Y002459D02*
X015944Y002459D01*
X015973Y003740D02*
X017398Y003740D01*
X017303Y003839D02*
X016068Y003839D01*
X016108Y003937D02*
X017262Y003937D01*
X017238Y004036D02*
X016133Y004036D01*
X016133Y004134D02*
X017238Y004134D01*
X017262Y004233D02*
X016109Y004233D01*
X016068Y004331D02*
X017303Y004331D01*
X017397Y004430D02*
X015974Y004430D01*
X015397Y004430D02*
X014227Y004430D01*
X014128Y004331D02*
X015303Y004331D01*
X015262Y004233D02*
X014030Y004233D01*
X013931Y004134D02*
X015238Y004134D01*
X015238Y004036D02*
X013895Y004036D01*
X013895Y003937D02*
X015262Y003937D01*
X015303Y003839D02*
X013895Y003839D01*
X013895Y003740D02*
X015398Y003740D01*
X016840Y004824D02*
X018031Y004824D01*
X018052Y004815D02*
X018319Y004815D01*
X018565Y004917D01*
X018753Y005106D01*
X018855Y005352D01*
X018855Y005619D01*
X018753Y005865D01*
X018565Y006053D01*
X018319Y006155D01*
X018052Y006155D01*
X017806Y006053D01*
X017617Y005865D01*
X017515Y005619D01*
X017515Y005352D01*
X017617Y005106D01*
X017806Y004917D01*
X018052Y004815D01*
X017800Y004923D02*
X017070Y004923D01*
X017169Y005021D02*
X017702Y005021D01*
X017612Y005120D02*
X017259Y005120D01*
X017300Y005218D02*
X017571Y005218D01*
X017530Y005317D02*
X017341Y005317D01*
X017355Y005415D02*
X017515Y005415D01*
X017515Y005514D02*
X017355Y005514D01*
X017355Y005613D02*
X017515Y005613D01*
X017554Y005711D02*
X017317Y005711D01*
X017276Y005810D02*
X017594Y005810D01*
X017661Y005908D02*
X017210Y005908D01*
X017111Y006007D02*
X017759Y006007D01*
X017931Y006105D02*
X016940Y006105D01*
X016819Y006215D02*
X017065Y006317D01*
X017253Y006506D01*
X017355Y006752D01*
X017355Y007019D01*
X017253Y007265D01*
X017065Y007453D01*
X016819Y007555D01*
X016552Y007555D01*
X016306Y007453D01*
X016117Y007265D01*
X016015Y007019D01*
X016015Y006752D01*
X016117Y006506D01*
X016306Y006317D01*
X016552Y006215D01*
X016819Y006215D01*
X017029Y006302D02*
X017842Y006302D01*
X017806Y006317D02*
X018052Y006215D01*
X018319Y006215D01*
X018565Y006317D01*
X018753Y006506D01*
X018855Y006752D01*
X018855Y007019D01*
X018753Y007265D01*
X018565Y007453D01*
X018319Y007555D01*
X018052Y007555D01*
X017806Y007453D01*
X017617Y007265D01*
X017515Y007019D01*
X017515Y006752D01*
X017617Y006506D01*
X017806Y006317D01*
X017722Y006401D02*
X017148Y006401D01*
X017247Y006499D02*
X017624Y006499D01*
X017579Y006598D02*
X017291Y006598D01*
X017332Y006696D02*
X017538Y006696D01*
X017515Y006795D02*
X017355Y006795D01*
X017355Y006894D02*
X017515Y006894D01*
X017515Y006992D02*
X017355Y006992D01*
X017325Y007091D02*
X017545Y007091D01*
X017586Y007189D02*
X017285Y007189D01*
X017230Y007288D02*
X017640Y007288D01*
X017739Y007386D02*
X017132Y007386D01*
X016989Y007485D02*
X017882Y007485D01*
X018489Y007485D02*
X019352Y007485D01*
X019306Y007439D02*
X019238Y007274D01*
X019238Y007096D01*
X019306Y006932D01*
X019432Y006806D01*
X019596Y006738D01*
X019774Y006738D01*
X019939Y006806D01*
X020065Y006932D01*
X020133Y007096D01*
X020133Y007274D01*
X020065Y007439D01*
X019939Y007565D01*
X019895Y007583D01*
X019895Y007898D01*
X021772Y009775D01*
X021895Y009898D01*
X021895Y010238D01*
X021939Y010256D01*
X022065Y010382D01*
X022133Y010546D01*
X022133Y010724D01*
X022065Y010889D01*
X021939Y011015D01*
X021774Y011083D01*
X021596Y011083D01*
X021432Y011015D01*
X021306Y010889D01*
X021238Y010724D01*
X021238Y010546D01*
X021306Y010382D01*
X021432Y010256D01*
X021475Y010238D01*
X021475Y010072D01*
X020675Y009272D01*
X020675Y009388D01*
X020388Y009675D01*
X019982Y009675D01*
X019695Y009388D01*
X019695Y008982D01*
X019982Y008695D01*
X020098Y008695D01*
X019475Y008072D01*
X019475Y007898D01*
X019475Y007583D01*
X019432Y007565D01*
X019306Y007439D01*
X019284Y007386D02*
X018632Y007386D01*
X018730Y007288D02*
X019243Y007288D01*
X019238Y007189D02*
X018785Y007189D01*
X018825Y007091D02*
X019240Y007091D01*
X019281Y006992D02*
X018855Y006992D01*
X018855Y006894D02*
X019344Y006894D01*
X019458Y006795D02*
X018855Y006795D01*
X018832Y006696D02*
X023352Y006696D01*
X023299Y006598D02*
X018791Y006598D01*
X018747Y006499D02*
X023245Y006499D01*
X023192Y006401D02*
X018648Y006401D01*
X018529Y006302D02*
X023139Y006302D01*
X023075Y006204D02*
X015381Y006204D01*
X015529Y006105D02*
X016431Y006105D01*
X016259Y006007D02*
X015628Y006007D01*
X015678Y005908D02*
X016161Y005908D01*
X016094Y005810D02*
X015718Y005810D01*
X015725Y005711D02*
X016054Y005711D01*
X016015Y005613D02*
X015725Y005613D01*
X015699Y005514D02*
X016015Y005514D01*
X016015Y005415D02*
X015658Y005415D01*
X015581Y005317D02*
X016030Y005317D01*
X016071Y005218D02*
X015469Y005218D01*
X014672Y005514D02*
X013990Y005514D01*
X013823Y005613D02*
X014645Y005613D01*
X014645Y005711D02*
X008608Y005711D01*
X008707Y005810D02*
X014652Y005810D01*
X014693Y005908D02*
X009631Y005908D01*
X009712Y006007D02*
X014743Y006007D01*
X014842Y006105D02*
X009753Y006105D01*
X009755Y006204D02*
X014989Y006204D01*
X014833Y006302D02*
X009799Y006302D01*
X009898Y006401D02*
X014740Y006401D01*
X014699Y006499D02*
X009996Y006499D01*
X010095Y006598D02*
X014665Y006598D01*
X014668Y006795D02*
X013912Y006795D01*
X014026Y006894D02*
X014709Y006894D01*
X014757Y006992D02*
X014090Y006992D01*
X014130Y007091D02*
X014855Y007091D01*
X015043Y007189D02*
X014133Y007189D01*
X014127Y007288D02*
X016140Y007288D01*
X016086Y007189D02*
X015328Y007189D01*
X015235Y007189D02*
X015135Y007189D01*
X015135Y007091D02*
X015235Y007091D01*
X015235Y006992D02*
X015135Y006992D01*
X015135Y006894D02*
X015235Y006894D01*
X015235Y006795D02*
X015135Y006795D01*
X015135Y006696D02*
X010193Y006696D01*
X010292Y006795D02*
X011458Y006795D01*
X011432Y006806D02*
X011596Y006738D01*
X011774Y006738D01*
X011939Y006806D01*
X012065Y006932D01*
X012133Y007096D01*
X012133Y007274D01*
X012065Y007439D01*
X011939Y007565D01*
X011774Y007633D01*
X011596Y007633D01*
X011432Y007565D01*
X011306Y007439D01*
X011238Y007274D01*
X011238Y007096D01*
X011306Y006932D01*
X011432Y006806D01*
X011344Y006894D02*
X010391Y006894D01*
X010489Y006992D02*
X011281Y006992D01*
X011240Y007091D02*
X010588Y007091D01*
X010686Y007189D02*
X011238Y007189D01*
X011243Y007288D02*
X010785Y007288D01*
X010883Y007386D02*
X011284Y007386D01*
X011352Y007485D02*
X010982Y007485D01*
X011080Y007583D02*
X011477Y007583D01*
X011504Y007780D02*
X012793Y007780D01*
X012892Y007682D02*
X011179Y007682D01*
X011600Y007879D02*
X012695Y007879D01*
X012596Y007978D02*
X011641Y007978D01*
X011655Y008076D02*
X012498Y008076D01*
X012399Y008175D02*
X011649Y008175D01*
X011608Y008273D02*
X012301Y008273D01*
X012202Y008372D02*
X011522Y008372D01*
X011367Y008470D02*
X012103Y008470D01*
X012005Y008569D02*
X011466Y008569D01*
X011564Y008667D02*
X011975Y008667D01*
X011975Y008766D02*
X011663Y008766D01*
X011761Y008864D02*
X011975Y008864D01*
X011975Y008963D02*
X011860Y008963D01*
X011958Y009062D02*
X011975Y009062D01*
X012395Y009062D02*
X017695Y009062D01*
X017695Y008982D02*
X017982Y008695D01*
X018388Y008695D01*
X018675Y008982D01*
X018675Y009388D01*
X018388Y009675D01*
X017982Y009675D01*
X017695Y009388D01*
X017695Y008982D01*
X017715Y008963D02*
X012395Y008963D01*
X012395Y008864D02*
X017813Y008864D01*
X017912Y008766D02*
X012402Y008766D01*
X012500Y008667D02*
X020070Y008667D01*
X019972Y008569D02*
X012599Y008569D01*
X012697Y008470D02*
X019873Y008470D01*
X019775Y008372D02*
X012796Y008372D01*
X012894Y008273D02*
X019676Y008273D01*
X019578Y008175D02*
X012993Y008175D01*
X013092Y008076D02*
X019479Y008076D01*
X019475Y007978D02*
X013190Y007978D01*
X013289Y007879D02*
X019475Y007879D01*
X019475Y007780D02*
X013387Y007780D01*
X013486Y007682D02*
X019475Y007682D01*
X019475Y007583D02*
X013894Y007583D01*
X014019Y007485D02*
X016382Y007485D01*
X016239Y007386D02*
X014086Y007386D01*
X013243Y007288D02*
X012127Y007288D01*
X012133Y007189D02*
X013238Y007189D01*
X013240Y007091D02*
X012130Y007091D01*
X012090Y006992D02*
X013281Y006992D01*
X013344Y006894D02*
X012026Y006894D01*
X011912Y006795D02*
X013458Y006795D01*
X013187Y007386D02*
X012086Y007386D01*
X012019Y007485D02*
X013089Y007485D01*
X012990Y007583D02*
X011894Y007583D01*
X010576Y008273D02*
X003906Y008273D01*
X003889Y008256D02*
X004015Y008382D01*
X004083Y008546D01*
X004083Y008724D01*
X004015Y008889D01*
X003889Y009015D01*
X003724Y009083D01*
X003546Y009083D01*
X003382Y009015D01*
X003256Y008889D01*
X003188Y008724D01*
X003188Y008546D01*
X003256Y008382D01*
X003382Y008256D01*
X003546Y008188D01*
X003724Y008188D01*
X003889Y008256D01*
X004005Y008372D02*
X010675Y008372D01*
X010773Y008470D02*
X004051Y008470D01*
X004083Y008569D02*
X010872Y008569D01*
X010970Y008667D02*
X004083Y008667D01*
X004066Y008766D02*
X011069Y008766D01*
X011167Y008864D02*
X004025Y008864D01*
X003941Y008963D02*
X011266Y008963D01*
X011365Y009062D02*
X003776Y009062D01*
X003495Y009062D02*
X001776Y009062D01*
X001724Y009083D02*
X001546Y009083D01*
X001382Y009015D01*
X001256Y008889D01*
X001188Y008724D01*
X001188Y008546D01*
X001256Y008382D01*
X001382Y008256D01*
X001546Y008188D01*
X001724Y008188D01*
X001889Y008256D01*
X002015Y008382D01*
X002083Y008546D01*
X002083Y008724D01*
X002015Y008889D01*
X001889Y009015D01*
X001724Y009083D01*
X001495Y009062D02*
X000997Y009062D01*
X000963Y009160D02*
X011463Y009160D01*
X011562Y009259D02*
X000930Y009259D01*
X000896Y009357D02*
X006211Y009357D01*
X006176Y009372D02*
X006312Y009315D01*
X006459Y009315D01*
X006595Y009372D01*
X006699Y009476D01*
X006755Y009612D01*
X006755Y009758D01*
X007143Y010146D01*
X007172Y010076D01*
X007276Y009972D01*
X007412Y009915D01*
X007559Y009915D01*
X007695Y009972D01*
X007799Y010075D01*
X009072Y010075D01*
X009195Y010198D01*
X010312Y011315D01*
X010459Y011315D01*
X010595Y011372D01*
X010699Y011476D01*
X010755Y011612D01*
X010755Y011759D01*
X010699Y011895D01*
X010595Y011999D01*
X010459Y012055D01*
X010312Y012055D01*
X010176Y011999D01*
X010072Y011895D01*
X010015Y011759D01*
X010015Y011612D01*
X008898Y010495D01*
X007799Y010495D01*
X007695Y010599D01*
X007625Y010628D01*
X008512Y011515D01*
X008659Y011515D01*
X008795Y011572D01*
X008899Y011676D01*
X008955Y011812D01*
X008955Y011959D01*
X008899Y012095D01*
X008795Y012199D01*
X008659Y012255D01*
X008512Y012255D01*
X008376Y012199D01*
X008272Y012095D01*
X008215Y011959D01*
X008215Y011812D01*
X006458Y010055D01*
X006312Y010055D01*
X006176Y009999D01*
X006072Y009895D01*
X006015Y009759D01*
X006015Y009612D01*
X006072Y009476D01*
X006176Y009372D01*
X006092Y009456D02*
X000874Y009456D01*
X000852Y009554D02*
X006039Y009554D01*
X006015Y009653D02*
X000830Y009653D01*
X000808Y009751D02*
X006015Y009751D01*
X006053Y009850D02*
X000786Y009850D01*
X000764Y009948D02*
X006125Y009948D01*
X006292Y010047D02*
X000742Y010047D01*
X000720Y010146D02*
X006549Y010146D01*
X006647Y010244D02*
X003860Y010244D01*
X003889Y010256D02*
X004015Y010382D01*
X004083Y010546D01*
X004083Y010724D01*
X004015Y010889D01*
X003889Y011015D01*
X003724Y011083D01*
X003546Y011083D01*
X003382Y011015D01*
X003256Y010889D01*
X003188Y010724D01*
X003188Y010546D01*
X003256Y010382D01*
X003382Y010256D01*
X003546Y010188D01*
X003724Y010188D01*
X003889Y010256D01*
X003975Y010343D02*
X006746Y010343D01*
X006844Y010441D02*
X004039Y010441D01*
X004080Y010540D02*
X006943Y010540D01*
X007041Y010638D02*
X004083Y010638D01*
X004078Y010737D02*
X007140Y010737D01*
X007238Y010835D02*
X004037Y010835D01*
X003970Y010934D02*
X007337Y010934D01*
X007435Y011032D02*
X003846Y011032D01*
X003425Y011032D02*
X001846Y011032D01*
X001795Y011131D02*
X007534Y011131D01*
X007633Y011229D02*
X001795Y011229D01*
X001795Y011328D02*
X007731Y011328D01*
X007830Y011427D02*
X001795Y011427D01*
X001795Y011525D02*
X007928Y011525D01*
X008027Y011624D02*
X005517Y011624D01*
X005590Y011654D02*
X005717Y011780D01*
X005785Y011946D01*
X005785Y012125D01*
X005717Y012290D01*
X005590Y012417D01*
X005425Y012485D01*
X005246Y012485D01*
X005080Y012417D01*
X004954Y012290D01*
X004885Y012125D01*
X004885Y011946D01*
X004954Y011780D01*
X005080Y011654D01*
X005246Y011585D01*
X005425Y011585D01*
X005590Y011654D01*
X005659Y011722D02*
X008125Y011722D01*
X008215Y011821D02*
X005734Y011821D01*
X005774Y011919D02*
X008215Y011919D01*
X008240Y012018D02*
X005785Y012018D01*
X005785Y012116D02*
X008293Y012116D01*
X008414Y012215D02*
X005748Y012215D01*
X005694Y012313D02*
X011794Y012313D01*
X011728Y012379D02*
X011879Y012228D01*
X012078Y012145D01*
X012293Y012145D01*
X012491Y012228D01*
X012643Y012379D01*
X012685Y012481D01*
X012728Y012379D01*
X012879Y012228D01*
X013078Y012145D01*
X013293Y012145D01*
X013491Y012228D01*
X013643Y012379D01*
X013725Y012578D01*
X013725Y012793D01*
X013643Y012991D01*
X013491Y013143D01*
X013293Y013225D01*
X013078Y013225D01*
X012879Y013143D01*
X012728Y012991D01*
X012685Y012889D01*
X012643Y012991D01*
X012491Y013143D01*
X012293Y013225D01*
X012078Y013225D01*
X011879Y013143D01*
X011728Y012991D01*
X011645Y012793D01*
X011645Y012578D01*
X011728Y012379D01*
X011714Y012412D02*
X005595Y012412D01*
X005076Y012412D02*
X003509Y012412D01*
X003415Y012318D02*
X004072Y012975D01*
X004195Y013098D01*
X004195Y015238D01*
X004239Y015256D01*
X004365Y015382D01*
X004433Y015546D01*
X004433Y015724D01*
X004365Y015889D01*
X004239Y016015D01*
X004074Y016083D01*
X003896Y016083D01*
X003732Y016015D01*
X003606Y015889D01*
X003538Y015724D01*
X003538Y015546D01*
X003606Y015382D01*
X003732Y015256D01*
X003775Y015238D01*
X003775Y013272D01*
X003118Y012615D01*
X003074Y012633D01*
X002896Y012633D01*
X002732Y012565D01*
X002606Y012439D01*
X002538Y012274D01*
X002538Y012096D01*
X002606Y011932D01*
X002732Y011806D01*
X002896Y011738D01*
X003074Y011738D01*
X003239Y011806D01*
X003365Y011932D01*
X003433Y012096D01*
X003433Y012274D01*
X003415Y012318D01*
X003417Y012313D02*
X004977Y012313D01*
X004923Y012215D02*
X003433Y012215D01*
X003433Y012116D02*
X004885Y012116D01*
X004885Y012018D02*
X003400Y012018D01*
X003352Y011919D02*
X004896Y011919D01*
X004937Y011821D02*
X003254Y011821D01*
X002717Y011821D02*
X001795Y011821D01*
X001795Y011919D02*
X002619Y011919D01*
X002570Y012018D02*
X001795Y012018D01*
X001795Y012116D02*
X002538Y012116D01*
X002538Y012215D02*
X001795Y012215D01*
X001754Y012313D02*
X002554Y012313D01*
X002595Y012412D02*
X001656Y012412D01*
X001557Y012511D02*
X002678Y012511D01*
X002839Y012609D02*
X001459Y012609D01*
X001360Y012708D02*
X003211Y012708D01*
X003309Y012806D02*
X001261Y012806D01*
X001195Y012905D02*
X003408Y012905D01*
X003506Y013003D02*
X001195Y013003D01*
X001195Y013102D02*
X003605Y013102D01*
X003703Y013200D02*
X001195Y013200D01*
X001195Y013299D02*
X003775Y013299D01*
X003775Y013397D02*
X001195Y013397D01*
X001195Y013496D02*
X003775Y013496D01*
X003775Y013595D02*
X001195Y013595D01*
X001195Y013693D02*
X003775Y013693D01*
X003775Y013792D02*
X003204Y013792D01*
X003239Y013806D02*
X003365Y013932D01*
X003433Y014096D01*
X003433Y014274D01*
X003365Y014439D01*
X003239Y014565D01*
X003074Y014633D01*
X002896Y014633D01*
X002732Y014565D01*
X002606Y014439D01*
X002538Y014274D01*
X002538Y014096D01*
X002606Y013932D01*
X002732Y013806D01*
X002896Y013738D01*
X003074Y013738D01*
X003239Y013806D01*
X003323Y013890D02*
X003775Y013890D01*
X003775Y013989D02*
X003388Y013989D01*
X003429Y014087D02*
X003775Y014087D01*
X003775Y014186D02*
X003433Y014186D01*
X003429Y014284D02*
X003775Y014284D01*
X003775Y014383D02*
X003388Y014383D01*
X003322Y014481D02*
X003775Y014481D01*
X003775Y014580D02*
X003202Y014580D01*
X002769Y014580D02*
X001202Y014580D01*
X001322Y014481D02*
X002649Y014481D01*
X002583Y014383D02*
X001388Y014383D01*
X001429Y014284D02*
X002542Y014284D01*
X002538Y014186D02*
X001433Y014186D01*
X001429Y014087D02*
X002542Y014087D01*
X002582Y013989D02*
X001388Y013989D01*
X001323Y013890D02*
X002648Y013890D01*
X002767Y013792D02*
X001204Y013792D01*
X000767Y013792D02*
X000502Y013792D01*
X000513Y013890D02*
X000648Y013890D01*
X000582Y013989D02*
X000523Y013989D01*
X000534Y014087D02*
X000542Y014087D01*
X000567Y014383D02*
X000583Y014383D01*
X000578Y014481D02*
X000649Y014481D01*
X000589Y014580D02*
X000769Y014580D01*
X000600Y014679D02*
X003775Y014679D01*
X003775Y014777D02*
X000619Y014777D01*
X000641Y014876D02*
X003775Y014876D01*
X003775Y014974D02*
X000663Y014974D01*
X000686Y015073D02*
X003775Y015073D01*
X003775Y015171D02*
X000708Y015171D01*
X000730Y015270D02*
X001718Y015270D01*
X001732Y015256D02*
X001896Y015188D01*
X002074Y015188D01*
X002239Y015256D01*
X002365Y015382D01*
X002433Y015546D01*
X002433Y015724D01*
X002365Y015889D01*
X002239Y016015D01*
X002074Y016083D01*
X001896Y016083D01*
X001732Y016015D01*
X001606Y015889D01*
X001538Y015724D01*
X001538Y015546D01*
X001606Y015382D01*
X001732Y015256D01*
X001620Y015368D02*
X000752Y015368D01*
X000774Y015467D02*
X001571Y015467D01*
X001538Y015565D02*
X000796Y015565D01*
X000818Y015664D02*
X001538Y015664D01*
X001554Y015762D02*
X000840Y015762D01*
X000862Y015861D02*
X001594Y015861D01*
X001677Y015960D02*
X000884Y015960D01*
X000911Y016058D02*
X001837Y016058D01*
X002134Y016058D02*
X003837Y016058D01*
X003677Y015960D02*
X002294Y015960D01*
X002376Y015861D02*
X003594Y015861D01*
X003554Y015762D02*
X002417Y015762D01*
X002433Y015664D02*
X003538Y015664D01*
X003538Y015565D02*
X002433Y015565D01*
X002400Y015467D02*
X003571Y015467D01*
X003620Y015368D02*
X002351Y015368D01*
X002253Y015270D02*
X003718Y015270D01*
X004195Y015171D02*
X010175Y015171D01*
X010175Y015073D02*
X004195Y015073D01*
X004195Y014974D02*
X010175Y014974D01*
X010175Y014876D02*
X004195Y014876D01*
X004195Y014777D02*
X010175Y014777D01*
X010175Y014679D02*
X004195Y014679D01*
X004195Y014580D02*
X010175Y014580D01*
X010175Y014499D02*
X010072Y014395D01*
X010015Y014259D01*
X010015Y014112D01*
X010072Y013976D01*
X010176Y013872D01*
X010312Y013815D01*
X010459Y013815D01*
X010595Y013872D01*
X010699Y013976D01*
X010755Y014112D01*
X010755Y014259D01*
X010699Y014395D01*
X010595Y014499D01*
X010595Y017398D01*
X010595Y017572D01*
X010022Y018145D01*
X010328Y018145D01*
X011975Y016498D01*
X011975Y016183D01*
X011879Y016143D01*
X011728Y015991D01*
X011645Y015793D01*
X011645Y015578D01*
X011728Y015379D01*
X011879Y015228D01*
X012057Y015154D01*
X010458Y013555D01*
X010312Y013555D01*
X010176Y013499D01*
X010072Y013395D01*
X010015Y013259D01*
X010015Y013112D01*
X010072Y012976D01*
X010176Y012872D01*
X010312Y012815D01*
X010459Y012815D01*
X010595Y012872D01*
X010699Y012976D01*
X010755Y013112D01*
X010755Y013258D01*
X012472Y014975D01*
X015272Y014975D01*
X015376Y014872D01*
X015512Y014815D01*
X015659Y014815D01*
X015795Y014872D01*
X015899Y014976D01*
X015955Y015112D01*
X015955Y015259D01*
X015899Y015395D01*
X015795Y015499D01*
X015659Y015555D01*
X015512Y015555D01*
X015376Y015499D01*
X015272Y015395D01*
X013650Y015395D01*
X013725Y015578D01*
X013725Y015793D01*
X013643Y015991D01*
X013491Y016143D01*
X013293Y016225D01*
X013078Y016225D01*
X012879Y016143D01*
X012728Y015991D01*
X012685Y015889D01*
X012643Y015991D01*
X012491Y016143D01*
X012395Y016183D01*
X012395Y016498D01*
X012395Y016672D01*
X011825Y017243D01*
X011895Y017272D01*
X011999Y017376D01*
X012055Y017512D01*
X012055Y017659D01*
X011999Y017795D01*
X011963Y017831D01*
X012065Y017932D01*
X012133Y018096D01*
X012133Y018274D01*
X012065Y018439D01*
X011939Y018565D01*
X011895Y018583D01*
X011895Y019398D01*
X011895Y019572D01*
X011730Y019738D01*
X011774Y019738D01*
X011939Y019806D01*
X012065Y019932D01*
X012133Y020096D01*
X012133Y020274D01*
X012065Y020439D01*
X011939Y020565D01*
X011774Y020633D01*
X011596Y020633D01*
X011432Y020565D01*
X011306Y020439D01*
X011238Y020274D01*
X011238Y020230D01*
X010432Y021035D01*
X010495Y021098D01*
X011492Y022095D01*
X011532Y022056D01*
X011696Y021988D01*
X011874Y021988D01*
X012039Y022056D01*
X012165Y022182D01*
X012233Y022346D01*
X012233Y022524D01*
X012170Y022675D01*
X013298Y022675D01*
X013371Y022603D01*
X013338Y022524D01*
X013338Y022346D01*
X013406Y022182D01*
X013532Y022056D01*
X013696Y021988D01*
X013874Y021988D01*
X013882Y021991D01*
X015738Y020135D01*
X014053Y018450D01*
X013939Y018565D01*
X013774Y018633D01*
X013596Y018633D01*
X013432Y018565D01*
X013306Y018439D01*
X013238Y018274D01*
X013238Y018096D01*
X013306Y017932D01*
X013432Y017806D01*
X013596Y017738D01*
X013774Y017738D01*
X013939Y017806D01*
X014065Y017932D01*
X014083Y017975D01*
X014172Y017975D01*
X016172Y019975D01*
X016295Y020098D01*
X018375Y020098D01*
X018474Y020000D02*
X016197Y020000D01*
X016295Y020098D02*
X017203Y021006D01*
X017246Y020988D01*
X017424Y020988D01*
X017468Y021006D01*
X018938Y019536D01*
X018824Y019583D01*
X018646Y019583D01*
X018482Y019515D01*
X018356Y019389D01*
X018288Y019224D01*
X018288Y019046D01*
X018356Y018882D01*
X018482Y018756D01*
X018646Y018688D01*
X018824Y018688D01*
X018989Y018756D01*
X019115Y018882D01*
X019183Y019046D01*
X019183Y019224D01*
X019136Y019338D01*
X019498Y018975D01*
X019672Y018975D01*
X020317Y018975D01*
X020356Y018882D01*
X020475Y018762D01*
X020475Y017472D01*
X020058Y017055D01*
X020038Y017075D01*
X019632Y017075D01*
X019345Y016788D01*
X019345Y016382D01*
X019632Y016095D01*
X020038Y016095D01*
X020325Y016382D01*
X020325Y016728D01*
X020772Y017175D01*
X020798Y017175D01*
X022375Y015598D01*
X022498Y015475D01*
X022888Y015475D01*
X022906Y015432D01*
X023032Y015306D01*
X023196Y015238D01*
X023374Y015238D01*
X023539Y015306D01*
X023665Y015432D01*
X023733Y015596D01*
X023733Y015774D01*
X023665Y015939D01*
X023539Y016065D01*
X023374Y016133D01*
X023196Y016133D01*
X023032Y016065D01*
X022906Y015939D01*
X022888Y015895D01*
X022672Y015895D01*
X021330Y017238D01*
X021374Y017238D01*
X021539Y017306D01*
X021665Y017432D01*
X021733Y017596D01*
X021733Y017774D01*
X021665Y017939D01*
X021539Y018065D01*
X021374Y018133D01*
X021196Y018133D01*
X021032Y018065D01*
X020906Y017939D01*
X020895Y017913D01*
X020895Y018717D01*
X020989Y018756D01*
X021115Y018882D01*
X021183Y019046D01*
X021183Y019224D01*
X021115Y019389D01*
X020989Y019515D01*
X020824Y019583D01*
X020646Y019583D01*
X020482Y019515D01*
X020362Y019395D01*
X019672Y019395D01*
X017765Y021303D01*
X017783Y021346D01*
X017783Y021524D01*
X017715Y021689D01*
X017589Y021815D01*
X017424Y021883D01*
X017246Y021883D01*
X017082Y021815D01*
X016956Y021689D01*
X016888Y021524D01*
X016888Y021346D01*
X016906Y021303D01*
X016035Y020432D01*
X015464Y021004D01*
X015589Y021056D01*
X015715Y021182D01*
X015783Y021346D01*
X015783Y021524D01*
X015715Y021689D01*
X015589Y021815D01*
X015424Y021883D01*
X015246Y021883D01*
X015082Y021815D01*
X014956Y021689D01*
X014904Y021564D01*
X014200Y022267D01*
X014233Y022346D01*
X014233Y022524D01*
X014165Y022689D01*
X014039Y022815D01*
X013874Y022883D01*
X013696Y022883D01*
X013688Y022879D01*
X013472Y023095D01*
X013298Y023095D01*
X011498Y023095D01*
X011375Y022972D01*
X010378Y021975D01*
X010339Y022015D01*
X010174Y022083D01*
X009996Y022083D01*
X009832Y022015D01*
X009706Y021889D01*
X009638Y021724D01*
X009638Y021546D01*
X009700Y021395D01*
X008572Y021395D01*
X008500Y021467D01*
X008533Y021546D01*
X008533Y021724D01*
X008465Y021889D01*
X008339Y022015D01*
X008178Y022081D01*
X009472Y023375D01*
X009712Y023375D01*
X009832Y023256D01*
X009996Y023188D01*
X010174Y023188D01*
X010339Y023256D01*
X010465Y023382D01*
X010533Y023546D01*
X010533Y023724D01*
X010465Y023889D01*
X010339Y024015D01*
X010174Y024083D01*
X009996Y024083D01*
X009832Y024015D01*
X009706Y023889D01*
X009667Y023795D01*
X009298Y023795D01*
X009175Y023672D01*
X006898Y021395D01*
X006708Y021395D01*
X006589Y021515D01*
X006424Y021583D01*
X006246Y021583D01*
X006082Y021515D01*
X005956Y021389D01*
X005888Y021224D01*
X005888Y021046D01*
X005956Y020882D01*
X006075Y020762D01*
X006075Y020072D01*
X004082Y018079D01*
X004074Y018083D01*
X003896Y018083D01*
X003732Y018015D01*
X003606Y017889D01*
X003538Y017724D01*
X003538Y017546D01*
X003606Y017382D01*
X003732Y017256D01*
X003896Y017188D01*
X004074Y017188D01*
X004082Y017191D01*
X004915Y016358D01*
X004915Y016212D01*
X004972Y016076D01*
X005076Y015972D01*
X005212Y015915D01*
X005359Y015915D01*
X005495Y015972D01*
X005599Y016076D01*
X005655Y016212D01*
X005655Y016359D01*
X005599Y016495D01*
X005495Y016599D01*
X005359Y016655D01*
X005212Y016655D01*
X004400Y017467D01*
X004433Y017546D01*
X004433Y017724D01*
X004400Y017803D01*
X005935Y019338D01*
X005888Y019224D01*
X005888Y019046D01*
X005956Y018882D01*
X006082Y018756D01*
X006246Y018688D01*
X006424Y018688D01*
X006589Y018756D01*
X006715Y018882D01*
X006783Y019046D01*
X006783Y019224D01*
X006715Y019389D01*
X006589Y019515D01*
X006424Y019583D01*
X006246Y019583D01*
X006133Y019536D01*
X006495Y019898D01*
X006495Y020072D01*
X006495Y020717D01*
X006589Y020756D01*
X006715Y020882D01*
X006753Y020975D01*
X006898Y020975D01*
X007072Y020975D01*
X007639Y021543D01*
X007706Y021382D01*
X007832Y021256D01*
X007996Y021188D01*
X008174Y021188D01*
X008182Y021191D01*
X008398Y020975D01*
X008572Y020975D01*
X009898Y020975D01*
X011475Y019398D01*
X011475Y018583D01*
X011432Y018565D01*
X011306Y018439D01*
X011254Y018314D01*
X010895Y018672D01*
X010895Y019098D01*
X010895Y019272D01*
X010716Y019452D01*
X010725Y019462D01*
X010725Y019909D01*
X010409Y020225D01*
X009962Y020225D01*
X009685Y019949D01*
X009409Y020225D01*
X008962Y020225D01*
X008685Y019949D01*
X008409Y020225D01*
X007962Y020225D01*
X007645Y019909D01*
X007645Y019462D01*
X007655Y019452D01*
X006975Y018772D01*
X006975Y018599D01*
X006872Y018495D01*
X006815Y018359D01*
X006815Y018212D01*
X006872Y018076D01*
X006976Y017972D01*
X007112Y017915D01*
X007259Y017915D01*
X007395Y017972D01*
X007499Y018076D01*
X007555Y018212D01*
X007555Y018359D01*
X007499Y018495D01*
X007395Y018598D01*
X007665Y018868D01*
X007665Y018735D01*
X008135Y018735D01*
X008135Y018635D01*
X008235Y018635D01*
X008235Y018165D01*
X008401Y018165D01*
X008671Y018436D01*
X008962Y018145D01*
X009409Y018145D01*
X009419Y018155D01*
X010175Y017398D01*
X010175Y014499D01*
X010158Y014481D02*
X004195Y014481D01*
X004195Y014383D02*
X005240Y014383D01*
X005246Y014385D02*
X005080Y014317D01*
X004954Y014190D01*
X004885Y014025D01*
X004885Y013846D01*
X004954Y013680D01*
X005080Y013554D01*
X005246Y013485D01*
X005425Y013485D01*
X005590Y013554D01*
X005717Y013680D01*
X005785Y013846D01*
X005785Y014025D01*
X005717Y014190D01*
X005590Y014317D01*
X005425Y014385D01*
X005246Y014385D01*
X005431Y014383D02*
X010067Y014383D01*
X010026Y014284D02*
X005623Y014284D01*
X005719Y014186D02*
X010015Y014186D01*
X010025Y014087D02*
X005759Y014087D01*
X005785Y013989D02*
X010066Y013989D01*
X010157Y013890D02*
X005785Y013890D01*
X005763Y013792D02*
X010695Y013792D01*
X010613Y013890D02*
X010793Y013890D01*
X010704Y013989D02*
X010892Y013989D01*
X010990Y014087D02*
X010745Y014087D01*
X010755Y014186D02*
X011089Y014186D01*
X011187Y014284D02*
X010745Y014284D01*
X010704Y014383D02*
X011286Y014383D01*
X011384Y014481D02*
X010612Y014481D01*
X010595Y014580D02*
X011483Y014580D01*
X011582Y014679D02*
X010595Y014679D01*
X010595Y014777D02*
X011680Y014777D01*
X011779Y014876D02*
X010595Y014876D01*
X010595Y014974D02*
X011877Y014974D01*
X011976Y015073D02*
X010595Y015073D01*
X010595Y015171D02*
X012016Y015171D01*
X011837Y015270D02*
X010595Y015270D01*
X010595Y015368D02*
X011739Y015368D01*
X011691Y015467D02*
X010595Y015467D01*
X010595Y015565D02*
X011651Y015565D01*
X011645Y015664D02*
X010595Y015664D01*
X010595Y015762D02*
X011645Y015762D01*
X011674Y015861D02*
X010595Y015861D01*
X010595Y015960D02*
X011714Y015960D01*
X011794Y016058D02*
X010595Y016058D01*
X010595Y016157D02*
X011912Y016157D01*
X011975Y016255D02*
X010595Y016255D01*
X010595Y016354D02*
X011975Y016354D01*
X011975Y016452D02*
X010595Y016452D01*
X010595Y016551D02*
X011923Y016551D01*
X011824Y016649D02*
X010595Y016649D01*
X010595Y016748D02*
X011726Y016748D01*
X011627Y016846D02*
X010595Y016846D01*
X010595Y016945D02*
X011529Y016945D01*
X011430Y017044D02*
X010595Y017044D01*
X010595Y017142D02*
X011332Y017142D01*
X011233Y017241D02*
X010595Y017241D01*
X010595Y017339D02*
X011135Y017339D01*
X011036Y017438D02*
X010595Y017438D01*
X010595Y017536D02*
X010937Y017536D01*
X010839Y017635D02*
X010533Y017635D01*
X010434Y017733D02*
X010740Y017733D01*
X010642Y017832D02*
X010336Y017832D01*
X010237Y017930D02*
X010543Y017930D01*
X010445Y018029D02*
X010139Y018029D01*
X010040Y018128D02*
X010346Y018128D01*
X009742Y017832D02*
X004429Y017832D01*
X004429Y017733D02*
X009840Y017733D01*
X009939Y017635D02*
X004433Y017635D01*
X004429Y017536D02*
X010037Y017536D01*
X010136Y017438D02*
X004430Y017438D01*
X004528Y017339D02*
X010175Y017339D01*
X010175Y017241D02*
X004627Y017241D01*
X004726Y017142D02*
X010175Y017142D01*
X010175Y017044D02*
X004824Y017044D01*
X004923Y016945D02*
X010175Y016945D01*
X010175Y016846D02*
X005021Y016846D01*
X005120Y016748D02*
X010175Y016748D01*
X010175Y016649D02*
X005373Y016649D01*
X005543Y016551D02*
X010175Y016551D01*
X010175Y016452D02*
X005617Y016452D01*
X005655Y016354D02*
X010175Y016354D01*
X010175Y016255D02*
X005655Y016255D01*
X005632Y016157D02*
X010175Y016157D01*
X010175Y016058D02*
X005581Y016058D01*
X005466Y015960D02*
X010175Y015960D01*
X010175Y015861D02*
X004376Y015861D01*
X004417Y015762D02*
X010175Y015762D01*
X010175Y015664D02*
X004433Y015664D01*
X004433Y015565D02*
X010175Y015565D01*
X010175Y015467D02*
X004400Y015467D01*
X004351Y015368D02*
X010175Y015368D01*
X010175Y015270D02*
X004253Y015270D01*
X004294Y015960D02*
X005105Y015960D01*
X004989Y016058D02*
X004134Y016058D01*
X004723Y016551D02*
X001080Y016551D01*
X001114Y016649D02*
X004624Y016649D01*
X004526Y016748D02*
X001148Y016748D01*
X001182Y016846D02*
X004427Y016846D01*
X004329Y016945D02*
X001216Y016945D01*
X001249Y017044D02*
X004230Y017044D01*
X004132Y017142D02*
X001283Y017142D01*
X001317Y017241D02*
X001769Y017241D01*
X001649Y017339D02*
X001357Y017339D01*
X001403Y017438D02*
X001583Y017438D01*
X001542Y017536D02*
X001450Y017536D01*
X001496Y017635D02*
X001538Y017635D01*
X001636Y017930D02*
X001648Y017930D01*
X001682Y018029D02*
X001766Y018029D01*
X001729Y018128D02*
X004131Y018128D01*
X004229Y018226D02*
X001775Y018226D01*
X001822Y018325D02*
X004328Y018325D01*
X004426Y018423D02*
X001868Y018423D01*
X001915Y018522D02*
X004525Y018522D01*
X004623Y018620D02*
X001976Y018620D01*
X002037Y018719D02*
X004172Y018719D01*
X004246Y018688D02*
X004424Y018688D01*
X004589Y018756D01*
X004715Y018882D01*
X004783Y019046D01*
X004783Y019224D01*
X004715Y019389D01*
X004589Y019515D01*
X004424Y019583D01*
X004246Y019583D01*
X004082Y019515D01*
X003956Y019389D01*
X003888Y019224D01*
X003888Y019046D01*
X003956Y018882D01*
X004082Y018756D01*
X004246Y018688D01*
X004499Y018719D02*
X004722Y018719D01*
X004650Y018817D02*
X004820Y018817D01*
X004729Y018916D02*
X004919Y018916D01*
X005017Y019014D02*
X004770Y019014D01*
X004783Y019113D02*
X005116Y019113D01*
X005215Y019211D02*
X004783Y019211D01*
X004747Y019310D02*
X005313Y019310D01*
X005412Y019409D02*
X004695Y019409D01*
X004596Y019507D02*
X005510Y019507D01*
X005609Y019606D02*
X002582Y019606D01*
X002521Y019507D02*
X004074Y019507D01*
X003976Y019409D02*
X002461Y019409D01*
X002400Y019310D02*
X003923Y019310D01*
X003888Y019211D02*
X002339Y019211D01*
X002279Y019113D02*
X003888Y019113D01*
X003901Y019014D02*
X002218Y019014D01*
X002158Y018916D02*
X003942Y018916D01*
X004021Y018817D02*
X002097Y018817D01*
X002204Y018029D02*
X003766Y018029D01*
X003648Y017930D02*
X002323Y017930D01*
X002388Y017832D02*
X003582Y017832D01*
X003542Y017733D02*
X002429Y017733D01*
X002433Y017635D02*
X003538Y017635D01*
X003542Y017536D02*
X002429Y017536D01*
X002388Y017438D02*
X003583Y017438D01*
X003649Y017339D02*
X002322Y017339D01*
X002202Y017241D02*
X003769Y017241D01*
X004527Y017930D02*
X007075Y017930D01*
X006918Y018029D02*
X004626Y018029D01*
X004724Y018128D02*
X006850Y018128D01*
X006815Y018226D02*
X004823Y018226D01*
X004922Y018325D02*
X006815Y018325D01*
X006842Y018423D02*
X005020Y018423D01*
X005119Y018522D02*
X006898Y018522D01*
X006975Y018620D02*
X005217Y018620D01*
X005316Y018719D02*
X006172Y018719D01*
X006021Y018817D02*
X005414Y018817D01*
X005513Y018916D02*
X005942Y018916D01*
X005901Y019014D02*
X005611Y019014D01*
X005710Y019113D02*
X005888Y019113D01*
X005888Y019211D02*
X005808Y019211D01*
X005907Y019310D02*
X005923Y019310D01*
X006203Y019606D02*
X007645Y019606D01*
X007645Y019704D02*
X006301Y019704D01*
X006400Y019803D02*
X007645Y019803D01*
X007645Y019901D02*
X006495Y019901D01*
X006495Y020000D02*
X007736Y020000D01*
X007835Y020098D02*
X006495Y020098D01*
X006495Y020197D02*
X007933Y020197D01*
X008437Y020197D02*
X008933Y020197D01*
X008835Y020098D02*
X008536Y020098D01*
X008634Y020000D02*
X008736Y020000D01*
X009437Y020197D02*
X009933Y020197D01*
X009835Y020098D02*
X009536Y020098D01*
X009634Y020000D02*
X009736Y020000D01*
X010437Y020197D02*
X010677Y020197D01*
X010775Y020098D02*
X010536Y020098D01*
X010634Y020000D02*
X010874Y020000D01*
X010972Y019901D02*
X010725Y019901D01*
X010725Y019803D02*
X011071Y019803D01*
X011169Y019704D02*
X010725Y019704D01*
X010725Y019606D02*
X011268Y019606D01*
X011367Y019507D02*
X010725Y019507D01*
X010759Y019409D02*
X011465Y019409D01*
X011475Y019310D02*
X010858Y019310D01*
X010895Y019211D02*
X011475Y019211D01*
X011475Y019113D02*
X010895Y019113D01*
X010895Y019014D02*
X011475Y019014D01*
X011475Y018916D02*
X010895Y018916D01*
X010895Y018817D02*
X011475Y018817D01*
X011475Y018719D02*
X010895Y018719D01*
X010947Y018620D02*
X011475Y018620D01*
X011389Y018522D02*
X011046Y018522D01*
X011144Y018423D02*
X011300Y018423D01*
X011259Y018325D02*
X011243Y018325D01*
X011895Y018620D02*
X013566Y018620D01*
X013389Y018522D02*
X011982Y018522D01*
X012071Y018423D02*
X013300Y018423D01*
X013259Y018325D02*
X012112Y018325D01*
X012133Y018226D02*
X013238Y018226D01*
X013238Y018128D02*
X012133Y018128D01*
X012105Y018029D02*
X013266Y018029D01*
X013307Y017930D02*
X012063Y017930D01*
X011965Y017832D02*
X013406Y017832D01*
X013965Y017832D02*
X020475Y017832D01*
X020475Y017930D02*
X014063Y017930D01*
X014226Y018029D02*
X020475Y018029D01*
X020475Y018128D02*
X014324Y018128D01*
X014423Y018226D02*
X020475Y018226D01*
X020475Y018325D02*
X014522Y018325D01*
X014620Y018423D02*
X020475Y018423D01*
X020475Y018522D02*
X014719Y018522D01*
X014817Y018620D02*
X020475Y018620D01*
X020475Y018719D02*
X018899Y018719D01*
X019050Y018817D02*
X020421Y018817D01*
X020342Y018916D02*
X019129Y018916D01*
X019170Y019014D02*
X019459Y019014D01*
X019361Y019113D02*
X019183Y019113D01*
X019183Y019211D02*
X019262Y019211D01*
X019164Y019310D02*
X019147Y019310D01*
X018868Y019606D02*
X015803Y019606D01*
X015901Y019704D02*
X018769Y019704D01*
X018671Y019803D02*
X016000Y019803D01*
X016098Y019901D02*
X018572Y019901D01*
X018277Y020197D02*
X016394Y020197D01*
X016492Y020295D02*
X018178Y020295D01*
X018080Y020394D02*
X016591Y020394D01*
X016689Y020493D02*
X017981Y020493D01*
X017883Y020591D02*
X016788Y020591D01*
X016887Y020690D02*
X017784Y020690D01*
X017686Y020788D02*
X016985Y020788D01*
X017084Y020887D02*
X017587Y020887D01*
X017488Y020985D02*
X017182Y020985D01*
X016884Y021281D02*
X015756Y021281D01*
X015783Y021379D02*
X016888Y021379D01*
X016888Y021478D02*
X015783Y021478D01*
X015761Y021577D02*
X016909Y021577D01*
X016950Y021675D02*
X015720Y021675D01*
X015630Y021774D02*
X017041Y021774D01*
X017221Y021872D02*
X015450Y021872D01*
X015221Y021872D02*
X014595Y021872D01*
X014497Y021971D02*
X020658Y021971D01*
X020551Y022069D02*
X014398Y022069D01*
X014300Y022168D02*
X020437Y022168D01*
X020303Y022266D02*
X014201Y022266D01*
X014233Y022365D02*
X020169Y022365D01*
X020035Y022463D02*
X014233Y022463D01*
X014217Y022562D02*
X019901Y022562D01*
X019767Y022661D02*
X014176Y022661D01*
X014094Y022759D02*
X019632Y022759D01*
X019498Y022858D02*
X013935Y022858D01*
X013611Y022956D02*
X019359Y022956D01*
X019188Y023055D02*
X017586Y023055D01*
X017686Y023153D02*
X019017Y023153D01*
X018847Y023252D02*
X017744Y023252D01*
X017783Y023350D02*
X018676Y023350D01*
X018505Y023449D02*
X017783Y023449D01*
X017773Y023547D02*
X018334Y023547D01*
X018147Y023646D02*
X017732Y023646D01*
X017659Y023744D02*
X017922Y023744D01*
X017698Y023843D02*
X017520Y023843D01*
X017473Y023942D02*
X017126Y023942D01*
X017027Y024040D02*
X017248Y024040D01*
X017024Y024139D02*
X016929Y024139D01*
X016532Y023942D02*
X012526Y023942D01*
X012428Y024040D02*
X013570Y024040D01*
X013449Y024139D02*
X012329Y024139D01*
X012230Y024237D02*
X013383Y024237D01*
X013342Y024336D02*
X012228Y024336D01*
X012233Y024346D02*
X012200Y024267D01*
X012772Y023695D01*
X014962Y023695D01*
X015082Y023815D01*
X015246Y023883D01*
X015424Y023883D01*
X015589Y023815D01*
X015715Y023689D01*
X015783Y023524D01*
X015783Y023346D01*
X015715Y023182D01*
X015589Y023056D01*
X015424Y022988D01*
X015246Y022988D01*
X015082Y023056D01*
X014956Y023182D01*
X014917Y023275D01*
X012772Y023275D01*
X012598Y023275D01*
X011882Y023991D01*
X011874Y023988D01*
X011696Y023988D01*
X011532Y024056D01*
X011406Y024182D01*
X011338Y024346D01*
X011338Y024524D01*
X011406Y024689D01*
X011532Y024815D01*
X011696Y024883D01*
X011874Y024883D01*
X012039Y024815D01*
X012165Y024689D01*
X012233Y024524D01*
X012233Y024346D01*
X012233Y024434D02*
X013338Y024434D01*
X013341Y024533D02*
X012229Y024533D01*
X012189Y024631D02*
X013382Y024631D01*
X013447Y024730D02*
X012124Y024730D01*
X012006Y024828D02*
X013565Y024828D01*
X013068Y024927D02*
X012889Y024927D01*
X011565Y024828D02*
X011205Y024828D01*
X011447Y024730D02*
X010494Y024730D01*
X010034Y024631D02*
X011382Y024631D01*
X011341Y024533D02*
X009645Y024533D01*
X009255Y024434D02*
X011338Y024434D01*
X011342Y024336D02*
X008919Y024336D01*
X008656Y024237D02*
X011383Y024237D01*
X011449Y024139D02*
X008392Y024139D01*
X008277Y024040D02*
X009893Y024040D01*
X009759Y023942D02*
X008412Y023942D01*
X008484Y023843D02*
X009687Y023843D01*
X009248Y023744D02*
X008524Y023744D01*
X008533Y023646D02*
X009149Y023646D01*
X009050Y023547D02*
X008533Y023547D01*
X008492Y023449D02*
X008952Y023449D01*
X008853Y023350D02*
X008433Y023350D01*
X008329Y023252D02*
X008755Y023252D01*
X008656Y023153D02*
X006345Y023153D01*
X006495Y023252D02*
X007842Y023252D01*
X007738Y023350D02*
X006671Y023350D01*
X006866Y023449D02*
X007678Y023449D01*
X007638Y023547D02*
X007061Y023547D01*
X007255Y023646D02*
X007638Y023646D01*
X007646Y023744D02*
X007450Y023744D01*
X007645Y023843D02*
X007687Y023843D01*
X008558Y023055D02*
X006194Y023055D01*
X006043Y022956D02*
X008459Y022956D01*
X008361Y022858D02*
X005892Y022858D01*
X005741Y022759D02*
X008262Y022759D01*
X008164Y022661D02*
X005590Y022661D01*
X005440Y022562D02*
X008065Y022562D01*
X007966Y022463D02*
X005318Y022463D01*
X005198Y022365D02*
X007868Y022365D01*
X007769Y022266D02*
X005079Y022266D01*
X004959Y022168D02*
X007671Y022168D01*
X007572Y022069D02*
X004839Y022069D01*
X004720Y021971D02*
X007474Y021971D01*
X007375Y021872D02*
X004600Y021872D01*
X004480Y021774D02*
X007277Y021774D01*
X007178Y021675D02*
X004366Y021675D01*
X004439Y021577D02*
X006231Y021577D01*
X006439Y021577D02*
X007080Y021577D01*
X006981Y021478D02*
X006626Y021478D01*
X007181Y021084D02*
X008290Y021084D01*
X008191Y021182D02*
X007279Y021182D01*
X007378Y021281D02*
X007807Y021281D01*
X007708Y021379D02*
X007476Y021379D01*
X007575Y021478D02*
X007666Y021478D01*
X008504Y021478D02*
X009666Y021478D01*
X009638Y021577D02*
X008533Y021577D01*
X008533Y021675D02*
X009638Y021675D01*
X009658Y021774D02*
X008512Y021774D01*
X008472Y021872D02*
X009699Y021872D01*
X009788Y021971D02*
X008383Y021971D01*
X008207Y022069D02*
X009964Y022069D01*
X010207Y022069D02*
X010472Y022069D01*
X010571Y022168D02*
X008265Y022168D01*
X008363Y022266D02*
X010669Y022266D01*
X010768Y022365D02*
X008462Y022365D01*
X008560Y022463D02*
X010866Y022463D01*
X010965Y022562D02*
X008659Y022562D01*
X008757Y022661D02*
X011064Y022661D01*
X011162Y022759D02*
X008856Y022759D01*
X008955Y022858D02*
X011261Y022858D01*
X011359Y022956D02*
X009053Y022956D01*
X009152Y023055D02*
X011458Y023055D01*
X012176Y022661D02*
X013313Y022661D01*
X013353Y022562D02*
X012217Y022562D01*
X012233Y022463D02*
X013338Y022463D01*
X013338Y022365D02*
X012233Y022365D01*
X012200Y022266D02*
X013371Y022266D01*
X013420Y022168D02*
X012151Y022168D01*
X012052Y022069D02*
X013519Y022069D01*
X013903Y021971D02*
X011368Y021971D01*
X011466Y022069D02*
X011519Y022069D01*
X011269Y021872D02*
X014002Y021872D01*
X014100Y021774D02*
X011171Y021774D01*
X011072Y021675D02*
X014199Y021675D01*
X014297Y021577D02*
X010973Y021577D01*
X010875Y021478D02*
X014396Y021478D01*
X014494Y021379D02*
X010776Y021379D01*
X010678Y021281D02*
X014593Y021281D01*
X014691Y021182D02*
X010579Y021182D01*
X010481Y021084D02*
X014790Y021084D01*
X014888Y020985D02*
X010482Y020985D01*
X010581Y020887D02*
X014987Y020887D01*
X015086Y020788D02*
X010679Y020788D01*
X010778Y020690D02*
X015184Y020690D01*
X015283Y020591D02*
X013875Y020591D01*
X013939Y020565D02*
X013774Y020633D01*
X013596Y020633D01*
X013432Y020565D01*
X013306Y020439D01*
X013238Y020274D01*
X013238Y020096D01*
X013306Y019932D01*
X013432Y019806D01*
X013596Y019738D01*
X013774Y019738D01*
X013939Y019806D01*
X014065Y019932D01*
X014133Y020096D01*
X014133Y020274D01*
X014065Y020439D01*
X013939Y020565D01*
X014011Y020493D02*
X015381Y020493D01*
X015480Y020394D02*
X014083Y020394D01*
X014124Y020295D02*
X015578Y020295D01*
X015677Y020197D02*
X014133Y020197D01*
X014133Y020098D02*
X015701Y020098D01*
X015603Y020000D02*
X014093Y020000D01*
X014034Y019901D02*
X015504Y019901D01*
X015406Y019803D02*
X013931Y019803D01*
X013440Y019803D02*
X011931Y019803D01*
X012034Y019901D02*
X013337Y019901D01*
X013278Y020000D02*
X012093Y020000D01*
X012133Y020098D02*
X013238Y020098D01*
X013238Y020197D02*
X012133Y020197D01*
X012124Y020295D02*
X013247Y020295D01*
X013287Y020394D02*
X012083Y020394D01*
X012011Y020493D02*
X013360Y020493D01*
X013496Y020591D02*
X011875Y020591D01*
X011496Y020591D02*
X010877Y020591D01*
X010975Y020493D02*
X011360Y020493D01*
X011287Y020394D02*
X011074Y020394D01*
X011172Y020295D02*
X011247Y020295D01*
X010578Y020295D02*
X006495Y020295D01*
X006495Y020394D02*
X010480Y020394D01*
X010381Y020493D02*
X006495Y020493D01*
X006495Y020591D02*
X010283Y020591D01*
X010184Y020690D02*
X006495Y020690D01*
X006621Y020788D02*
X010086Y020788D01*
X009987Y020887D02*
X006717Y020887D01*
X007082Y020985D02*
X008388Y020985D01*
X006075Y020690D02*
X004429Y020690D01*
X004242Y020690D02*
X003416Y020690D01*
X003339Y020591D02*
X006075Y020591D01*
X006075Y020493D02*
X003262Y020493D01*
X003186Y020394D02*
X006075Y020394D01*
X006075Y020295D02*
X003109Y020295D01*
X003032Y020197D02*
X006075Y020197D01*
X006075Y020098D02*
X002955Y020098D01*
X002879Y020000D02*
X006003Y020000D01*
X005904Y019901D02*
X002802Y019901D01*
X002725Y019803D02*
X005806Y019803D01*
X005707Y019704D02*
X002649Y019704D01*
X003504Y020788D02*
X004050Y020788D01*
X003954Y020887D02*
X003599Y020887D01*
X003695Y020985D02*
X003913Y020985D01*
X003888Y021084D02*
X003791Y021084D01*
X003887Y021182D02*
X003888Y021182D01*
X004626Y021478D02*
X006045Y021478D01*
X005952Y021379D02*
X004719Y021379D01*
X004759Y021281D02*
X005911Y021281D01*
X005888Y021182D02*
X004783Y021182D01*
X004783Y021084D02*
X005888Y021084D01*
X005913Y020985D02*
X004758Y020985D01*
X004717Y020887D02*
X005954Y020887D01*
X006050Y020788D02*
X004621Y020788D01*
X006596Y019507D02*
X007645Y019507D01*
X007612Y019409D02*
X006695Y019409D01*
X006747Y019310D02*
X007513Y019310D01*
X007415Y019211D02*
X006783Y019211D01*
X006783Y019113D02*
X007316Y019113D01*
X007217Y019014D02*
X006770Y019014D01*
X006729Y018916D02*
X007119Y018916D01*
X007020Y018817D02*
X006650Y018817D01*
X006499Y018719D02*
X006975Y018719D01*
X007417Y018620D02*
X007665Y018620D01*
X007665Y018635D02*
X007665Y018470D01*
X007970Y018165D01*
X008135Y018165D01*
X008135Y018635D01*
X007665Y018635D01*
X007665Y018522D02*
X007472Y018522D01*
X007529Y018423D02*
X007712Y018423D01*
X007811Y018325D02*
X007555Y018325D01*
X007555Y018226D02*
X007909Y018226D01*
X008135Y018226D02*
X008235Y018226D01*
X008235Y018325D02*
X008135Y018325D01*
X008135Y018423D02*
X008235Y018423D01*
X008235Y018522D02*
X008135Y018522D01*
X008135Y018620D02*
X008235Y018620D01*
X008135Y018719D02*
X007516Y018719D01*
X007614Y018817D02*
X007665Y018817D01*
X008560Y018325D02*
X008782Y018325D01*
X008684Y018423D02*
X008659Y018423D01*
X008461Y018226D02*
X008881Y018226D01*
X009446Y018128D02*
X007520Y018128D01*
X007452Y018029D02*
X009545Y018029D01*
X009643Y017930D02*
X007295Y017930D01*
X004915Y016354D02*
X001013Y016354D01*
X001046Y016452D02*
X004821Y016452D01*
X004915Y016255D02*
X000979Y016255D01*
X000945Y016157D02*
X004938Y016157D01*
X005048Y014284D02*
X004195Y014284D01*
X004195Y014186D02*
X004952Y014186D01*
X004911Y014087D02*
X004195Y014087D01*
X004195Y013989D02*
X004885Y013989D01*
X004885Y013890D02*
X004195Y013890D01*
X004195Y013792D02*
X004908Y013792D01*
X004949Y013693D02*
X004195Y013693D01*
X004195Y013595D02*
X005040Y013595D01*
X005220Y013496D02*
X004195Y013496D01*
X004195Y013397D02*
X010074Y013397D01*
X010032Y013299D02*
X004195Y013299D01*
X004195Y013200D02*
X010015Y013200D01*
X010019Y013102D02*
X004195Y013102D01*
X004100Y013003D02*
X010060Y013003D01*
X010143Y012905D02*
X004002Y012905D01*
X003903Y012806D02*
X011651Y012806D01*
X011645Y012708D02*
X003805Y012708D01*
X003706Y012609D02*
X011645Y012609D01*
X011673Y012511D02*
X003607Y012511D01*
X005012Y011722D02*
X001795Y011722D01*
X001795Y011624D02*
X005153Y011624D01*
X003301Y010934D02*
X001970Y010934D01*
X002037Y010835D02*
X003234Y010835D01*
X003193Y010737D02*
X002078Y010737D01*
X002083Y010638D02*
X003188Y010638D01*
X003191Y010540D02*
X002080Y010540D01*
X002039Y010441D02*
X003231Y010441D01*
X003295Y010343D02*
X001975Y010343D01*
X001860Y010244D02*
X003411Y010244D01*
X003330Y008963D02*
X001941Y008963D01*
X002025Y008864D02*
X003246Y008864D01*
X003205Y008766D02*
X002066Y008766D01*
X002083Y008667D02*
X003188Y008667D01*
X003188Y008569D02*
X002083Y008569D01*
X002051Y008470D02*
X003219Y008470D01*
X003266Y008372D02*
X002005Y008372D01*
X001906Y008273D02*
X003365Y008273D01*
X003527Y007583D02*
X001568Y007583D01*
X001615Y007485D02*
X003402Y007485D01*
X003334Y007386D02*
X001661Y007386D01*
X001708Y007288D02*
X003293Y007288D01*
X003288Y007189D02*
X001754Y007189D01*
X001801Y007091D02*
X003290Y007091D01*
X003331Y006992D02*
X001847Y006992D01*
X001894Y006894D02*
X003394Y006894D01*
X003508Y006795D02*
X001949Y006795D01*
X002009Y006696D02*
X004677Y006696D01*
X004776Y006598D02*
X002070Y006598D01*
X002130Y006499D02*
X004874Y006499D01*
X004973Y006401D02*
X002191Y006401D01*
X002251Y006302D02*
X005071Y006302D01*
X005170Y006204D02*
X002312Y006204D01*
X002373Y006105D02*
X005268Y006105D01*
X005367Y006007D02*
X002433Y006007D01*
X002494Y005908D02*
X005466Y005908D01*
X005564Y005810D02*
X002554Y005810D01*
X002615Y005711D02*
X005663Y005711D01*
X005597Y005613D02*
X003873Y005613D01*
X003824Y005633D02*
X003646Y005633D01*
X003482Y005565D01*
X003356Y005439D01*
X003288Y005274D01*
X003288Y005096D01*
X003356Y004932D01*
X003482Y004806D01*
X003646Y004738D01*
X003824Y004738D01*
X003989Y004806D01*
X004115Y004932D01*
X004183Y005096D01*
X004183Y005274D01*
X004115Y005439D01*
X003989Y005565D01*
X003824Y005633D01*
X003597Y005613D02*
X002691Y005613D01*
X002767Y005514D02*
X003431Y005514D01*
X003346Y005415D02*
X002844Y005415D01*
X002921Y005317D02*
X003306Y005317D01*
X003288Y005218D02*
X002997Y005218D01*
X003074Y005120D02*
X003288Y005120D01*
X003319Y005021D02*
X003151Y005021D01*
X003228Y004923D02*
X003365Y004923D01*
X003304Y004824D02*
X003464Y004824D01*
X004007Y004824D02*
X005464Y004824D01*
X005365Y004923D02*
X004106Y004923D01*
X004152Y005021D02*
X005319Y005021D01*
X005288Y005120D02*
X004183Y005120D01*
X004183Y005218D02*
X005288Y005218D01*
X005306Y005317D02*
X004165Y005317D01*
X004124Y005415D02*
X005346Y005415D01*
X005431Y005514D02*
X004040Y005514D01*
X005665Y006302D02*
X006371Y006302D01*
X006273Y006401D02*
X005567Y006401D01*
X005468Y006499D02*
X006174Y006499D01*
X006076Y006598D02*
X005370Y006598D01*
X005271Y006696D02*
X005977Y006696D01*
X006275Y006992D02*
X009295Y006992D01*
X009197Y006894D02*
X006374Y006894D01*
X006473Y006795D02*
X009098Y006795D01*
X009000Y006696D02*
X006571Y006696D01*
X006670Y006598D02*
X008901Y006598D01*
X008802Y006499D02*
X006768Y006499D01*
X006867Y006401D02*
X008704Y006401D01*
X008605Y006302D02*
X006965Y006302D01*
X007064Y006204D02*
X008507Y006204D01*
X008408Y006105D02*
X007162Y006105D01*
X007261Y006007D02*
X008310Y006007D01*
X008211Y005908D02*
X007359Y005908D01*
X007458Y005810D02*
X008113Y005810D01*
X008014Y005711D02*
X007557Y005711D01*
X007655Y005613D02*
X007916Y005613D01*
X007817Y005514D02*
X007754Y005514D01*
X007160Y005514D02*
X006454Y005514D01*
X006355Y005613D02*
X007061Y005613D01*
X006963Y005711D02*
X006257Y005711D01*
X006158Y005810D02*
X006864Y005810D01*
X006766Y005908D02*
X006059Y005908D01*
X005961Y006007D02*
X006667Y006007D01*
X006568Y006105D02*
X005862Y006105D01*
X005764Y006204D02*
X006470Y006204D01*
X005508Y006795D02*
X005173Y006795D01*
X005074Y006894D02*
X005394Y006894D01*
X005331Y006992D02*
X004976Y006992D01*
X004877Y007091D02*
X005290Y007091D01*
X005288Y007189D02*
X004778Y007189D01*
X004680Y007288D02*
X005293Y007288D01*
X005334Y007386D02*
X004581Y007386D01*
X004069Y007485D02*
X005402Y007485D01*
X005527Y007583D02*
X003944Y007583D01*
X004076Y006894D02*
X004480Y006894D01*
X004579Y006795D02*
X003962Y006795D01*
X005944Y007583D02*
X009886Y007583D01*
X009788Y007485D02*
X006069Y007485D01*
X006136Y007386D02*
X009689Y007386D01*
X009591Y007288D02*
X006177Y007288D01*
X006183Y007189D02*
X009492Y007189D01*
X009394Y007091D02*
X006180Y007091D01*
X008805Y005908D02*
X009139Y005908D01*
X009059Y006007D02*
X008904Y006007D01*
X009002Y006105D02*
X009018Y006105D01*
X009162Y004627D02*
X008641Y004627D01*
X008739Y004529D02*
X009046Y004529D01*
X009253Y003050D02*
X005144Y003050D01*
X005264Y002952D02*
X009155Y002952D01*
X005718Y004331D02*
X005425Y004331D01*
X005523Y004233D02*
X005624Y004233D01*
X005583Y004134D02*
X005566Y004134D01*
X001522Y007682D02*
X009985Y007682D01*
X010084Y007780D02*
X001475Y007780D01*
X001429Y007879D02*
X010182Y007879D01*
X010478Y008175D02*
X001302Y008175D01*
X001268Y008273D02*
X001365Y008273D01*
X001266Y008372D02*
X001234Y008372D01*
X001219Y008470D02*
X001200Y008470D01*
X001188Y008569D02*
X001166Y008569D01*
X001188Y008667D02*
X001133Y008667D01*
X001099Y008766D02*
X001205Y008766D01*
X001246Y008864D02*
X001065Y008864D01*
X001031Y008963D02*
X001330Y008963D01*
X001411Y010244D02*
X000698Y010244D01*
X000676Y010343D02*
X001295Y010343D01*
X001231Y010441D02*
X000654Y010441D01*
X000631Y010540D02*
X001191Y010540D01*
X001188Y010638D02*
X000609Y010638D01*
X000595Y010737D02*
X001193Y010737D01*
X001234Y010835D02*
X000584Y010835D01*
X000573Y010934D02*
X001301Y010934D01*
X001375Y011032D02*
X000562Y011032D01*
X000551Y011131D02*
X001375Y011131D01*
X001375Y011229D02*
X000540Y011229D01*
X000529Y011328D02*
X001375Y011328D01*
X001375Y011427D02*
X000519Y011427D01*
X000508Y011525D02*
X001375Y011525D01*
X001375Y011624D02*
X000497Y011624D01*
X000486Y011722D02*
X001375Y011722D01*
X001375Y011821D02*
X001254Y011821D01*
X001352Y011919D02*
X001375Y011919D01*
X000717Y011821D02*
X000475Y011821D01*
X000464Y011919D02*
X000619Y011919D01*
X000570Y012018D02*
X000454Y012018D01*
X000454Y012116D02*
X000538Y012116D01*
X000538Y012215D02*
X000454Y012215D01*
X000454Y012313D02*
X000554Y012313D01*
X000595Y012412D02*
X000454Y012412D01*
X000454Y012511D02*
X000678Y012511D01*
X000839Y012609D02*
X000454Y012609D01*
X000454Y012708D02*
X000775Y012708D01*
X000775Y012806D02*
X000454Y012806D01*
X000454Y012905D02*
X000775Y012905D01*
X000775Y013003D02*
X000454Y013003D01*
X000454Y013102D02*
X000775Y013102D01*
X000775Y013200D02*
X000454Y013200D01*
X000454Y013299D02*
X000775Y013299D01*
X000775Y013397D02*
X000458Y013397D01*
X000469Y013496D02*
X000775Y013496D01*
X000775Y013595D02*
X000480Y013595D01*
X000491Y013693D02*
X000775Y013693D01*
X005450Y013496D02*
X010173Y013496D01*
X010498Y013595D02*
X005631Y013595D01*
X005722Y013693D02*
X010596Y013693D01*
X010894Y013397D02*
X011550Y013397D01*
X011576Y013372D02*
X011712Y013315D01*
X011859Y013315D01*
X011995Y013372D01*
X012099Y013475D01*
X013698Y013475D01*
X014815Y012358D01*
X014815Y012212D01*
X014872Y012076D01*
X014976Y011972D01*
X015112Y011915D01*
X015259Y011915D01*
X015395Y011972D01*
X015499Y012076D01*
X015555Y012212D01*
X015555Y012359D01*
X015499Y012495D01*
X015395Y012599D01*
X015259Y012655D01*
X015112Y012655D01*
X013872Y013895D01*
X013698Y013895D01*
X012099Y013895D01*
X011995Y013999D01*
X011859Y014055D01*
X011712Y014055D01*
X011576Y013999D01*
X011472Y013895D01*
X011415Y013759D01*
X011415Y013612D01*
X011472Y013476D01*
X011576Y013372D01*
X011463Y013496D02*
X010993Y013496D01*
X011091Y013595D02*
X011422Y013595D01*
X011415Y013693D02*
X011190Y013693D01*
X011289Y013792D02*
X011429Y013792D01*
X011387Y013890D02*
X011470Y013890D01*
X011486Y013989D02*
X011565Y013989D01*
X011584Y014087D02*
X021075Y014087D01*
X021075Y013989D02*
X012005Y013989D01*
X011781Y014284D02*
X021075Y014284D01*
X021075Y014186D02*
X011683Y014186D01*
X011880Y014383D02*
X021075Y014383D01*
X021075Y014481D02*
X011978Y014481D01*
X012077Y014580D02*
X021075Y014580D01*
X021075Y014679D02*
X012175Y014679D01*
X012274Y014777D02*
X021075Y014777D01*
X021075Y014876D02*
X015799Y014876D01*
X015897Y014974D02*
X021075Y014974D01*
X021075Y015073D02*
X015939Y015073D01*
X015955Y015171D02*
X021075Y015171D01*
X021075Y015270D02*
X015951Y015270D01*
X015910Y015368D02*
X020970Y015368D01*
X021032Y015306D02*
X021075Y015288D01*
X021075Y013372D01*
X021075Y013198D01*
X021971Y012303D01*
X021938Y012224D01*
X021938Y012046D01*
X022006Y011882D01*
X022132Y011756D01*
X022296Y011688D01*
X022474Y011688D01*
X022639Y011756D01*
X022765Y011882D01*
X022833Y012046D01*
X022833Y012224D01*
X022765Y012389D01*
X022639Y012515D01*
X022474Y012583D01*
X022296Y012583D01*
X022288Y012579D01*
X021495Y013372D01*
X021495Y015288D01*
X021539Y015306D01*
X021665Y015432D01*
X021733Y015596D01*
X021733Y015774D01*
X021665Y015939D01*
X021539Y016065D01*
X021374Y016133D01*
X021196Y016133D01*
X021032Y016065D01*
X020906Y015939D01*
X020838Y015774D01*
X020838Y015596D01*
X020906Y015432D01*
X021032Y015306D01*
X020891Y015467D02*
X015827Y015467D01*
X015344Y015467D02*
X013679Y015467D01*
X013720Y015565D02*
X020851Y015565D01*
X020838Y015664D02*
X013725Y015664D01*
X013725Y015762D02*
X020838Y015762D01*
X020874Y015861D02*
X013697Y015861D01*
X013656Y015960D02*
X020927Y015960D01*
X021025Y016058D02*
X013576Y016058D01*
X013459Y016157D02*
X017571Y016157D01*
X017632Y016095D02*
X018038Y016095D01*
X018325Y016382D01*
X018325Y016788D01*
X018038Y017075D01*
X017632Y017075D01*
X017345Y016788D01*
X017345Y016382D01*
X017632Y016095D01*
X017473Y016255D02*
X012395Y016255D01*
X012395Y016354D02*
X017374Y016354D01*
X017345Y016452D02*
X012395Y016452D01*
X012395Y016551D02*
X017345Y016551D01*
X017345Y016649D02*
X012395Y016649D01*
X012320Y016748D02*
X017345Y016748D01*
X017404Y016846D02*
X012221Y016846D01*
X012123Y016945D02*
X017502Y016945D01*
X017601Y017044D02*
X012024Y017044D01*
X011926Y017142D02*
X020145Y017142D01*
X020244Y017241D02*
X011827Y017241D01*
X011962Y017339D02*
X020342Y017339D01*
X020441Y017438D02*
X012025Y017438D01*
X012055Y017536D02*
X020475Y017536D01*
X020475Y017635D02*
X012055Y017635D01*
X012024Y017733D02*
X020475Y017733D01*
X020895Y017930D02*
X020903Y017930D01*
X020895Y018029D02*
X020996Y018029D01*
X020895Y018128D02*
X021184Y018128D01*
X021387Y018128D02*
X023184Y018128D01*
X023196Y018133D02*
X023032Y018065D01*
X022906Y017939D01*
X022838Y017774D01*
X022838Y017596D01*
X022906Y017432D01*
X023032Y017306D01*
X023196Y017238D01*
X023374Y017238D01*
X023539Y017306D01*
X023665Y017432D01*
X023733Y017596D01*
X023733Y017774D01*
X023665Y017939D01*
X023539Y018065D01*
X023374Y018133D01*
X023196Y018133D01*
X023387Y018128D02*
X023648Y018128D01*
X023594Y018226D02*
X020895Y018226D01*
X020895Y018325D02*
X023541Y018325D01*
X023488Y018423D02*
X020895Y018423D01*
X020895Y018522D02*
X023434Y018522D01*
X023381Y018620D02*
X020895Y018620D01*
X020899Y018719D02*
X023328Y018719D01*
X023275Y018817D02*
X021050Y018817D01*
X021129Y018916D02*
X023221Y018916D01*
X023168Y019014D02*
X021170Y019014D01*
X021183Y019113D02*
X023113Y019113D01*
X023044Y019211D02*
X021183Y019211D01*
X021147Y019310D02*
X022976Y019310D01*
X022908Y019409D02*
X021095Y019409D01*
X020996Y019507D02*
X022839Y019507D01*
X022771Y019606D02*
X019462Y019606D01*
X019363Y019704D02*
X022703Y019704D01*
X022634Y019803D02*
X019265Y019803D01*
X019166Y019901D02*
X022566Y019901D01*
X022498Y020000D02*
X019068Y020000D01*
X018969Y020098D02*
X022429Y020098D01*
X022361Y020197D02*
X018871Y020197D01*
X018772Y020295D02*
X022277Y020295D01*
X022192Y020394D02*
X018674Y020394D01*
X018575Y020493D02*
X022106Y020493D01*
X022020Y020591D02*
X018477Y020591D01*
X018378Y020690D02*
X018642Y020690D01*
X018646Y020688D02*
X018824Y020688D01*
X018989Y020756D01*
X019115Y020882D01*
X019183Y021046D01*
X019183Y021224D01*
X019115Y021389D01*
X018989Y021515D01*
X018824Y021583D01*
X018646Y021583D01*
X018482Y021515D01*
X018356Y021389D01*
X018288Y021224D01*
X018288Y021046D01*
X018356Y020882D01*
X018482Y020756D01*
X018646Y020688D01*
X018829Y020690D02*
X020642Y020690D01*
X020646Y020688D02*
X020824Y020688D01*
X020989Y020756D01*
X021115Y020882D01*
X021183Y021046D01*
X021183Y021224D01*
X021115Y021389D01*
X020989Y021515D01*
X020824Y021583D01*
X020646Y021583D01*
X020482Y021515D01*
X020356Y021389D01*
X020288Y021224D01*
X020288Y021046D01*
X020356Y020882D01*
X020482Y020756D01*
X020646Y020688D01*
X020829Y020690D02*
X021934Y020690D01*
X021848Y020788D02*
X021021Y020788D01*
X021117Y020887D02*
X021762Y020887D01*
X021677Y020985D02*
X021158Y020985D01*
X021183Y021084D02*
X021591Y021084D01*
X021505Y021182D02*
X021183Y021182D01*
X021159Y021281D02*
X021408Y021281D01*
X021301Y021379D02*
X021119Y021379D01*
X021194Y021478D02*
X021026Y021478D01*
X021086Y021577D02*
X020839Y021577D01*
X020979Y021675D02*
X017720Y021675D01*
X017761Y021577D02*
X018631Y021577D01*
X018839Y021577D02*
X020631Y021577D01*
X020445Y021478D02*
X019026Y021478D01*
X019119Y021379D02*
X020352Y021379D01*
X020311Y021281D02*
X019159Y021281D01*
X019183Y021182D02*
X020288Y021182D01*
X020288Y021084D02*
X019183Y021084D01*
X019158Y020985D02*
X020313Y020985D01*
X020354Y020887D02*
X019117Y020887D01*
X019021Y020788D02*
X020450Y020788D01*
X020872Y021774D02*
X017630Y021774D01*
X017450Y021872D02*
X020765Y021872D01*
X018445Y021478D02*
X017783Y021478D01*
X017783Y021379D02*
X018352Y021379D01*
X018311Y021281D02*
X017787Y021281D01*
X017885Y021182D02*
X018288Y021182D01*
X018288Y021084D02*
X017984Y021084D01*
X018082Y020985D02*
X018313Y020985D01*
X018354Y020887D02*
X018181Y020887D01*
X018279Y020788D02*
X018450Y020788D01*
X016785Y021182D02*
X015715Y021182D01*
X015617Y021084D02*
X016687Y021084D01*
X016588Y020985D02*
X015482Y020985D01*
X015581Y020887D02*
X016490Y020887D01*
X016391Y020788D02*
X015679Y020788D01*
X015778Y020690D02*
X016293Y020690D01*
X016194Y020591D02*
X015877Y020591D01*
X015975Y020493D02*
X016096Y020493D01*
X015307Y019704D02*
X011763Y019704D01*
X011862Y019606D02*
X015209Y019606D01*
X015110Y019507D02*
X011895Y019507D01*
X011895Y019409D02*
X015012Y019409D01*
X014913Y019310D02*
X011895Y019310D01*
X011895Y019211D02*
X014815Y019211D01*
X014716Y019113D02*
X011895Y019113D01*
X011895Y019014D02*
X014617Y019014D01*
X014519Y018916D02*
X011895Y018916D01*
X011895Y018817D02*
X014420Y018817D01*
X014322Y018719D02*
X011895Y018719D01*
X013805Y018620D02*
X014223Y018620D01*
X014125Y018522D02*
X013982Y018522D01*
X014916Y018719D02*
X018572Y018719D01*
X018421Y018817D02*
X015014Y018817D01*
X015113Y018916D02*
X018342Y018916D01*
X018301Y019014D02*
X015211Y019014D01*
X015310Y019113D02*
X018288Y019113D01*
X018288Y019211D02*
X015408Y019211D01*
X015507Y019310D02*
X018323Y019310D01*
X018376Y019409D02*
X015606Y019409D01*
X015704Y019507D02*
X018474Y019507D01*
X019561Y019507D02*
X020474Y019507D01*
X020376Y019409D02*
X019659Y019409D01*
X021575Y018029D02*
X022996Y018029D01*
X022903Y017930D02*
X021668Y017930D01*
X021709Y017832D02*
X022862Y017832D01*
X022838Y017733D02*
X021733Y017733D01*
X021733Y017635D02*
X022838Y017635D01*
X022863Y017536D02*
X021708Y017536D01*
X021667Y017438D02*
X022904Y017438D01*
X022999Y017339D02*
X021572Y017339D01*
X021381Y017241D02*
X023190Y017241D01*
X023381Y017241D02*
X024037Y017241D01*
X023997Y017339D02*
X023572Y017339D01*
X023667Y017438D02*
X023957Y017438D01*
X023917Y017536D02*
X023708Y017536D01*
X023733Y017635D02*
X023877Y017635D01*
X023837Y017733D02*
X023733Y017733D01*
X023709Y017832D02*
X023797Y017832D01*
X023754Y017930D02*
X023668Y017930D01*
X023701Y018029D02*
X023575Y018029D01*
X024077Y017142D02*
X021426Y017142D01*
X021524Y017044D02*
X024117Y017044D01*
X024157Y016945D02*
X021623Y016945D01*
X021721Y016846D02*
X024197Y016846D01*
X024237Y016748D02*
X021820Y016748D01*
X021918Y016649D02*
X024275Y016649D01*
X024303Y016551D02*
X022017Y016551D01*
X022115Y016452D02*
X024331Y016452D01*
X024359Y016354D02*
X022214Y016354D01*
X022312Y016255D02*
X024387Y016255D01*
X024415Y016157D02*
X022411Y016157D01*
X022510Y016058D02*
X023025Y016058D01*
X022927Y015960D02*
X022608Y015960D01*
X022310Y015664D02*
X021733Y015664D01*
X021733Y015762D02*
X022211Y015762D01*
X022113Y015861D02*
X021697Y015861D01*
X021644Y015960D02*
X022014Y015960D01*
X021916Y016058D02*
X021545Y016058D01*
X021719Y016255D02*
X020198Y016255D01*
X020100Y016157D02*
X021817Y016157D01*
X021620Y016354D02*
X020297Y016354D01*
X020325Y016452D02*
X021521Y016452D01*
X021423Y016551D02*
X020325Y016551D01*
X020325Y016649D02*
X021324Y016649D01*
X021226Y016748D02*
X020345Y016748D01*
X020443Y016846D02*
X021127Y016846D01*
X021029Y016945D02*
X020542Y016945D01*
X020641Y017044D02*
X020930Y017044D01*
X020832Y017142D02*
X020739Y017142D01*
X019601Y017044D02*
X018070Y017044D01*
X018169Y016945D02*
X019502Y016945D01*
X019404Y016846D02*
X018267Y016846D01*
X018325Y016748D02*
X019345Y016748D01*
X019345Y016649D02*
X018325Y016649D01*
X018325Y016551D02*
X019345Y016551D01*
X019345Y016452D02*
X018325Y016452D01*
X018297Y016354D02*
X019374Y016354D01*
X019473Y016255D02*
X018198Y016255D01*
X018100Y016157D02*
X019571Y016157D01*
X021495Y015270D02*
X023119Y015270D01*
X022970Y015368D02*
X021601Y015368D01*
X021679Y015467D02*
X022891Y015467D01*
X022408Y015565D02*
X021720Y015565D01*
X021495Y015171D02*
X024671Y015171D01*
X024687Y015073D02*
X021495Y015073D01*
X021495Y014974D02*
X024704Y014974D01*
X024720Y014876D02*
X021495Y014876D01*
X021495Y014777D02*
X024737Y014777D01*
X024753Y014679D02*
X021495Y014679D01*
X021495Y014580D02*
X022289Y014580D01*
X022296Y014583D02*
X022132Y014515D01*
X022006Y014389D01*
X021938Y014224D01*
X021938Y014046D01*
X022006Y013882D01*
X022132Y013756D01*
X022296Y013688D01*
X022474Y013688D01*
X022639Y013756D01*
X022765Y013882D01*
X022833Y014046D01*
X022833Y014224D01*
X022765Y014389D01*
X022639Y014515D01*
X022474Y014583D01*
X022296Y014583D01*
X022481Y014580D02*
X024289Y014580D01*
X024481Y014580D02*
X024770Y014580D01*
X024786Y014481D02*
X024672Y014481D01*
X024767Y014383D02*
X024803Y014383D01*
X024808Y014284D02*
X024819Y014284D01*
X024833Y014186D02*
X024836Y014186D01*
X024833Y014087D02*
X024852Y014087D01*
X024863Y013989D02*
X024809Y013989D01*
X024768Y013890D02*
X024869Y013890D01*
X024874Y013792D02*
X024674Y013792D01*
X024595Y013693D02*
X024880Y013693D01*
X024885Y013595D02*
X024595Y013595D01*
X024595Y013496D02*
X024891Y013496D01*
X024896Y013397D02*
X024595Y013397D01*
X024595Y013299D02*
X024901Y013299D01*
X024907Y013200D02*
X024595Y013200D01*
X024595Y013102D02*
X024912Y013102D01*
X024918Y013003D02*
X024595Y013003D01*
X024595Y012905D02*
X024923Y012905D01*
X024929Y012806D02*
X024595Y012806D01*
X024595Y012708D02*
X024934Y012708D01*
X024931Y012609D02*
X024506Y012609D01*
X024643Y012511D02*
X024926Y012511D01*
X024920Y012412D02*
X024741Y012412D01*
X024796Y012313D02*
X024915Y012313D01*
X024909Y012215D02*
X024833Y012215D01*
X024833Y012116D02*
X024904Y012116D01*
X024899Y012018D02*
X024821Y012018D01*
X024780Y011919D02*
X024893Y011919D01*
X024888Y011821D02*
X024704Y011821D01*
X024557Y011722D02*
X024882Y011722D01*
X024877Y011624D02*
X023895Y011624D01*
X023895Y011722D02*
X024213Y011722D01*
X024067Y011821D02*
X023895Y011821D01*
X023895Y011919D02*
X023990Y011919D01*
X023950Y012018D02*
X023915Y012018D01*
X023616Y012313D02*
X022796Y012313D01*
X022833Y012215D02*
X023518Y012215D01*
X023475Y012116D02*
X022833Y012116D01*
X022821Y012018D02*
X023475Y012018D01*
X023475Y011919D02*
X022780Y011919D01*
X022704Y011821D02*
X023475Y011821D01*
X023475Y011722D02*
X022557Y011722D01*
X022213Y011722D02*
X010755Y011722D01*
X010755Y011624D02*
X023475Y011624D01*
X023475Y011525D02*
X010719Y011525D01*
X010650Y011427D02*
X023475Y011427D01*
X023475Y011328D02*
X010490Y011328D01*
X010226Y011229D02*
X023475Y011229D01*
X023475Y011131D02*
X012718Y011131D01*
X012861Y011032D02*
X021475Y011032D01*
X021351Y010934D02*
X012924Y010934D01*
X012955Y010835D02*
X021284Y010835D01*
X021243Y010737D02*
X012955Y010737D01*
X012925Y010638D02*
X021238Y010638D01*
X021241Y010540D02*
X012863Y010540D01*
X012721Y010441D02*
X021281Y010441D01*
X021345Y010343D02*
X012440Y010343D01*
X012341Y010244D02*
X021461Y010244D01*
X021475Y010146D02*
X013485Y010146D01*
X013587Y010047D02*
X021450Y010047D01*
X021351Y009948D02*
X013661Y009948D01*
X013702Y009850D02*
X021253Y009850D01*
X021154Y009751D02*
X013725Y009751D01*
X013725Y009653D02*
X017960Y009653D01*
X017861Y009554D02*
X013716Y009554D01*
X013675Y009456D02*
X017763Y009456D01*
X017695Y009357D02*
X013621Y009357D01*
X013522Y009259D02*
X017695Y009259D01*
X017695Y009160D02*
X013328Y009160D01*
X013042Y009160D02*
X012395Y009160D01*
X012522Y009259D02*
X012848Y009259D01*
X012750Y009357D02*
X012621Y009357D01*
X012675Y009456D02*
X012696Y009456D01*
X012710Y009948D02*
X012661Y009948D01*
X012587Y010047D02*
X012783Y010047D01*
X012885Y010146D02*
X012485Y010146D01*
X011846Y010343D02*
X009340Y010343D01*
X009438Y010441D02*
X011944Y010441D01*
X012043Y010540D02*
X009537Y010540D01*
X009635Y010638D02*
X012141Y010638D01*
X012215Y010737D02*
X009734Y010737D01*
X009832Y010835D02*
X012215Y010835D01*
X012246Y010934D02*
X009931Y010934D01*
X010029Y011032D02*
X012309Y011032D01*
X012453Y011131D02*
X010128Y011131D01*
X009731Y011328D02*
X008325Y011328D01*
X008226Y011229D02*
X009633Y011229D01*
X009534Y011131D02*
X008128Y011131D01*
X008029Y011032D02*
X009435Y011032D01*
X009337Y010934D02*
X007931Y010934D01*
X007832Y010835D02*
X009238Y010835D01*
X009140Y010737D02*
X007734Y010737D01*
X007635Y010638D02*
X009041Y010638D01*
X008943Y010540D02*
X007754Y010540D01*
X007770Y010047D02*
X008092Y010047D01*
X008279Y010047D02*
X011550Y010047D01*
X011649Y010146D02*
X009142Y010146D01*
X009241Y010244D02*
X011747Y010244D01*
X011451Y009948D02*
X008445Y009948D01*
X007925Y009948D02*
X007639Y009948D01*
X007853Y009850D02*
X006847Y009850D01*
X006755Y009751D02*
X007815Y009751D01*
X007815Y009653D02*
X006755Y009653D01*
X006731Y009554D02*
X007839Y009554D01*
X007892Y009456D02*
X006679Y009456D01*
X006560Y009357D02*
X008011Y009357D01*
X008360Y009357D02*
X011660Y009357D01*
X011696Y009456D02*
X008479Y009456D01*
X007332Y009948D02*
X006945Y009948D01*
X007044Y010047D02*
X007200Y010047D01*
X007142Y010146D02*
X007143Y010146D01*
X008424Y011427D02*
X009830Y011427D01*
X009928Y011525D02*
X008682Y011525D01*
X008847Y011624D02*
X010015Y011624D01*
X010015Y011722D02*
X008918Y011722D01*
X008955Y011821D02*
X010041Y011821D01*
X010096Y011919D02*
X008955Y011919D01*
X008931Y012018D02*
X010221Y012018D01*
X010549Y012018D02*
X014930Y012018D01*
X014855Y012116D02*
X008878Y012116D01*
X008756Y012215D02*
X011910Y012215D01*
X012461Y012215D02*
X012910Y012215D01*
X012794Y012313D02*
X012577Y012313D01*
X012657Y012412D02*
X012714Y012412D01*
X012692Y012905D02*
X012679Y012905D01*
X012631Y013003D02*
X012740Y013003D01*
X012838Y013102D02*
X012533Y013102D01*
X012353Y013200D02*
X013018Y013200D01*
X013353Y013200D02*
X013973Y013200D01*
X013875Y013299D02*
X010796Y013299D01*
X010755Y013200D02*
X012018Y013200D01*
X012021Y013397D02*
X013776Y013397D01*
X013533Y013102D02*
X014072Y013102D01*
X014170Y013003D02*
X013631Y013003D01*
X013679Y012905D02*
X014269Y012905D01*
X014368Y012806D02*
X013720Y012806D01*
X013725Y012708D02*
X014466Y012708D01*
X014565Y012609D02*
X013725Y012609D01*
X013697Y012511D02*
X014663Y012511D01*
X014762Y012412D02*
X013657Y012412D01*
X013577Y012313D02*
X014815Y012313D01*
X014815Y012215D02*
X013461Y012215D01*
X014666Y013102D02*
X018059Y013102D01*
X018045Y013088D02*
X018045Y012682D01*
X018332Y012395D01*
X018738Y012395D01*
X019025Y012682D01*
X019025Y013088D01*
X018738Y013375D01*
X018332Y013375D01*
X018045Y013088D01*
X018045Y013003D02*
X014764Y013003D01*
X014863Y012905D02*
X018045Y012905D01*
X018045Y012806D02*
X014961Y012806D01*
X015060Y012708D02*
X018045Y012708D01*
X018119Y012609D02*
X015371Y012609D01*
X015483Y012511D02*
X018217Y012511D01*
X018316Y012412D02*
X015533Y012412D01*
X015555Y012313D02*
X021960Y012313D01*
X021938Y012215D02*
X015555Y012215D01*
X015516Y012116D02*
X021938Y012116D01*
X021950Y012018D02*
X015441Y012018D01*
X015268Y011919D02*
X021990Y011919D01*
X022067Y011821D02*
X010730Y011821D01*
X010675Y011919D02*
X015102Y011919D01*
X014567Y013200D02*
X018157Y013200D01*
X018256Y013299D02*
X014469Y013299D01*
X014370Y013397D02*
X021075Y013397D01*
X021075Y013299D02*
X020815Y013299D01*
X020738Y013375D02*
X021025Y013088D01*
X021025Y012682D01*
X020738Y012395D01*
X020332Y012395D01*
X020045Y012682D01*
X020045Y013088D01*
X020332Y013375D01*
X020738Y013375D01*
X020913Y013200D02*
X021075Y013200D01*
X021012Y013102D02*
X021172Y013102D01*
X021270Y013003D02*
X021025Y013003D01*
X021025Y012905D02*
X021369Y012905D01*
X021468Y012806D02*
X021025Y012806D01*
X021025Y012708D02*
X021566Y012708D01*
X021665Y012609D02*
X020952Y012609D01*
X020853Y012511D02*
X021763Y012511D01*
X021862Y012412D02*
X020755Y012412D01*
X020316Y012412D02*
X018755Y012412D01*
X018853Y012511D02*
X020217Y012511D01*
X020119Y012609D02*
X018952Y012609D01*
X019025Y012708D02*
X020045Y012708D01*
X020045Y012806D02*
X019025Y012806D01*
X019025Y012905D02*
X020045Y012905D01*
X020045Y013003D02*
X019025Y013003D01*
X019012Y013102D02*
X020059Y013102D01*
X020157Y013200D02*
X018913Y013200D01*
X018815Y013299D02*
X020256Y013299D01*
X021075Y013496D02*
X014272Y013496D01*
X014173Y013595D02*
X021075Y013595D01*
X021075Y013693D02*
X014075Y013693D01*
X013976Y013792D02*
X021075Y013792D01*
X021075Y013890D02*
X013877Y013890D01*
X015372Y014876D02*
X012373Y014876D01*
X012471Y014974D02*
X015273Y014974D01*
X012912Y016157D02*
X012459Y016157D01*
X012576Y016058D02*
X012794Y016058D01*
X012714Y015960D02*
X012656Y015960D01*
X011838Y013102D02*
X010751Y013102D01*
X010710Y013003D02*
X011740Y013003D01*
X011692Y012905D02*
X010628Y012905D01*
X011651Y009554D02*
X011655Y009554D01*
X015515Y007091D02*
X016045Y007091D01*
X016015Y006992D02*
X015614Y006992D01*
X015662Y006894D02*
X016015Y006894D01*
X016015Y006795D02*
X015703Y006795D01*
X015705Y006598D02*
X016079Y006598D01*
X016038Y006696D02*
X015236Y006696D01*
X015671Y006499D02*
X016124Y006499D01*
X016222Y006401D02*
X015630Y006401D01*
X015538Y006302D02*
X016342Y006302D01*
X018440Y006105D02*
X023007Y006105D01*
X022939Y006007D02*
X018611Y006007D01*
X018710Y005908D02*
X022870Y005908D01*
X022802Y005810D02*
X018776Y005810D01*
X018817Y005711D02*
X022734Y005711D01*
X022665Y005613D02*
X021823Y005613D01*
X021774Y005633D02*
X021596Y005633D01*
X021432Y005565D01*
X021306Y005439D01*
X021238Y005274D01*
X021238Y005096D01*
X021306Y004932D01*
X021432Y004806D01*
X021596Y004738D01*
X021774Y004738D01*
X021939Y004806D01*
X022065Y004932D01*
X022133Y005096D01*
X022133Y005274D01*
X022065Y005439D01*
X021939Y005565D01*
X021774Y005633D01*
X021547Y005613D02*
X019823Y005613D01*
X019774Y005633D02*
X019596Y005633D01*
X019432Y005565D01*
X019306Y005439D01*
X019238Y005274D01*
X019238Y005096D01*
X019306Y004932D01*
X019432Y004806D01*
X019596Y004738D01*
X019774Y004738D01*
X019939Y004806D01*
X020065Y004932D01*
X020133Y005096D01*
X020133Y005274D01*
X020065Y005439D01*
X019939Y005565D01*
X019774Y005633D01*
X019547Y005613D02*
X018855Y005613D01*
X018855Y005514D02*
X019381Y005514D01*
X019296Y005415D02*
X018855Y005415D01*
X018841Y005317D02*
X019256Y005317D01*
X019238Y005218D02*
X018800Y005218D01*
X018759Y005120D02*
X019238Y005120D01*
X019269Y005021D02*
X018669Y005021D01*
X018570Y004923D02*
X019315Y004923D01*
X019414Y004824D02*
X018340Y004824D01*
X019957Y004824D02*
X021414Y004824D01*
X021315Y004923D02*
X020056Y004923D01*
X020102Y005021D02*
X021269Y005021D01*
X021238Y005120D02*
X020133Y005120D01*
X020133Y005218D02*
X021238Y005218D01*
X021256Y005317D02*
X020115Y005317D01*
X020074Y005415D02*
X021296Y005415D01*
X021381Y005514D02*
X019990Y005514D01*
X021990Y005514D02*
X022597Y005514D01*
X022529Y005415D02*
X022074Y005415D01*
X022115Y005317D02*
X022460Y005317D01*
X022392Y005218D02*
X022133Y005218D01*
X022133Y005120D02*
X022316Y005120D01*
X022230Y005021D02*
X022102Y005021D01*
X022145Y004923D02*
X022056Y004923D01*
X022059Y004824D02*
X021957Y004824D01*
X021774Y006738D02*
X021596Y006738D01*
X021432Y006806D01*
X021306Y006932D01*
X021238Y007096D01*
X021238Y007274D01*
X021306Y007439D01*
X021432Y007565D01*
X021596Y007633D01*
X021774Y007633D01*
X021939Y007565D01*
X022065Y007439D01*
X022133Y007274D01*
X022133Y007096D01*
X022065Y006932D01*
X021939Y006806D01*
X021774Y006738D01*
X021912Y006795D02*
X023405Y006795D01*
X023459Y006894D02*
X022026Y006894D01*
X022090Y006992D02*
X023512Y006992D01*
X023565Y007091D02*
X022130Y007091D01*
X022133Y007189D02*
X023619Y007189D01*
X023672Y007288D02*
X022127Y007288D01*
X022086Y007386D02*
X023725Y007386D01*
X023775Y007485D02*
X022019Y007485D01*
X021894Y007583D02*
X023815Y007583D01*
X023855Y007682D02*
X019895Y007682D01*
X019895Y007780D02*
X023895Y007780D01*
X023935Y007879D02*
X019895Y007879D01*
X019975Y007978D02*
X023975Y007978D01*
X024015Y008076D02*
X020073Y008076D01*
X020172Y008175D02*
X024055Y008175D01*
X024095Y008273D02*
X023956Y008273D01*
X023939Y008256D02*
X024065Y008382D01*
X024133Y008546D01*
X024133Y008724D01*
X024065Y008889D01*
X023939Y009015D01*
X023774Y009083D01*
X023596Y009083D01*
X023432Y009015D01*
X023306Y008889D01*
X023238Y008724D01*
X023238Y008546D01*
X023306Y008382D01*
X023432Y008256D01*
X023596Y008188D01*
X023774Y008188D01*
X023939Y008256D01*
X024055Y008372D02*
X024135Y008372D01*
X024101Y008470D02*
X024175Y008470D01*
X024215Y008569D02*
X024133Y008569D01*
X024133Y008667D02*
X024255Y008667D01*
X024288Y008766D02*
X024116Y008766D01*
X024075Y008864D02*
X024316Y008864D01*
X024344Y008963D02*
X023991Y008963D01*
X023826Y009062D02*
X024372Y009062D01*
X024400Y009160D02*
X021157Y009160D01*
X021059Y009062D02*
X021545Y009062D01*
X021596Y009083D02*
X021432Y009015D01*
X021306Y008889D01*
X021238Y008724D01*
X021238Y008546D01*
X021306Y008382D01*
X021432Y008256D01*
X021596Y008188D01*
X021774Y008188D01*
X021939Y008256D01*
X022065Y008382D01*
X022133Y008546D01*
X022133Y008724D01*
X022065Y008889D01*
X021939Y009015D01*
X021774Y009083D01*
X021596Y009083D01*
X021826Y009062D02*
X023545Y009062D01*
X023380Y008963D02*
X021991Y008963D01*
X022075Y008864D02*
X023296Y008864D01*
X023255Y008766D02*
X022116Y008766D01*
X022133Y008667D02*
X023238Y008667D01*
X023238Y008569D02*
X022133Y008569D01*
X022101Y008470D02*
X023269Y008470D01*
X023316Y008372D02*
X022055Y008372D01*
X021956Y008273D02*
X023415Y008273D01*
X024427Y009259D02*
X021256Y009259D01*
X021354Y009357D02*
X024455Y009357D01*
X024483Y009456D02*
X021453Y009456D01*
X021551Y009554D02*
X024511Y009554D01*
X024539Y009653D02*
X021650Y009653D01*
X021748Y009751D02*
X024567Y009751D01*
X024595Y009850D02*
X021847Y009850D01*
X021895Y009948D02*
X024622Y009948D01*
X024646Y010047D02*
X021895Y010047D01*
X021895Y010146D02*
X024662Y010146D01*
X024679Y010244D02*
X023910Y010244D01*
X024025Y010343D02*
X024695Y010343D01*
X024711Y010441D02*
X024089Y010441D01*
X024130Y010540D02*
X024728Y010540D01*
X024744Y010638D02*
X024133Y010638D01*
X024128Y010737D02*
X024761Y010737D01*
X024777Y010835D02*
X024087Y010835D01*
X024020Y010934D02*
X024794Y010934D01*
X024810Y011032D02*
X023896Y011032D01*
X023895Y011131D02*
X024827Y011131D01*
X024843Y011229D02*
X023895Y011229D01*
X023895Y011328D02*
X024859Y011328D01*
X024866Y011427D02*
X023895Y011427D01*
X023895Y011525D02*
X024871Y011525D01*
X023715Y012412D02*
X022741Y012412D01*
X022643Y012511D02*
X023814Y012511D01*
X023912Y012609D02*
X022259Y012609D01*
X022160Y012708D02*
X024011Y012708D01*
X024109Y012806D02*
X022061Y012806D01*
X021963Y012905D02*
X024175Y012905D01*
X024175Y013003D02*
X021864Y013003D01*
X021766Y013102D02*
X024175Y013102D01*
X024175Y013200D02*
X021667Y013200D01*
X021569Y013299D02*
X024175Y013299D01*
X024175Y013397D02*
X021495Y013397D01*
X021495Y013496D02*
X024175Y013496D01*
X024175Y013595D02*
X021495Y013595D01*
X021495Y013693D02*
X022284Y013693D01*
X022487Y013693D02*
X024175Y013693D01*
X024096Y013792D02*
X022674Y013792D01*
X022768Y013890D02*
X024003Y013890D01*
X023962Y013989D02*
X022809Y013989D01*
X022833Y014087D02*
X023938Y014087D01*
X023938Y014186D02*
X022833Y014186D01*
X022808Y014284D02*
X023963Y014284D01*
X024004Y014383D02*
X022767Y014383D01*
X022672Y014481D02*
X024099Y014481D01*
X024655Y015270D02*
X023451Y015270D01*
X023601Y015368D02*
X024638Y015368D01*
X024610Y015467D02*
X023679Y015467D01*
X023720Y015565D02*
X024582Y015565D01*
X024554Y015664D02*
X023733Y015664D01*
X023733Y015762D02*
X024526Y015762D01*
X024498Y015861D02*
X023697Y015861D01*
X023644Y015960D02*
X024470Y015960D01*
X024443Y016058D02*
X023545Y016058D01*
X022099Y014481D02*
X021495Y014481D01*
X021495Y014383D02*
X022004Y014383D01*
X021963Y014284D02*
X021495Y014284D01*
X021495Y014186D02*
X021938Y014186D01*
X021938Y014087D02*
X021495Y014087D01*
X021495Y013989D02*
X021962Y013989D01*
X022003Y013890D02*
X021495Y013890D01*
X021495Y013792D02*
X022096Y013792D01*
X021896Y011032D02*
X023475Y011032D01*
X023351Y010934D02*
X022020Y010934D01*
X022087Y010835D02*
X023284Y010835D01*
X023243Y010737D02*
X022128Y010737D01*
X022133Y010638D02*
X023238Y010638D01*
X023241Y010540D02*
X022130Y010540D01*
X022089Y010441D02*
X023281Y010441D01*
X023345Y010343D02*
X022025Y010343D01*
X021910Y010244D02*
X023461Y010244D01*
X021380Y008963D02*
X020960Y008963D01*
X020861Y008864D02*
X021296Y008864D01*
X021255Y008766D02*
X020763Y008766D01*
X020664Y008667D02*
X021238Y008667D01*
X021238Y008569D02*
X020566Y008569D01*
X020467Y008470D02*
X021269Y008470D01*
X021316Y008372D02*
X020369Y008372D01*
X020270Y008273D02*
X021415Y008273D01*
X021477Y007583D02*
X019895Y007583D01*
X020019Y007485D02*
X021352Y007485D01*
X021284Y007386D02*
X020086Y007386D01*
X020127Y007288D02*
X021243Y007288D01*
X021238Y007189D02*
X020133Y007189D01*
X020130Y007091D02*
X021240Y007091D01*
X021281Y006992D02*
X020090Y006992D01*
X020026Y006894D02*
X021344Y006894D01*
X021458Y006795D02*
X019912Y006795D01*
X019912Y008766D02*
X018459Y008766D01*
X018557Y008864D02*
X019813Y008864D01*
X019715Y008963D02*
X018656Y008963D01*
X018675Y009062D02*
X019695Y009062D01*
X019695Y009160D02*
X018675Y009160D01*
X018675Y009259D02*
X019695Y009259D01*
X019695Y009357D02*
X018675Y009357D01*
X018608Y009456D02*
X019763Y009456D01*
X019861Y009554D02*
X018509Y009554D01*
X018411Y009653D02*
X019960Y009653D01*
X020411Y009653D02*
X021056Y009653D01*
X020957Y009554D02*
X020509Y009554D01*
X020608Y009456D02*
X020859Y009456D01*
X020760Y009357D02*
X020675Y009357D01*
X014910Y021577D02*
X014891Y021577D01*
X014950Y021675D02*
X014793Y021675D01*
X014694Y021774D02*
X015041Y021774D01*
X015085Y023055D02*
X013513Y023055D01*
X012523Y023350D02*
X010433Y023350D01*
X010492Y023449D02*
X012425Y023449D01*
X012326Y023547D02*
X010533Y023547D01*
X010533Y023646D02*
X012228Y023646D01*
X012129Y023744D02*
X010524Y023744D01*
X010484Y023843D02*
X012031Y023843D01*
X011932Y023942D02*
X010412Y023942D01*
X010277Y024040D02*
X011570Y024040D01*
X012625Y023843D02*
X015150Y023843D01*
X015012Y023744D02*
X012723Y023744D01*
X014000Y024040D02*
X016434Y024040D01*
X016335Y024139D02*
X014121Y024139D01*
X015520Y023843D02*
X016631Y023843D01*
X016729Y023744D02*
X015659Y023744D01*
X015732Y023646D02*
X016828Y023646D01*
X016897Y023547D02*
X015773Y023547D01*
X015783Y023449D02*
X016888Y023449D01*
X016888Y023350D02*
X015783Y023350D01*
X015744Y023252D02*
X016927Y023252D01*
X016985Y023153D02*
X015686Y023153D01*
X015586Y023055D02*
X017085Y023055D01*
X014985Y023153D02*
X009250Y023153D01*
X009349Y023252D02*
X009842Y023252D01*
X009738Y023350D02*
X009447Y023350D01*
X010329Y023252D02*
X014927Y023252D01*
M02*
