G75*
G70*
%OFA0B0*%
%FSLAX24Y24*%
%IPPOS*%
%LPD*%
%AMOC8*
5,1,8,0,0,1.08239X$1,22.5*
%
%ADD10C,0.0080*%
%ADD11C,0.0050*%
%ADD12C,0.0060*%
%ADD13C,0.0160*%
%ADD14C,0.0220*%
%ADD15R,0.1040X0.0320*%
%ADD16C,0.0010*%
D10*
X013685Y008935D02*
X013685Y010435D01*
X013685Y011935D02*
X013685Y013435D01*
X013685Y014935D02*
X013685Y016435D01*
X010685Y018435D02*
X010435Y018185D01*
X009935Y018185D01*
X009685Y018435D01*
X009685Y019935D01*
X009435Y020185D01*
X008935Y020185D01*
X008685Y019935D01*
X008685Y018435D01*
X008435Y018185D01*
X007935Y018185D01*
X007685Y018435D01*
X007685Y019935D01*
X007935Y020185D01*
X008435Y020185D01*
X008685Y019935D01*
X009685Y019935D02*
X009935Y020185D01*
X010435Y020185D01*
X010685Y019935D01*
X010685Y018435D01*
X009685Y018435D02*
X009435Y018185D01*
X008935Y018185D01*
X008685Y018435D01*
X007495Y018525D02*
X007495Y018665D01*
X007495Y018595D02*
X007075Y018595D01*
X007075Y018525D02*
X007075Y018665D01*
X007145Y018832D02*
X007075Y018902D01*
X007075Y019042D01*
X007145Y019112D01*
X007145Y019293D02*
X007075Y019363D01*
X007075Y019503D01*
X007145Y019573D01*
X007285Y019503D02*
X007355Y019573D01*
X007425Y019573D01*
X007495Y019503D01*
X007495Y019363D01*
X007425Y019293D01*
X007285Y019363D02*
X007285Y019503D01*
X007285Y019363D02*
X007215Y019293D01*
X007145Y019293D01*
X007425Y019112D02*
X007495Y019042D01*
X007495Y018902D01*
X007425Y018832D01*
X007145Y018832D01*
X007075Y019753D02*
X007075Y019963D01*
X007145Y020033D01*
X007285Y020033D01*
X007355Y019963D01*
X007355Y019753D01*
X007495Y019753D02*
X007075Y019753D01*
X009935Y020317D02*
X010435Y020317D01*
X006770Y017550D02*
X006612Y017708D01*
X006179Y017708D01*
X006770Y017550D02*
X006770Y016920D01*
X006612Y016763D01*
X006179Y016763D01*
X005392Y016763D02*
X004801Y016763D01*
X004801Y017708D01*
X005392Y017708D01*
X005815Y010197D02*
X004555Y010197D01*
X004555Y009174D02*
X005815Y009174D01*
D11*
X006885Y001735D02*
X009885Y001735D01*
X009885Y004735D01*
X007204Y004735D01*
X006885Y004416D01*
X006885Y001735D01*
X011135Y000435D02*
X014135Y000435D01*
X014135Y003435D01*
X011454Y003435D01*
X011135Y003116D01*
X011135Y000435D01*
X015185Y001585D02*
X018185Y001585D01*
X018185Y004585D01*
X015504Y004585D01*
X015185Y004266D01*
X015185Y001585D01*
X014185Y004685D02*
X011185Y004685D01*
X011185Y007366D01*
X011504Y007685D01*
X014185Y007685D01*
X014185Y004685D01*
X009046Y006085D02*
X009001Y006040D01*
X008911Y006040D01*
X008866Y006085D01*
X009046Y006266D01*
X009046Y006085D01*
X008866Y006085D02*
X008866Y006266D01*
X008911Y006311D01*
X009001Y006311D01*
X009046Y006266D01*
X008751Y006266D02*
X008751Y006220D01*
X008706Y006175D01*
X008616Y006175D01*
X008571Y006220D01*
X008571Y006266D01*
X008616Y006311D01*
X008706Y006311D01*
X008751Y006266D01*
X008706Y006175D02*
X008751Y006130D01*
X008751Y006085D01*
X008706Y006040D01*
X008616Y006040D01*
X008571Y006085D01*
X008571Y006130D01*
X008616Y006175D01*
X008457Y006040D02*
X008276Y006040D01*
X008366Y006040D02*
X008366Y006311D01*
X008276Y006220D01*
X007585Y005840D02*
X007450Y005750D01*
X007585Y005660D01*
X007450Y005660D02*
X007450Y005931D01*
X007335Y005886D02*
X007155Y005705D01*
X007200Y005660D01*
X007290Y005660D01*
X007335Y005705D01*
X007335Y005886D01*
X007290Y005931D01*
X007200Y005931D01*
X007155Y005886D01*
X007155Y005705D01*
X007040Y005660D02*
X006860Y005660D01*
X006950Y005660D02*
X006950Y005931D01*
X006860Y005840D01*
X006235Y004685D02*
X006235Y007685D01*
X003554Y007685D01*
X003235Y007366D01*
X003235Y004685D01*
X006235Y004685D01*
X008228Y007540D02*
X008408Y007540D01*
X008318Y007540D02*
X008318Y007811D01*
X008228Y007720D01*
X008523Y007585D02*
X008568Y007585D01*
X008568Y007540D01*
X008523Y007540D01*
X008523Y007585D01*
X008670Y007585D02*
X008670Y007630D01*
X008715Y007675D01*
X008805Y007675D01*
X008850Y007630D01*
X008850Y007585D01*
X008805Y007540D01*
X008715Y007540D01*
X008670Y007585D01*
X008715Y007675D02*
X008670Y007720D01*
X008670Y007766D01*
X008715Y007811D01*
X008805Y007811D01*
X008850Y007766D01*
X008850Y007720D01*
X008805Y007675D01*
X008965Y007630D02*
X009100Y007720D01*
X008965Y007630D02*
X009100Y007540D01*
X008965Y007540D02*
X008965Y007811D01*
X011360Y008845D02*
X011540Y008845D01*
X011450Y008936D02*
X011450Y008755D01*
X009985Y009860D02*
X009805Y009860D01*
X009895Y009860D02*
X009895Y010131D01*
X009805Y010040D01*
X009690Y010086D02*
X009645Y010131D01*
X009555Y010131D01*
X009510Y010086D01*
X009510Y009905D01*
X009555Y009860D01*
X009645Y009860D01*
X009690Y009905D01*
X008335Y009831D02*
X008155Y009831D01*
X008155Y009695D01*
X008245Y009740D01*
X008290Y009740D01*
X008335Y009695D01*
X008335Y009605D01*
X008290Y009560D01*
X008200Y009560D01*
X008155Y009605D01*
X008040Y009605D02*
X008040Y009786D01*
X007995Y009831D01*
X007905Y009831D01*
X007860Y009786D01*
X007860Y009605D01*
X007905Y009560D01*
X007995Y009560D01*
X008040Y009605D01*
X008040Y009560D02*
X007950Y009650D01*
X005310Y009595D02*
X005265Y009640D01*
X005040Y009640D01*
X005130Y009755D02*
X005040Y009845D01*
X005310Y009845D01*
X005310Y009755D02*
X005310Y009935D01*
X005310Y009595D02*
X005310Y009505D01*
X005265Y009460D01*
X005040Y009460D01*
X004135Y008135D02*
X004135Y011135D01*
X001454Y011135D01*
X001135Y010816D01*
X001135Y008135D01*
X004135Y008135D01*
X003496Y011290D02*
X003316Y011290D01*
X003496Y011470D01*
X003496Y011516D01*
X003451Y011561D01*
X003361Y011561D01*
X003316Y011516D01*
X003201Y011516D02*
X003156Y011561D01*
X003066Y011561D01*
X003021Y011516D01*
X003021Y011335D01*
X003066Y011290D01*
X003156Y011290D01*
X003201Y011335D01*
X003485Y011685D02*
X003485Y014685D01*
X000804Y014685D01*
X000485Y014366D01*
X000485Y011685D01*
X003485Y011685D01*
X003666Y014640D02*
X003756Y014640D01*
X003801Y014685D01*
X003916Y014685D02*
X003961Y014640D01*
X004051Y014640D01*
X004096Y014685D01*
X004096Y014730D01*
X004051Y014775D01*
X004006Y014775D01*
X004051Y014775D02*
X004096Y014820D01*
X004096Y014866D01*
X004051Y014911D01*
X003961Y014911D01*
X003916Y014866D01*
X003801Y014866D02*
X003756Y014911D01*
X003666Y014911D01*
X003621Y014866D01*
X003621Y014685D01*
X003666Y014640D01*
X004485Y015135D02*
X004485Y018135D01*
X001804Y018135D01*
X001485Y017816D01*
X001485Y015135D01*
X004485Y015135D01*
X005360Y016110D02*
X005540Y016110D01*
X005450Y016110D02*
X005450Y016381D01*
X005360Y016290D01*
X005655Y016336D02*
X005700Y016381D01*
X005790Y016381D01*
X005835Y016336D01*
X005655Y016155D01*
X005700Y016110D01*
X005790Y016110D01*
X005835Y016155D01*
X005835Y016336D01*
X005950Y016381D02*
X005950Y016110D01*
X005950Y016200D02*
X006085Y016290D01*
X005950Y016200D02*
X006085Y016110D01*
X005655Y016155D02*
X005655Y016336D01*
X005705Y016971D02*
X005885Y016971D01*
X005930Y017016D01*
X005930Y017106D01*
X005885Y017151D01*
X005885Y017266D02*
X005930Y017311D01*
X005930Y017401D01*
X005885Y017446D01*
X005795Y017446D01*
X005750Y017401D01*
X005750Y017356D01*
X005795Y017266D01*
X005660Y017266D01*
X005660Y017446D01*
X005705Y017151D02*
X005660Y017106D01*
X005660Y017016D01*
X005705Y016971D01*
X007160Y016586D02*
X007160Y016405D01*
X007205Y016360D01*
X007295Y016360D01*
X007340Y016405D01*
X007455Y016360D02*
X007455Y016631D01*
X007500Y016540D02*
X007590Y016540D01*
X007635Y016495D01*
X007635Y016360D01*
X007750Y016360D02*
X007750Y016540D01*
X007750Y016450D02*
X007840Y016540D01*
X007885Y016540D01*
X007995Y016540D02*
X008040Y016540D01*
X008040Y016360D01*
X007995Y016360D02*
X008085Y016360D01*
X008192Y016360D02*
X008327Y016360D01*
X008372Y016405D01*
X008327Y016450D01*
X008237Y016450D01*
X008192Y016495D01*
X008237Y016540D01*
X008372Y016540D01*
X008486Y016540D02*
X008576Y016540D01*
X008531Y016586D02*
X008531Y016405D01*
X008576Y016360D01*
X008683Y016360D02*
X008683Y016540D01*
X008728Y016540D01*
X008773Y016495D01*
X008818Y016540D01*
X008863Y016495D01*
X008863Y016360D01*
X008773Y016360D02*
X008773Y016495D01*
X008977Y016405D02*
X009022Y016450D01*
X009157Y016450D01*
X009157Y016495D02*
X009157Y016360D01*
X009022Y016360D01*
X008977Y016405D01*
X009022Y016540D02*
X009112Y016540D01*
X009157Y016495D01*
X009272Y016495D02*
X009317Y016540D01*
X009452Y016540D01*
X009407Y016450D02*
X009317Y016450D01*
X009272Y016495D01*
X009272Y016360D02*
X009407Y016360D01*
X009452Y016405D01*
X009407Y016450D01*
X009861Y016360D02*
X010041Y016540D01*
X010041Y016586D01*
X009996Y016631D01*
X009906Y016631D01*
X009861Y016586D01*
X009861Y016360D02*
X010041Y016360D01*
X010156Y016405D02*
X010336Y016586D01*
X010336Y016405D01*
X010291Y016360D01*
X010201Y016360D01*
X010156Y016405D01*
X010156Y016586D01*
X010201Y016631D01*
X010291Y016631D01*
X010336Y016586D01*
X010451Y016586D02*
X010451Y016405D01*
X010631Y016586D01*
X010631Y016405D01*
X010586Y016360D01*
X010496Y016360D01*
X010451Y016405D01*
X010451Y016586D02*
X010496Y016631D01*
X010586Y016631D01*
X010631Y016586D01*
X010745Y016586D02*
X010745Y016540D01*
X010790Y016495D01*
X010925Y016495D01*
X010925Y016405D02*
X010925Y016586D01*
X010880Y016631D01*
X010790Y016631D01*
X010745Y016586D01*
X010745Y016405D02*
X010790Y016360D01*
X010880Y016360D01*
X010925Y016405D01*
X010544Y016960D02*
X010454Y016960D01*
X010409Y017005D01*
X010454Y017095D02*
X010544Y017095D01*
X010589Y017050D01*
X010589Y017005D01*
X010544Y016960D01*
X010454Y017095D02*
X010409Y017140D01*
X010409Y017186D01*
X010454Y017231D01*
X010544Y017231D01*
X010589Y017186D01*
X010294Y017231D02*
X010114Y017231D01*
X010114Y016960D01*
X010294Y016960D01*
X010204Y017095D02*
X010114Y017095D01*
X009999Y017005D02*
X009954Y016960D01*
X009864Y016960D01*
X009819Y017005D01*
X009819Y017186D01*
X009864Y017231D01*
X009954Y017231D01*
X009999Y017186D01*
X009705Y017231D02*
X009525Y017231D01*
X009525Y016960D01*
X009705Y016960D01*
X009615Y017095D02*
X009525Y017095D01*
X009418Y016960D02*
X009328Y016960D01*
X009373Y016960D02*
X009373Y017231D01*
X009328Y017231D02*
X009418Y017231D01*
X009214Y017231D02*
X009214Y016960D01*
X009034Y017231D01*
X009034Y016960D01*
X008624Y017186D02*
X008624Y017231D01*
X008624Y017186D02*
X008534Y017095D01*
X008534Y016960D01*
X008534Y017095D02*
X008444Y017186D01*
X008444Y017231D01*
X008330Y017231D02*
X008330Y016960D01*
X008150Y016960D02*
X008150Y017231D01*
X008240Y017140D01*
X008330Y017231D01*
X007740Y017095D02*
X007560Y017095D01*
X007695Y017231D01*
X007695Y016960D01*
X008040Y016676D02*
X008040Y016631D01*
X007500Y016540D02*
X007455Y016495D01*
X007340Y016586D02*
X007295Y016631D01*
X007205Y016631D01*
X007160Y016586D01*
X008990Y014749D02*
X009035Y014794D01*
X009080Y014794D01*
X009125Y014749D01*
X009170Y014794D01*
X009215Y014794D01*
X009260Y014749D01*
X009260Y014659D01*
X009215Y014614D01*
X009260Y014499D02*
X009260Y014319D01*
X009260Y014409D02*
X008990Y014409D01*
X009080Y014319D01*
X009080Y014205D02*
X009125Y014160D01*
X009170Y014205D01*
X009215Y014205D01*
X009260Y014160D01*
X009260Y014070D01*
X009215Y014025D01*
X009260Y013910D02*
X009260Y013730D01*
X009080Y013910D01*
X009035Y013910D01*
X008990Y013865D01*
X008990Y013775D01*
X009035Y013730D01*
X009035Y013615D02*
X008990Y013615D01*
X009035Y013615D02*
X009125Y013525D01*
X009260Y013525D01*
X009125Y013525D02*
X009035Y013435D01*
X008990Y013435D01*
X008990Y013321D02*
X009260Y013321D01*
X008990Y013141D01*
X009260Y013141D01*
X009260Y013034D02*
X009260Y012944D01*
X009260Y012989D02*
X008990Y012989D01*
X008990Y012944D02*
X008990Y013034D01*
X008990Y012830D02*
X008990Y012650D01*
X008990Y012740D02*
X009260Y012740D01*
X009260Y012445D02*
X008990Y012445D01*
X008990Y012355D02*
X008990Y012535D01*
X009080Y012240D02*
X009260Y012240D01*
X009125Y012240D02*
X009125Y012060D01*
X009080Y012060D02*
X008990Y012150D01*
X009080Y012240D01*
X009080Y012060D02*
X009260Y012060D01*
X009035Y014025D02*
X008990Y014070D01*
X008990Y014160D01*
X009035Y014205D01*
X009080Y014205D01*
X009125Y014160D02*
X009125Y014115D01*
X009035Y014614D02*
X008990Y014659D01*
X008990Y014749D01*
X009125Y014749D02*
X009125Y014704D01*
X013710Y014786D02*
X013755Y014831D01*
X013845Y014831D01*
X013890Y014786D01*
X013890Y014740D01*
X013845Y014695D01*
X013890Y014650D01*
X013890Y014605D01*
X013845Y014560D01*
X013755Y014560D01*
X013710Y014605D01*
X013800Y014695D02*
X013845Y014695D01*
X014005Y014605D02*
X014185Y014786D01*
X014185Y014605D01*
X014140Y014560D01*
X014050Y014560D01*
X014005Y014605D01*
X014005Y014786D01*
X014050Y014831D01*
X014140Y014831D01*
X014185Y014786D01*
X016360Y014781D02*
X016360Y014510D01*
X016360Y014600D02*
X016495Y014600D01*
X016540Y014645D01*
X016540Y014736D01*
X016495Y014781D01*
X016360Y014781D01*
X016450Y014600D02*
X016540Y014510D01*
X016655Y014555D02*
X016700Y014510D01*
X016790Y014510D01*
X016835Y014555D01*
X016835Y014645D01*
X016790Y014690D01*
X016745Y014690D01*
X016655Y014645D01*
X016655Y014781D01*
X016835Y014781D01*
X016790Y015510D02*
X016790Y015781D01*
X016655Y015645D01*
X016835Y015645D01*
X016540Y015645D02*
X016540Y015736D01*
X016495Y015781D01*
X016360Y015781D01*
X016360Y015510D01*
X016360Y015600D02*
X016495Y015600D01*
X016540Y015645D01*
X016450Y015600D02*
X016540Y015510D01*
X014185Y017685D02*
X014185Y020685D01*
X011504Y020685D01*
X011185Y020366D01*
X011185Y017685D01*
X014185Y017685D01*
X016360Y019060D02*
X016360Y019331D01*
X016495Y019331D01*
X016540Y019286D01*
X016540Y019195D01*
X016495Y019150D01*
X016360Y019150D01*
X016450Y019150D02*
X016540Y019060D01*
X016655Y019105D02*
X016700Y019060D01*
X016790Y019060D01*
X016835Y019105D01*
X016835Y019150D01*
X016790Y019195D01*
X016745Y019195D01*
X016790Y019195D02*
X016835Y019240D01*
X016835Y019286D01*
X016790Y019331D01*
X016700Y019331D01*
X016655Y019286D01*
X016655Y020060D02*
X016835Y020240D01*
X016835Y020286D01*
X016790Y020331D01*
X016700Y020331D01*
X016655Y020286D01*
X016540Y020286D02*
X016495Y020331D01*
X016360Y020331D01*
X016360Y020060D01*
X016360Y020150D02*
X016495Y020150D01*
X016540Y020195D01*
X016540Y020286D01*
X016450Y020150D02*
X016540Y020060D01*
X016655Y020060D02*
X016835Y020060D01*
X017835Y020935D02*
X017835Y023935D01*
X015154Y023935D01*
X014835Y023616D01*
X014835Y020935D01*
X017835Y020935D01*
X018235Y021316D02*
X018554Y021635D01*
X021235Y021635D01*
X021235Y018635D01*
X018235Y018635D01*
X018235Y021316D01*
X014480Y021381D02*
X014300Y021381D01*
X014300Y021110D01*
X014480Y021110D01*
X014390Y021245D02*
X014300Y021245D01*
X014193Y021110D02*
X014103Y021110D01*
X014148Y021110D02*
X014148Y021381D01*
X014103Y021381D02*
X014193Y021381D01*
X013989Y021110D02*
X013809Y021110D01*
X013809Y021381D01*
X013694Y021290D02*
X013694Y021110D01*
X013694Y021245D02*
X013514Y021245D01*
X013514Y021290D02*
X013604Y021381D01*
X013694Y021290D01*
X013514Y021290D02*
X013514Y021110D01*
X013309Y021110D02*
X013309Y021381D01*
X013219Y021381D02*
X013399Y021381D01*
X013105Y021290D02*
X013105Y021110D01*
X013105Y021245D02*
X012925Y021245D01*
X012925Y021290D02*
X013015Y021381D01*
X013105Y021290D01*
X012925Y021290D02*
X012925Y021110D01*
X012810Y021110D02*
X012810Y021381D01*
X012630Y021381D02*
X012630Y021110D01*
X012810Y021110D02*
X012630Y021381D01*
X012221Y021381D02*
X012221Y021200D01*
X012131Y021110D01*
X012041Y021200D01*
X012041Y021381D01*
X011926Y021381D02*
X011926Y021155D01*
X011881Y021110D01*
X011791Y021110D01*
X011746Y021155D01*
X011746Y021381D01*
X011632Y021110D02*
X011451Y021110D01*
X011451Y021381D01*
X011050Y021381D02*
X010960Y021381D01*
X011005Y021381D02*
X011005Y021110D01*
X010960Y021110D02*
X011050Y021110D01*
X010585Y021135D02*
X010585Y024135D01*
X007904Y024135D01*
X007585Y023816D01*
X007585Y021135D01*
X010585Y021135D01*
X011285Y021935D02*
X014285Y021935D01*
X014285Y024935D01*
X011604Y024935D01*
X011285Y024616D01*
X011285Y021935D01*
X006835Y021635D02*
X004154Y021635D01*
X003835Y021316D01*
X003835Y018635D01*
X006835Y018635D01*
X006835Y021635D01*
X020785Y017866D02*
X020785Y015185D01*
X023785Y015185D01*
X023785Y018185D01*
X021104Y018185D01*
X020785Y017866D01*
X022204Y014635D02*
X021885Y014316D01*
X021885Y011635D01*
X024885Y011635D01*
X024885Y014635D01*
X022204Y014635D01*
X016835Y011781D02*
X016745Y011736D01*
X016655Y011645D01*
X016790Y011645D01*
X016835Y011600D01*
X016835Y011555D01*
X016790Y011510D01*
X016700Y011510D01*
X016655Y011555D01*
X016655Y011645D01*
X016540Y011645D02*
X016540Y011736D01*
X016495Y011781D01*
X016360Y011781D01*
X016360Y011510D01*
X016360Y011600D02*
X016495Y011600D01*
X016540Y011645D01*
X016450Y011600D02*
X016540Y011510D01*
X016495Y010781D02*
X016540Y010736D01*
X016540Y010645D01*
X016495Y010600D01*
X016360Y010600D01*
X016360Y010510D02*
X016360Y010781D01*
X016495Y010781D01*
X016655Y010781D02*
X016835Y010781D01*
X016835Y010736D01*
X016655Y010555D01*
X016655Y010510D01*
X016540Y010510D02*
X016450Y010600D01*
X014185Y011605D02*
X014185Y011786D01*
X014005Y011605D01*
X014050Y011560D01*
X014140Y011560D01*
X014185Y011605D01*
X014005Y011605D02*
X014005Y011786D01*
X014050Y011831D01*
X014140Y011831D01*
X014185Y011786D01*
X013890Y011786D02*
X013890Y011740D01*
X013845Y011695D01*
X013890Y011650D01*
X013890Y011605D01*
X013845Y011560D01*
X013755Y011560D01*
X013710Y011605D01*
X013800Y011695D02*
X013845Y011695D01*
X013890Y011786D02*
X013845Y011831D01*
X013755Y011831D01*
X013710Y011786D01*
X013766Y008811D02*
X013856Y008811D01*
X013901Y008766D01*
X013901Y008720D01*
X013856Y008675D01*
X013901Y008630D01*
X013901Y008585D01*
X013856Y008540D01*
X013766Y008540D01*
X013721Y008585D01*
X013811Y008675D02*
X013856Y008675D01*
X013721Y008766D02*
X013766Y008811D01*
X014016Y008766D02*
X014061Y008811D01*
X014151Y008811D01*
X014196Y008766D01*
X014016Y008585D01*
X014061Y008540D01*
X014151Y008540D01*
X014196Y008585D01*
X014196Y008766D01*
X014016Y008766D02*
X014016Y008585D01*
X019185Y007366D02*
X019504Y007685D01*
X022185Y007685D01*
X022185Y004685D01*
X019185Y004685D01*
X019185Y007366D01*
X021185Y008135D02*
X024185Y008135D01*
X024185Y011135D01*
X021504Y011135D01*
X021185Y010816D01*
X021185Y008135D01*
D12*
X016985Y009185D02*
X016987Y009254D01*
X016993Y009323D01*
X017003Y009391D01*
X017017Y009459D01*
X017034Y009526D01*
X017056Y009592D01*
X017081Y009656D01*
X017110Y009719D01*
X017143Y009780D01*
X017179Y009839D01*
X017218Y009896D01*
X017261Y009950D01*
X017306Y010002D01*
X017355Y010052D01*
X017406Y010098D01*
X017460Y010141D01*
X017517Y010182D01*
X017575Y010218D01*
X017636Y010252D01*
X017698Y010282D01*
X017762Y010308D01*
X017827Y010330D01*
X017894Y010349D01*
X017962Y010364D01*
X018030Y010375D01*
X018099Y010382D01*
X018168Y010385D01*
X018237Y010384D01*
X018306Y010379D01*
X018374Y010370D01*
X018442Y010357D01*
X018509Y010340D01*
X018576Y010320D01*
X018640Y010295D01*
X018703Y010267D01*
X018765Y010236D01*
X018824Y010200D01*
X018882Y010162D01*
X018937Y010120D01*
X018990Y010075D01*
X019040Y010027D01*
X019087Y009977D01*
X019131Y009923D01*
X019172Y009868D01*
X019210Y009810D01*
X019244Y009750D01*
X019275Y009688D01*
X019302Y009624D01*
X019325Y009559D01*
X019345Y009493D01*
X019361Y009425D01*
X019373Y009357D01*
X019381Y009289D01*
X019385Y009220D01*
X019385Y009150D01*
X019381Y009081D01*
X019373Y009013D01*
X019361Y008945D01*
X019345Y008877D01*
X019325Y008811D01*
X019302Y008746D01*
X019275Y008682D01*
X019244Y008620D01*
X019210Y008560D01*
X019172Y008502D01*
X019131Y008447D01*
X019087Y008393D01*
X019040Y008343D01*
X018990Y008295D01*
X018937Y008250D01*
X018882Y008208D01*
X018824Y008170D01*
X018765Y008134D01*
X018703Y008103D01*
X018640Y008075D01*
X018576Y008050D01*
X018509Y008030D01*
X018442Y008013D01*
X018374Y008000D01*
X018306Y007991D01*
X018237Y007986D01*
X018168Y007985D01*
X018099Y007988D01*
X018030Y007995D01*
X017962Y008006D01*
X017894Y008021D01*
X017827Y008040D01*
X017762Y008062D01*
X017698Y008088D01*
X017636Y008118D01*
X017575Y008152D01*
X017517Y008188D01*
X017460Y008229D01*
X017406Y008272D01*
X017355Y008318D01*
X017306Y008368D01*
X017261Y008420D01*
X017218Y008474D01*
X017179Y008531D01*
X017143Y008590D01*
X017110Y008651D01*
X017081Y008714D01*
X017056Y008778D01*
X017034Y008844D01*
X017017Y008911D01*
X017003Y008979D01*
X016993Y009047D01*
X016987Y009116D01*
X016985Y009185D01*
X015274Y008535D02*
X015047Y008535D01*
X015217Y008706D01*
X015217Y008365D01*
X014906Y008365D02*
X014792Y008479D01*
X014679Y008422D02*
X014735Y008365D01*
X014849Y008365D01*
X014906Y008422D01*
X014906Y008649D01*
X014849Y008706D01*
X014735Y008706D01*
X014679Y008649D01*
X014679Y008422D01*
X013803Y008422D02*
X013567Y008422D01*
X013567Y007949D02*
X013803Y007949D01*
X011685Y009685D02*
X011687Y009748D01*
X011693Y009810D01*
X011703Y009872D01*
X011716Y009934D01*
X011734Y009994D01*
X011755Y010053D01*
X011780Y010111D01*
X011809Y010167D01*
X011841Y010221D01*
X011876Y010273D01*
X011914Y010322D01*
X011956Y010370D01*
X012000Y010414D01*
X012048Y010456D01*
X012097Y010494D01*
X012149Y010529D01*
X012203Y010561D01*
X012259Y010590D01*
X012317Y010615D01*
X012376Y010636D01*
X012436Y010654D01*
X012498Y010667D01*
X012560Y010677D01*
X012622Y010683D01*
X012685Y010685D01*
X012748Y010683D01*
X012810Y010677D01*
X012872Y010667D01*
X012934Y010654D01*
X012994Y010636D01*
X013053Y010615D01*
X013111Y010590D01*
X013167Y010561D01*
X013221Y010529D01*
X013273Y010494D01*
X013322Y010456D01*
X013370Y010414D01*
X013414Y010370D01*
X013456Y010322D01*
X013494Y010273D01*
X013529Y010221D01*
X013561Y010167D01*
X013590Y010111D01*
X013615Y010053D01*
X013636Y009994D01*
X013654Y009934D01*
X013667Y009872D01*
X013677Y009810D01*
X013683Y009748D01*
X013685Y009685D01*
X013683Y009622D01*
X013677Y009560D01*
X013667Y009498D01*
X013654Y009436D01*
X013636Y009376D01*
X013615Y009317D01*
X013590Y009259D01*
X013561Y009203D01*
X013529Y009149D01*
X013494Y009097D01*
X013456Y009048D01*
X013414Y009000D01*
X013370Y008956D01*
X013322Y008914D01*
X013273Y008876D01*
X013221Y008841D01*
X013167Y008809D01*
X013111Y008780D01*
X013053Y008755D01*
X012994Y008734D01*
X012934Y008716D01*
X012872Y008703D01*
X012810Y008693D01*
X012748Y008687D01*
X012685Y008685D01*
X012622Y008687D01*
X012560Y008693D01*
X012498Y008703D01*
X012436Y008716D01*
X012376Y008734D01*
X012317Y008755D01*
X012259Y008780D01*
X012203Y008809D01*
X012149Y008841D01*
X012097Y008876D01*
X012048Y008914D01*
X012000Y008956D01*
X011956Y009000D01*
X011914Y009048D01*
X011876Y009097D01*
X011841Y009149D01*
X011809Y009203D01*
X011780Y009259D01*
X011755Y009317D01*
X011734Y009376D01*
X011716Y009436D01*
X011703Y009498D01*
X011693Y009560D01*
X011687Y009622D01*
X011685Y009685D01*
X010476Y010965D02*
X010476Y015905D01*
X007585Y015905D01*
X007585Y010965D01*
X010476Y010965D01*
X013567Y010949D02*
X013803Y010949D01*
X013803Y011422D02*
X013567Y011422D01*
X014715Y012472D02*
X014772Y012415D01*
X014885Y012415D01*
X014942Y012472D01*
X014942Y012699D01*
X014885Y012756D01*
X014772Y012756D01*
X014715Y012699D01*
X014715Y012472D01*
X014829Y012529D02*
X014942Y012415D01*
X015084Y012472D02*
X015140Y012415D01*
X015254Y012415D01*
X015311Y012472D01*
X015311Y012529D01*
X015254Y012585D01*
X015197Y012585D01*
X015254Y012585D02*
X015311Y012642D01*
X015311Y012699D01*
X015254Y012756D01*
X015140Y012756D01*
X015084Y012699D01*
X015567Y011922D02*
X015803Y011922D01*
X015803Y011449D02*
X015567Y011449D01*
X015567Y010922D02*
X015803Y010922D01*
X015803Y010449D02*
X015567Y010449D01*
X011685Y012685D02*
X011687Y012748D01*
X011693Y012810D01*
X011703Y012872D01*
X011716Y012934D01*
X011734Y012994D01*
X011755Y013053D01*
X011780Y013111D01*
X011809Y013167D01*
X011841Y013221D01*
X011876Y013273D01*
X011914Y013322D01*
X011956Y013370D01*
X012000Y013414D01*
X012048Y013456D01*
X012097Y013494D01*
X012149Y013529D01*
X012203Y013561D01*
X012259Y013590D01*
X012317Y013615D01*
X012376Y013636D01*
X012436Y013654D01*
X012498Y013667D01*
X012560Y013677D01*
X012622Y013683D01*
X012685Y013685D01*
X012748Y013683D01*
X012810Y013677D01*
X012872Y013667D01*
X012934Y013654D01*
X012994Y013636D01*
X013053Y013615D01*
X013111Y013590D01*
X013167Y013561D01*
X013221Y013529D01*
X013273Y013494D01*
X013322Y013456D01*
X013370Y013414D01*
X013414Y013370D01*
X013456Y013322D01*
X013494Y013273D01*
X013529Y013221D01*
X013561Y013167D01*
X013590Y013111D01*
X013615Y013053D01*
X013636Y012994D01*
X013654Y012934D01*
X013667Y012872D01*
X013677Y012810D01*
X013683Y012748D01*
X013685Y012685D01*
X013683Y012622D01*
X013677Y012560D01*
X013667Y012498D01*
X013654Y012436D01*
X013636Y012376D01*
X013615Y012317D01*
X013590Y012259D01*
X013561Y012203D01*
X013529Y012149D01*
X013494Y012097D01*
X013456Y012048D01*
X013414Y012000D01*
X013370Y011956D01*
X013322Y011914D01*
X013273Y011876D01*
X013221Y011841D01*
X013167Y011809D01*
X013111Y011780D01*
X013053Y011755D01*
X012994Y011734D01*
X012934Y011716D01*
X012872Y011703D01*
X012810Y011693D01*
X012748Y011687D01*
X012685Y011685D01*
X012622Y011687D01*
X012560Y011693D01*
X012498Y011703D01*
X012436Y011716D01*
X012376Y011734D01*
X012317Y011755D01*
X012259Y011780D01*
X012203Y011809D01*
X012149Y011841D01*
X012097Y011876D01*
X012048Y011914D01*
X012000Y011956D01*
X011956Y012000D01*
X011914Y012048D01*
X011876Y012097D01*
X011841Y012149D01*
X011809Y012203D01*
X011780Y012259D01*
X011755Y012317D01*
X011734Y012376D01*
X011716Y012436D01*
X011703Y012498D01*
X011693Y012560D01*
X011687Y012622D01*
X011685Y012685D01*
X013567Y013949D02*
X013803Y013949D01*
X013803Y014422D02*
X013567Y014422D01*
X015567Y014449D02*
X015803Y014449D01*
X015803Y014922D02*
X015567Y014922D01*
X015567Y015449D02*
X015803Y015449D01*
X015803Y015922D02*
X015567Y015922D01*
X015274Y016915D02*
X015047Y016915D01*
X015274Y017142D01*
X015274Y017199D01*
X015217Y017256D01*
X015104Y017256D01*
X015047Y017199D01*
X014906Y017199D02*
X014906Y016972D01*
X014849Y016915D01*
X014735Y016915D01*
X014679Y016972D01*
X014679Y017199D01*
X014735Y017256D01*
X014849Y017256D01*
X014906Y017199D01*
X014792Y017029D02*
X014906Y016915D01*
X011685Y015685D02*
X011687Y015748D01*
X011693Y015810D01*
X011703Y015872D01*
X011716Y015934D01*
X011734Y015994D01*
X011755Y016053D01*
X011780Y016111D01*
X011809Y016167D01*
X011841Y016221D01*
X011876Y016273D01*
X011914Y016322D01*
X011956Y016370D01*
X012000Y016414D01*
X012048Y016456D01*
X012097Y016494D01*
X012149Y016529D01*
X012203Y016561D01*
X012259Y016590D01*
X012317Y016615D01*
X012376Y016636D01*
X012436Y016654D01*
X012498Y016667D01*
X012560Y016677D01*
X012622Y016683D01*
X012685Y016685D01*
X012748Y016683D01*
X012810Y016677D01*
X012872Y016667D01*
X012934Y016654D01*
X012994Y016636D01*
X013053Y016615D01*
X013111Y016590D01*
X013167Y016561D01*
X013221Y016529D01*
X013273Y016494D01*
X013322Y016456D01*
X013370Y016414D01*
X013414Y016370D01*
X013456Y016322D01*
X013494Y016273D01*
X013529Y016221D01*
X013561Y016167D01*
X013590Y016111D01*
X013615Y016053D01*
X013636Y015994D01*
X013654Y015934D01*
X013667Y015872D01*
X013677Y015810D01*
X013683Y015748D01*
X013685Y015685D01*
X013683Y015622D01*
X013677Y015560D01*
X013667Y015498D01*
X013654Y015436D01*
X013636Y015376D01*
X013615Y015317D01*
X013590Y015259D01*
X013561Y015203D01*
X013529Y015149D01*
X013494Y015097D01*
X013456Y015048D01*
X013414Y015000D01*
X013370Y014956D01*
X013322Y014914D01*
X013273Y014876D01*
X013221Y014841D01*
X013167Y014809D01*
X013111Y014780D01*
X013053Y014755D01*
X012994Y014734D01*
X012934Y014716D01*
X012872Y014703D01*
X012810Y014693D01*
X012748Y014687D01*
X012685Y014685D01*
X012622Y014687D01*
X012560Y014693D01*
X012498Y014703D01*
X012436Y014716D01*
X012376Y014734D01*
X012317Y014755D01*
X012259Y014780D01*
X012203Y014809D01*
X012149Y014841D01*
X012097Y014876D01*
X012048Y014914D01*
X012000Y014956D01*
X011956Y015000D01*
X011914Y015048D01*
X011876Y015097D01*
X011841Y015149D01*
X011809Y015203D01*
X011780Y015259D01*
X011755Y015317D01*
X011734Y015376D01*
X011716Y015436D01*
X011703Y015498D01*
X011693Y015560D01*
X011687Y015622D01*
X011685Y015685D01*
X007735Y015555D02*
X007737Y015584D01*
X007743Y015612D01*
X007752Y015639D01*
X007766Y015664D01*
X007782Y015688D01*
X007802Y015708D01*
X007824Y015727D01*
X007848Y015741D01*
X007875Y015753D01*
X007902Y015761D01*
X007931Y015765D01*
X007959Y015765D01*
X007988Y015761D01*
X008015Y015753D01*
X008042Y015741D01*
X008066Y015727D01*
X008088Y015708D01*
X008108Y015688D01*
X008124Y015664D01*
X008138Y015639D01*
X008147Y015612D01*
X008153Y015584D01*
X008155Y015555D01*
X008153Y015526D01*
X008147Y015498D01*
X008138Y015471D01*
X008124Y015446D01*
X008108Y015422D01*
X008088Y015402D01*
X008066Y015383D01*
X008042Y015369D01*
X008015Y015357D01*
X007988Y015349D01*
X007959Y015345D01*
X007931Y015345D01*
X007902Y015349D01*
X007875Y015357D01*
X007848Y015369D01*
X007824Y015383D01*
X007802Y015402D01*
X007782Y015422D01*
X007766Y015446D01*
X007752Y015471D01*
X007743Y015498D01*
X007737Y015526D01*
X007735Y015555D01*
X005803Y015449D02*
X005567Y015449D01*
X005567Y015922D02*
X005803Y015922D01*
X006035Y014135D02*
X006035Y011835D01*
X006033Y011784D01*
X006028Y011733D01*
X006018Y011683D01*
X006005Y011633D01*
X005989Y011585D01*
X005969Y011538D01*
X005945Y011492D01*
X005919Y011449D01*
X005889Y011407D01*
X005856Y011368D01*
X005821Y011331D01*
X005783Y011297D01*
X005742Y011266D01*
X005700Y011237D01*
X005655Y011212D01*
X005609Y011191D01*
X005561Y011172D01*
X005512Y011158D01*
X005462Y011147D01*
X005412Y011139D01*
X005361Y011135D01*
X005309Y011135D01*
X005258Y011139D01*
X005208Y011147D01*
X005158Y011158D01*
X005109Y011172D01*
X005061Y011191D01*
X005015Y011212D01*
X004970Y011237D01*
X004928Y011266D01*
X004887Y011297D01*
X004849Y011331D01*
X004814Y011368D01*
X004781Y011407D01*
X004751Y011449D01*
X004725Y011492D01*
X004701Y011538D01*
X004681Y011585D01*
X004665Y011633D01*
X004652Y011683D01*
X004642Y011733D01*
X004637Y011784D01*
X004635Y011835D01*
X004635Y014135D01*
X004637Y014186D01*
X004642Y014237D01*
X004652Y014287D01*
X004665Y014337D01*
X004681Y014385D01*
X004701Y014432D01*
X004725Y014478D01*
X004751Y014521D01*
X004781Y014563D01*
X004814Y014602D01*
X004849Y014639D01*
X004887Y014673D01*
X004928Y014704D01*
X004970Y014733D01*
X005015Y014758D01*
X005061Y014779D01*
X005109Y014798D01*
X005158Y014812D01*
X005208Y014823D01*
X005258Y014831D01*
X005309Y014835D01*
X005361Y014835D01*
X005412Y014831D01*
X005462Y014823D01*
X005512Y014812D01*
X005561Y014798D01*
X005609Y014779D01*
X005655Y014758D01*
X005700Y014733D01*
X005742Y014704D01*
X005783Y014673D01*
X005821Y014639D01*
X005856Y014602D01*
X005889Y014563D01*
X005919Y014521D01*
X005945Y014478D01*
X005969Y014432D01*
X005989Y014385D01*
X006005Y014337D01*
X006018Y014287D01*
X006028Y014237D01*
X006033Y014186D01*
X006035Y014135D01*
X005335Y013485D02*
X005335Y013235D01*
X005685Y013235D01*
X005685Y013085D02*
X005685Y012885D01*
X004985Y012885D01*
X004985Y013085D01*
X005685Y013085D01*
X005685Y012735D02*
X005335Y012735D01*
X005335Y012485D01*
X005335Y012735D02*
X004985Y012735D01*
X004985Y013235D02*
X005335Y013235D01*
X015567Y018949D02*
X015803Y018949D01*
X015803Y019422D02*
X015567Y019422D01*
X015567Y019949D02*
X015803Y019949D01*
X015803Y020422D02*
X015567Y020422D01*
X016635Y016585D02*
X016637Y016654D01*
X016643Y016723D01*
X016653Y016791D01*
X016667Y016859D01*
X016684Y016926D01*
X016706Y016992D01*
X016731Y017056D01*
X016760Y017119D01*
X016793Y017180D01*
X016829Y017239D01*
X016868Y017296D01*
X016911Y017350D01*
X016956Y017402D01*
X017005Y017452D01*
X017056Y017498D01*
X017110Y017541D01*
X017167Y017582D01*
X017225Y017618D01*
X017286Y017652D01*
X017348Y017682D01*
X017412Y017708D01*
X017477Y017730D01*
X017544Y017749D01*
X017612Y017764D01*
X017680Y017775D01*
X017749Y017782D01*
X017818Y017785D01*
X017887Y017784D01*
X017956Y017779D01*
X018024Y017770D01*
X018092Y017757D01*
X018159Y017740D01*
X018226Y017720D01*
X018290Y017695D01*
X018353Y017667D01*
X018415Y017636D01*
X018474Y017600D01*
X018532Y017562D01*
X018587Y017520D01*
X018640Y017475D01*
X018690Y017427D01*
X018737Y017377D01*
X018781Y017323D01*
X018822Y017268D01*
X018860Y017210D01*
X018894Y017150D01*
X018925Y017088D01*
X018952Y017024D01*
X018975Y016959D01*
X018995Y016893D01*
X019011Y016825D01*
X019023Y016757D01*
X019031Y016689D01*
X019035Y016620D01*
X019035Y016550D01*
X019031Y016481D01*
X019023Y016413D01*
X019011Y016345D01*
X018995Y016277D01*
X018975Y016211D01*
X018952Y016146D01*
X018925Y016082D01*
X018894Y016020D01*
X018860Y015960D01*
X018822Y015902D01*
X018781Y015847D01*
X018737Y015793D01*
X018690Y015743D01*
X018640Y015695D01*
X018587Y015650D01*
X018532Y015608D01*
X018474Y015570D01*
X018415Y015534D01*
X018353Y015503D01*
X018290Y015475D01*
X018226Y015450D01*
X018159Y015430D01*
X018092Y015413D01*
X018024Y015400D01*
X017956Y015391D01*
X017887Y015386D01*
X017818Y015385D01*
X017749Y015388D01*
X017680Y015395D01*
X017612Y015406D01*
X017544Y015421D01*
X017477Y015440D01*
X017412Y015462D01*
X017348Y015488D01*
X017286Y015518D01*
X017225Y015552D01*
X017167Y015588D01*
X017110Y015629D01*
X017056Y015672D01*
X017005Y015718D01*
X016956Y015768D01*
X016911Y015820D01*
X016868Y015874D01*
X016829Y015931D01*
X016793Y015990D01*
X016760Y016051D01*
X016731Y016114D01*
X016706Y016178D01*
X016684Y016244D01*
X016667Y016311D01*
X016653Y016379D01*
X016643Y016447D01*
X016637Y016516D01*
X016635Y016585D01*
X017335Y012885D02*
X017337Y012954D01*
X017343Y013023D01*
X017353Y013091D01*
X017367Y013159D01*
X017384Y013226D01*
X017406Y013292D01*
X017431Y013356D01*
X017460Y013419D01*
X017493Y013480D01*
X017529Y013539D01*
X017568Y013596D01*
X017611Y013650D01*
X017656Y013702D01*
X017705Y013752D01*
X017756Y013798D01*
X017810Y013841D01*
X017867Y013882D01*
X017925Y013918D01*
X017986Y013952D01*
X018048Y013982D01*
X018112Y014008D01*
X018177Y014030D01*
X018244Y014049D01*
X018312Y014064D01*
X018380Y014075D01*
X018449Y014082D01*
X018518Y014085D01*
X018587Y014084D01*
X018656Y014079D01*
X018724Y014070D01*
X018792Y014057D01*
X018859Y014040D01*
X018926Y014020D01*
X018990Y013995D01*
X019053Y013967D01*
X019115Y013936D01*
X019174Y013900D01*
X019232Y013862D01*
X019287Y013820D01*
X019340Y013775D01*
X019390Y013727D01*
X019437Y013677D01*
X019481Y013623D01*
X019522Y013568D01*
X019560Y013510D01*
X019594Y013450D01*
X019625Y013388D01*
X019652Y013324D01*
X019675Y013259D01*
X019695Y013193D01*
X019711Y013125D01*
X019723Y013057D01*
X019731Y012989D01*
X019735Y012920D01*
X019735Y012850D01*
X019731Y012781D01*
X019723Y012713D01*
X019711Y012645D01*
X019695Y012577D01*
X019675Y012511D01*
X019652Y012446D01*
X019625Y012382D01*
X019594Y012320D01*
X019560Y012260D01*
X019522Y012202D01*
X019481Y012147D01*
X019437Y012093D01*
X019390Y012043D01*
X019340Y011995D01*
X019287Y011950D01*
X019232Y011908D01*
X019174Y011870D01*
X019115Y011834D01*
X019053Y011803D01*
X018990Y011775D01*
X018926Y011750D01*
X018859Y011730D01*
X018792Y011713D01*
X018724Y011700D01*
X018656Y011691D01*
X018587Y011686D01*
X018518Y011685D01*
X018449Y011688D01*
X018380Y011695D01*
X018312Y011706D01*
X018244Y011721D01*
X018177Y011740D01*
X018112Y011762D01*
X018048Y011788D01*
X017986Y011818D01*
X017925Y011852D01*
X017867Y011888D01*
X017810Y011929D01*
X017756Y011972D01*
X017705Y012018D01*
X017656Y012068D01*
X017611Y012120D01*
X017568Y012174D01*
X017529Y012231D01*
X017493Y012290D01*
X017460Y012351D01*
X017431Y012414D01*
X017406Y012478D01*
X017384Y012544D01*
X017367Y012611D01*
X017353Y012679D01*
X017343Y012747D01*
X017337Y012816D01*
X017335Y012885D01*
X008803Y007422D02*
X008567Y007422D01*
X008567Y006949D02*
X008803Y006949D01*
X008803Y005922D02*
X008567Y005922D01*
X008567Y005449D02*
X008803Y005449D01*
X007303Y005422D02*
X007067Y005422D01*
X007067Y004949D02*
X007303Y004949D01*
D13*
X006235Y011835D02*
X006235Y014135D01*
X006233Y014194D01*
X006227Y014252D01*
X006218Y014311D01*
X006204Y014368D01*
X006187Y014424D01*
X006166Y014479D01*
X006142Y014533D01*
X006114Y014585D01*
X006083Y014635D01*
X006049Y014683D01*
X006012Y014728D01*
X005971Y014771D01*
X005928Y014812D01*
X005883Y014849D01*
X005835Y014883D01*
X005785Y014914D01*
X005733Y014942D01*
X005679Y014966D01*
X005624Y014987D01*
X005568Y015004D01*
X005511Y015018D01*
X005452Y015027D01*
X005394Y015033D01*
X005335Y015035D01*
X005276Y015033D01*
X005218Y015027D01*
X005159Y015018D01*
X005102Y015004D01*
X005046Y014987D01*
X004991Y014966D01*
X004937Y014942D01*
X004885Y014914D01*
X004835Y014883D01*
X004787Y014849D01*
X004742Y014812D01*
X004699Y014771D01*
X004658Y014728D01*
X004621Y014683D01*
X004587Y014635D01*
X004556Y014585D01*
X004528Y014533D01*
X004504Y014479D01*
X004483Y014424D01*
X004466Y014368D01*
X004452Y014311D01*
X004443Y014252D01*
X004437Y014194D01*
X004435Y014135D01*
X004435Y011835D01*
X004437Y011776D01*
X004443Y011718D01*
X004452Y011659D01*
X004466Y011602D01*
X004483Y011546D01*
X004504Y011491D01*
X004528Y011437D01*
X004556Y011385D01*
X004587Y011335D01*
X004621Y011287D01*
X004658Y011242D01*
X004699Y011199D01*
X004742Y011158D01*
X004787Y011121D01*
X004835Y011087D01*
X004885Y011056D01*
X004937Y011028D01*
X004991Y011004D01*
X005046Y010983D01*
X005102Y010966D01*
X005159Y010952D01*
X005218Y010943D01*
X005276Y010937D01*
X005335Y010935D01*
X005394Y010937D01*
X005452Y010943D01*
X005511Y010952D01*
X005568Y010966D01*
X005624Y010983D01*
X005679Y011004D01*
X005733Y011028D01*
X005785Y011056D01*
X005835Y011087D01*
X005883Y011121D01*
X005928Y011158D01*
X005971Y011199D01*
X006012Y011242D01*
X006049Y011287D01*
X006083Y011335D01*
X006114Y011385D01*
X006142Y011437D01*
X006166Y011491D01*
X006187Y011546D01*
X006204Y011602D01*
X006218Y011659D01*
X006227Y011718D01*
X006233Y011776D01*
X006235Y011835D01*
D14*
X003897Y011935D02*
X003873Y011935D01*
X003873Y013985D02*
X003897Y013985D01*
X009735Y010497D02*
X009735Y010473D01*
D15*
X019185Y009185D03*
X019535Y012885D03*
X018835Y016585D03*
D16*
X013717Y016465D02*
X013645Y016411D01*
X013646Y016412D02*
X013603Y016465D01*
X013558Y016516D01*
X013509Y016564D01*
X013458Y016609D01*
X013404Y016652D01*
X013348Y016691D01*
X013290Y016727D01*
X013230Y016760D01*
X013169Y016789D01*
X013105Y016814D01*
X013041Y016836D01*
X012975Y016855D01*
X012908Y016869D01*
X012841Y016880D01*
X012773Y016887D01*
X012705Y016890D01*
X012636Y016889D01*
X012568Y016884D01*
X012500Y016876D01*
X012433Y016863D01*
X012367Y016847D01*
X012302Y016827D01*
X012237Y016804D01*
X012175Y016777D01*
X012114Y016746D01*
X012055Y016712D01*
X011997Y016675D01*
X011942Y016634D01*
X011890Y016590D01*
X011840Y016544D01*
X011793Y016495D01*
X011748Y016443D01*
X011707Y016389D01*
X011668Y016332D01*
X011633Y016273D01*
X011602Y016213D01*
X011574Y016151D01*
X011549Y016087D01*
X011528Y016022D01*
X011511Y015956D01*
X011497Y015889D01*
X011488Y015821D01*
X011482Y015753D01*
X011480Y015685D01*
X011482Y015617D01*
X011488Y015549D01*
X011497Y015481D01*
X011511Y015414D01*
X011528Y015348D01*
X011549Y015283D01*
X011574Y015219D01*
X011602Y015157D01*
X011633Y015097D01*
X011668Y015038D01*
X011707Y014981D01*
X011748Y014927D01*
X011793Y014875D01*
X011840Y014826D01*
X011890Y014780D01*
X011942Y014736D01*
X011997Y014695D01*
X012055Y014658D01*
X012114Y014624D01*
X012175Y014593D01*
X012237Y014566D01*
X012302Y014543D01*
X012367Y014523D01*
X012433Y014507D01*
X012500Y014494D01*
X012568Y014486D01*
X012636Y014481D01*
X012705Y014480D01*
X012773Y014483D01*
X012841Y014490D01*
X012908Y014501D01*
X012975Y014515D01*
X013041Y014534D01*
X013105Y014556D01*
X013169Y014581D01*
X013230Y014610D01*
X013290Y014643D01*
X013348Y014679D01*
X013404Y014718D01*
X013458Y014761D01*
X013509Y014806D01*
X013558Y014854D01*
X013603Y014905D01*
X013646Y014958D01*
X013717Y014905D01*
X013718Y014904D01*
X013674Y014849D01*
X013626Y014796D01*
X013576Y014745D01*
X013523Y014698D01*
X013468Y014654D01*
X013410Y014612D01*
X013350Y014574D01*
X013289Y014539D01*
X013225Y014508D01*
X013160Y014480D01*
X013093Y014456D01*
X013025Y014435D01*
X012956Y014419D01*
X012886Y014406D01*
X012816Y014397D01*
X012745Y014391D01*
X012674Y014390D01*
X012603Y014393D01*
X012532Y014399D01*
X012462Y014409D01*
X012393Y014423D01*
X012324Y014441D01*
X012256Y014463D01*
X012190Y014488D01*
X012125Y014517D01*
X012062Y014550D01*
X012001Y014586D01*
X011942Y014625D01*
X011885Y014667D01*
X011830Y014712D01*
X011778Y014761D01*
X011729Y014812D01*
X011682Y014865D01*
X011639Y014922D01*
X011599Y014980D01*
X011562Y015041D01*
X011528Y015103D01*
X011498Y015167D01*
X011471Y015233D01*
X011448Y015300D01*
X011429Y015369D01*
X011414Y015438D01*
X011402Y015508D01*
X011394Y015579D01*
X011390Y015650D01*
X011390Y015720D01*
X011394Y015791D01*
X011402Y015862D01*
X011414Y015932D01*
X011429Y016001D01*
X011448Y016070D01*
X011471Y016137D01*
X011498Y016203D01*
X011528Y016267D01*
X011562Y016329D01*
X011599Y016390D01*
X011639Y016448D01*
X011682Y016505D01*
X011729Y016558D01*
X011778Y016609D01*
X011830Y016658D01*
X011885Y016703D01*
X011942Y016745D01*
X012001Y016784D01*
X012062Y016820D01*
X012125Y016853D01*
X012190Y016882D01*
X012256Y016907D01*
X012324Y016929D01*
X012393Y016947D01*
X012462Y016961D01*
X012532Y016971D01*
X012603Y016977D01*
X012674Y016980D01*
X012745Y016979D01*
X012816Y016973D01*
X012886Y016964D01*
X012956Y016951D01*
X013025Y016935D01*
X013093Y016914D01*
X013160Y016890D01*
X013225Y016862D01*
X013289Y016831D01*
X013350Y016796D01*
X013410Y016758D01*
X013468Y016716D01*
X013523Y016672D01*
X013576Y016625D01*
X013626Y016574D01*
X013674Y016521D01*
X013718Y016466D01*
X013711Y016461D01*
X013666Y016516D01*
X013619Y016569D01*
X013568Y016620D01*
X013515Y016667D01*
X013459Y016712D01*
X013401Y016753D01*
X013341Y016791D01*
X013279Y016826D01*
X013215Y016857D01*
X013149Y016884D01*
X013082Y016908D01*
X013013Y016928D01*
X012944Y016945D01*
X012874Y016957D01*
X012803Y016966D01*
X012732Y016970D01*
X012661Y016971D01*
X012590Y016967D01*
X012519Y016960D01*
X012448Y016949D01*
X012379Y016934D01*
X012310Y016915D01*
X012242Y016892D01*
X012176Y016866D01*
X012111Y016836D01*
X012049Y016802D01*
X011988Y016766D01*
X011929Y016725D01*
X011872Y016682D01*
X011818Y016635D01*
X011767Y016586D01*
X011719Y016533D01*
X011673Y016479D01*
X011631Y016421D01*
X011592Y016362D01*
X011556Y016300D01*
X011523Y016237D01*
X011495Y016172D01*
X011469Y016105D01*
X011448Y016037D01*
X011430Y015968D01*
X011417Y015898D01*
X011407Y015827D01*
X011401Y015756D01*
X011399Y015685D01*
X011401Y015614D01*
X011407Y015543D01*
X011417Y015472D01*
X011430Y015402D01*
X011448Y015333D01*
X011469Y015265D01*
X011495Y015198D01*
X011523Y015133D01*
X011556Y015070D01*
X011592Y015008D01*
X011631Y014949D01*
X011673Y014891D01*
X011719Y014837D01*
X011767Y014784D01*
X011818Y014735D01*
X011872Y014688D01*
X011929Y014645D01*
X011988Y014604D01*
X012049Y014568D01*
X012111Y014534D01*
X012176Y014504D01*
X012242Y014478D01*
X012310Y014455D01*
X012379Y014436D01*
X012448Y014421D01*
X012519Y014410D01*
X012590Y014403D01*
X012661Y014399D01*
X012732Y014400D01*
X012803Y014404D01*
X012874Y014413D01*
X012944Y014425D01*
X013013Y014442D01*
X013082Y014462D01*
X013149Y014486D01*
X013215Y014513D01*
X013279Y014544D01*
X013341Y014579D01*
X013401Y014617D01*
X013459Y014658D01*
X013515Y014703D01*
X013568Y014750D01*
X013619Y014801D01*
X013666Y014854D01*
X013711Y014909D01*
X013704Y014915D01*
X013659Y014860D01*
X013612Y014807D01*
X013562Y014757D01*
X013509Y014710D01*
X013454Y014666D01*
X013396Y014624D01*
X013337Y014587D01*
X013275Y014552D01*
X013211Y014521D01*
X013146Y014494D01*
X013079Y014470D01*
X013011Y014450D01*
X012942Y014434D01*
X012873Y014422D01*
X012802Y014413D01*
X012732Y014409D01*
X012661Y014408D01*
X012590Y014412D01*
X012520Y014419D01*
X012450Y014430D01*
X012381Y014445D01*
X012313Y014464D01*
X012245Y014486D01*
X012180Y014512D01*
X012115Y014542D01*
X012053Y014575D01*
X011993Y014612D01*
X011934Y014652D01*
X011878Y014695D01*
X011824Y014741D01*
X011774Y014791D01*
X011725Y014842D01*
X011680Y014897D01*
X011638Y014954D01*
X011599Y015013D01*
X011564Y015074D01*
X011531Y015137D01*
X011503Y015202D01*
X011478Y015268D01*
X011457Y015336D01*
X011439Y015404D01*
X011426Y015474D01*
X011416Y015544D01*
X011410Y015614D01*
X011408Y015685D01*
X011410Y015756D01*
X011416Y015826D01*
X011426Y015896D01*
X011439Y015966D01*
X011457Y016034D01*
X011478Y016102D01*
X011503Y016168D01*
X011531Y016233D01*
X011564Y016296D01*
X011599Y016357D01*
X011638Y016416D01*
X011680Y016473D01*
X011725Y016528D01*
X011774Y016579D01*
X011824Y016629D01*
X011878Y016675D01*
X011934Y016718D01*
X011993Y016758D01*
X012053Y016795D01*
X012115Y016828D01*
X012180Y016858D01*
X012245Y016884D01*
X012313Y016906D01*
X012381Y016925D01*
X012450Y016940D01*
X012520Y016951D01*
X012590Y016958D01*
X012661Y016962D01*
X012732Y016961D01*
X012802Y016957D01*
X012873Y016948D01*
X012942Y016936D01*
X013011Y016920D01*
X013079Y016900D01*
X013146Y016876D01*
X013211Y016849D01*
X013275Y016818D01*
X013337Y016783D01*
X013396Y016746D01*
X013454Y016704D01*
X013509Y016660D01*
X013562Y016613D01*
X013612Y016563D01*
X013659Y016510D01*
X013704Y016455D01*
X013696Y016450D01*
X013652Y016505D01*
X013604Y016558D01*
X013554Y016608D01*
X013501Y016656D01*
X013445Y016700D01*
X013387Y016741D01*
X013327Y016778D01*
X013265Y016813D01*
X013201Y016843D01*
X013135Y016870D01*
X013068Y016894D01*
X013000Y016913D01*
X012930Y016929D01*
X012860Y016941D01*
X012790Y016949D01*
X012719Y016953D01*
X012648Y016952D01*
X012577Y016948D01*
X012506Y016940D01*
X012436Y016928D01*
X012367Y016912D01*
X012299Y016893D01*
X012231Y016869D01*
X012166Y016842D01*
X012102Y016811D01*
X012040Y016777D01*
X011980Y016739D01*
X011922Y016697D01*
X011866Y016653D01*
X011813Y016606D01*
X011763Y016555D01*
X011716Y016502D01*
X011671Y016447D01*
X011630Y016389D01*
X011593Y016329D01*
X011558Y016266D01*
X011527Y016202D01*
X011500Y016137D01*
X011477Y016070D01*
X011457Y016001D01*
X011441Y015932D01*
X011429Y015862D01*
X011421Y015791D01*
X011417Y015721D01*
X011417Y015649D01*
X011421Y015579D01*
X011429Y015508D01*
X011441Y015438D01*
X011457Y015369D01*
X011477Y015300D01*
X011500Y015233D01*
X011527Y015168D01*
X011558Y015104D01*
X011593Y015041D01*
X011630Y014981D01*
X011671Y014923D01*
X011716Y014868D01*
X011763Y014815D01*
X011813Y014764D01*
X011866Y014717D01*
X011922Y014673D01*
X011980Y014631D01*
X012040Y014593D01*
X012102Y014559D01*
X012166Y014528D01*
X012231Y014501D01*
X012299Y014477D01*
X012367Y014458D01*
X012436Y014442D01*
X012506Y014430D01*
X012577Y014422D01*
X012648Y014418D01*
X012719Y014417D01*
X012790Y014421D01*
X012860Y014429D01*
X012930Y014441D01*
X013000Y014457D01*
X013068Y014476D01*
X013135Y014500D01*
X013201Y014527D01*
X013265Y014557D01*
X013327Y014592D01*
X013387Y014629D01*
X013445Y014670D01*
X013501Y014714D01*
X013554Y014762D01*
X013604Y014812D01*
X013652Y014865D01*
X013696Y014920D01*
X013689Y014926D01*
X013645Y014871D01*
X013598Y014818D01*
X013548Y014768D01*
X013495Y014721D01*
X013440Y014677D01*
X013382Y014637D01*
X013323Y014599D01*
X013261Y014565D01*
X013197Y014535D01*
X013132Y014508D01*
X013065Y014485D01*
X012997Y014465D01*
X012929Y014450D01*
X012859Y014438D01*
X012789Y014430D01*
X012718Y014426D01*
X012648Y014427D01*
X012577Y014431D01*
X012507Y014439D01*
X012438Y014451D01*
X012369Y014466D01*
X012301Y014486D01*
X012235Y014509D01*
X012170Y014536D01*
X012106Y014567D01*
X012044Y014601D01*
X011985Y014639D01*
X011927Y014680D01*
X011872Y014724D01*
X011819Y014771D01*
X011770Y014821D01*
X011723Y014873D01*
X011679Y014929D01*
X011638Y014986D01*
X011600Y015046D01*
X011566Y015108D01*
X011536Y015171D01*
X011509Y015236D01*
X011485Y015303D01*
X011466Y015371D01*
X011450Y015440D01*
X011438Y015509D01*
X011430Y015579D01*
X011426Y015650D01*
X011426Y015720D01*
X011430Y015791D01*
X011438Y015861D01*
X011450Y015930D01*
X011466Y015999D01*
X011485Y016067D01*
X011509Y016134D01*
X011536Y016199D01*
X011566Y016262D01*
X011600Y016324D01*
X011638Y016384D01*
X011679Y016441D01*
X011723Y016497D01*
X011770Y016549D01*
X011819Y016599D01*
X011872Y016646D01*
X011927Y016690D01*
X011985Y016731D01*
X012044Y016769D01*
X012106Y016803D01*
X012170Y016834D01*
X012235Y016861D01*
X012301Y016884D01*
X012369Y016904D01*
X012438Y016919D01*
X012507Y016931D01*
X012577Y016939D01*
X012648Y016943D01*
X012718Y016944D01*
X012789Y016940D01*
X012859Y016932D01*
X012929Y016920D01*
X012997Y016905D01*
X013065Y016885D01*
X013132Y016862D01*
X013197Y016835D01*
X013261Y016805D01*
X013323Y016771D01*
X013382Y016733D01*
X013440Y016693D01*
X013495Y016649D01*
X013548Y016602D01*
X013598Y016552D01*
X013645Y016499D01*
X013689Y016444D01*
X013682Y016439D01*
X013638Y016494D01*
X013591Y016546D01*
X013542Y016595D01*
X013489Y016642D01*
X013435Y016685D01*
X013377Y016726D01*
X013318Y016763D01*
X013257Y016797D01*
X013193Y016827D01*
X013129Y016854D01*
X013062Y016877D01*
X012995Y016896D01*
X012927Y016911D01*
X012858Y016923D01*
X012788Y016931D01*
X012718Y016935D01*
X012648Y016934D01*
X012578Y016930D01*
X012509Y016922D01*
X012440Y016911D01*
X012371Y016895D01*
X012304Y016876D01*
X012238Y016852D01*
X012173Y016825D01*
X012110Y016795D01*
X012049Y016761D01*
X011990Y016724D01*
X011932Y016683D01*
X011878Y016639D01*
X011826Y016593D01*
X011776Y016543D01*
X011729Y016491D01*
X011686Y016436D01*
X011645Y016379D01*
X011608Y016320D01*
X011574Y016258D01*
X011544Y016195D01*
X011517Y016130D01*
X011494Y016064D01*
X011475Y015997D01*
X011459Y015929D01*
X011447Y015860D01*
X011439Y015790D01*
X011435Y015720D01*
X011435Y015650D01*
X011439Y015580D01*
X011447Y015510D01*
X011459Y015441D01*
X011475Y015373D01*
X011494Y015306D01*
X011517Y015240D01*
X011544Y015175D01*
X011574Y015112D01*
X011608Y015050D01*
X011645Y014991D01*
X011686Y014934D01*
X011729Y014879D01*
X011776Y014827D01*
X011826Y014777D01*
X011878Y014731D01*
X011932Y014687D01*
X011990Y014646D01*
X012049Y014609D01*
X012110Y014575D01*
X012173Y014545D01*
X012238Y014518D01*
X012304Y014494D01*
X012371Y014475D01*
X012440Y014459D01*
X012509Y014448D01*
X012578Y014440D01*
X012648Y014436D01*
X012718Y014435D01*
X012788Y014439D01*
X012858Y014447D01*
X012927Y014459D01*
X012995Y014474D01*
X013062Y014493D01*
X013129Y014516D01*
X013193Y014543D01*
X013257Y014573D01*
X013318Y014607D01*
X013377Y014644D01*
X013435Y014685D01*
X013489Y014728D01*
X013542Y014775D01*
X013591Y014824D01*
X013638Y014876D01*
X013682Y014931D01*
X013675Y014936D01*
X013631Y014882D01*
X013585Y014830D01*
X013536Y014781D01*
X013484Y014735D01*
X013429Y014692D01*
X013372Y014652D01*
X013313Y014615D01*
X013252Y014581D01*
X013190Y014551D01*
X013125Y014525D01*
X013060Y014502D01*
X012993Y014483D01*
X012925Y014467D01*
X012856Y014456D01*
X012787Y014448D01*
X012718Y014444D01*
X012648Y014445D01*
X012579Y014449D01*
X012510Y014456D01*
X012441Y014468D01*
X012374Y014484D01*
X012307Y014503D01*
X012241Y014526D01*
X012177Y014553D01*
X012114Y014583D01*
X012053Y014617D01*
X011995Y014654D01*
X011938Y014694D01*
X011884Y014737D01*
X011832Y014784D01*
X011783Y014833D01*
X011736Y014885D01*
X011693Y014939D01*
X011653Y014996D01*
X011616Y015055D01*
X011582Y015116D01*
X011552Y015179D01*
X011525Y015243D01*
X011502Y015308D01*
X011483Y015375D01*
X011468Y015443D01*
X011456Y015512D01*
X011448Y015581D01*
X011444Y015650D01*
X011444Y015720D01*
X011448Y015789D01*
X011456Y015858D01*
X011468Y015927D01*
X011483Y015995D01*
X011502Y016062D01*
X011525Y016127D01*
X011552Y016191D01*
X011582Y016254D01*
X011616Y016315D01*
X011653Y016374D01*
X011693Y016431D01*
X011736Y016485D01*
X011783Y016537D01*
X011832Y016586D01*
X011884Y016633D01*
X011938Y016676D01*
X011995Y016716D01*
X012053Y016753D01*
X012114Y016787D01*
X012177Y016817D01*
X012241Y016844D01*
X012307Y016867D01*
X012374Y016886D01*
X012441Y016902D01*
X012510Y016914D01*
X012579Y016921D01*
X012648Y016925D01*
X012718Y016926D01*
X012787Y016922D01*
X012856Y016914D01*
X012925Y016903D01*
X012993Y016887D01*
X013060Y016868D01*
X013125Y016845D01*
X013190Y016819D01*
X013252Y016789D01*
X013313Y016755D01*
X013372Y016718D01*
X013429Y016678D01*
X013484Y016635D01*
X013536Y016589D01*
X013585Y016540D01*
X013631Y016488D01*
X013675Y016434D01*
X013668Y016428D01*
X013624Y016482D01*
X013578Y016533D01*
X013529Y016582D01*
X013478Y016628D01*
X013424Y016671D01*
X013367Y016711D01*
X013309Y016747D01*
X013248Y016781D01*
X013186Y016811D01*
X013122Y016837D01*
X013057Y016859D01*
X012991Y016878D01*
X012923Y016894D01*
X012855Y016905D01*
X012787Y016913D01*
X012718Y016917D01*
X012649Y016916D01*
X012580Y016912D01*
X012511Y016905D01*
X012443Y016893D01*
X012376Y016878D01*
X012309Y016858D01*
X012244Y016835D01*
X012181Y016809D01*
X012118Y016779D01*
X012058Y016746D01*
X012000Y016709D01*
X011943Y016669D01*
X011889Y016626D01*
X011838Y016580D01*
X011789Y016531D01*
X011743Y016479D01*
X011700Y016425D01*
X011660Y016369D01*
X011624Y016310D01*
X011590Y016250D01*
X011560Y016188D01*
X011534Y016124D01*
X011511Y016059D01*
X011492Y015992D01*
X011477Y015925D01*
X011465Y015857D01*
X011457Y015788D01*
X011453Y015720D01*
X011453Y015650D01*
X011457Y015582D01*
X011465Y015513D01*
X011477Y015445D01*
X011492Y015378D01*
X011511Y015311D01*
X011534Y015246D01*
X011560Y015182D01*
X011590Y015120D01*
X011624Y015060D01*
X011660Y015001D01*
X011700Y014945D01*
X011743Y014891D01*
X011789Y014839D01*
X011838Y014790D01*
X011889Y014744D01*
X011943Y014701D01*
X012000Y014661D01*
X012058Y014624D01*
X012118Y014591D01*
X012181Y014561D01*
X012244Y014535D01*
X012309Y014512D01*
X012376Y014492D01*
X012443Y014477D01*
X012511Y014465D01*
X012580Y014458D01*
X012649Y014454D01*
X012718Y014453D01*
X012787Y014457D01*
X012855Y014465D01*
X012923Y014476D01*
X012991Y014492D01*
X013057Y014511D01*
X013122Y014533D01*
X013186Y014559D01*
X013248Y014589D01*
X013309Y014623D01*
X013367Y014659D01*
X013424Y014699D01*
X013478Y014742D01*
X013529Y014788D01*
X013578Y014837D01*
X013624Y014888D01*
X013668Y014942D01*
X013660Y014947D01*
X013617Y014893D01*
X013571Y014842D01*
X013521Y014793D01*
X013470Y014747D01*
X013415Y014704D01*
X013358Y014664D01*
X013300Y014628D01*
X013239Y014594D01*
X013176Y014565D01*
X013112Y014539D01*
X013046Y014517D01*
X012979Y014498D01*
X012912Y014483D01*
X012843Y014472D01*
X012774Y014465D01*
X012705Y014462D01*
X012636Y014463D01*
X012566Y014468D01*
X012498Y014476D01*
X012430Y014489D01*
X012362Y014505D01*
X012296Y014526D01*
X012231Y014549D01*
X012167Y014577D01*
X012105Y014608D01*
X012045Y014643D01*
X011987Y014681D01*
X011931Y014722D01*
X011878Y014766D01*
X011827Y014813D01*
X011779Y014863D01*
X011734Y014916D01*
X011692Y014971D01*
X011653Y015028D01*
X011618Y015088D01*
X011586Y015149D01*
X011557Y015212D01*
X011532Y015277D01*
X011511Y015343D01*
X011493Y015410D01*
X011480Y015478D01*
X011470Y015547D01*
X011464Y015616D01*
X011462Y015685D01*
X011464Y015754D01*
X011470Y015823D01*
X011480Y015892D01*
X011493Y015960D01*
X011511Y016027D01*
X011532Y016093D01*
X011557Y016158D01*
X011586Y016221D01*
X011618Y016282D01*
X011653Y016342D01*
X011692Y016399D01*
X011734Y016454D01*
X011779Y016507D01*
X011827Y016557D01*
X011878Y016604D01*
X011931Y016648D01*
X011987Y016689D01*
X012045Y016727D01*
X012105Y016762D01*
X012167Y016793D01*
X012231Y016821D01*
X012296Y016844D01*
X012362Y016865D01*
X012430Y016881D01*
X012498Y016894D01*
X012566Y016902D01*
X012636Y016907D01*
X012705Y016908D01*
X012774Y016905D01*
X012843Y016898D01*
X012912Y016887D01*
X012979Y016872D01*
X013046Y016853D01*
X013112Y016831D01*
X013176Y016805D01*
X013239Y016776D01*
X013300Y016742D01*
X013358Y016706D01*
X013415Y016666D01*
X013470Y016623D01*
X013521Y016577D01*
X013571Y016528D01*
X013617Y016477D01*
X013660Y016423D01*
X013653Y016417D01*
X013610Y016471D01*
X013564Y016522D01*
X013515Y016571D01*
X013464Y016616D01*
X013410Y016659D01*
X013353Y016698D01*
X013295Y016735D01*
X013235Y016768D01*
X013172Y016797D01*
X013109Y016823D01*
X013043Y016845D01*
X012977Y016863D01*
X012910Y016878D01*
X012842Y016889D01*
X012773Y016896D01*
X012705Y016899D01*
X012636Y016898D01*
X012567Y016893D01*
X012499Y016885D01*
X012431Y016872D01*
X012365Y016856D01*
X012299Y016836D01*
X012234Y016812D01*
X012171Y016785D01*
X012110Y016754D01*
X012050Y016720D01*
X011992Y016682D01*
X011937Y016641D01*
X011884Y016597D01*
X011834Y016550D01*
X011786Y016501D01*
X011741Y016449D01*
X011699Y016394D01*
X011661Y016337D01*
X011626Y016278D01*
X011594Y016217D01*
X011565Y016154D01*
X011541Y016090D01*
X011519Y016024D01*
X011502Y015958D01*
X011489Y015890D01*
X011479Y015822D01*
X011473Y015754D01*
X011471Y015685D01*
X011473Y015616D01*
X011479Y015548D01*
X011489Y015480D01*
X011502Y015412D01*
X011519Y015346D01*
X011541Y015280D01*
X011565Y015216D01*
X011594Y015153D01*
X011626Y015092D01*
X011661Y015033D01*
X011699Y014976D01*
X011741Y014921D01*
X011786Y014869D01*
X011834Y014820D01*
X011884Y014773D01*
X011937Y014729D01*
X011992Y014688D01*
X012050Y014650D01*
X012110Y014616D01*
X012171Y014585D01*
X012234Y014558D01*
X012299Y014534D01*
X012365Y014514D01*
X012431Y014498D01*
X012499Y014485D01*
X012567Y014477D01*
X012636Y014472D01*
X012705Y014471D01*
X012773Y014474D01*
X012842Y014481D01*
X012910Y014492D01*
X012977Y014507D01*
X013043Y014525D01*
X013109Y014547D01*
X013172Y014573D01*
X013235Y014602D01*
X013295Y014635D01*
X013353Y014672D01*
X013410Y014711D01*
X013464Y014754D01*
X013515Y014799D01*
X013564Y014848D01*
X013610Y014899D01*
X013653Y014953D01*
X013717Y013465D02*
X013645Y013411D01*
X013646Y013412D02*
X013603Y013465D01*
X013558Y013516D01*
X013509Y013564D01*
X013458Y013609D01*
X013404Y013652D01*
X013348Y013691D01*
X013290Y013727D01*
X013230Y013760D01*
X013169Y013789D01*
X013105Y013814D01*
X013041Y013836D01*
X012975Y013855D01*
X012908Y013869D01*
X012841Y013880D01*
X012773Y013887D01*
X012705Y013890D01*
X012636Y013889D01*
X012568Y013884D01*
X012500Y013876D01*
X012433Y013863D01*
X012367Y013847D01*
X012302Y013827D01*
X012237Y013804D01*
X012175Y013777D01*
X012114Y013746D01*
X012055Y013712D01*
X011997Y013675D01*
X011942Y013634D01*
X011890Y013590D01*
X011840Y013544D01*
X011793Y013495D01*
X011748Y013443D01*
X011707Y013389D01*
X011668Y013332D01*
X011633Y013273D01*
X011602Y013213D01*
X011574Y013151D01*
X011549Y013087D01*
X011528Y013022D01*
X011511Y012956D01*
X011497Y012889D01*
X011488Y012821D01*
X011482Y012753D01*
X011480Y012685D01*
X011482Y012617D01*
X011488Y012549D01*
X011497Y012481D01*
X011511Y012414D01*
X011528Y012348D01*
X011549Y012283D01*
X011574Y012219D01*
X011602Y012157D01*
X011633Y012097D01*
X011668Y012038D01*
X011707Y011981D01*
X011748Y011927D01*
X011793Y011875D01*
X011840Y011826D01*
X011890Y011780D01*
X011942Y011736D01*
X011997Y011695D01*
X012055Y011658D01*
X012114Y011624D01*
X012175Y011593D01*
X012237Y011566D01*
X012302Y011543D01*
X012367Y011523D01*
X012433Y011507D01*
X012500Y011494D01*
X012568Y011486D01*
X012636Y011481D01*
X012705Y011480D01*
X012773Y011483D01*
X012841Y011490D01*
X012908Y011501D01*
X012975Y011515D01*
X013041Y011534D01*
X013105Y011556D01*
X013169Y011581D01*
X013230Y011610D01*
X013290Y011643D01*
X013348Y011679D01*
X013404Y011718D01*
X013458Y011761D01*
X013509Y011806D01*
X013558Y011854D01*
X013603Y011905D01*
X013646Y011958D01*
X013717Y011905D01*
X013718Y011904D01*
X013674Y011849D01*
X013626Y011796D01*
X013576Y011745D01*
X013523Y011698D01*
X013468Y011654D01*
X013410Y011612D01*
X013350Y011574D01*
X013289Y011539D01*
X013225Y011508D01*
X013160Y011480D01*
X013093Y011456D01*
X013025Y011435D01*
X012956Y011419D01*
X012886Y011406D01*
X012816Y011397D01*
X012745Y011391D01*
X012674Y011390D01*
X012603Y011393D01*
X012532Y011399D01*
X012462Y011409D01*
X012393Y011423D01*
X012324Y011441D01*
X012256Y011463D01*
X012190Y011488D01*
X012125Y011517D01*
X012062Y011550D01*
X012001Y011586D01*
X011942Y011625D01*
X011885Y011667D01*
X011830Y011712D01*
X011778Y011761D01*
X011729Y011812D01*
X011682Y011865D01*
X011639Y011922D01*
X011599Y011980D01*
X011562Y012041D01*
X011528Y012103D01*
X011498Y012167D01*
X011471Y012233D01*
X011448Y012300D01*
X011429Y012369D01*
X011414Y012438D01*
X011402Y012508D01*
X011394Y012579D01*
X011390Y012650D01*
X011390Y012720D01*
X011394Y012791D01*
X011402Y012862D01*
X011414Y012932D01*
X011429Y013001D01*
X011448Y013070D01*
X011471Y013137D01*
X011498Y013203D01*
X011528Y013267D01*
X011562Y013329D01*
X011599Y013390D01*
X011639Y013448D01*
X011682Y013505D01*
X011729Y013558D01*
X011778Y013609D01*
X011830Y013658D01*
X011885Y013703D01*
X011942Y013745D01*
X012001Y013784D01*
X012062Y013820D01*
X012125Y013853D01*
X012190Y013882D01*
X012256Y013907D01*
X012324Y013929D01*
X012393Y013947D01*
X012462Y013961D01*
X012532Y013971D01*
X012603Y013977D01*
X012674Y013980D01*
X012745Y013979D01*
X012816Y013973D01*
X012886Y013964D01*
X012956Y013951D01*
X013025Y013935D01*
X013093Y013914D01*
X013160Y013890D01*
X013225Y013862D01*
X013289Y013831D01*
X013350Y013796D01*
X013410Y013758D01*
X013468Y013716D01*
X013523Y013672D01*
X013576Y013625D01*
X013626Y013574D01*
X013674Y013521D01*
X013718Y013466D01*
X013711Y013461D01*
X013666Y013516D01*
X013619Y013569D01*
X013568Y013620D01*
X013515Y013667D01*
X013459Y013712D01*
X013401Y013753D01*
X013341Y013791D01*
X013279Y013826D01*
X013215Y013857D01*
X013149Y013884D01*
X013082Y013908D01*
X013013Y013928D01*
X012944Y013945D01*
X012874Y013957D01*
X012803Y013966D01*
X012732Y013970D01*
X012661Y013971D01*
X012590Y013967D01*
X012519Y013960D01*
X012448Y013949D01*
X012379Y013934D01*
X012310Y013915D01*
X012242Y013892D01*
X012176Y013866D01*
X012111Y013836D01*
X012049Y013802D01*
X011988Y013766D01*
X011929Y013725D01*
X011872Y013682D01*
X011818Y013635D01*
X011767Y013586D01*
X011719Y013533D01*
X011673Y013479D01*
X011631Y013421D01*
X011592Y013362D01*
X011556Y013300D01*
X011523Y013237D01*
X011495Y013172D01*
X011469Y013105D01*
X011448Y013037D01*
X011430Y012968D01*
X011417Y012898D01*
X011407Y012827D01*
X011401Y012756D01*
X011399Y012685D01*
X011401Y012614D01*
X011407Y012543D01*
X011417Y012472D01*
X011430Y012402D01*
X011448Y012333D01*
X011469Y012265D01*
X011495Y012198D01*
X011523Y012133D01*
X011556Y012070D01*
X011592Y012008D01*
X011631Y011949D01*
X011673Y011891D01*
X011719Y011837D01*
X011767Y011784D01*
X011818Y011735D01*
X011872Y011688D01*
X011929Y011645D01*
X011988Y011604D01*
X012049Y011568D01*
X012111Y011534D01*
X012176Y011504D01*
X012242Y011478D01*
X012310Y011455D01*
X012379Y011436D01*
X012448Y011421D01*
X012519Y011410D01*
X012590Y011403D01*
X012661Y011399D01*
X012732Y011400D01*
X012803Y011404D01*
X012874Y011413D01*
X012944Y011425D01*
X013013Y011442D01*
X013082Y011462D01*
X013149Y011486D01*
X013215Y011513D01*
X013279Y011544D01*
X013341Y011579D01*
X013401Y011617D01*
X013459Y011658D01*
X013515Y011703D01*
X013568Y011750D01*
X013619Y011801D01*
X013666Y011854D01*
X013711Y011909D01*
X013704Y011915D01*
X013659Y011860D01*
X013612Y011807D01*
X013562Y011757D01*
X013509Y011710D01*
X013454Y011666D01*
X013396Y011624D01*
X013337Y011587D01*
X013275Y011552D01*
X013211Y011521D01*
X013146Y011494D01*
X013079Y011470D01*
X013011Y011450D01*
X012942Y011434D01*
X012873Y011422D01*
X012802Y011413D01*
X012732Y011409D01*
X012661Y011408D01*
X012590Y011412D01*
X012520Y011419D01*
X012450Y011430D01*
X012381Y011445D01*
X012313Y011464D01*
X012245Y011486D01*
X012180Y011512D01*
X012115Y011542D01*
X012053Y011575D01*
X011993Y011612D01*
X011934Y011652D01*
X011878Y011695D01*
X011824Y011741D01*
X011774Y011791D01*
X011725Y011842D01*
X011680Y011897D01*
X011638Y011954D01*
X011599Y012013D01*
X011564Y012074D01*
X011531Y012137D01*
X011503Y012202D01*
X011478Y012268D01*
X011457Y012336D01*
X011439Y012404D01*
X011426Y012474D01*
X011416Y012544D01*
X011410Y012614D01*
X011408Y012685D01*
X011410Y012756D01*
X011416Y012826D01*
X011426Y012896D01*
X011439Y012966D01*
X011457Y013034D01*
X011478Y013102D01*
X011503Y013168D01*
X011531Y013233D01*
X011564Y013296D01*
X011599Y013357D01*
X011638Y013416D01*
X011680Y013473D01*
X011725Y013528D01*
X011774Y013579D01*
X011824Y013629D01*
X011878Y013675D01*
X011934Y013718D01*
X011993Y013758D01*
X012053Y013795D01*
X012115Y013828D01*
X012180Y013858D01*
X012245Y013884D01*
X012313Y013906D01*
X012381Y013925D01*
X012450Y013940D01*
X012520Y013951D01*
X012590Y013958D01*
X012661Y013962D01*
X012732Y013961D01*
X012802Y013957D01*
X012873Y013948D01*
X012942Y013936D01*
X013011Y013920D01*
X013079Y013900D01*
X013146Y013876D01*
X013211Y013849D01*
X013275Y013818D01*
X013337Y013783D01*
X013396Y013746D01*
X013454Y013704D01*
X013509Y013660D01*
X013562Y013613D01*
X013612Y013563D01*
X013659Y013510D01*
X013704Y013455D01*
X013696Y013450D01*
X013652Y013505D01*
X013604Y013558D01*
X013554Y013608D01*
X013501Y013656D01*
X013445Y013700D01*
X013387Y013741D01*
X013327Y013778D01*
X013265Y013813D01*
X013201Y013843D01*
X013135Y013870D01*
X013068Y013894D01*
X013000Y013913D01*
X012930Y013929D01*
X012860Y013941D01*
X012790Y013949D01*
X012719Y013953D01*
X012648Y013952D01*
X012577Y013948D01*
X012506Y013940D01*
X012436Y013928D01*
X012367Y013912D01*
X012299Y013893D01*
X012231Y013869D01*
X012166Y013842D01*
X012102Y013811D01*
X012040Y013777D01*
X011980Y013739D01*
X011922Y013697D01*
X011866Y013653D01*
X011813Y013606D01*
X011763Y013555D01*
X011716Y013502D01*
X011671Y013447D01*
X011630Y013389D01*
X011593Y013329D01*
X011558Y013266D01*
X011527Y013202D01*
X011500Y013137D01*
X011477Y013070D01*
X011457Y013001D01*
X011441Y012932D01*
X011429Y012862D01*
X011421Y012791D01*
X011417Y012721D01*
X011417Y012649D01*
X011421Y012579D01*
X011429Y012508D01*
X011441Y012438D01*
X011457Y012369D01*
X011477Y012300D01*
X011500Y012233D01*
X011527Y012168D01*
X011558Y012104D01*
X011593Y012041D01*
X011630Y011981D01*
X011671Y011923D01*
X011716Y011868D01*
X011763Y011815D01*
X011813Y011764D01*
X011866Y011717D01*
X011922Y011673D01*
X011980Y011631D01*
X012040Y011593D01*
X012102Y011559D01*
X012166Y011528D01*
X012231Y011501D01*
X012299Y011477D01*
X012367Y011458D01*
X012436Y011442D01*
X012506Y011430D01*
X012577Y011422D01*
X012648Y011418D01*
X012719Y011417D01*
X012790Y011421D01*
X012860Y011429D01*
X012930Y011441D01*
X013000Y011457D01*
X013068Y011476D01*
X013135Y011500D01*
X013201Y011527D01*
X013265Y011557D01*
X013327Y011592D01*
X013387Y011629D01*
X013445Y011670D01*
X013501Y011714D01*
X013554Y011762D01*
X013604Y011812D01*
X013652Y011865D01*
X013696Y011920D01*
X013689Y011926D01*
X013645Y011871D01*
X013598Y011818D01*
X013548Y011768D01*
X013495Y011721D01*
X013440Y011677D01*
X013382Y011637D01*
X013323Y011599D01*
X013261Y011565D01*
X013197Y011535D01*
X013132Y011508D01*
X013065Y011485D01*
X012997Y011465D01*
X012929Y011450D01*
X012859Y011438D01*
X012789Y011430D01*
X012718Y011426D01*
X012648Y011427D01*
X012577Y011431D01*
X012507Y011439D01*
X012438Y011451D01*
X012369Y011466D01*
X012301Y011486D01*
X012235Y011509D01*
X012170Y011536D01*
X012106Y011567D01*
X012044Y011601D01*
X011985Y011639D01*
X011927Y011680D01*
X011872Y011724D01*
X011819Y011771D01*
X011770Y011821D01*
X011723Y011873D01*
X011679Y011929D01*
X011638Y011986D01*
X011600Y012046D01*
X011566Y012108D01*
X011536Y012171D01*
X011509Y012236D01*
X011485Y012303D01*
X011466Y012371D01*
X011450Y012440D01*
X011438Y012509D01*
X011430Y012579D01*
X011426Y012650D01*
X011426Y012720D01*
X011430Y012791D01*
X011438Y012861D01*
X011450Y012930D01*
X011466Y012999D01*
X011485Y013067D01*
X011509Y013134D01*
X011536Y013199D01*
X011566Y013262D01*
X011600Y013324D01*
X011638Y013384D01*
X011679Y013441D01*
X011723Y013497D01*
X011770Y013549D01*
X011819Y013599D01*
X011872Y013646D01*
X011927Y013690D01*
X011985Y013731D01*
X012044Y013769D01*
X012106Y013803D01*
X012170Y013834D01*
X012235Y013861D01*
X012301Y013884D01*
X012369Y013904D01*
X012438Y013919D01*
X012507Y013931D01*
X012577Y013939D01*
X012648Y013943D01*
X012718Y013944D01*
X012789Y013940D01*
X012859Y013932D01*
X012929Y013920D01*
X012997Y013905D01*
X013065Y013885D01*
X013132Y013862D01*
X013197Y013835D01*
X013261Y013805D01*
X013323Y013771D01*
X013382Y013733D01*
X013440Y013693D01*
X013495Y013649D01*
X013548Y013602D01*
X013598Y013552D01*
X013645Y013499D01*
X013689Y013444D01*
X013682Y013439D01*
X013638Y013494D01*
X013591Y013546D01*
X013542Y013595D01*
X013489Y013642D01*
X013435Y013685D01*
X013377Y013726D01*
X013318Y013763D01*
X013257Y013797D01*
X013193Y013827D01*
X013129Y013854D01*
X013062Y013877D01*
X012995Y013896D01*
X012927Y013911D01*
X012858Y013923D01*
X012788Y013931D01*
X012718Y013935D01*
X012648Y013934D01*
X012578Y013930D01*
X012509Y013922D01*
X012440Y013911D01*
X012371Y013895D01*
X012304Y013876D01*
X012238Y013852D01*
X012173Y013825D01*
X012110Y013795D01*
X012049Y013761D01*
X011990Y013724D01*
X011932Y013683D01*
X011878Y013639D01*
X011826Y013593D01*
X011776Y013543D01*
X011729Y013491D01*
X011686Y013436D01*
X011645Y013379D01*
X011608Y013320D01*
X011574Y013258D01*
X011544Y013195D01*
X011517Y013130D01*
X011494Y013064D01*
X011475Y012997D01*
X011459Y012929D01*
X011447Y012860D01*
X011439Y012790D01*
X011435Y012720D01*
X011435Y012650D01*
X011439Y012580D01*
X011447Y012510D01*
X011459Y012441D01*
X011475Y012373D01*
X011494Y012306D01*
X011517Y012240D01*
X011544Y012175D01*
X011574Y012112D01*
X011608Y012050D01*
X011645Y011991D01*
X011686Y011934D01*
X011729Y011879D01*
X011776Y011827D01*
X011826Y011777D01*
X011878Y011731D01*
X011932Y011687D01*
X011990Y011646D01*
X012049Y011609D01*
X012110Y011575D01*
X012173Y011545D01*
X012238Y011518D01*
X012304Y011494D01*
X012371Y011475D01*
X012440Y011459D01*
X012509Y011448D01*
X012578Y011440D01*
X012648Y011436D01*
X012718Y011435D01*
X012788Y011439D01*
X012858Y011447D01*
X012927Y011459D01*
X012995Y011474D01*
X013062Y011493D01*
X013129Y011516D01*
X013193Y011543D01*
X013257Y011573D01*
X013318Y011607D01*
X013377Y011644D01*
X013435Y011685D01*
X013489Y011728D01*
X013542Y011775D01*
X013591Y011824D01*
X013638Y011876D01*
X013682Y011931D01*
X013675Y011936D01*
X013631Y011882D01*
X013585Y011830D01*
X013536Y011781D01*
X013484Y011735D01*
X013429Y011692D01*
X013372Y011652D01*
X013313Y011615D01*
X013252Y011581D01*
X013190Y011551D01*
X013125Y011525D01*
X013060Y011502D01*
X012993Y011483D01*
X012925Y011467D01*
X012856Y011456D01*
X012787Y011448D01*
X012718Y011444D01*
X012648Y011445D01*
X012579Y011449D01*
X012510Y011456D01*
X012441Y011468D01*
X012374Y011484D01*
X012307Y011503D01*
X012241Y011526D01*
X012177Y011553D01*
X012114Y011583D01*
X012053Y011617D01*
X011995Y011654D01*
X011938Y011694D01*
X011884Y011737D01*
X011832Y011784D01*
X011783Y011833D01*
X011736Y011885D01*
X011693Y011939D01*
X011653Y011996D01*
X011616Y012055D01*
X011582Y012116D01*
X011552Y012179D01*
X011525Y012243D01*
X011502Y012308D01*
X011483Y012375D01*
X011468Y012443D01*
X011456Y012512D01*
X011448Y012581D01*
X011444Y012650D01*
X011444Y012720D01*
X011448Y012789D01*
X011456Y012858D01*
X011468Y012927D01*
X011483Y012995D01*
X011502Y013062D01*
X011525Y013127D01*
X011552Y013191D01*
X011582Y013254D01*
X011616Y013315D01*
X011653Y013374D01*
X011693Y013431D01*
X011736Y013485D01*
X011783Y013537D01*
X011832Y013586D01*
X011884Y013633D01*
X011938Y013676D01*
X011995Y013716D01*
X012053Y013753D01*
X012114Y013787D01*
X012177Y013817D01*
X012241Y013844D01*
X012307Y013867D01*
X012374Y013886D01*
X012441Y013902D01*
X012510Y013914D01*
X012579Y013921D01*
X012648Y013925D01*
X012718Y013926D01*
X012787Y013922D01*
X012856Y013914D01*
X012925Y013903D01*
X012993Y013887D01*
X013060Y013868D01*
X013125Y013845D01*
X013190Y013819D01*
X013252Y013789D01*
X013313Y013755D01*
X013372Y013718D01*
X013429Y013678D01*
X013484Y013635D01*
X013536Y013589D01*
X013585Y013540D01*
X013631Y013488D01*
X013675Y013434D01*
X013668Y013428D01*
X013624Y013482D01*
X013578Y013533D01*
X013529Y013582D01*
X013478Y013628D01*
X013424Y013671D01*
X013367Y013711D01*
X013309Y013747D01*
X013248Y013781D01*
X013186Y013811D01*
X013122Y013837D01*
X013057Y013859D01*
X012991Y013878D01*
X012923Y013894D01*
X012855Y013905D01*
X012787Y013913D01*
X012718Y013917D01*
X012649Y013916D01*
X012580Y013912D01*
X012511Y013905D01*
X012443Y013893D01*
X012376Y013878D01*
X012309Y013858D01*
X012244Y013835D01*
X012181Y013809D01*
X012118Y013779D01*
X012058Y013746D01*
X012000Y013709D01*
X011943Y013669D01*
X011889Y013626D01*
X011838Y013580D01*
X011789Y013531D01*
X011743Y013479D01*
X011700Y013425D01*
X011660Y013369D01*
X011624Y013310D01*
X011590Y013250D01*
X011560Y013188D01*
X011534Y013124D01*
X011511Y013059D01*
X011492Y012992D01*
X011477Y012925D01*
X011465Y012857D01*
X011457Y012788D01*
X011453Y012720D01*
X011453Y012650D01*
X011457Y012582D01*
X011465Y012513D01*
X011477Y012445D01*
X011492Y012378D01*
X011511Y012311D01*
X011534Y012246D01*
X011560Y012182D01*
X011590Y012120D01*
X011624Y012060D01*
X011660Y012001D01*
X011700Y011945D01*
X011743Y011891D01*
X011789Y011839D01*
X011838Y011790D01*
X011889Y011744D01*
X011943Y011701D01*
X012000Y011661D01*
X012058Y011624D01*
X012118Y011591D01*
X012181Y011561D01*
X012244Y011535D01*
X012309Y011512D01*
X012376Y011492D01*
X012443Y011477D01*
X012511Y011465D01*
X012580Y011458D01*
X012649Y011454D01*
X012718Y011453D01*
X012787Y011457D01*
X012855Y011465D01*
X012923Y011476D01*
X012991Y011492D01*
X013057Y011511D01*
X013122Y011533D01*
X013186Y011559D01*
X013248Y011589D01*
X013309Y011623D01*
X013367Y011659D01*
X013424Y011699D01*
X013478Y011742D01*
X013529Y011788D01*
X013578Y011837D01*
X013624Y011888D01*
X013668Y011942D01*
X013660Y011947D01*
X013617Y011893D01*
X013571Y011842D01*
X013521Y011793D01*
X013470Y011747D01*
X013415Y011704D01*
X013358Y011664D01*
X013300Y011628D01*
X013239Y011594D01*
X013176Y011565D01*
X013112Y011539D01*
X013046Y011517D01*
X012979Y011498D01*
X012912Y011483D01*
X012843Y011472D01*
X012774Y011465D01*
X012705Y011462D01*
X012636Y011463D01*
X012566Y011468D01*
X012498Y011476D01*
X012430Y011489D01*
X012362Y011505D01*
X012296Y011526D01*
X012231Y011549D01*
X012167Y011577D01*
X012105Y011608D01*
X012045Y011643D01*
X011987Y011681D01*
X011931Y011722D01*
X011878Y011766D01*
X011827Y011813D01*
X011779Y011863D01*
X011734Y011916D01*
X011692Y011971D01*
X011653Y012028D01*
X011618Y012088D01*
X011586Y012149D01*
X011557Y012212D01*
X011532Y012277D01*
X011511Y012343D01*
X011493Y012410D01*
X011480Y012478D01*
X011470Y012547D01*
X011464Y012616D01*
X011462Y012685D01*
X011464Y012754D01*
X011470Y012823D01*
X011480Y012892D01*
X011493Y012960D01*
X011511Y013027D01*
X011532Y013093D01*
X011557Y013158D01*
X011586Y013221D01*
X011618Y013282D01*
X011653Y013342D01*
X011692Y013399D01*
X011734Y013454D01*
X011779Y013507D01*
X011827Y013557D01*
X011878Y013604D01*
X011931Y013648D01*
X011987Y013689D01*
X012045Y013727D01*
X012105Y013762D01*
X012167Y013793D01*
X012231Y013821D01*
X012296Y013844D01*
X012362Y013865D01*
X012430Y013881D01*
X012498Y013894D01*
X012566Y013902D01*
X012636Y013907D01*
X012705Y013908D01*
X012774Y013905D01*
X012843Y013898D01*
X012912Y013887D01*
X012979Y013872D01*
X013046Y013853D01*
X013112Y013831D01*
X013176Y013805D01*
X013239Y013776D01*
X013300Y013742D01*
X013358Y013706D01*
X013415Y013666D01*
X013470Y013623D01*
X013521Y013577D01*
X013571Y013528D01*
X013617Y013477D01*
X013660Y013423D01*
X013653Y013417D01*
X013610Y013471D01*
X013564Y013522D01*
X013515Y013571D01*
X013464Y013616D01*
X013410Y013659D01*
X013353Y013698D01*
X013295Y013735D01*
X013235Y013768D01*
X013172Y013797D01*
X013109Y013823D01*
X013043Y013845D01*
X012977Y013863D01*
X012910Y013878D01*
X012842Y013889D01*
X012773Y013896D01*
X012705Y013899D01*
X012636Y013898D01*
X012567Y013893D01*
X012499Y013885D01*
X012431Y013872D01*
X012365Y013856D01*
X012299Y013836D01*
X012234Y013812D01*
X012171Y013785D01*
X012110Y013754D01*
X012050Y013720D01*
X011992Y013682D01*
X011937Y013641D01*
X011884Y013597D01*
X011834Y013550D01*
X011786Y013501D01*
X011741Y013449D01*
X011699Y013394D01*
X011661Y013337D01*
X011626Y013278D01*
X011594Y013217D01*
X011565Y013154D01*
X011541Y013090D01*
X011519Y013024D01*
X011502Y012958D01*
X011489Y012890D01*
X011479Y012822D01*
X011473Y012754D01*
X011471Y012685D01*
X011473Y012616D01*
X011479Y012548D01*
X011489Y012480D01*
X011502Y012412D01*
X011519Y012346D01*
X011541Y012280D01*
X011565Y012216D01*
X011594Y012153D01*
X011626Y012092D01*
X011661Y012033D01*
X011699Y011976D01*
X011741Y011921D01*
X011786Y011869D01*
X011834Y011820D01*
X011884Y011773D01*
X011937Y011729D01*
X011992Y011688D01*
X012050Y011650D01*
X012110Y011616D01*
X012171Y011585D01*
X012234Y011558D01*
X012299Y011534D01*
X012365Y011514D01*
X012431Y011498D01*
X012499Y011485D01*
X012567Y011477D01*
X012636Y011472D01*
X012705Y011471D01*
X012773Y011474D01*
X012842Y011481D01*
X012910Y011492D01*
X012977Y011507D01*
X013043Y011525D01*
X013109Y011547D01*
X013172Y011573D01*
X013235Y011602D01*
X013295Y011635D01*
X013353Y011672D01*
X013410Y011711D01*
X013464Y011754D01*
X013515Y011799D01*
X013564Y011848D01*
X013610Y011899D01*
X013653Y011953D01*
X013717Y010465D02*
X013645Y010411D01*
X013646Y010412D02*
X013603Y010465D01*
X013558Y010516D01*
X013509Y010564D01*
X013458Y010609D01*
X013404Y010652D01*
X013348Y010691D01*
X013290Y010727D01*
X013230Y010760D01*
X013169Y010789D01*
X013105Y010814D01*
X013041Y010836D01*
X012975Y010855D01*
X012908Y010869D01*
X012841Y010880D01*
X012773Y010887D01*
X012705Y010890D01*
X012636Y010889D01*
X012568Y010884D01*
X012500Y010876D01*
X012433Y010863D01*
X012367Y010847D01*
X012302Y010827D01*
X012237Y010804D01*
X012175Y010777D01*
X012114Y010746D01*
X012055Y010712D01*
X011997Y010675D01*
X011942Y010634D01*
X011890Y010590D01*
X011840Y010544D01*
X011793Y010495D01*
X011748Y010443D01*
X011707Y010389D01*
X011668Y010332D01*
X011633Y010273D01*
X011602Y010213D01*
X011574Y010151D01*
X011549Y010087D01*
X011528Y010022D01*
X011511Y009956D01*
X011497Y009889D01*
X011488Y009821D01*
X011482Y009753D01*
X011480Y009685D01*
X011482Y009617D01*
X011488Y009549D01*
X011497Y009481D01*
X011511Y009414D01*
X011528Y009348D01*
X011549Y009283D01*
X011574Y009219D01*
X011602Y009157D01*
X011633Y009097D01*
X011668Y009038D01*
X011707Y008981D01*
X011748Y008927D01*
X011793Y008875D01*
X011840Y008826D01*
X011890Y008780D01*
X011942Y008736D01*
X011997Y008695D01*
X012055Y008658D01*
X012114Y008624D01*
X012175Y008593D01*
X012237Y008566D01*
X012302Y008543D01*
X012367Y008523D01*
X012433Y008507D01*
X012500Y008494D01*
X012568Y008486D01*
X012636Y008481D01*
X012705Y008480D01*
X012773Y008483D01*
X012841Y008490D01*
X012908Y008501D01*
X012975Y008515D01*
X013041Y008534D01*
X013105Y008556D01*
X013169Y008581D01*
X013230Y008610D01*
X013290Y008643D01*
X013348Y008679D01*
X013404Y008718D01*
X013458Y008761D01*
X013509Y008806D01*
X013558Y008854D01*
X013603Y008905D01*
X013646Y008958D01*
X013717Y008905D01*
X013718Y008904D01*
X013674Y008849D01*
X013626Y008796D01*
X013576Y008745D01*
X013523Y008698D01*
X013468Y008654D01*
X013410Y008612D01*
X013350Y008574D01*
X013289Y008539D01*
X013225Y008508D01*
X013160Y008480D01*
X013093Y008456D01*
X013025Y008435D01*
X012956Y008419D01*
X012886Y008406D01*
X012816Y008397D01*
X012745Y008391D01*
X012674Y008390D01*
X012603Y008393D01*
X012532Y008399D01*
X012462Y008409D01*
X012393Y008423D01*
X012324Y008441D01*
X012256Y008463D01*
X012190Y008488D01*
X012125Y008517D01*
X012062Y008550D01*
X012001Y008586D01*
X011942Y008625D01*
X011885Y008667D01*
X011830Y008712D01*
X011778Y008761D01*
X011729Y008812D01*
X011682Y008865D01*
X011639Y008922D01*
X011599Y008980D01*
X011562Y009041D01*
X011528Y009103D01*
X011498Y009167D01*
X011471Y009233D01*
X011448Y009300D01*
X011429Y009369D01*
X011414Y009438D01*
X011402Y009508D01*
X011394Y009579D01*
X011390Y009650D01*
X011390Y009720D01*
X011394Y009791D01*
X011402Y009862D01*
X011414Y009932D01*
X011429Y010001D01*
X011448Y010070D01*
X011471Y010137D01*
X011498Y010203D01*
X011528Y010267D01*
X011562Y010329D01*
X011599Y010390D01*
X011639Y010448D01*
X011682Y010505D01*
X011729Y010558D01*
X011778Y010609D01*
X011830Y010658D01*
X011885Y010703D01*
X011942Y010745D01*
X012001Y010784D01*
X012062Y010820D01*
X012125Y010853D01*
X012190Y010882D01*
X012256Y010907D01*
X012324Y010929D01*
X012393Y010947D01*
X012462Y010961D01*
X012532Y010971D01*
X012603Y010977D01*
X012674Y010980D01*
X012745Y010979D01*
X012816Y010973D01*
X012886Y010964D01*
X012956Y010951D01*
X013025Y010935D01*
X013093Y010914D01*
X013160Y010890D01*
X013225Y010862D01*
X013289Y010831D01*
X013350Y010796D01*
X013410Y010758D01*
X013468Y010716D01*
X013523Y010672D01*
X013576Y010625D01*
X013626Y010574D01*
X013674Y010521D01*
X013718Y010466D01*
X013711Y010461D01*
X013666Y010516D01*
X013619Y010569D01*
X013568Y010620D01*
X013515Y010667D01*
X013459Y010712D01*
X013401Y010753D01*
X013341Y010791D01*
X013279Y010826D01*
X013215Y010857D01*
X013149Y010884D01*
X013082Y010908D01*
X013013Y010928D01*
X012944Y010945D01*
X012874Y010957D01*
X012803Y010966D01*
X012732Y010970D01*
X012661Y010971D01*
X012590Y010967D01*
X012519Y010960D01*
X012448Y010949D01*
X012379Y010934D01*
X012310Y010915D01*
X012242Y010892D01*
X012176Y010866D01*
X012111Y010836D01*
X012049Y010802D01*
X011988Y010766D01*
X011929Y010725D01*
X011872Y010682D01*
X011818Y010635D01*
X011767Y010586D01*
X011719Y010533D01*
X011673Y010479D01*
X011631Y010421D01*
X011592Y010362D01*
X011556Y010300D01*
X011523Y010237D01*
X011495Y010172D01*
X011469Y010105D01*
X011448Y010037D01*
X011430Y009968D01*
X011417Y009898D01*
X011407Y009827D01*
X011401Y009756D01*
X011399Y009685D01*
X011401Y009614D01*
X011407Y009543D01*
X011417Y009472D01*
X011430Y009402D01*
X011448Y009333D01*
X011469Y009265D01*
X011495Y009198D01*
X011523Y009133D01*
X011556Y009070D01*
X011592Y009008D01*
X011631Y008949D01*
X011673Y008891D01*
X011719Y008837D01*
X011767Y008784D01*
X011818Y008735D01*
X011872Y008688D01*
X011929Y008645D01*
X011988Y008604D01*
X012049Y008568D01*
X012111Y008534D01*
X012176Y008504D01*
X012242Y008478D01*
X012310Y008455D01*
X012379Y008436D01*
X012448Y008421D01*
X012519Y008410D01*
X012590Y008403D01*
X012661Y008399D01*
X012732Y008400D01*
X012803Y008404D01*
X012874Y008413D01*
X012944Y008425D01*
X013013Y008442D01*
X013082Y008462D01*
X013149Y008486D01*
X013215Y008513D01*
X013279Y008544D01*
X013341Y008579D01*
X013401Y008617D01*
X013459Y008658D01*
X013515Y008703D01*
X013568Y008750D01*
X013619Y008801D01*
X013666Y008854D01*
X013711Y008909D01*
X013704Y008915D01*
X013659Y008860D01*
X013612Y008807D01*
X013562Y008757D01*
X013509Y008710D01*
X013454Y008666D01*
X013396Y008624D01*
X013337Y008587D01*
X013275Y008552D01*
X013211Y008521D01*
X013146Y008494D01*
X013079Y008470D01*
X013011Y008450D01*
X012942Y008434D01*
X012873Y008422D01*
X012802Y008413D01*
X012732Y008409D01*
X012661Y008408D01*
X012590Y008412D01*
X012520Y008419D01*
X012450Y008430D01*
X012381Y008445D01*
X012313Y008464D01*
X012245Y008486D01*
X012180Y008512D01*
X012115Y008542D01*
X012053Y008575D01*
X011993Y008612D01*
X011934Y008652D01*
X011878Y008695D01*
X011824Y008741D01*
X011774Y008791D01*
X011725Y008842D01*
X011680Y008897D01*
X011638Y008954D01*
X011599Y009013D01*
X011564Y009074D01*
X011531Y009137D01*
X011503Y009202D01*
X011478Y009268D01*
X011457Y009336D01*
X011439Y009404D01*
X011426Y009474D01*
X011416Y009544D01*
X011410Y009614D01*
X011408Y009685D01*
X011410Y009756D01*
X011416Y009826D01*
X011426Y009896D01*
X011439Y009966D01*
X011457Y010034D01*
X011478Y010102D01*
X011503Y010168D01*
X011531Y010233D01*
X011564Y010296D01*
X011599Y010357D01*
X011638Y010416D01*
X011680Y010473D01*
X011725Y010528D01*
X011774Y010579D01*
X011824Y010629D01*
X011878Y010675D01*
X011934Y010718D01*
X011993Y010758D01*
X012053Y010795D01*
X012115Y010828D01*
X012180Y010858D01*
X012245Y010884D01*
X012313Y010906D01*
X012381Y010925D01*
X012450Y010940D01*
X012520Y010951D01*
X012590Y010958D01*
X012661Y010962D01*
X012732Y010961D01*
X012802Y010957D01*
X012873Y010948D01*
X012942Y010936D01*
X013011Y010920D01*
X013079Y010900D01*
X013146Y010876D01*
X013211Y010849D01*
X013275Y010818D01*
X013337Y010783D01*
X013396Y010746D01*
X013454Y010704D01*
X013509Y010660D01*
X013562Y010613D01*
X013612Y010563D01*
X013659Y010510D01*
X013704Y010455D01*
X013696Y010450D01*
X013652Y010505D01*
X013604Y010558D01*
X013554Y010608D01*
X013501Y010656D01*
X013445Y010700D01*
X013387Y010741D01*
X013327Y010778D01*
X013265Y010813D01*
X013201Y010843D01*
X013135Y010870D01*
X013068Y010894D01*
X013000Y010913D01*
X012930Y010929D01*
X012860Y010941D01*
X012790Y010949D01*
X012719Y010953D01*
X012648Y010952D01*
X012577Y010948D01*
X012506Y010940D01*
X012436Y010928D01*
X012367Y010912D01*
X012299Y010893D01*
X012231Y010869D01*
X012166Y010842D01*
X012102Y010811D01*
X012040Y010777D01*
X011980Y010739D01*
X011922Y010697D01*
X011866Y010653D01*
X011813Y010606D01*
X011763Y010555D01*
X011716Y010502D01*
X011671Y010447D01*
X011630Y010389D01*
X011593Y010329D01*
X011558Y010266D01*
X011527Y010202D01*
X011500Y010137D01*
X011477Y010070D01*
X011457Y010001D01*
X011441Y009932D01*
X011429Y009862D01*
X011421Y009791D01*
X011417Y009721D01*
X011417Y009649D01*
X011421Y009579D01*
X011429Y009508D01*
X011441Y009438D01*
X011457Y009369D01*
X011477Y009300D01*
X011500Y009233D01*
X011527Y009168D01*
X011558Y009104D01*
X011593Y009041D01*
X011630Y008981D01*
X011671Y008923D01*
X011716Y008868D01*
X011763Y008815D01*
X011813Y008764D01*
X011866Y008717D01*
X011922Y008673D01*
X011980Y008631D01*
X012040Y008593D01*
X012102Y008559D01*
X012166Y008528D01*
X012231Y008501D01*
X012299Y008477D01*
X012367Y008458D01*
X012436Y008442D01*
X012506Y008430D01*
X012577Y008422D01*
X012648Y008418D01*
X012719Y008417D01*
X012790Y008421D01*
X012860Y008429D01*
X012930Y008441D01*
X013000Y008457D01*
X013068Y008476D01*
X013135Y008500D01*
X013201Y008527D01*
X013265Y008557D01*
X013327Y008592D01*
X013387Y008629D01*
X013445Y008670D01*
X013501Y008714D01*
X013554Y008762D01*
X013604Y008812D01*
X013652Y008865D01*
X013696Y008920D01*
X013689Y008926D01*
X013645Y008871D01*
X013598Y008818D01*
X013548Y008768D01*
X013495Y008721D01*
X013440Y008677D01*
X013382Y008637D01*
X013323Y008599D01*
X013261Y008565D01*
X013197Y008535D01*
X013132Y008508D01*
X013065Y008485D01*
X012997Y008465D01*
X012929Y008450D01*
X012859Y008438D01*
X012789Y008430D01*
X012718Y008426D01*
X012648Y008427D01*
X012577Y008431D01*
X012507Y008439D01*
X012438Y008451D01*
X012369Y008466D01*
X012301Y008486D01*
X012235Y008509D01*
X012170Y008536D01*
X012106Y008567D01*
X012044Y008601D01*
X011985Y008639D01*
X011927Y008680D01*
X011872Y008724D01*
X011819Y008771D01*
X011770Y008821D01*
X011723Y008873D01*
X011679Y008929D01*
X011638Y008986D01*
X011600Y009046D01*
X011566Y009108D01*
X011536Y009171D01*
X011509Y009236D01*
X011485Y009303D01*
X011466Y009371D01*
X011450Y009440D01*
X011438Y009509D01*
X011430Y009579D01*
X011426Y009650D01*
X011426Y009720D01*
X011430Y009791D01*
X011438Y009861D01*
X011450Y009930D01*
X011466Y009999D01*
X011485Y010067D01*
X011509Y010134D01*
X011536Y010199D01*
X011566Y010262D01*
X011600Y010324D01*
X011638Y010384D01*
X011679Y010441D01*
X011723Y010497D01*
X011770Y010549D01*
X011819Y010599D01*
X011872Y010646D01*
X011927Y010690D01*
X011985Y010731D01*
X012044Y010769D01*
X012106Y010803D01*
X012170Y010834D01*
X012235Y010861D01*
X012301Y010884D01*
X012369Y010904D01*
X012438Y010919D01*
X012507Y010931D01*
X012577Y010939D01*
X012648Y010943D01*
X012718Y010944D01*
X012789Y010940D01*
X012859Y010932D01*
X012929Y010920D01*
X012997Y010905D01*
X013065Y010885D01*
X013132Y010862D01*
X013197Y010835D01*
X013261Y010805D01*
X013323Y010771D01*
X013382Y010733D01*
X013440Y010693D01*
X013495Y010649D01*
X013548Y010602D01*
X013598Y010552D01*
X013645Y010499D01*
X013689Y010444D01*
X013682Y010439D01*
X013638Y010494D01*
X013591Y010546D01*
X013542Y010595D01*
X013489Y010642D01*
X013435Y010685D01*
X013377Y010726D01*
X013318Y010763D01*
X013257Y010797D01*
X013193Y010827D01*
X013129Y010854D01*
X013062Y010877D01*
X012995Y010896D01*
X012927Y010911D01*
X012858Y010923D01*
X012788Y010931D01*
X012718Y010935D01*
X012648Y010934D01*
X012578Y010930D01*
X012509Y010922D01*
X012440Y010911D01*
X012371Y010895D01*
X012304Y010876D01*
X012238Y010852D01*
X012173Y010825D01*
X012110Y010795D01*
X012049Y010761D01*
X011990Y010724D01*
X011932Y010683D01*
X011878Y010639D01*
X011826Y010593D01*
X011776Y010543D01*
X011729Y010491D01*
X011686Y010436D01*
X011645Y010379D01*
X011608Y010320D01*
X011574Y010258D01*
X011544Y010195D01*
X011517Y010130D01*
X011494Y010064D01*
X011475Y009997D01*
X011459Y009929D01*
X011447Y009860D01*
X011439Y009790D01*
X011435Y009720D01*
X011435Y009650D01*
X011439Y009580D01*
X011447Y009510D01*
X011459Y009441D01*
X011475Y009373D01*
X011494Y009306D01*
X011517Y009240D01*
X011544Y009175D01*
X011574Y009112D01*
X011608Y009050D01*
X011645Y008991D01*
X011686Y008934D01*
X011729Y008879D01*
X011776Y008827D01*
X011826Y008777D01*
X011878Y008731D01*
X011932Y008687D01*
X011990Y008646D01*
X012049Y008609D01*
X012110Y008575D01*
X012173Y008545D01*
X012238Y008518D01*
X012304Y008494D01*
X012371Y008475D01*
X012440Y008459D01*
X012509Y008448D01*
X012578Y008440D01*
X012648Y008436D01*
X012718Y008435D01*
X012788Y008439D01*
X012858Y008447D01*
X012927Y008459D01*
X012995Y008474D01*
X013062Y008493D01*
X013129Y008516D01*
X013193Y008543D01*
X013257Y008573D01*
X013318Y008607D01*
X013377Y008644D01*
X013435Y008685D01*
X013489Y008728D01*
X013542Y008775D01*
X013591Y008824D01*
X013638Y008876D01*
X013682Y008931D01*
X013675Y008936D01*
X013631Y008882D01*
X013585Y008830D01*
X013536Y008781D01*
X013484Y008735D01*
X013429Y008692D01*
X013372Y008652D01*
X013313Y008615D01*
X013252Y008581D01*
X013190Y008551D01*
X013125Y008525D01*
X013060Y008502D01*
X012993Y008483D01*
X012925Y008467D01*
X012856Y008456D01*
X012787Y008448D01*
X012718Y008444D01*
X012648Y008445D01*
X012579Y008449D01*
X012510Y008456D01*
X012441Y008468D01*
X012374Y008484D01*
X012307Y008503D01*
X012241Y008526D01*
X012177Y008553D01*
X012114Y008583D01*
X012053Y008617D01*
X011995Y008654D01*
X011938Y008694D01*
X011884Y008737D01*
X011832Y008784D01*
X011783Y008833D01*
X011736Y008885D01*
X011693Y008939D01*
X011653Y008996D01*
X011616Y009055D01*
X011582Y009116D01*
X011552Y009179D01*
X011525Y009243D01*
X011502Y009308D01*
X011483Y009375D01*
X011468Y009443D01*
X011456Y009512D01*
X011448Y009581D01*
X011444Y009650D01*
X011444Y009720D01*
X011448Y009789D01*
X011456Y009858D01*
X011468Y009927D01*
X011483Y009995D01*
X011502Y010062D01*
X011525Y010127D01*
X011552Y010191D01*
X011582Y010254D01*
X011616Y010315D01*
X011653Y010374D01*
X011693Y010431D01*
X011736Y010485D01*
X011783Y010537D01*
X011832Y010586D01*
X011884Y010633D01*
X011938Y010676D01*
X011995Y010716D01*
X012053Y010753D01*
X012114Y010787D01*
X012177Y010817D01*
X012241Y010844D01*
X012307Y010867D01*
X012374Y010886D01*
X012441Y010902D01*
X012510Y010914D01*
X012579Y010921D01*
X012648Y010925D01*
X012718Y010926D01*
X012787Y010922D01*
X012856Y010914D01*
X012925Y010903D01*
X012993Y010887D01*
X013060Y010868D01*
X013125Y010845D01*
X013190Y010819D01*
X013252Y010789D01*
X013313Y010755D01*
X013372Y010718D01*
X013429Y010678D01*
X013484Y010635D01*
X013536Y010589D01*
X013585Y010540D01*
X013631Y010488D01*
X013675Y010434D01*
X013668Y010428D01*
X013624Y010482D01*
X013578Y010533D01*
X013529Y010582D01*
X013478Y010628D01*
X013424Y010671D01*
X013367Y010711D01*
X013309Y010747D01*
X013248Y010781D01*
X013186Y010811D01*
X013122Y010837D01*
X013057Y010859D01*
X012991Y010878D01*
X012923Y010894D01*
X012855Y010905D01*
X012787Y010913D01*
X012718Y010917D01*
X012649Y010916D01*
X012580Y010912D01*
X012511Y010905D01*
X012443Y010893D01*
X012376Y010878D01*
X012309Y010858D01*
X012244Y010835D01*
X012181Y010809D01*
X012118Y010779D01*
X012058Y010746D01*
X012000Y010709D01*
X011943Y010669D01*
X011889Y010626D01*
X011838Y010580D01*
X011789Y010531D01*
X011743Y010479D01*
X011700Y010425D01*
X011660Y010369D01*
X011624Y010310D01*
X011590Y010250D01*
X011560Y010188D01*
X011534Y010124D01*
X011511Y010059D01*
X011492Y009992D01*
X011477Y009925D01*
X011465Y009857D01*
X011457Y009788D01*
X011453Y009720D01*
X011453Y009650D01*
X011457Y009582D01*
X011465Y009513D01*
X011477Y009445D01*
X011492Y009378D01*
X011511Y009311D01*
X011534Y009246D01*
X011560Y009182D01*
X011590Y009120D01*
X011624Y009060D01*
X011660Y009001D01*
X011700Y008945D01*
X011743Y008891D01*
X011789Y008839D01*
X011838Y008790D01*
X011889Y008744D01*
X011943Y008701D01*
X012000Y008661D01*
X012058Y008624D01*
X012118Y008591D01*
X012181Y008561D01*
X012244Y008535D01*
X012309Y008512D01*
X012376Y008492D01*
X012443Y008477D01*
X012511Y008465D01*
X012580Y008458D01*
X012649Y008454D01*
X012718Y008453D01*
X012787Y008457D01*
X012855Y008465D01*
X012923Y008476D01*
X012991Y008492D01*
X013057Y008511D01*
X013122Y008533D01*
X013186Y008559D01*
X013248Y008589D01*
X013309Y008623D01*
X013367Y008659D01*
X013424Y008699D01*
X013478Y008742D01*
X013529Y008788D01*
X013578Y008837D01*
X013624Y008888D01*
X013668Y008942D01*
X013660Y008947D01*
X013617Y008893D01*
X013571Y008842D01*
X013521Y008793D01*
X013470Y008747D01*
X013415Y008704D01*
X013358Y008664D01*
X013300Y008628D01*
X013239Y008594D01*
X013176Y008565D01*
X013112Y008539D01*
X013046Y008517D01*
X012979Y008498D01*
X012912Y008483D01*
X012843Y008472D01*
X012774Y008465D01*
X012705Y008462D01*
X012636Y008463D01*
X012566Y008468D01*
X012498Y008476D01*
X012430Y008489D01*
X012362Y008505D01*
X012296Y008526D01*
X012231Y008549D01*
X012167Y008577D01*
X012105Y008608D01*
X012045Y008643D01*
X011987Y008681D01*
X011931Y008722D01*
X011878Y008766D01*
X011827Y008813D01*
X011779Y008863D01*
X011734Y008916D01*
X011692Y008971D01*
X011653Y009028D01*
X011618Y009088D01*
X011586Y009149D01*
X011557Y009212D01*
X011532Y009277D01*
X011511Y009343D01*
X011493Y009410D01*
X011480Y009478D01*
X011470Y009547D01*
X011464Y009616D01*
X011462Y009685D01*
X011464Y009754D01*
X011470Y009823D01*
X011480Y009892D01*
X011493Y009960D01*
X011511Y010027D01*
X011532Y010093D01*
X011557Y010158D01*
X011586Y010221D01*
X011618Y010282D01*
X011653Y010342D01*
X011692Y010399D01*
X011734Y010454D01*
X011779Y010507D01*
X011827Y010557D01*
X011878Y010604D01*
X011931Y010648D01*
X011987Y010689D01*
X012045Y010727D01*
X012105Y010762D01*
X012167Y010793D01*
X012231Y010821D01*
X012296Y010844D01*
X012362Y010865D01*
X012430Y010881D01*
X012498Y010894D01*
X012566Y010902D01*
X012636Y010907D01*
X012705Y010908D01*
X012774Y010905D01*
X012843Y010898D01*
X012912Y010887D01*
X012979Y010872D01*
X013046Y010853D01*
X013112Y010831D01*
X013176Y010805D01*
X013239Y010776D01*
X013300Y010742D01*
X013358Y010706D01*
X013415Y010666D01*
X013470Y010623D01*
X013521Y010577D01*
X013571Y010528D01*
X013617Y010477D01*
X013660Y010423D01*
X013653Y010417D01*
X013610Y010471D01*
X013564Y010522D01*
X013515Y010571D01*
X013464Y010616D01*
X013410Y010659D01*
X013353Y010698D01*
X013295Y010735D01*
X013235Y010768D01*
X013172Y010797D01*
X013109Y010823D01*
X013043Y010845D01*
X012977Y010863D01*
X012910Y010878D01*
X012842Y010889D01*
X012773Y010896D01*
X012705Y010899D01*
X012636Y010898D01*
X012567Y010893D01*
X012499Y010885D01*
X012431Y010872D01*
X012365Y010856D01*
X012299Y010836D01*
X012234Y010812D01*
X012171Y010785D01*
X012110Y010754D01*
X012050Y010720D01*
X011992Y010682D01*
X011937Y010641D01*
X011884Y010597D01*
X011834Y010550D01*
X011786Y010501D01*
X011741Y010449D01*
X011699Y010394D01*
X011661Y010337D01*
X011626Y010278D01*
X011594Y010217D01*
X011565Y010154D01*
X011541Y010090D01*
X011519Y010024D01*
X011502Y009958D01*
X011489Y009890D01*
X011479Y009822D01*
X011473Y009754D01*
X011471Y009685D01*
X011473Y009616D01*
X011479Y009548D01*
X011489Y009480D01*
X011502Y009412D01*
X011519Y009346D01*
X011541Y009280D01*
X011565Y009216D01*
X011594Y009153D01*
X011626Y009092D01*
X011661Y009033D01*
X011699Y008976D01*
X011741Y008921D01*
X011786Y008869D01*
X011834Y008820D01*
X011884Y008773D01*
X011937Y008729D01*
X011992Y008688D01*
X012050Y008650D01*
X012110Y008616D01*
X012171Y008585D01*
X012234Y008558D01*
X012299Y008534D01*
X012365Y008514D01*
X012431Y008498D01*
X012499Y008485D01*
X012567Y008477D01*
X012636Y008472D01*
X012705Y008471D01*
X012773Y008474D01*
X012842Y008481D01*
X012910Y008492D01*
X012977Y008507D01*
X013043Y008525D01*
X013109Y008547D01*
X013172Y008573D01*
X013235Y008602D01*
X013295Y008635D01*
X013353Y008672D01*
X013410Y008711D01*
X013464Y008754D01*
X013515Y008799D01*
X013564Y008848D01*
X013610Y008899D01*
X013653Y008953D01*
M02*
