%
M48
M72
T01C0.0200
T02C0.0315
T03C0.0320
T04C0.0400
T05C0.1000
%
T01
X9385Y6185
X11285Y8085
X8185Y9685
X7485Y10285
X6385Y9685
X8585Y11885
X10385Y11685
X10385Y13185
X11785Y13685
X10385Y14185
X5285Y16285
X7185Y18285
X11685Y17585
X15585Y15185
X15185Y12285
X12585Y10785
T02
X11685Y7185
X13685Y7185
X13685Y5185
X11685Y5185
X9385Y4235
X7385Y4235
X5735Y5185
X3735Y5185
X3735Y7185
X5735Y7185
X3635Y8635
X1635Y8635
X1635Y10635
X3635Y10635
X2985Y12185
X985Y12185
X985Y14185
X2985Y14185
X1985Y15635
X3985Y15635
X3985Y17635
X1985Y17635
X4335Y19135
X6335Y19135
X6335Y21135
X8085Y21635
X10085Y21635
X11785Y22435
X13785Y22435
X15335Y21435
X17335Y21435
X18735Y21135
X20735Y21135
X20735Y19135
X18735Y19135
X21285Y17685
X23285Y17685
X23285Y15685
X21285Y15685
X22385Y14135
X24385Y14135
X24385Y12135
X22385Y12135
X21685Y10635
X23685Y10635
X23685Y8635
X21685Y8635
X21685Y7185
X19685Y7185
X19685Y5185
X21685Y5185
X17685Y4085
X15685Y4085
X13635Y2935
X11635Y2935
X9385Y2235
X7385Y2235
X11635Y935
X13635Y935
X15685Y2085
X17685Y2085
X13685Y18185
X11685Y18185
X11685Y20185
X13685Y20185
X15335Y23435
X13785Y24435
X11785Y24435
X10085Y23635
X8085Y23635
X4335Y21135
X17335Y23435
T03
X13185Y15685
X12185Y15685
X12185Y12685
X13185Y12685
X13185Y9685
X12185Y9685
X5335Y12035
X5335Y13935
T04
X5085Y3935
X6085Y3935
X15185Y5685
X15185Y6685
X18185Y9185
X20185Y9185
X20535Y12885
X18535Y12885
X17835Y16585
X19835Y16585
X10185Y18685
X9185Y18685
X8185Y18685
X8185Y19685
X9185Y19685
X10185Y19685
T05
X16685Y6885
X18185Y6885
X18185Y5485
X16685Y5485
M30
